<svg id="Camada_1" data-name="Camada 1" xmlns="http://www.w3.org/2000/svg" viewBox="0 0 200 200"><defs><style>.cls-3{fill:#201f21}</style></defs><path d="M60.36 75.45Q67 87 73.76 98.54a.78.78 0 0 1 0 .91q-6.63 11.39-13.22 22.8a1.19 1.19 0 0 1-1.21.71h-8.59c-.75 0-.76 0-.37-.67q6.63-11.4 13.2-22.77a.92.92 0 0 0 0-1.06q-4.65-8-9.26-16c-.1-.16-.21-.3-.32-.45.36-1 .72-2 1.06-3 .08-.23.18-.26.4-.18.65.25 1.29.49 1.94.72.88.32 1.33.12 1.67-.74.44-1.06.87-2.21 1.3-3.36zm-41.55 47.49c-1.77-3-3.55-6.07-5.31-9.11L5.16 99.47a.81.81 0 0 1 0-1q6.7-11.52 13.37-23a.78.78 0 0 1 .8-.44h9c.63 0 .62 0 .3.57L15.31 98.5a.81.81 0 0 0 0 1q3.6 6.17 7.18 12.37c.08.14.19.27.28.4z" fill="#ef5b55"/><path d="M18.81 122.94l4-10.71c1-2.74 2.07-5.47 3.08-8.22q5.81-15.6 11.6-31.2c.16-.43.08-.58-.32-.7s-1-.36-1.52-.56a1 1 0 0 1-.69-1.44q1-2.86 2.1-5.72c.27-.71.78-.91 1.55-.62l7.55 2.8 14.11 5.24c.93.35 1.13.8.8 1.74l-.66 1.9c-.43 1.15-.86 2.3-1.3 3.45-.34.86-.79 1.06-1.67.74-.65-.23-1.29-.47-1.94-.72-.22-.08-.32 0-.4.18-.34 1-.7 2-1.06 3-.9 2.39-1.8 4.77-2.69 7.17Q43.67 109.74 36 130.28a9.26 9.26 0 0 1-9.56 6 9.39 9.39 0 0 1-8.44-8.09 10.26 10.26 0 0 1 .81-5.25zm8.53 11.27a7.2 7.2 0 0 0 6.74-4.7c.9-2.41 1.79-4.83 2.69-7.24q8.08-21.81 16.23-43.6c.17-.46.12-.65-.37-.82-1.48-.51-3-1.07-4.41-1.63a1.06 1.06 0 0 1 .62-2 3.24 3.24 0 0 1 .52.19c2.54.94 5.08 1.87 7.61 2.83.33.12.47.09.59-.27.29-.89.63-1.75.95-2.63s.29-.79-.52-1.09q-9.41-3.49-18.83-7c-.39-.14-.53-.07-.66.32-.31 1-.65 1.91-1 2.84-.15.39-.16.58.3.69s.91.34 1.36.51c.94.35 1.13.78.78 1.73q-3 8-6 16.06l-13.35 36a7.21 7.21 0 0 0 6.75 9.81z" fill="#222123"/><path class="cls-3" d="M144.58 85a8.18 8.18 0 0 1 2.69 1.48 5.57 5.57 0 0 1-.89 8.4 9.42 9.42 0 0 1-5 1.4c-3.86.05-7.72 0-11.57 0-.34 0-.44-.07-.44-.43V75.02c0-.35.09-.44.44-.44h11.23a7.74 7.74 0 0 1 4.96 1.65 5.11 5.11 0 0 1-.23 8.09c-.38.25-.77.45-1.19.68zm-6.32 2.51h-2.52c-.34 0-.49 0-.48.45v3.08c0 .34.08.44.43.43h4.32a4.12 4.12 0 0 0 1.21-.18 1.8 1.8 0 0 0 1.52-1.92 1.83 1.83 0 0 0-1.63-1.72 15.73 15.73 0 0 0-2.85-.1zm-.73-4.25h.39a8.32 8.32 0 0 0 2.72-.23 1.64 1.64 0 0 0 1.2-1.58 1.76 1.76 0 0 0-1.8-1.88c-1.49-.17-3 0-4.48-.07-.33 0-.29.21-.29.41v3c0 .34.13.4.42.39.61-.01 1.22 0 1.84 0zm-4.12 29.03v-10.22c0-.44.07-.61.56-.6h8.82a12.43 12.43 0 0 1 6.93 2.12 9.9 9.9 0 0 1 4.28 9.11c-.18 5.28-3.64 9.15-9 10.14a19.44 19.44 0 0 1-3.57.33h-7.47c-.46 0-.55-.13-.55-.56.01-3.43 0-6.88 0-10.32zm6 0v5c0 .37.1.47.46.46h2.47a5.15 5.15 0 0 0 5.39-4.48c.47-3.29-1.17-5.74-4.31-6.34a28.68 28.68 0 0 0-3.47-.14c-.47 0-.55.15-.54.57.03 1.64.02 3.3.02 4.93zm-9.12.03a11.18 11.18 0 0 1-9.52 11.09 11.76 11.76 0 0 1-10.59-3.19 11.21 11.21 0 0 1 3-17.94 12.09 12.09 0 0 1 15 3.52 10.81 10.81 0 0 1 2.11 6.52zm-11.61 5.83a5.6 5.6 0 0 0 2.38-.54 5.9 5.9 0 0 0 2.94-6.81 5.48 5.48 0 0 0-8.33-3.43 5.77 5.77 0 0 0-2.45 5.72 5.56 5.56 0 0 0 5.46 5.06zm38.38-5.82v-10.28c0-.47.13-.58.59-.58h16.28c.52 0 .62.14.6.62v4c0 .46-.14.55-.56.55h-10.34c-.49 0-.65.11-.61.62v2.13c0 .43.11.53.53.53h9.32c.43 0 .57.09.56.55v3.7c0 .42-.09.53-.52.53h-9.32c-.49 0-.6.13-.57.59a22.06 22.06 0 0 1 0 2.3c0 .43.1.52.52.52h10.5c.53 0 .64.15.63.64v4.1c0 .36-.1.44-.44.43h-16.68c-.42 0-.48-.15-.48-.52 0-3.54-.01-6.99-.01-10.43zm-29.85-15.98h-6.09c-.28 0-.34-.16-.42-.36-.41-1-.84-2-1.23-3.06a.59.59 0 0 0-.65-.45h-7.47a.51.51 0 0 0-.57.39c-.39 1.05-.82 2.08-1.24 3.12-.08.2-.13.36-.41.36h-6.07c.54-1.3 1.07-2.55 1.6-3.8 2.46-5.84 4.94-11.67 7.39-17.52a.71.71 0 0 1 .78-.52h4.82a.57.57 0 0 1 .62.41q4.41 10.49 8.85 21c.06.08.17.23.09.43zM115.14 81.7c-.83 2.09-1.62 4.07-2.41 6.08h4.79zm70.53 19.41a13.93 13.93 0 0 1 8.28 2.52c.36.26.44.43.15.82-.85 1.12-1.65 2.26-2.44 3.42-.22.33-.36.36-.68.14a10.87 10.87 0 0 0-4.81-1.85 5.16 5.16 0 0 0-1.84.07 1.41 1.41 0 0 0-1.16 1.15 1.28 1.28 0 0 0 .89 1.4 17.86 17.86 0 0 0 3.6 1 21.71 21.71 0 0 1 3.91 1.33c4.89 2.23 3.92 8.41 1 10.54a9.56 9.56 0 0 1-5 1.78 15.5 15.5 0 0 1-11.06-3.12c-.4-.32-.41-.52-.08-.9.92-1 1.81-2.1 2.67-3.18.26-.33.41-.28.7-.06a11 11 0 0 0 6.32 2.31 4.71 4.71 0 0 0 1.82-.23 1.33 1.33 0 0 0 1-1.19 1.26 1.26 0 0 0-.8-1.24 15.77 15.77 0 0 0-3.58-1.09 21.5 21.5 0 0 1-3.67-1.18c-2.08-.92-3.53-2.34-3.73-4.75a6.39 6.39 0 0 1 3.08-6.4 9.89 9.89 0 0 1 5.43-1.29z"/><path class="cls-3" d="M96.61 123.59c-4.3 0-7.79-1.6-10-5.35-3.94-6.64-.47-16 8.3-17.08a11 11 0 0 1 9.3 2.75c.43.41.8.89 1.21 1.33.24.26.17.41-.09.61-1.31 1-2.62 2-3.91 3-.27.22-.38.13-.57-.09a5.83 5.83 0 0 0-3.23-2.1 5 5 0 0 0-6 3.43 6.45 6.45 0 0 0 .42 5.36 5.12 5.12 0 0 0 7.28 1.81 7.44 7.44 0 0 0 1.68-1.56c.17-.2.29-.22.51-.07 1.33 1 2.67 1.92 4 2.87.18.13.23.22.07.43a10.75 10.75 0 0 1-8 4.59z"/><path d="M85.76 85.53V75.31c0-.48.08-.67.63-.65h4.77c.48 0 .62.09.62.6v15.22c0 .45.09.59.57.59h9.44c.46 0 .54.14.54.57v4.26c0 .33 0 .49-.44.49H86.23c-.44 0-.42-.21-.42-.51z" fill="#1f1e20"/><path d="M27.34 134.21a7.21 7.21 0 0 1-6.78-9.84l13.35-36q3-8 6-16.06c.35-.95.16-1.38-.78-1.73-.45-.17-.89-.38-1.36-.51s-.45-.3-.3-.69c.38-.93.72-1.88 1-2.84.13-.39.27-.46.66-.32q9.42 3.52 18.83 7c.81.3.81.3.52 1.09s-.66 1.74-.95 2.63c-.12.36-.26.39-.59.27-2.53-1-5.07-1.89-7.61-2.83a3.24 3.24 0 0 0-.52-.19 1.06 1.06 0 0 0-.62 2c1.46.56 2.93 1.12 4.41 1.63.49.17.54.36.37.82q-8.12 21.8-16.19 43.6c-.9 2.41-1.79 4.83-2.69 7.24a7.2 7.2 0 0 1-6.75 4.73zm8.33-39.33a3.55 3.55 0 0 0-3.58 2.44Q27 110.85 21.92 124.38a6.29 6.29 0 0 0-.4 3.24 6 6 0 0 0 6.2 5.07 5.81 5.81 0 0 0 5.47-4.11q4.06-10.89 8.16-21.77c1.06-2.84 2.13-5.67 3.19-8.5.34-.9 0-1.33-1-1.21a3.62 3.62 0 0 1-1.18 0 20.35 20.35 0 0 1-3.76-1.43 8.54 8.54 0 0 0-2.93-.79zm4.17-8.09a2.78 2.78 0 0 0-2.84 2.8 2.81 2.81 0 0 0 5.61 0 2.77 2.77 0 0 0-2.77-2.8zm4.37-2.41a1.89 1.89 0 1 0 1.91-1.85 1.87 1.87 0 0 0-1.91 1.85zm-.27-5.44a1.36 1.36 0 1 0 0-2.71 1.34 1.34 0 0 0-1.36 1.33 1.32 1.32 0 0 0 1.36 1.38z" fill="#fcfdfd"/><path d="M137.53 83.3h-1.85c-.29 0-.43 0-.42-.39v-3c0-.2 0-.42.29-.41 1.49 0 3-.1 4.48.07a1.76 1.76 0 0 1 1.8 1.88 1.64 1.64 0 0 1-1.2 1.58 8.32 8.32 0 0 1-2.72.23z" fill="#fdfdfd"/><path d="M35.67 94.88a8.54 8.54 0 0 1 3 .74 20.35 20.35 0 0 0 3.76 1.43 3.62 3.62 0 0 0 1.18 0c.94-.12 1.3.31 1 1.21-1.06 2.83-2.13 5.66-3.19 8.5q-4.08 10.88-8.16 21.77a5.81 5.81 0 0 1-5.47 4.11 6 6 0 0 1-6.2-5.07 6.29 6.29 0 0 1 .4-3.24q5.01-13.48 10.1-27.01a3.55 3.55 0 0 1 3.58-2.44z" fill="#01a7ac"/><path d="M39.84 86.79a2.77 2.77 0 0 1 2.8 2.81 2.81 2.81 0 0 1-5.61 0 2.78 2.78 0 0 1 2.81-2.81zm4.37-2.41a1.87 1.87 0 0 1 1.91-1.85A1.89 1.89 0 0 1 48 84.45a1.89 1.89 0 1 1-3.77-.07zm-.27-5.44a1.32 1.32 0 0 1-1.32-1.38A1.34 1.34 0 0 1 44 76.23a1.36 1.36 0 1 1 0 2.71z" fill="#03a7ac"/></svg>