<svg xmlns="http://www.w3.org/2000/svg" viewBox="0 0 179 42.4"><path d="M52 22.1h-1.5V6.4c.6-.2 1.1-.3 1.7-.4.9-.2 1.7-.2 2.6-.2.8 0 1.6.1 2.4.4.7.3 1.3.7 1.8 1.2.5.6.9 1.2 1.2 2 .3.8.4 1.7.4 2.6 0 .8-.1 1.7-.4 2.5-.2.7-.6 1.4-1 2-.5.5-1 1-1.7 1.3-.7.3-1.5.5-2.3.5-.7 0-1.4-.1-2-.3-.4-.2-.9-.4-1.3-.6l.1 4.7zm0-6.4c.2.1.3.2.5.3.2.1.5.3.7.3l.9.3c.3.1.7.1 1 .1.6 0 1.3-.1 1.9-.4.5-.2.9-.6 1.2-1 .3-.5.5-1 .7-1.5.1-.6.2-1.2.2-1.9 0-1.6-.4-2.8-1.2-3.6C57.1 7.5 56 7 54.8 7c-.6 0-1.2 0-1.8.1-.3 0-.7.1-1 .2v8.4zm15.1 2.4c-.5-.9-1-1.9-1.4-2.9-.5-1-.9-2-1.3-3.1-.4-1-.8-2.1-1.1-3.1s-.6-2.1-.9-3.1H64c.2.7.4 1.5.6 2.4.3.9.6 1.7.9 2.6s.7 1.8 1.1 2.8c.4.9.8 1.9 1.3 2.8l.9-2.7c.3-.8.5-1.7.7-2.5.2-.8.4-1.7.6-2.6.2-.9.4-1.8.6-2.8h1.5c-.5 2.2-1.1 4.4-1.7 6.5-.6 2-1.3 3.9-2 5.8l-.9 1.8c-.3.5-.6.9-1 1.2-.4.3-.8.6-1.3.7-.6.2-1.2.2-1.8.2-.4 0-.7 0-1-.1-.2-.1-.4-.1-.6-.2l.3-1.2c.2.1.3.2.5.2.3.1.6.1.9.1.4 0 .8 0 1.2-.1.3-.1.7-.3.9-.5.3-.2.5-.5.7-.8.3-.5.6-.9.7-1.4zm9.1-12.2h4.7v1.3h-4.7v6.3c0 .6 0 1.1.2 1.6.1.4.3.7.5 1 .2.2.5.4.8.5.3.1.7.1 1 .1.5 0 1-.1 1.5-.2.3-.1.6-.2.9-.4l.4 1.2c-.4.2-.7.4-1.1.5-.6.2-1.2.3-1.7.3-.6 0-1.3-.1-1.9-.3-.5-.2-.9-.5-1.2-.9-.3-.4-.5-.9-.6-1.5-.1-.7-.2-1.4-.2-2.1V2.5l1.5-.3v3.7zm7.5 11.9V.3l1.5-.3v6.3c.5-.2 1-.3 1.5-.4.5-.1 1-.1 1.5-.2.8 0 1.6.1 2.3.4.6.2 1.1.6 1.5 1.1.4.5.6 1.1.8 1.7.2.7.2 1.5.2 2.2v6.6h-1.5v-6.2c0-.7 0-1.4-.2-2.1-.1-.5-.3-1-.6-1.4-.3-.4-.6-.6-1.1-.8-.5-.2-1.1-.3-1.7-.2-.3 0-.6 0-.8.1-.3 0-.6.1-.8.2-.3.1-.5.1-.7.2-.1 0-.3.1-.4.1v10.2h-1.5zm23.2-5.9c0 .9-.1 1.7-.4 2.6-.2.7-.6 1.4-1.1 2-.5.5-1.1 1-1.7 1.3-1.4.6-3 .6-4.4 0-.7-.3-1.2-.7-1.7-1.3-.5-.6-.9-1.2-1.1-2-.3-.8-.4-1.7-.4-2.6 0-.9.1-1.7.4-2.6.2-.7.6-1.4 1.1-2 .5-.5 1.1-1 1.7-1.3 1.4-.6 3-.6 4.4 0 .7.3 1.2.7 1.7 1.3.5.6.9 1.3 1.1 2 .3.9.4 1.7.4 2.6zm-1.6 0c0-1.5-.3-2.7-1-3.6-1.3-1.5-3.6-1.8-5.1-.5-.2.2-.4.3-.5.5-.7.9-1 2.1-1 3.6s.3 2.7 1 3.6c1.3 1.5 3.6 1.8 5.1.5.2-.1.3-.3.5-.5.7-.9 1-2.1 1-3.6zm4.8-5.5c.4-.1 1-.3 1.8-.4.9-.2 1.8-.2 2.8-.2.8 0 1.5.1 2.3.4.6.2 1.1.6 1.4 1.1.4.5.6 1.1.8 1.7.2.7.2 1.5.2 2.2v6.6h-1.5v-6.2c0-.7 0-1.4-.2-2.1-.1-.5-.3-1-.6-1.4-.3-.4-.6-.6-1.1-.8-.5-.2-1.1-.3-1.6-.2-.6 0-1.2 0-1.8.1-.3 0-.7.1-1 .2v10.4h-1.5V6.4zM50.4 26.9h6.2c.7 0 1.4.2 2 .5.6.3 1.1.8 1.4 1.4.4.6.5 1.3.5 1.9 0 .7-.2 1.4-.6 2-.4.6-.9 1.1-1.6 1.4.5.2 1.1.5 1.5.9.4.4.8.9 1 1.5.3.5.4 1.1.4 1.7 0 .7-.2 1.3-.5 1.9-.3.6-.8 1.1-1.4 1.5-.6.4-1.2.6-1.9.6h-7c-.2 0-.3-.1-.3-.3V27.2c0-.2.1-.3.3-.3zm.3 7.1h5.9c.6 0 1.2-.1 1.7-.4.5-.3.9-.7 1.2-1.2.3-.5.5-1.1.5-1.6 0-.6-.2-1.2-.5-1.6-.3-.5-.7-.9-1.2-1.2-.5-.3-1.1-.4-1.7-.4h-5.9V34zm0 7.6h6.8c.6 0 1.3-.2 1.8-.6.5-.4.8-.8 1.1-1.4.2-.5.3-.9.3-1.5 0-.7-.2-1.3-.5-1.9-.3-.5-.8-1-1.3-1.3-.4-.3-1-.4-1.5-.5h-6.6v7.2zm19.2-5.2h-5.5v5.5c0 .2-.1.3-.3.3-.2 0-.3-.1-.3-.3V27.2c0-.1.1-.3.2-.3h5.9c.8 0 1.7.2 2.4.6.7.4 1.3 1 1.7 1.7.4.7.6 1.5.6 2.4 0 .9-.3 1.8-.8 2.6s-1.2 1.4-2 1.7l2.4 5.8v.1c0 .1 0 .2-.1.2-.1.1-.1.1-.2.1h-.2c-.1 0-.1-.1-.1-.2l-2.4-5.8c-.3.2-.8.3-1.3.3zm-5.5-.6h5.5c.7 0 1.5-.2 2.1-.6.6-.4 1.1-.9 1.5-1.5.4-.6.6-1.4.5-2.1 0-.7-.2-1.5-.5-2.1-.4-.6-.9-1.2-1.5-1.5-.6-.4-1.4-.6-2.1-.6h-5.5v8.4zm18.7-8.9h.2c.1 0 .1.1.1.2l6.1 14.6v.1c0 .1 0 .2-.1.2-.1.1-.1.1-.2.1s-.2-.1-.2-.2l-1.7-4.1H79L77.2 42c-.1.1-.1.2-.2.2s-.2 0-.2-.1c-.1 0-.1-.1-.1-.2v-.2l6.1-14.6c.1-.1.2-.2.3-.2zM87 37.2l-3.9-9.4-3.9 9.4H87zm3.9 2.6c0-.1 0-.1.1-.2h.2c.1 0 .2.1.3.2.5.7 1.2 1.2 2 1.6.9.4 1.9.6 2.9.5.9 0 1.8-.1 2.6-.4.7-.2 1.3-.7 1.8-1.2.5-.6.7-1.4.7-2.2 0-.7-.3-1.4-.8-1.8-.5-.4-1.1-.8-1.8-1-.7-.2-1.5-.4-2.5-.6-1-.2-2-.4-2.9-.8-.7-.3-1.2-.7-1.7-1.2-.4-.5-.6-1.2-.6-1.8 0-.8.2-1.5.7-2.2.5-.6 1.1-1.1 1.9-1.4.9-.3 1.9-.5 2.9-.5.9 0 1.7.1 2.5.4.8.3 1.5.8 2.1 1.4.1.1.1.1.1.2s0 .1-.1.2c-.1 0-.1.1-.2.1s-.1 0-.2-.1c-.1 0-.1-.1-.2-.2-.4-.3-.8-.6-1.2-.8-.4-.2-.8-.4-1.2-.4-.6-.1-1.1-.2-1.7-.1-.8 0-1.6.1-2.3.3-.7.2-1.3.6-1.8 1.1-.5.5-.7 1.3-.7 2 0 .9.5 1.7 1.3 2.2 1.1.6 2.2 1 3.4 1.2.9.2 1.9.4 2.8.7.7.2 1.4.6 1.9 1.1.6.6.9 1.3.8 2.1 0 .9-.2 1.7-.7 2.4-.5.7-1.2 1.2-2 1.5-.9.3-1.9.5-2.9.5s-2-.2-3-.5c-.9-.4-1.7-1-2.3-1.8-.2-.3-.2-.4-.2-.5zM105.1 27c.1-.1.1-.1.2-.1.2 0 .3.1.3.3v14.6c0 .2-.1.4-.3.4-.1 0-.2 0-.2-.1-.1-.1-.1-.2-.1-.3V27.2c0-.1 0-.1.1-.2zm4.8-.1c.2 0 .3.1.3.3v14.3h8.8c.2 0 .4.1.4.3 0 .1 0 .2-.1.2-.1.1-.2.1-.3.1h-9.1c-.2 0-.3-.1-.3-.3V27.2c0-.2.1-.3.3-.3zM126.7 0h5.9c.2 0 .4.1.5.2.1.1.2.3.2.5s-.1.3-.2.4c-.1.1-.3.2-.5.2h-5.2v39.8h5.2c.2 0 .4.1.5.2.1.1.2.3.2.5s-.1.3-.2.4c-.1.1-.3.2-.5.2h-5.9c-.4 0-.6-.3-.6-.6V.5c.1-.3.3-.5.6-.5zM140 4c.1.1.2.3.2.5v32.7c0 .5-.2.7-.7.7-.2 0-.3-.1-.5-.2-.1-.2-.2-.3-.2-.5V5.6l-3.6 1.5c-.1.1-.3.1-.4.1-.3 0-.5-.2-.6-.4v-.3c0-.1.1-.3.2-.4.1-.1.3-.2.4-.2l4.1-1.8.3-.1c.1-.1.3-.1.4-.1h.1c.1 0 .2.1.3.1zm6.5 27.2c-.1-.1-.2-.3-.2-.4 0-.2.1-.5.2-.7L164 4.4l.2-.2.3-.3c.1-.1.2-.1.3-.1h.1c.1 0 .3.1.4.2.1.1.1.3.1.4V30h2.9c.5 0 .7.2.7.6v.1c0 .5-.2.7-.7.7h-2.9v5.8c0 .2 0 .4-.2.6-.1.1-.3.2-.5.2s-.4-.1-.5-.2c-.1-.2-.1-.4-.1-.6v-5.8H147c-.2 0-.4-.1-.5-.2zm17.7-24.5l-16 23.3h16V6.7zm14.6 35.5c-.1.1-.3.2-.4.2h-5.9c-.2 0-.4-.1-.5-.2-.1-.1-.2-.3-.2-.4 0-.2.1-.4.2-.5.1-.1.3-.2.5-.2h5.2V1.3h-5.2c-.2 0-.4-.1-.5-.2-.1-.1-.2-.3-.2-.4 0-.2.1-.4.2-.5.1-.1.3-.2.5-.2h5.9c.3 0 .6.2.6.5v41.3c0 .1-.1.3-.2.4z" fill="#fff"/><path d="M9.4 31.5c-1.4.1-2.9.1-4.3 0-1.8-.2-2.9-1.3-3.6-2.9-.9-1.9-1.2-4-1.4-6.1-.1-2.1.1-4.2.7-6.3.8-3.1 3.1-4.9 6.4-4.9h13.3v-1.2h-10c.1-2.1.1-4.1.4-6.1.2-1.2 1.2-2 2.4-2.3 1.4-.4 2.9-.7 4.4-.9 2.8-.3 5.5-.2 8.3.4C29 2 30.6 4 30.6 7v8.4c.1 3.1-2.3 5.6-5.5 5.5-3-.1-6 0-9 0-4 0-6.7 2.7-6.7 6.7v3.9zM15 3.9c-1 0-1.8.9-1.8 1.9 0 1 .9 1.8 1.9 1.8s1.8-.9 1.8-1.9c0-1-.9-1.9-1.9-1.8z" fill="#80c7ce"/><path d="M31.8 11.6c1.4-.1 2.9-.1 4.3 0 1.8.2 2.9 1.3 3.6 2.9.9 1.9 1.2 4 1.4 6.1.1 2.1-.1 4.2-.7 6.3-.8 3.1-3.1 4.9-6.4 4.9H20.7V33h10c-.1 2.1-.1 4.1-.4 6.1-.2 1.2-1.2 2-2.4 2.3-1.4.4-2.9.7-4.4.9-2.8.3-5.5.2-8.3-.4-3-.7-4.6-2.7-4.6-5.7v-8.4c-.1-3.1 2.3-5.6 5.5-5.5 3 .1 6 0 9 0 4 0 6.7-2.7 6.7-6.7v-4zm-5.5 27.7c1 0 1.8-.9 1.8-1.9 0-1-.9-1.8-1.9-1.8-1 0-1.8.9-1.8 1.9 0 1 .8 1.8 1.9 1.8z" fill="#f1c781"/></svg>