<svg id="star5" xmlns="http://www.w3.org/2000/svg" xmlns:xlink="http://www.w3.org/1999/xlink" viewBox="0 0 57.1 40"><style>.st0{fill:#009b3a}.st5{fill:#fff}</style><g id="Camada_1"><path class="st0" d="M0 0h57.1v40H0z"/><path d="M4.9 20l23.7 15.1L52.3 20 28.6 4.9 4.9 20z" fill="#fedf00"/><circle cx="28.6" cy="20" r="10" fill="#002776"/><defs><circle id="SVGID_1_" cx="28.6" cy="20" r="10"/></defs><clipPath id="SVGID_2_"><use xlink:href="#SVGID_1_" overflow="visible"/></clipPath><path d="M-1.4 40c0-13.4 10.9-24.3 24.3-24.3S47.1 26.6 47.1 40h-1.4c0-12.6-10.2-22.9-22.9-22.9S0 27.4 0 40h-1.4z" clip-path="url(#SVGID_2_)" fill="#fff"/><g transform="rotate(-7)"><path id="O" class="st0" d="M440-1452.9c.2 0 .4-.3.4-.5 0-.3-.2-.4-.5-.4-.2 0-.4.3-.4.5.1.2.3.4.5.4m0-.2c.1 0 .2-.2.2-.3 0-.2-.1-.3-.3-.3-.1 0-.2.2-.2.3.1.2.2.3.3.3"/></g><g id="R"><g transform="rotate(-4)"><path id="P" class="st0" d="M440.8-1453h.2v-.4h.4c.2 0 .3-.2.3-.3s-.2-.3-.3-.3h-.5l-.1 1zm.2-.6h.4c.1 0 .1-.1.1-.1 0-.1-.1-.1-.1-.1h-.4v.2z"/></g><path class="st0" d="M441.6-1453.1c0-.1 0-.4-.2-.4h-.3c.3 0 .3.3.3.4"/></g><g transform="rotate(-1)"><path id="D" class="st0" d="M442-1453.1h.4c.2 0 .4-.2.4-.4v-.1c0-.2-.2-.4-.4-.4h-.4v.9zm.2-.2h.3c.1 0 .3-.1.3-.3v-.1c0-.1-.1-.3-.3-.3h-.3v.7z"/></g><g transform="rotate(2)"><path id="E" class="st0" d="M443.2-1453.1h.9v-.2h-.7v-.2h.5v-.2h-.5v-.2h.7v-.2h-.8l-.1 1z"/></g><g transform="rotate(5)"><path id="M" class="st0" d="M444.4-1453h.2l.1-.7.1.7h.1l.2-.6-.1.7h.2l.1-.9h-.2l-.2.6-.1-.7h-.2l-.2.9z"/></g><g transform="rotate(9.75)"><path id="e" class="st0" d="M446.4-1452.8l.7.1v-.2l-.5-.1v-.2l.4.1v-.2l-.4-.1v-.1l.5.1v-.2l-.7-.1v.9z"/></g><g transform="rotate(14.5)"><path id="P_1_" class="st0" d="M448.2-1452.5h.2l.1-.3.4.1c.2 0 .3-.1.4-.2 0-.2-.1-.3-.2-.4l-.5-.1-.4.9zm.3-.4l.4.1c.1 0 .1 0 .1-.1s0-.1-.1-.1l-.4-.1v.2z"/></g><g id="R_1_"><g transform="rotate(17.5)"><path id="P_2_" class="st0" d="M449.4-1452.2l.2.1.1-.3.4.1c.2 0 .3 0 .4-.2 0-.2 0-.3-.2-.4l-.5-.2-.4.9zm.3-.4l.4.1c.1 0 .1 0 .2-.1 0-.1 0-.1-.1-.2l-.4-.1-.1.3z"/></g><path class="st0" d="M450.2-1451.9c0-.1.1-.4-.1-.5l-.2-.1c.3.1.2.4.2.5"/></g><g transform="rotate(20.5)"><path id="O_1_" class="st0" d="M450.9-1451.6c.2.1.5 0 .6-.3s0-.5-.2-.6c-.2-.1-.5 0-.6.3s0 .5.2.6m.1-.2c.1 0 .3 0 .3-.2.1-.2 0-.3-.1-.4-.1 0-.3 0-.3.2-.1.2 0 .4.1.4"/></g><g id="G"><defs><path id="SVGID_3_" d="M451.7-1451.4l.4-.9.8.3-.4.9-.8-.3zm.6-.4l-.1.1.4.2.1-.1-.4-.2z"/></defs><clipPath id="SVGID_4_"><use xlink:href="#SVGID_3_" overflow="visible"/></clipPath><g transform="rotate(23.5)" clip-path="url(#SVGID_4_)"><path id="O_2_" class="st0" d="M452.1-1451.2c.2.1.5 0 .6-.3.1-.2 0-.5-.2-.6s-.5 0-.6.3c-.1.3-.1.5.2.6m0-.1c.1.1.3 0 .4-.2.1-.2 0-.3-.1-.4s-.3 0-.4.2 0 .3.1.4"/></g><path transform="rotate(-66.503 452.457 -1451.367)" class="st0" d="M452.4-1451.6h.1v.4h-.1z"/><path transform="rotate(-66.503 452.492 -1451.167)" class="st0" d="M452.3-1451.3h.5v.1h-.5z"/></g><g transform="translate(-420 1470)"><g id="R_2_"><g transform="rotate(26.5)"><path id="P_3_" class="st0" d="M452.8-1450.9l.2.1.2-.3.3.2c.1.1.3 0 .4-.1s0-.3-.1-.4l-.5-.2-.5.7zm.4-.4l.3.2c.1 0 .1 0 .2-.1 0-.1 0-.1-.1-.2l-.3-.2-.1.3z"/></g><path class="st0" d="M453.5-1450.5c.1-.1.2-.4 0-.5l-.2-.1c.3.1.1.4.1.5"/></g><g transform="rotate(29.5)"><path id="E_1_" class="st0" d="M453.9-1450.3l.7.4.1-.2-.6-.3.1-.2.5.3.1-.1-.5-.3.1-.2.6.3.1-.2-.7-.4-.5.9z"/></g><g transform="rotate(32.5)"><path id="S" class="st0" d="M455.2-1449.8c-.1.1 0 .2.1.2.1.1.2.1.2 0 .1-.2-.5-.4-.3-.7.2-.2.4-.1.5 0s.3.2.1.4l-.2-.1c.1-.1 0-.2-.1-.2-.1-.1-.2-.1-.2 0-.1.1.5.4.3.7-.1.2-.4.1-.5 0-.1-.1-.3-.3-.2-.5l.3.2z"/></g><g transform="rotate(35.5)"><path id="S_1_" class="st0" d="M456.3-1449.2c-.1.1 0 .2.1.2.1.1.2.1.2 0 .1-.2-.5-.4-.3-.7.2-.2.4 0 .5 0 .1.1.3.2.1.4l-.2-.1c.1-.1 0-.2-.1-.2-.1-.1-.2-.1-.2 0-.1.1.5.4.3.7-.1.2-.4.1-.5 0-.1-.1-.3-.3-.2-.5l.3.2z"/></g><g transform="rotate(38.5)"><path id="O_3_" class="st0" d="M457.2-1448.1c.2.1.5.1.6-.1.2-.2.1-.5 0-.6s-.5-.1-.6.1c-.2.2-.2.5 0 .6m.1-.1c.1.1.3.1.4-.1s.1-.3 0-.4-.3-.1-.4.1-.1.3 0 .4"/></g></g><g id="c"><path id="t" class="st5" d="M440.4-1452.2l-.1.4.2.1"/><g transform="scale(-1 1)"><path id="t_1_" class="st5" d="M440.4-1452.2l.1.4-.2.1"/></g></g><g id="c_1_"><path id="t_2_" class="st5" d="M440.8-1451.9h-.4v.2"/><g transform="rotate(72)"><path id="t_3_" class="st5" d="M440.8-1451.9l-.3.3-.1-.2"/></g></g><g id="c_2_"><path id="t_4_" class="st5" d="M440-1451.9l.3.3.1-.2"/><g transform="rotate(-72)"><path id="t_5_" class="st5" d="M440-1451.9h.4v.2"/></g></g><g id="c_3_"><path id="t_6_" class="st5" d="M440.7-1451.4l-.1-.4-.2.1"/><g transform="rotate(144)"><path id="t_7_" class="st5" d="M440.7-1451.4l-.3-.3.1-.2"/></g></g><g id="star"><g id="c_4_"><path id="t_8_" class="st5" d="M440.2-1451.4l.3-.3-.1-.2"/><g id="αCMi" transform="scale(31.5)"><path id="t_9_" class="st5" d="M440.2-1451.4l.1-.4.2.1"/></g></g></g><g id="c_5_"><path id="t_10_" class="st5" d="M441.3-1448l-.1.4.2.1"/><g transform="scale(-1 1)"><path id="t_11_" class="st5" d="M441.3-1448l.1.4-.2.1"/></g></g><g id="c_6_"><path id="t_12_" class="st5" d="M441.7-1447.7h-.4v.2"/><g transform="rotate(72)"><path id="t_13_" class="st5" d="M441.7-1447.7l-.3.3-.1-.2"/></g></g><g id="c_7_"><path id="t_14_" class="st5" d="M440.9-1447.7l.3.3.1-.2"/><g transform="rotate(-72)"><path id="t_15_" class="st5" d="M440.9-1447.7h.4v.2"/></g></g><g id="c_8_"><path id="t_16_" class="st5" d="M441.5-1447.2l-.1-.4-.2.1"/><g transform="rotate(144)"><path id="t_17_" class="st5" d="M441.5-1447.2l-.3-.3.1-.2"/></g></g><g id="star_1_"><g id="c_9_"><path id="t_18_" class="st5" d="M441-1447.2l.3-.3-.1-.2"/><g id="αCMa" transform="scale(31.5)"><path id="t_19_" class="st5" d="M441-1447.2l.1-.4.2.1"/></g></g></g><g id="c_10_"><path id="t_20_" class="st5" d="M440.1-1447.1l-.1.3.2.1"/><g transform="scale(-1 1)"><path id="t_21_" class="st5" d="M440.1-1447.1l.1.3-.2.1"/></g></g><g id="c_11_"><path id="t_22_" class="st5" d="M440.4-1446.8h-.4v.2"/><g transform="rotate(72)"><path id="t_23_" class="st5" d="M440.4-1446.8l-.3.2-.1-.1"/></g></g><g id="c_12_"><path id="t_24_" class="st5" d="M439.7-1446.8l.3.2.1-.1"/><g transform="rotate(-72)"><path id="t_25_" class="st5" d="M439.7-1446.8h.4v.2"/></g></g><g id="c_13_"><path id="t_26_" class="st5" d="M440.3-1446.4l-.1-.3-.2.1"/><g transform="rotate(144)"><path id="t_27_" class="st5" d="M440.3-1446.4l-.3-.2.1-.1"/></g></g><g id="star_2_"><g id="c_14_"><path id="t_28_" class="st5" d="M439.9-1446.4l.3-.2-.1-.1"/><g id="βCMa" transform="scale(26.25)"><path id="t_29_" class="st5" d="M439.9-1446.4l.1-.3.2.1"/></g></g></g><g id="c_15_"><path id="t_30_" class="st5" d="M442.3-1448.4l-.1.2h.1"/><g transform="scale(-1 1)"><path id="t_31_" class="st5" d="M442.3-1448.4l.1.2h-.1"/></g></g><g id="c_16_"><path id="t_32_" class="st5" d="M442.5-1448.3h-.2v.1"/><g transform="rotate(72)"><path id="t_33_" class="st5" d="M442.5-1448.3l-.2.1-.1-.1"/></g></g><g id="c_17_"><path id="t_34_" class="st5" d="M442.1-1448.3l.2.1.1-.1"/><g transform="rotate(-72)"><path id="t_35_" class="st5" d="M442.1-1448.3h.2v.1"/></g></g><g transform="rotate(-144)"><g id="c_18_"><path id="t_36_" class="st5" d="M442.4-1448l-.1-.2h-.1"/><path id="t_37_" class="st5" d="M442.4-1448l-.2-.1.1-.1"/></g></g></g></svg>