<svg id="Layer_1" data-name="Layer 1" xmlns="http://www.w3.org/2000/svg" viewBox="0 0 1111 640.89"><defs><style>.cls-1{fill:#0181ff;stroke:#0181ff;stroke-miterlimit:10;stroke-width:.09px}</style></defs><path class="cls-1" d="M289.28 1.21C302.92-2.66 319 3 326.05 15.25c6.41 9.36 6.81 21.12 6.95 32.09q-.4 140.37 0 280.75c-.14 9.49-.67 19.12-4.28 27.94-7.89 18.58-34.63 26.34-50.67 13.37-12.57-8-15.37-24.87-14.84-38.64.4-98-.13-196.12.27-294.12C262.81 21 273.24 4 289.28 1.21zM47.16 134.64c29.55-26.47 76.74-34.09 111.37-13.24a104.84 104.84 0 0 1 20.05 19.25c3.35-7.48 6.42-15.37 12.44-21.25 13.63-9.9 35-10.16 46.79 2.94 9.76 9.76 11.1 24.2 11 37.3q-.2 93.45 0 187.17c.4 24.86-3.61 50.53-15.77 72.59-9.63 16.58-23.27 30.88-40 40.37-31.3 18.23-69.4 20.59-104.7 16.45C66.28 471.94 43.56 467 24 455.1c-9.9-6.15-19-16.05-19.39-28.35.13-11.76 8.16-22.06 17.78-28.2 12.84-6.69 26.47.39 38.91 4.68 22.19 9.22 46.52 16.71 70.85 13 18.45-2.4 36.1-14.3 42.65-32.08 4.95-12.3 4-25.81 4.41-38.78-8.82 10.17-18.58 19.93-31 25.41-36.1 15.11-82 9.09-109.9-19.52-18.69-17.69-29.25-42.56-34.19-67.42s-6.12-50.94.4-75.54c6.28-28.07 20.45-55 42.64-73.66zm73.67 39.17a45.58 45.58 0 0 0-34 17.91c-11.76 15.51-17.11 35-17 54.28 1.21 17.52 4.55 36 15.78 49.87 13.23 19.25 41.31 23.93 61.5 13.64 13.9-7 22.59-21.39 27.14-35.83 6.55-18.32 5.21-38.51.13-57.09-4.68-12.83-10.29-26.34-22.19-34.09-8.69-7.09-20.46-9.23-31.42-8.69zm344.93-64.31c28.74-1.07 57.48 9.36 79.27 27.81 37.57 31 54.15 82.89 46.93 130.48-6.28 37.3-26.47 74.34-60 93.45-35.43 21.4-82.09 23.53-118.85 4.28a117.31 117.31 0 0 1-46.93-42.64c-17-25.41-23.12-56.82-22.32-86.9 2.81-43.72 25.93-86.9 64-109.63 17.24-11 37.7-16 57.89-16.85zm0 64.31c-12.57.53-25.54 5.61-33.56 15.64-21.26 25.67-23.67 63.77-10.3 93.59 7.76 18.18 25.94 31.95 46 31.68 20.59 1.34 38.77-12.7 46.8-30.75 11.36-21.26 11-46.92 4.27-69.65-4.41-12.17-10.69-24.47-21.79-31.82-8.69-7.09-20.45-9.23-31.41-8.69zm146.52-161.1c12.43-16.44 41.18-17.11 53.34 0 8 9 8 21.93 8.29 33.29 0 29-.4 58-.13 87 34.09-27.94 86.5-32.35 123-6.82 25.53 16 40.91 44 49.19 72.33 5.35 22.73 9.1 46.66 4.95 69.92a143.77 143.77 0 0 1-34.63 75.14c-17.11 18.85-40.9 31.42-66.17 34.22-28.34 4.55-59.36-6.95-75.94-30.61-3.61 7.89-6.82 16.71-13.64 22.46-16 10.56-41.71 7.08-50.93-10.83-5.35-8.69-5.22-19.52-5.48-29.41q.2-143.79 0-287.44c-.27-10.3 1.87-21 8.15-29.28zm114.17 160.83c-13.1.54-26.47 5.62-34.89 15.91-11.77 15-18.32 34-17.38 53.08.54 22.19 6.28 46.25 23.93 61.09 18.59 16.58 50.4 13.91 66.18-5.34 25.53-31.15 24.46-81.56-2.81-111.37a46.29 46.29 0 0 0-35-13.37zm256.69-64.04c28.75-1.07 57.49 9.36 79.28 27.81 37.57 31 54.15 82.89 46.93 130.48-6.28 37.3-26.47 74.34-60 93.45-35.43 21.4-82.09 23.53-118.85 4.28a116.47 116.47 0 0 1-46.93-42.64c-17-25.41-23.13-56.82-22.32-86.9 2.8-43.72 25.93-86.9 64-109.63 17.25-11 37.7-16 57.89-16.85zm0 64.31c-12.56.53-25.53 5.61-33.55 15.64-21.26 25.67-23.67 63.77-10.3 93.59 7.76 18.18 25.94 31.95 46 31.68 20.59 1.34 38.77-12.7 46.79-30.75 11.37-21.26 11-46.92 4.28-69.65-4.41-12.17-10.69-24.47-21.79-31.82-8.69-7.09-20.45-9.23-31.42-8.69zM329.39 406.3c21-2.68 42.11 1.87 61.5 9.36 8.15 3.74 15.91 9.22 20.85 16.71 7.36 14.7 0 36.63-17 40.64-13.23 2.27-24.6-6.55-37-9.22-16.18-4.82-34.76-1.34-47.19 10.43-19.39 19.92-22.06 51.33-13.64 76.87 7.09 17.24 22.86 33.69 42.78 33.55 15.11 1.74 28.48-6.41 42.52-10.69 15.77-5.62 33.42 9.22 32.08 25.53.94 12.7-9.36 22.87-19.92 28.08-27.94 14.71-62.56 17.91-92.24 6.82-35.43-13-61.24-46.39-68.19-83a126.53 126.53 0 0 1 17.38-96.25c17-26.88 46.26-45.86 78.08-48.8zm399.34 3.61c22.72-7.76 49.46-4.81 69.12 9.49 6.81 4.68 12.7 10.7 18.44 16.71 14.85-15 33.83-26.33 54.82-29.68 24.73-3.34 51.34 3.75 70.19 20.59 16 15.51 22.86 38.24 22.46 60.16.4 37.84 0 75.81.27 113.64.13 11.23-2 24.33-11.77 31.15-12.17 9.76-32.35 8.56-42-4.28-7.49-10.56-7.35-23.93-7.75-36.23-.67-33.42.4-66.84-.14-100.27-1.07-12.56-7.62-25.93-19.52-31.28-12.3-4.68-27.8-5-37.7 4.81-10.56 8-13.37 22.06-13.5 34.49-.8 35.57.67 71.26-.4 107 .93 16.18-12.3 32.75-29.15 32.08-9.22 1.61-17.64-3.34-23.66-9.75-6.82-8.56-7.62-19.93-8-30.35-1.2-35.7.27-71.39-.4-107a42.06 42.06 0 0 0-13-27.14c-14.71-11.36-38.64-9.76-50.14 5.49-6.68 9.35-7.75 21.12-7.75 32.35-.27 33.42.27 66.84 0 100.27.14 8.69-1.34 18.18-7.08 25-10 13.9-33 15.51-44.79 2.81-9-9.63-9.23-23.53-9.63-35.83-.27-44.52.14-89.18-.13-133.7.53-11.49-1.07-24.06 4.28-34.76 6.55-18.58 34.62-23.79 47.72-9.09 4 3.75 5.49 9.23 7.36 14.17 9.22-8.82 19.52-17.11 31.82-20.85z"/><path class="cls-1" d="M508.54 406.3c31.68-4.15 64.44 8.56 86.09 31.68 45.32 45.19 45.46 126.88.54 172.47-35 35.82-96.13 40.91-136.77 11.9-36.63-26.07-53.34-74.07-46.66-117.79 6-35.83 27.14-70.19 60-87 11.23-6.28 24.07-9.63 36.77-11.23zm4 56.15c-25.4 3.34-39.71 30.75-40.65 54.14-1.87 24.34 5.89 52.55 29 64.58 19.11 9.09 44.65 2.41 55.48-16.18 15.5-24.73 15-58.42-.27-83.16-8.69-14.84-26.74-22.72-43.58-19.38zM191.69 576.09c19-5.48 39.7 10.69 39.57 30.08 2.54 18.05-14.17 35.43-32.09 34.62-15.91 1.34-30.35-11.89-32.89-27.13-3.34-16.72 8.83-34.5 25.41-37.57z"/></svg>