<svg id="Layer_1" data-name="Layer 1" xmlns="http://www.w3.org/2000/svg" viewBox="0 0 632.19 372.37"><defs><style>.cls-1,.cls-3,.cls-4{fill:none;stroke:gray}.cls-1,.cls-4{stroke-miterlimit:10}.cls-1,.cls-2{opacity:.3}.cls-3{stroke-linejoin:round}</style></defs><path class="cls-1" d="M174.67 11.34l-113.1 203.4-32.17 1.99L.73 266.59l84.1 30.85 42.06-18.06 22.07-40.48 86.36-29.17 16.84 4.76-.49 21.99-50.23 64.41v30.9h30.58l20.14 28.46 36.92-21.43 27.04 6.14 4.35 26.76 30.06-9.56 22.94-22.93-5.74-54.43 21.03-20.62h21.91l6.76 17.7 59.26 9.82 154.83-2.69-61.83-204.29-74.53-41.15-91.11 5.11-87.93-14.77L249.22.52l-74.55 10.82z"/><g id="triangle36" class="cls-2"><path class="cls-3" d="M154.72 212.29l80.28-2.57 20.41-51z"/></g><g id="triangle36-2" data-name="triangle36" class="cls-2"><path class="cls-4" d="M235.35 209.4a.39.39 0 0 1-.09-.42l20.16-49.76a.37.37 0 0 1 .37-.23l2.21 39.78a.4.4 0 0 1 .36.32.37.37 0 0 1-.21.42l-22.35 10a.39.39 0 0 1-.43-.08z"/></g><g id="triangle36-3" data-name="triangle36" class="cls-2"><path class="cls-4" d="M477.66 291.66a.37.37 0 0 1-.09-.39l10.15-105.43a.38.38 0 0 1 .52-.21l131.15 63.17a.37.37 0 0 1 .08.62l-141.3 42.26a.37.37 0 0 1-.45 0z"/></g><g id="triangle36-4" data-name="triangle36" class="cls-2"><path class="cls-3" d="M295.89 107.51l-43.73 107 93.36-49.37z"/></g><g id="triangle36-5" data-name="triangle36" class="cls-2"><path class="cls-3" d="M181.87 89.38L61.56 214.76l87.17 24.63z"/></g><g id="triangle36-6" data-name="triangle36" class="cls-2"><path class="cls-4" d="M487.61 185.52l-.07-.09a.37.37 0 0 1 .06-.43l73.92-85.1a.38.38 0 0 1 .44-.08l13.86 7.11a.38.38 0 0 1-.11.7l-87.78 78a.38.38 0 0 1-.32-.11z"/></g><g id="triangle36-7" data-name="triangle36" class="cls-2"><path class="cls-4" d="M405.38 50.24a.37.37 0 0 1 .29-.68l163.66 35.15a.37.37 0 0 1 .25.22.37.37 0 0 1 0 .33l-7.71 13.47a.38.38 0 0 1-.47.16L405.43 50.27z"/></g><g id="triangle36-8" data-name="triangle36" class="cls-2"><path class="cls-4" d="M295.66 108.15a.37.37 0 0 1 .23-.64l108.87-58a.38.38 0 0 1 .26.07l-9.2 67.29a.38.38 0 0 1-.38.64l-99.67-9.33z"/></g><g id="triangle36-9" data-name="triangle36" class="cls-2"><path class="cls-4" d="M396.33 117.59a.54.54 0 0 1 .27-.39l42.48-55.37a.35.35 0 0 1 .33 0h.06a.41.41 0 0 1 .1.41l48.07 123.22a.54.54 0 0 1-.25.34.35.35 0 0 1-.36 0"/></g><g id="triangle36-10" data-name="triangle36" class="cls-2"><path class="cls-4" d="M253.46 61a.44.44 0 0 1-.26-.06l-77.88-48.82a.36.36 0 0 1-.15-.43.42.42 0 0 1 .41-.26L280.11 16a.41.41 0 0 1 .33.18.34.34 0 0 1 0 .36L253.8 60.8a.41.41 0 0 1-.27.2z"/></g><g id="triangle36-11" data-name="triangle36" class="cls-2"><path class="cls-4" d="M253.3 61.72h-.06l-70.88 27.82a.38.38 0 0 1-.49-.16L154.76 48a.38.38 0 0 1 0-.4.44.44 0 0 1 .39-.17L253.1 61a.37.37 0 0 1 .38.17.38.38 0 0 1-.17.53z"/></g><g id="triangle36-12" data-name="triangle36" class="cls-2"><path class="cls-4" d="M295.59 107.41a.38.38 0 0 1-.07-.11S253.42 61 253.53 61l62.13-27.11-19.45 73.35a.38.38 0 0 1-.63.16z"/></g><g id="triangle36-13" data-name="triangle36" class="cls-2"><path class="cls-4" d="M393 210.42a.38.38 0 0 1-.11-.28l3.28-91.61a.37.37 0 0 1 .6-.28l90.51 67.2a.38.38 0 0 1 .15.37.38.38 0 0 1-.27.29l-93.79 24.41a.38.38 0 0 1-.33-.07z"/></g><g id="triangle36-14" data-name="triangle36" class="cls-2"><path class="cls-4" d="M339.49 312.06a.37.37 0 0 1-.15-.13.38.38 0 0 1 0-.39l53.5-100.09a.38.38 0 0 1 .36-.19.37.37 0 0 1 .31.26l-4.19 51.63a.38.38 0 0 1 0 .31.38.38 0 0 1-.27.17l-49.3 48.46a.37.37 0 0 1-.26-.03z"/></g><path class="cls-1" d="M301.68 222.27l92.09-37.53m-137.98-25.75l39.73-51.69M181.87 89.38l73.57 68.83m40.08-50.91L181.87 89.38m228.1 174.8l67.6 27.09m-84.24-80.75l16.64 53.66m-16.48-52.66l84.08 79.75M344.88 164.38l48.89 20.36m-31.62 12.88l-22.98 113.91m-211.38-33.8l-66.23-62.97m25.61 81.68l7.5-50.2M.73 266.59l93.94-20.35m-33.1-31.5L1.29 266.47m300.39-44.2l-69.39 109.91m19.38-95.7l50.01-14.21m-100.25 78.62l30.86 31.29m118.37 29.04l17.47-75.1m-52.01 58.84l41.97-15.7m-18.4-17.17l18.4 17.17m-42.91 15.49l23.29-33.42m-49.39 27.49l49.39-27.49m-106.18 20.85l82.29-7.55m2.81-.96l-45.14-49.7m-70.82 26.92l68.46-28.26m68.79 39.06l-68.79-39.06m264.17-127.24l67.98 47.3m-56.15 20.7l56.97-20.13"/><path stroke-linejoin="round" opacity=".3" fill="none" stroke="gray" d="M534.31 145.34l11.83 68.02-36.24 18.95 109.57 17.12-139.4 14.96 20.87-53.13-13.09-25.51"/><path class="cls-1" d="M500.94 211.26l8.56 21.11"/></svg>