<svg id="Camada_1" data-name="Camada 1" xmlns="http://www.w3.org/2000/svg" viewBox="0 0 200 200"><defs><style>.cls-6{fill:#333}</style><radialGradient id="Gradiente_sem_nome_5" cx="-683" cy="-5127.28" r="14.3" gradientTransform="matrix(1 0 0 .27 719.66 1491.48)" gradientUnits="userSpaceOnUse"><stop offset="0" stop-color="#727272"/><stop offset="1"/></radialGradient><mask id="mask" x="-25.22" y="27.37" width="328.16" height="140.4" maskUnits="userSpaceOnUse"><path fill="url(#Gradiente_sem_nome_5)" d="M-25.22 27.37h328.16v140.4H-25.22z" id="TranspMask"/></mask><linearGradient id="Gradiente_sem_nome_2" x1="-489.36" y1="-241.72" x2="-457.03" y2="-241.72" gradientTransform="rotate(41.4 -651.67 587.511)" gradientUnits="userSpaceOnUse"><stop offset="0" stop-color="#5a9fd4"/><stop offset="1" stop-color="#306998"/></linearGradient><linearGradient id="Gradiente_sem_nome_3" x1="961.35" y1="244.91" x2="976.54" y2="244.91" gradientTransform="rotate(-124.8 470.118 414.117)" gradientUnits="userSpaceOnUse"><stop offset="0" stop-color="#ffd43b"/><stop offset="1" stop-color="#ffe873"/></linearGradient><linearGradient id="Gradiente_sem_nome_4" x1="-3713.83" y1="-1093.72" x2="-3678.11" y2="-1093.72" gradientTransform="translate(3862.89 1205.03)" gradientUnits="userSpaceOnUse"><stop offset="0" stop-color="#4c8cbf"/><stop offset="1" stop-color="#306898"/></linearGradient></defs><g id="Logo"><g id="Group"><g mask="url(#mask)"><path d="M51 123.86c0 2.1-6.41 3.81-14.3 3.81s-14.3-1.71-14.3-3.81 6.4-3.82 14.3-3.82 14.3 1.71 14.3 3.82z" fill="#7f7f7f"/></g><g id="Group_1" data-name="Group 1"><g id="Group_2" data-name="Group 2"><path d="M36.86 72.33a30.72 30.72 0 0 0-5.1.43c-4.52.8-5.34 2.47-5.34 5.55v4.07h10.67v1.35H22.42a6.67 6.67 0 0 0-6.67 5.41 20 20 0 0 0 0 10.85c.76 3.15 2.57 5.4 5.67 5.4h3.67v-4.87a6.79 6.79 0 0 1 6.67-6.63h10.65a5.38 5.38 0 0 0 5.34-5.42V78.31c0-2.89-2.44-5.06-5.34-5.55a33.56 33.56 0 0 0-5.55-.43zm-5.77 3.27a2 2 0 1 1-2 2 2 2 0 0 1 2-2z" fill="url(#Gradiente_sem_nome_2)"/><path d="M49.08 83.73v4.74a6.84 6.84 0 0 1-6.67 6.76H31.76a5.45 5.45 0 0 0-5.34 5.43v10.16c0 2.89 2.52 4.59 5.34 5.42a17.87 17.87 0 0 0 10.65 0c2.69-.78 5.34-2.34 5.34-5.42v-4.07H37.09v-1.36h16c3.1 0 4.25-2.16 5.33-5.4s1.07-6.56 0-10.85c-.76-3.09-2.23-5.41-5.33-5.41zm-6 25.73a2 2 0 1 1-2 2 2 2 0 0 1 2-2z" fill="url(#Gradiente_sem_nome_3)"/></g></g><g id="Group_3" data-name="Group 3"><path class="cls-6" d="M86.29 95.17a11.74 11.74 0 0 1-2 7.06 7.39 7.39 0 0 1-6.22 3.28 11.08 11.08 0 0 1-6.17-1.87v12.12l-3.37-1.22v-26.9a7.52 7.52 0 0 1 2.16-1.78A14.73 14.73 0 0 1 78.08 84a6.8 6.8 0 0 1 6.14 3.28 13.89 13.89 0 0 1 2.07 7.89zm-3.93-.23q0-8.39-4.8-8.61a9 9 0 0 0-3.72.61 5.28 5.28 0 0 0-2 1v13.36a9.55 9.55 0 0 0 5.45 1.78q5.07-.33 5.07-8.14zm24.86 8.18c0 3.81-.39 6.45-1.15 7.91a8 8 0 0 1-4.38 3.51 16.82 16.82 0 0 1-5.69 1.13l-.56-2.16a27.17 27.17 0 0 0 4.35-.84 5.74 5.74 0 0 0 3.41-2.57c.5-.94.75-2.73.75-5.39v-.89a17.43 17.43 0 0 1-7.34 1.6 6.74 6.74 0 0 1-4.44-1.59 5.41 5.41 0 0 1-2.17-4.4V85.2l3.51-1.2v14.35a4.35 4.35 0 0 0 1.49 3.53 5.52 5.52 0 0 0 3.81 1.2 9.56 9.56 0 0 0 5-1.83v-16.7h3.42zm13.34 2.21h-1.12a6.75 6.75 0 0 1-4.52-1.38 4.74 4.74 0 0 1-1.62-3.81V86.75H111v-2.2h2.34v-5.71l3.42-1.22v6.93h3.84v2.2h-3.84v13.34a3.22 3.22 0 0 0 1 2.71 5.17 5.17 0 0 0 2.81.75zm21.32-.33h-3.46V91.85a6.28 6.28 0 0 0-.94-3.46 3.41 3.41 0 0 0-3-1.64q-2.34 0-5.85 2.48V105h-3.42V73.5l3.42-1.07v14.36a11.88 11.88 0 0 1 7.15-2.38 5.72 5.72 0 0 1 4.4 1.82 6.42 6.42 0 0 1 1.69 4.54zm22.5-10.58a12.15 12.15 0 0 1-2.34 7.63 8.38 8.38 0 0 1-7.11 3.41 8.22 8.22 0 0 1-7-3.41 12.31 12.31 0 0 1-2.3-7.63 10.88 10.88 0 0 1 2.48-7.25A8.56 8.56 0 0 1 155 84a8.66 8.66 0 0 1 6.92 3.14 10.83 10.83 0 0 1 2.46 7.28zm-3.74 0a10.54 10.54 0 0 0-1.22-5.33 5.11 5.11 0 0 0-4.49-2.72q-5.61.33-5.62 8a13.5 13.5 0 0 0 1.18 6 4.73 4.73 0 0 0 4.51 3q5.64-.05 5.64-8.95zm24 10.58h-3.42V91.1a4.66 4.66 0 0 0-1.38-3.58 5 5 0 0 0-3.67-1.24 8.26 8.26 0 0 0-4.63 1.59V105h-3.42V87.45a15.63 15.63 0 0 1 9.55-3.45 10.51 10.51 0 0 1 2.29.24 6.69 6.69 0 0 1 3.28 1.76 4.61 4.61 0 0 1 1.4 3.37z" id="Group_4" data-name="Group 4"/></g><g id="Group_5" data-name="Group 5"><path class="cls-6" d="M73.06 125.28a2.16 2.16 0 0 1-1.06 1.86 3.19 3.19 0 0 1-1.74.47 3.41 3.41 0 0 1-1.35-.3 3.24 3.24 0 0 1-1.07-.66l.39-.63a3.08 3.08 0 0 0 2 .81 2 2 0 0 0 1.17-.33 1.31 1.31 0 0 0 .58-1.1 1.15 1.15 0 0 0-.32-.83 2.82 2.82 0 0 0-1.05-.55l-.78-.26a3.6 3.6 0 0 1-1.41-.75 1.77 1.77 0 0 1-.46-1.25 2.08 2.08 0 0 1 .69-1.62 2.64 2.64 0 0 1 1.82-.62 3.34 3.34 0 0 1 2 .71l-.38.59a2.59 2.59 0 0 0-1.54-.55 1.72 1.72 0 0 0-1.14.34 1.24 1.24 0 0 0-.42 1c0 .53.44.94 1.34 1.23l.89.28a3.05 3.05 0 0 1 1.39.84 2 2 0 0 1 .45 1.32zm7.48-1.78a4.72 4.72 0 0 1-.86 2.8 3 3 0 0 1-5 0 4.72 4.72 0 0 1-.86-2.8 4.37 4.37 0 0 1 .88-2.72 3.12 3.12 0 0 1 5 0 4.37 4.37 0 0 1 .84 2.72zm-1.05 0a4.17 4.17 0 0 0-.57-2.2 2 2 0 0 0-3.51 0 4.09 4.09 0 0 0-.59 2.2 4.44 4.44 0 0 0 .6 2.35 1.93 1.93 0 0 0 3.48 0 4.44 4.44 0 0 0 .59-2.35zm6.51-3.78l-.33.63h-3.11V123h2.62l-.33.62h-2.29v3.9h-.89v-7.82zm5.82.6h-2.3v7.22h-.92v-7.22h-2.34l.29-.61h5.27zm9.8-.66l-2.05 7.75-.71.25-1.86-6.77-1.7 6.52-.7.24-2.19-7.77.88-.33 1.71 6.34 1.67-6 .89-.33 1.76 6.35 1.77-6.35zm6.38 7.88h-1l-.84-2.43h-3l-.9 2.43h-.68l2.83-7.7.88-.29zm-2-3l-1.24-3.71-1.38 3.71zm7.63 3h-1.1l-2.07-3.66h-.66v3.66h-.91v-7.84h2.47a2.21 2.21 0 0 1 1.58.62 2.08 2.08 0 0 1 0 3 2.06 2.06 0 0 1-1.49.59zm-1-5.75a1.41 1.41 0 0 0-.42-1 1.34 1.34 0 0 0-1-.44h-1.41v2.89h1.44a1.39 1.39 0 0 0 1-.41 1.48 1.48 0 0 0 .43-1.04zm6.48-2.09l-.31.63h-3.15V123h2.61l-.32.62h-2.29v3.28H119v.62h-4.27v-7.83z" id="Group_6" data-name="Group 6"/><path class="cls-6" d="M128.1 119.72l-.32.63h-3.14V123h2.63l-.34.62h-2.29v3.9h-.89v-7.82zm6.98 3.79a4.68 4.68 0 0 1-.85 2.79 3 3 0 0 1-5 0 4.62 4.62 0 0 1-.86-2.79 4.34 4.34 0 0 1 .88-2.73 3.11 3.11 0 0 1 5 0 4.34 4.34 0 0 1 .83 2.73zm-1 0a4.18 4.18 0 0 0-.57-2.21 2 2 0 0 0-3.52 0 4.09 4.09 0 0 0-.58 2.21 4.52 4.52 0 0 0 .59 2.34 2 2 0 0 0 1.74 1.1 2 2 0 0 0 1.74-1.1 4.43 4.43 0 0 0 .52-2.34zm7.72 1.37a2.64 2.64 0 0 1-.81 2 2.83 2.83 0 0 1-2.05.78 2.77 2.77 0 0 1-2-.77 2.67 2.67 0 0 1-.8-2v-5l.93-.31v5.2c0 1.45.65 2.17 1.94 2.16a2 2 0 0 0 1.52-.6 2.22 2.22 0 0 0 .56-1.59v-5h.7zm7.35 2.66h-.9l-4.38-6.41v6.41h-.64v-7.74l.72-.25 4.58 6.69v-6.52h.62zm7.08-3.78a4.32 4.32 0 0 1-.84 2.65 2.74 2.74 0 0 1-2.28 1.22 3.87 3.87 0 0 1-2.47-1v-7h2.51a2.7 2.7 0 0 1 2.35 1.37 4.93 4.93 0 0 1 .73 2.76zm-1 .09q0-3.51-2.66-3.51h-1v6.11a2 2 0 0 0 3.08-.48 4 4 0 0 0 .55-2.12zm7.9 3.69h-1l-.84-2.43h-3l-.9 2.43h-.68l2.83-7.7.88-.29zm-2-3l-1.24-3.71-1.38 3.71zm7.06-4.22h-2.3v7.22H165v-7.22h-2.34l.29-.61h5.27zm1.91 7.22h-.92v-7.66l.92-.31zm7.9-4.03a4.69 4.69 0 0 1-.86 2.79 3 3 0 0 1-5 0 4.69 4.69 0 0 1-.86-2.79 4.34 4.34 0 0 1 .88-2.73 3.12 3.12 0 0 1 5 0 4.4 4.4 0 0 1 .84 2.73zm-1.05 0a4.18 4.18 0 0 0-.57-2.21 2 2 0 0 0-3.52 0 4.09 4.09 0 0 0-.58 2.21 4.43 4.43 0 0 0 .6 2.34 2 2 0 0 0 1.74 1.1 2 2 0 0 0 1.74-1.1 4.52 4.52 0 0 0 .55-2.34zm8.05 4.03h-.9l-4.38-6.41v6.41h-.64v-7.74l.72-.25 4.58 6.69v-6.52h.62z" id="Group_7" data-name="Group 7"/></g><path d="M113.35 111.31c0 .94.37 1.71.82 1.71H184c.46 0 .83-.77.83-1.71 0-1-.37-1.72-.83-1.72h-69.83c-.45 0-.82.77-.82 1.72z" fill="url(#Gradiente_sem_nome_4)"/></g></g></svg>