<svg xmlns="http://www.w3.org/2000/svg" viewBox="0 0 86.428 114.666">
  <defs>
    <style>
      .cls-1 {
        fill: #f0c881;
      }
    </style>
  </defs>
  <g id="Group_1" data-name="Group 1" transform="translate(0.05 0.2)">
    <path id="Path_3164" data-name="Path 3164" class="cls-1" d="M44.916-.142c1.559.2,3.147.346,4.677.606a42.539,42.539,0,0,1,30,19.488,42.071,42.071,0,0,1,6.785,22.895,35.619,35.619,0,0,1-2.367,12.1A127.392,127.392,0,0,1,73.556,76.886a360.953,360.953,0,0,1-21.74,32.971c-4.417,6.034-12.732,6.178-17.092.231-9.816-13.4-19.084-27.139-26.648-41.95C4.67,61.5,1.667,54.713.368,47.264A33.16,33.16,0,0,1,.946,34.1,42.594,42.594,0,0,1,22.108,5.4,41,41,0,0,1,39.893.06a13.012,13.012,0,0,0,1.53-.26C42.607-.142,43.762-.142,44.916-.142ZM43.184,24.34A17.943,17.943,0,1,0,61.113,42.327,17.91,17.91,0,0,0,43.184,24.34Z" transform="translate(0 0)"/>
  </g>
</svg>
