<svg id="Layer_1" xmlns="http://www.w3.org/2000/svg" viewBox="0 0 1209.1 752.3"><style>.st0{fill:#0181ff;stroke:#0181ff;stroke-width:9.000000e-02;stroke-miterlimit:10}</style><path class="st0" d="M338.3 56.8c13.6-3.9 29.7 1.8 36.8 14 6.4 9.4 6.8 21.1 7 32.1-.3 93.6-.3 187.2 0 280.8-.1 9.5-.7 19.1-4.3 27.9-7.9 18.6-34.6 26.3-50.7 13.4-12.6-8-15.4-24.9-14.8-38.6.4-98-.1-196.1.3-294.1-.7-15.7 9.7-32.7 25.7-35.5zM96.2 190.2c29.5-26.5 76.7-34.1 111.4-13.2 7.5 5.5 14.3 12 20.1 19.2 3.4-7.5 6.4-15.4 12.4-21.2 13.6-9.9 35-10.2 46.8 2.9 9.8 9.8 11.1 24.2 11 37.3-.1 62.3-.1 124.7 0 187.2.4 24.9-3.6 50.5-15.8 72.6-9.6 16.6-23.3 30.9-40 40.4-31.3 18.2-69.4 20.6-104.7 16.5-22.1-4.3-44.8-9.2-64.3-21.1-9.9-6.1-19-16-19.4-28.4.1-11.8 8.2-22.1 17.8-28.2 12.8-6.7 26.5.4 38.9 4.7 22.2 9.2 46.5 16.7 70.8 13 18.4-2.4 36.1-14.3 42.6-32.1 4.9-12.3 4-25.8 4.4-38.8-8.8 10.2-18.6 19.9-31 25.4-36.1 15.1-82 9.1-109.9-19.5-18.7-17.7-29.2-42.6-34.2-67.4s-6.1-50.9.4-75.5c6.4-28.2 20.5-55.1 42.7-73.8zm73.7 39.2c-13.4.7-25.9 7.2-34 17.9-11.8 15.5-17.1 35-17 54.3 1.2 17.5 4.6 36 15.8 49.9 13.2 19.2 41.3 23.9 61.5 13.6 13.9-7 22.6-21.4 27.1-35.8 6.6-18.3 5.2-38.5.1-57.1-4.7-12.8-10.3-26.3-22.2-34.1-8.6-7.1-20.4-9.2-31.3-8.7zm344.9-64.3c28.7-1.1 57.5 9.4 79.3 27.8 37.6 31 54.2 82.9 46.9 130.5-6.3 37.3-26.5 74.3-60 93.5-35.4 21.4-82.1 23.5-118.9 4.3-19.3-9.6-35.5-24.4-46.9-42.6-17-25.4-23.1-56.8-22.3-86.9 2.8-43.7 25.9-86.9 64-109.6 17.3-11.2 37.7-16.2 57.9-17zm0 64.3c-12.6.5-25.5 5.6-33.6 15.6-21.3 25.7-23.7 63.8-10.3 93.6 7.8 18.2 25.9 32 46 31.7 20.6 1.3 38.8-12.7 46.8-30.8 11.4-21.3 11-46.9 4.3-69.6-4.4-12.2-10.7-24.5-21.8-31.8-8.7-7.1-20.4-9.2-31.4-8.7zM661.3 68.3c12.4-16.4 41.2-17.1 53.3 0 8 9 8 21.9 8.3 33.3 0 29-.4 58-.1 87 34.1-27.9 86.5-32.3 123-6.8 25.5 16 40.9 44 49.2 72.3 5.3 22.7 9.1 46.7 5 69.9-3.9 27.9-16 54-34.6 75.1-17.1 18.9-40.9 31.4-66.2 34.2-28.3 4.5-59.4-7-75.9-30.6-3.6 7.9-6.8 16.7-13.6 22.5-16 10.6-41.7 7.1-50.9-10.8-5.3-8.7-5.2-19.5-5.5-29.4.1-95.9.1-191.7 0-287.4-.4-10.4 1.8-21.1 8-29.3zm114.2 160.8c-13.1.5-26.5 5.6-34.9 15.9-11.8 15-18.3 34-17.4 53.1.5 22.2 6.3 46.2 23.9 61.1 18.6 16.6 50.4 13.9 66.2-5.3 25.5-31.1 24.5-81.6-2.8-111.4-9.2-9.2-21.9-14.1-35-13.4zm256.7-64c28.8-1.1 57.5 9.4 79.3 27.8 37.6 31 54.2 82.9 46.9 130.5-6.3 37.3-26.5 74.3-60 93.5-35.4 21.4-82.1 23.5-118.8 4.3-19.3-9.6-35.5-24.4-46.9-42.6-17-25.4-23.1-56.8-22.3-86.9 2.8-43.7 25.9-86.9 64-109.6 17.2-11.2 37.6-16.2 57.8-17zm0 64.3c-12.6.5-25.5 5.6-33.5 15.6-21.3 25.7-23.7 63.8-10.3 93.6 7.8 18.2 25.9 32 46 31.7 20.6 1.3 38.8-12.7 46.8-30.8 11.4-21.3 11-46.9 4.3-69.6-4.4-12.2-10.7-24.5-21.8-31.8-8.8-7.1-20.5-9.2-31.5-8.7zM378.4 461.9c21-2.7 42.1 1.9 61.5 9.4 8.1 3.7 15.9 9.2 20.9 16.7 7.4 14.7 0 36.6-17 40.6-13.2 2.3-24.6-6.5-37-9.2-16.2-4.8-34.8-1.3-47.2 10.4-19.4 19.9-22.1 51.3-13.6 76.9 7.1 17.2 22.9 33.7 42.8 33.5 15.1 1.7 28.5-6.4 42.5-10.7 15.8-5.6 33.4 9.2 32.1 25.5.9 12.7-9.4 22.9-19.9 28.1-27.9 14.7-62.6 17.9-92.2 6.8-35.4-13-61.2-46.4-68.2-83-7.3-33.1-1.1-67.8 17.4-96.2 16.9-26.9 46.1-45.8 77.9-48.8zm399.4 3.6c22.7-7.8 49.5-4.8 69.1 9.5 6.8 4.7 12.7 10.7 18.4 16.7 14.8-15 33.8-26.3 54.8-29.7 24.7-3.3 51.3 3.8 70.2 20.6 16 15.5 22.9 38.2 22.5 60.2.4 37.8 0 75.8.3 113.6.1 11.2-2 24.3-11.8 31.2-12.2 9.8-32.3 8.6-42-4.3-7.5-10.6-7.3-23.9-7.8-36.2-.7-33.4.4-66.8-.1-100.3-1.1-12.6-7.6-25.9-19.5-31.3-12.3-4.7-27.8-5-37.7 4.8-10.6 8-13.4 22.1-13.5 34.5-.8 35.6.7 71.3-.4 107 .9 16.2-12.3 32.8-29.2 32.1-9.2 1.6-17.6-3.3-23.7-9.8-6.8-8.6-7.6-19.9-8-30.3-1.2-35.7.3-71.4-.4-107-.8-10.3-5.5-20-13-27.1-14.7-11.4-38.6-9.8-50.1 5.5-6.7 9.3-7.8 21.1-7.8 32.3-.3 33.4.3 66.8 0 100.3.1 8.7-1.3 18.2-7.1 25-10 13.9-33 15.5-44.8 2.8-9-9.6-9.2-23.5-9.6-35.8-.3-44.5.1-89.2-.1-133.7.5-11.5-1.1-24.1 4.3-34.8 6.5-18.6 34.6-23.8 47.7-9.1 4 3.8 5.5 9.2 7.4 14.2 9.3-8.9 19.6-17.2 31.9-20.9z"/><path class="st0" d="M557.6 461.9c31.7-4.1 64.4 8.6 86.1 31.7 45.3 45.2 45.5 126.9.5 172.5-35 35.8-96.1 40.9-136.8 11.9-36.6-26.1-53.3-74.1-46.7-117.8 6-35.8 27.1-70.2 60-87 11.3-6.3 24.2-9.7 36.9-11.3zm4 56.1c-25.4 3.3-39.7 30.8-40.7 54.1-1.9 24.3 5.9 52.5 29 64.6 19.1 9.1 44.7 2.4 55.5-16.2 15.5-24.7 15-58.4-.3-83.2-8.6-14.7-26.7-22.6-43.5-19.3zM240.7 631.7c19-5.5 39.7 10.7 39.6 30.1 2.5 18-14.2 35.4-32.1 34.6-15.9 1.3-30.4-11.9-32.9-27.1-3.3-16.8 8.9-34.6 25.4-37.6z"/></svg>