<svg xmlns="http://www.w3.org/2000/svg" viewBox="0 0 119 119"><defs><style>.cls-1{fill:#f0c881}</style></defs><g id="Group_1" data-name="Group 1" transform="translate(-.023 -.012)"><path id="Path_1" data-name="Path 1" class="cls-1" d="M27.077 87.832c-4.438 0-8.418.3-12.4-.151C9.63 87.075 6.263 83.894 4.12 79.5 1.518 73.9.6 67.993.141 61.935a50.732 50.732 0 0 1 2.143-17.87c2.449-8.935 9.03-13.781 18.519-13.781 11.785 0 23.722 0 35.507.151h2.908V27.1c-9.336 0-18.825 0-28.773-.151.459-5.906.459-11.661 1.224-17.416.612-3.483 3.673-5.6 7.04-6.512A89.84 89.84 0 0 1 51.412.448a77.882 77.882 0 0 1 23.722 1.06C83.7 3.477 88.3 9.232 88.3 18.016c0 8.027-.153 15.9 0 23.928.153 8.935-6.581 16.053-15.917 15.6-8.571-.3-17.294-.151-25.865-.151-11.632 0-19.284 7.572-19.437 19.082-.004 3.785-.004 7.419-.004 11.357zM43.453 8.778a5.3 5.3 0 1 0 0 10.6 5.232 5.232 0 0 0 5.2-5.149 5.2 5.2 0 0 0-5.2-5.451z"/><path id="Path_2" data-name="Path 2" class="cls-1" d="M81.373 20.634c4.438 0 8.418-.3 12.4.151 5.051.606 8.418 3.786 10.56 8.178 2.755 5.452 3.52 11.51 3.979 17.416a50.731 50.731 0 0 1-2.143 17.87c-2.449 8.935-9.03 13.933-18.672 13.933-11.785 0-23.722 0-35.507-.151h-2.91v3.332c9.336 0 18.825 0 28.773.151-.459 5.906-.459 11.661-1.224 17.416-.459 3.483-3.52 5.6-6.887 6.512a89.84 89.84 0 0 1-12.7 2.575 79.1 79.1 0 0 1-23.875-1.06C24.592 104.988 20 99.233 20 90.45c0-8.027.153-15.9 0-23.928-.153-8.935 6.581-16.053 15.917-15.6 8.571.3 17.294.151 25.865.151 11.632 0 19.284-7.572 19.437-19.082.154-3.785.154-7.571.154-11.357zM65 99.536a5.3 5.3 0 1 0 0-10.6 5.232 5.232 0 0 0-5.2 5.149 5.119 5.119 0 0 0 5.2 5.451z" transform="translate(10.596 10.558)"/></g></svg>