<svg id="Layer_1" xmlns="http://www.w3.org/2000/svg" viewBox="0 0 663.7 465.6"><style>.st0{fill:#f0c881}.st2{fill:#252d42}.st3{fill:#f0c780}.st4{fill:none;stroke:#fff;stroke-miterlimit:10}</style><path class="st0" d="M613.3 420.6c2.1 0 4.1.4 6 1.2 2 .8 3.8 1.9 5.5 3.2 1.8 1.3 3.5 2.8 5.1 4.4 1.6 1.6 3.2 3.3 4.7 4.8.8.8 1.6 1.7 2.6 2.7 1 .9 1.9 1.9 2.9 2.7 1 .9 1.9 1.7 2.7 2.3.6.6 1.3 1 2.1 1.3v-24.5h10.2v37.9c-.8.1-1.5.2-2.3.2h-2c-2.5 0-4.9-.4-7.2-1.3-2.2-.8-4.2-2-6.1-3.3-1.9-1.4-3.7-2.9-5.3-4.6-1.6-1.7-3.3-3.4-4.9-5.1l-3.6-3.7c-1-1.1-2.1-2.1-3.3-3-1-.8-2-1.5-3.2-2.1-1-.5-2.1-.7-3.2-.7-1.9-.2-3.8.6-5.1 2.1-1 1.5-1.5 3.3-1.5 5.1 0 1.4.2 2.8.7 4.1.4 1.2 1 2.4 1.6 3.5.6 1 1.2 1.9 1.9 2.7.6.8 1.1 1.3 1.5 1.7l-8.6 6.1c-2.3-2.5-4.2-5.3-5.5-8.4-1.5-3.2-2.2-6.7-2.2-10.3-.1-2.9.3-5.8 1.2-8.6.6-2.2 1.7-4.2 3.2-6 1.4-1.6 3.1-2.7 5.1-3.4 2.4-.7 4.7-1 7-1zm13.4-49.7c9.6 0 16.9 1.8 22 5.4 8.3 6 10.2 17.6 4.2 25.9-1.2 1.6-2.6 3-4.2 4.2-5.1 3.6-12.4 5.4-22 5.4-4.3.1-8.5-.4-12.6-1.4-3.3-.8-6.5-2.2-9.3-4.1-2.4-1.7-4.4-3.9-5.7-6.5-1.3-2.6-2-5.5-2-8.4-.2-6 2.7-11.7 7.7-15 5.1-3.7 12.4-5.5 21.9-5.5zm0 12.5c-2.6 0-5.2.1-7.8.4-2.1.2-4.1.7-6 1.3-1.5.5-2.9 1.3-4 2.5-.9 1.1-1.4 2.4-1.4 3.9 0 1.4.5 2.8 1.4 3.8 1.1 1.1 2.5 2 4 2.5 2 .7 4 1.1 6 1.3 2.6.3 5.2.4 7.8.4 2.6 0 5.2-.1 7.8-.4 2.1-.2 4.1-.6 6.1-1.3 1.5-.5 2.9-1.3 4-2.5.9-1 1.4-2.4 1.4-3.8s-.5-2.8-1.4-3.9c-1.1-1.1-2.5-2-4-2.5-2-.7-4-1.1-6.1-1.3-2.6-.3-5.2-.4-7.8-.4zm-16.5-21c-.7-1.6-1.4-3.2-2.3-5-.8-1.7-1.8-3.4-2.8-5.1s-2.1-3.2-3.2-4.7c-1.1-1.4-2.3-2.8-3.6-4.1V335h56.8v12.2h-40.9c1.2 1.7 2.2 3.6 3 5.5.9 2 1.7 4 2.3 5.9l-9.3 3.8zm29.2-84.3c2.3 0 4.6.4 6.8 1.3 2.1.9 3.9 2.2 5.4 3.8 1.6 1.8 2.8 4 3.6 6.3.9 2.8 1.4 5.8 1.3 8.8.1 3.3-.4 6.5-1.6 9.6-.9 2.3-2.3 4.4-4 6.2-1.5 1.5-3.2 2.6-5.2 3.3-1.7.6-3.4.9-5.2 1-1.5 0-3.1-.2-4.5-.6-1.3-.4-2.6-1-3.7-1.8s-2.1-1.6-3.1-2.6c-.9-1-1.8-2-2.7-3.1-1.6 2-3.5 3.8-5.6 5.2-2.2 1.2-4.6 1.8-7.1 1.7-2.2 0-4.3-.4-6.3-1.3s-3.8-2.2-5.3-3.8c-1.6-1.7-2.8-3.8-3.6-6-.9-2.5-1.4-5.1-1.3-7.8-.1-2.9.4-5.8 1.4-8.6.8-2.2 2.1-4.2 3.6-5.9 1.4-1.5 3.1-2.6 5-3.3 1.7-.7 3.6-1 5.4-1 2.6 0 5.1.7 7.3 2.1 2.1 1.3 4 3.1 5.3 5.2 1.6-2.7 3.8-4.9 6.4-6.6 2.2-1.4 4.9-2.1 7.7-2.1zm.5 28.4c.7 0 1.5-.2 2.2-.5.8-.3 1.6-.8 2.2-1.4.7-.7 1.3-1.6 1.6-2.5.5-1.2.7-2.5.7-3.8 0-2.8-.7-4.9-2.1-6.2-1.2-1.2-2.9-1.9-4.6-2-1.2 0-2.3.3-3.4.9-1 .6-1.9 1.4-2.7 2.3-.8 1.1-1.5 2.3-2 3.5-.6 1.3-1.1 2.8-1.6 4.3 1.1 1.5 2.4 2.8 4 3.9 1.7 1 3.7 1.5 5.7 1.5zm-27-15.2c-.7 0-1.3.1-1.9.4-.7.3-1.4.7-1.9 1.2-.6.6-1.1 1.4-1.5 2.2-.4 1-.6 2.1-.6 3.2s.2 2.1.6 3.1c.7 1.6 1.9 2.8 3.5 3.4.6.3 1.3.4 2 .4 1.8 0 3.6-.7 4.9-1.9 1.9-1.8 3.3-4.1 4-6.6-1-1.6-2.2-2.9-3.8-4-1.6-1-3.4-1.5-5.3-1.4z"/><path d="M349.8 289.3c1.3-.6 2.7-1.2 4.2-1.9s2.9-1.5 4.3-2.4c1.4-.9 2.7-1.8 4-2.7 1.2-.9 2.4-1.9 3.5-3h7.3v48.5h-10.4v-35c-1.5 1-3.1 1.8-4.7 2.6-1.7.8-3.4 1.4-5 2l-3.2-8.1zm44.8 38.4c.3-3.6.9-7.1 1.8-10.6.9-3.7 2-7.3 3.2-10.9 1.2-3.4 2.7-6.8 4.3-10 1.4-2.8 3-5.6 4.8-8.1h-21.1v-9h34v7.6c-1.8 2.1-3.5 4.4-4.9 6.8-1.9 3.2-3.6 6.4-5.1 9.8-1.7 3.8-3.1 7.8-4.2 11.8-1.2 4.1-1.9 8.3-2.2 12.6h-10.6zm64.7-37.8c2.6-.1 5.2.3 7.7 1 1.9.6 3.6 1.6 4.9 3 1.3 1.3 2.2 3 2.6 4.8.5 2 .8 4.1.8 6.2v21.7c-1.5.3-3.6.7-6.2 1.1-3.2.5-6.4.7-9.7.7-2.2 0-4.3-.2-6.5-.6-1.8-.4-3.5-1.1-5-2.1-1.4-.9-2.5-2.2-3.2-3.8-.8-1.8-1.2-3.7-1.1-5.7-.1-1.9.4-3.8 1.3-5.5.8-1.5 2-2.7 3.5-3.6 1.5-.9 3.2-1.6 5-1.9 1.9-.4 3.9-.6 5.8-.6 1.2 0 2.4.1 3.6.2.9.1 1.7.2 2.6.5v-1c.1-1.6-.5-3.1-1.6-4.3-1.1-1.1-2.9-1.6-5.6-1.6-1.8 0-3.5.1-5.2.4-1.5.2-3 .6-4.5 1.1l-1.3-8.4c.6-.2 1.4-.4 2.3-.6.9-.2 1.9-.4 3-.6 1.1-.2 2.2-.3 3.4-.4s2.3-.1 3.4 0zm.9 30.5c1 0 2 0 2.9-.1.8 0 1.5-.1 2.2-.2v-7.9c-.4-.1-1.1-.2-1.9-.3-.8-.1-1.5-.1-2.3-.1-.9 0-1.9.1-2.8.2-.8.1-1.6.3-2.3.7-.6.3-1.2.8-1.5 1.3-.4.6-.6 1.4-.6 2.1-.1 1.4.5 2.7 1.6 3.4 1.6.7 3.1 1 4.7.9zm71.2-28.5c0 1.8-.3 3.5-1 5.1-.7 1.7-1.6 3.3-2.7 4.7-1.2 1.5-2.4 3-3.8 4.3-1.4 1.4-2.8 2.7-4.1 4-.7.7-1.5 1.4-2.3 2.2s-1.6 1.6-2.3 2.5c-.7.8-1.4 1.6-2 2.3-.5.5-.8 1.1-1.1 1.8h20.8v8.8h-32.4c-.1-.7-.2-1.3-.1-2V324c0-2.1.3-4.2 1.1-6.2.7-1.9 1.7-3.6 2.8-5.2 1.2-1.6 2.5-3.1 4-4.5s2.9-2.8 4.4-4.2l3.2-3c.9-.9 1.8-1.8 2.6-2.8.7-.8 1.3-1.7 1.8-2.7.4-.9.6-1.8.6-2.8 0-2.1-.6-3.5-1.8-4.3-1.3-.9-2.8-1.3-4.3-1.3-1.2 0-2.4.2-3.5.6-1 .4-2 .8-3 1.4-.8.5-1.6 1-2.4 1.6-.7.5-1.2 1-1.5 1.3l-5.2-7.3c2.1-2 4.5-3.6 7.2-4.7 2.8-1.2 5.8-1.9 8.8-1.9 2.5 0 5 .3 7.4 1 1.9.6 3.6 1.5 5.1 2.8 1.3 1.2 2.3 2.7 2.9 4.3.6 2 .9 3.9.8 5.8zm39.8 0c0 1.8-.3 3.5-1 5.1-.7 1.7-1.6 3.3-2.7 4.7-1.1 1.6-2.4 3-3.8 4.4-1.4 1.4-2.8 2.7-4.1 4-.7.7-1.5 1.4-2.3 2.2-.8.8-1.6 1.6-2.4 2.5-.7.8-1.4 1.6-2 2.3-.5.5-.8 1.1-1.1 1.8h20.9v8.8h-32.4c-.1-.7-.2-1.3-.1-2v-1.6c0-2.1.3-4.2 1.1-6.2.7-1.9 1.7-3.6 2.8-5.2 1.2-1.6 2.5-3.1 4-4.5s2.9-2.8 4.4-4.2l3.2-3c.9-.9 1.8-1.8 2.6-2.8.7-.8 1.3-1.7 1.8-2.7.4-.9.6-1.8.6-2.8 0-2.1-.6-3.5-1.8-4.3-1.3-.9-2.8-1.3-4.3-1.3-1.2 0-2.4.2-3.5.6-1 .4-2 .8-3 1.4-.8.5-1.6 1-2.3 1.6-.7.5-1.2 1-1.5 1.3l-5.2-7.4c2.1-2 4.5-3.6 7.2-4.7 2.8-1.2 5.8-1.9 8.8-1.8 2.5 0 5 .3 7.3 1 1.9.6 3.6 1.5 5.1 2.8 1.3 1.2 2.3 2.7 2.9 4.3.5 1.8.8 3.8.8 5.7zm-341.9 81.5c.1 3.3-.5 6.6-1.7 9.6-1.1 2.6-2.8 5-4.9 6.8-2.2 1.9-4.7 3.3-7.5 4.1-3.1.9-6.3 1.4-9.6 1.4-1.7 0-3.6-.1-5.5-.3-1.7-.2-3.4-.4-5-.8v-41.5c1.6-.4 3.3-.7 5-.9 1.9-.2 3.7-.3 5.5-.3 3.2 0 6.5.4 9.6 1.4 2.8.8 5.3 2.2 7.5 4.1 2.1 1.9 3.8 4.2 4.9 6.8 1.2 3.1 1.8 6.3 1.7 9.6zm-29.9 17.8l1.9.2c1.6.2 3.3.2 4.9.2 2.8.1 5.5-.4 8.1-1.3 2.2-.8 4.2-2 5.8-3.6 1.6-1.6 2.8-3.6 3.5-5.8.8-2.5 1.2-5 1.2-7.6 0-2.6-.4-5.1-1.2-7.6-.7-2.1-1.9-4.1-3.5-5.7-1.7-1.6-3.7-2.9-5.8-3.6-2.6-.9-5.4-1.3-8.1-1.3-1.6 0-3.3 0-4.9.2l-1.9.2v35.7zm39.4 3.8v-43h24.9v3.7H243v15h18.4v3.6H243v17.1h22.2v3.7l-26.4-.1zm87.2-21.6c.1 3.3-.5 6.6-1.6 9.8-1 2.6-2.5 5-4.4 7-1.8 1.9-4 3.3-6.4 4.3-5 1.9-10.5 1.9-15.5 0-2.4-.9-4.6-2.4-6.4-4.3-1.9-2-3.4-4.4-4.4-7-2.2-6.3-2.2-13.2 0-19.5 1-2.6 2.5-5 4.4-7 1.8-1.9 4-3.3 6.4-4.3 5-1.9 10.5-1.9 15.5 0 2.4.9 4.6 2.4 6.4 4.3 1.9 2 3.4 4.4 4.4 7 1.2 3.1 1.7 6.4 1.6 9.7zm-4.4 0c0-2.6-.3-5.3-1.1-7.8-.7-2.1-1.7-4.1-3.2-5.9-1.3-1.6-3-2.9-4.9-3.7-4.2-1.7-8.8-1.7-13 0-1.9.8-3.6 2.1-4.9 3.7-1.4 1.7-2.5 3.7-3.2 5.9-1.5 5.1-1.5 10.5 0 15.6.7 2.1 1.7 4.1 3.2 5.9 1.3 1.6 3 2.9 4.9 3.7 4.2 1.7 8.8 1.7 13 0 1.9-.9 3.6-2.1 4.9-3.7 1.4-1.7 2.5-3.7 3.2-5.9.7-2.5 1.1-5.1 1.1-7.8zm29.4 22.5c-2.5.1-5-.4-7.3-1.3-1.9-.8-3.6-2-4.9-3.6-1.3-1.6-2.2-3.4-2.7-5.4-.6-2.2-.9-4.4-.8-6.6v-27.1h4.2v26.5c0 2.1.2 4.1.8 6.1.5 1.6 1.3 3 2.3 4.2 1 1.1 2.2 2 3.6 2.5 3.1 1.1 6.4 1.1 9.4 0 1.4-.5 2.6-1.4 3.6-2.5 1.1-1.2 1.9-2.7 2.3-4.2.6-2 .9-4 .8-6.1v-26.5h4.2V379c0 2.2-.3 4.5-.8 6.6-.5 2-1.4 3.8-2.7 5.4-1.3 1.6-3 2.8-4.9 3.6-2.1.9-4.6 1.4-7.1 1.3zm54.1-44v3.7h-13.8V395H387v-39.4h-13.8v-3.7h31.9zm22.2 44c-2.5.1-5-.4-7.3-1.3-1.9-.8-3.6-2-4.9-3.6-1.3-1.6-2.2-3.4-2.7-5.4-.6-2.2-.9-4.4-.8-6.6v-27.1h4.2v26.5c0 2.1.2 4.1.8 6.1.5 1.6 1.3 3 2.3 4.2 1 1.1 2.2 2 3.6 2.5 3.1 1.1 6.4 1.1 9.4 0 1.4-.5 2.6-1.4 3.6-2.5 1.1-1.2 1.9-2.7 2.3-4.2.6-2 .9-4 .8-6.1v-26.5h4.2V379c0 2.2-.3 4.5-.8 6.6-.5 2-1.4 3.8-2.7 5.4-1.3 1.6-3 2.8-4.9 3.6-2.1.9-4.6 1.4-7.1 1.3zm37-.6c-.7 0-1.5 0-2.5-.1-.9-.1-1.9-.1-2.9-.2s-1.9-.2-2.8-.4c-.9-.1-1.6-.3-2.2-.5v-41.4c.8-.2 1.6-.4 2.5-.5.9-.1 1.9-.3 2.8-.4 1-.1 1.9-.2 2.9-.2.9 0 1.8-.1 2.6-.1 2.2 0 4.4.2 6.6.6 1.9.3 3.8.9 5.5 1.9 1.5.8 2.8 2 3.8 3.4 1 1.6 1.5 3.4 1.4 5.3.1 2.1-.6 4.2-1.8 5.9-1.2 1.6-2.8 2.8-4.8 3.4 1.2.3 2.3.7 3.4 1.2 1 .5 1.9 1.2 2.7 2.1.8.9 1.4 2 1.8 3.1.5 1.4.7 2.9.6 4.4.2 3.7-1.7 7.3-4.9 9.3-3 2.2-7.9 3.2-14.7 3.2zm-6.1-24.6h8.2c1.5 0 2.9-.1 4.4-.3 1.3-.2 2.5-.6 3.6-1.2 1-.6 1.8-1.4 2.4-2.4.6-1.2.9-2.5.9-3.9 0-1.3-.3-2.5-.9-3.6-.7-1-1.6-1.8-2.6-2.4-1.3-.7-2.6-1.1-4.1-1.3-1.7-.3-3.5-.4-5.2-.4-1.5 0-2.8 0-3.9.1s-1.9.2-2.6.3v15.1zm0 3.6v17c.6.1 1.6.2 2.8.3 1.2.1 2.5.2 3.8.2 1.9 0 3.7-.1 5.6-.4 1.6-.2 3.2-.7 4.8-1.4 1.3-.6 2.4-1.6 3.3-2.7.9-1.3 1.3-2.9 1.2-4.5.1-1.4-.2-2.9-.9-4.1-.6-1.1-1.4-2-2.5-2.6-1.2-.7-2.6-1.1-3.9-1.3-1.7-.3-3.5-.4-5.2-.4l-9-.1zm63.6-9.5c.2 2.8-.8 5.5-2.5 7.6-1.8 1.9-4.1 3.3-6.7 4 .7.8 1.5 1.9 2.6 3.4s2.1 3 3.3 4.6 2.2 3.4 3.3 5.2c1 1.7 1.9 3.4 2.7 5.2H520c-.9-1.7-1.8-3.3-2.8-5-1-1.7-2.1-3.3-3.1-4.8-1.1-1.6-2.1-3-3.1-4.3l-2.6-3.5c-1.3.1-2.7.2-4 .2h-7v17.4h-4.2v-42.2c1.7-.5 3.5-.8 5.2-.9 2-.2 3.9-.3 5.6-.3 5.9 0 10.4 1.1 13.4 3.4s4.4 5.7 4.4 10zm-17.4-9.6c-1.6 0-2.9.1-4.1.2l-3 .3V374h5.8c1.8 0 3.7-.1 5.5-.3 1.6-.1 3.1-.6 4.5-1.2 1.2-.6 2.3-1.6 3-2.8.8-1.5 1.2-3.2 1.1-4.9.1-1.6-.3-3.3-1.1-4.7-.7-1.2-1.7-2.3-2.9-3-1.3-.7-2.7-1.3-4.1-1.5-1.5-.3-3.1-.4-4.7-.4zm65.8 18.2c.1 3.3-.5 6.6-1.6 9.8-1 2.6-2.5 5-4.4 7-1.8 1.9-4 3.3-6.4 4.3-5 1.9-10.5 1.9-15.5 0-2.4-.9-4.6-2.4-6.4-4.3-1.9-2-3.4-4.4-4.4-7-2.2-6.3-2.2-13.2 0-19.5 1-2.6 2.5-5 4.4-7 1.8-1.9 4-3.3 6.4-4.3 5-1.9 10.5-1.9 15.5 0 2.4.9 4.6 2.4 6.4 4.3 1.9 2 3.4 4.4 4.4 7 1.1 3.1 1.6 6.4 1.6 9.7zm-4.5 0c0-2.6-.3-5.3-1.1-7.8-.7-2.1-1.7-4.1-3.2-5.9-1.3-1.6-3-2.9-4.9-3.7-4.2-1.7-8.8-1.7-13 0-1.9.8-3.6 2.1-4.9 3.7-1.4 1.7-2.5 3.7-3.2 5.9-1.5 5.1-1.5 10.5 0 15.6.7 2.1 1.7 4.1 3.2 5.9 1.3 1.6 3 2.9 4.9 3.7 4.2 1.7 8.8 1.7 13 0 1.9-.9 3.6-2.1 4.9-3.7 1.4-1.7 2.5-3.7 3.2-5.9.7-2.5 1.1-5.1 1.1-7.8zm-358.3 80.2c-.3-.6-.8-1.3-1.3-2.1s-1.1-1.7-1.7-2.6l-1.9-2.9c-.7-1-1.3-1.9-2-2.9-.7-.9-1.3-1.8-2-2.6s-1.2-1.5-1.7-2.1v15.2h-1.7v-18h1.4c.9 1 1.8 2.1 2.8 3.4 1 1.3 2 2.6 3 4 1 1.3 1.9 2.6 2.7 3.9.8 1.3 1.5 2.4 2.1 3.4v-14.7h1.7v18h-1.4zm18.3 0c-.3-.9-.7-1.7-.9-2.5-.3-.8-.6-1.6-.8-2.4h-8.8l-.9 2.4c-.3.8-.6 1.7-.9 2.5h-1.8c.7-1.9 1.3-3.6 1.9-5.2s1.2-3.1 1.8-4.6c.6-1.4 1.2-2.8 1.7-4.2s1.2-2.7 1.8-4h1.6c.7 1.3 1.3 2.7 1.8 4 .5 1.3 1.1 2.7 1.8 4.2.6 1.4 1.2 3 1.8 4.6s1.3 3.4 2 5.2h-2.1zm-6.2-16c-.7 1.5-1.3 3-1.9 4.5s-1.2 3.2-1.9 5h7.7c-.7-1.8-1.3-3.4-1.9-5s-1.3-3-2-4.5zm20.8-2v1.5h-5.8v16.5h-1.8v-16.5H227v-1.5h13.3zm13.6 18c-.3-.9-.7-1.7-.9-2.5s-.6-1.6-.8-2.4h-8.8l-.9 2.4c-.3.8-.6 1.7-.9 2.5h-1.8c.7-1.9 1.3-3.6 1.9-5.2.6-1.6 1.2-3.1 1.8-4.6.6-1.4 1.2-2.8 1.7-4.2s1.2-2.7 1.8-4h1.6c.7 1.3 1.3 2.7 1.8 4 .5 1.3 1.1 2.7 1.7 4.2.6 1.4 1.2 3 1.8 4.6s1.3 3.4 2 5.2h-2zm-6.2-16c-.7 1.5-1.3 3-1.9 4.5s-1.2 3.2-1.9 5h7.7c-.7-1.8-1.3-3.4-1.9-5-.7-1.5-1.3-3-2-4.5zm20.9 14.5v1.5h-10.2v-18h1.8V452l8.4.1zm9-18.8h1.6v25.1h-1.6v-25.1zm24.5 7.7c.1 1.2-.3 2.3-1.1 3.2-.8.8-1.7 1.4-2.8 1.7.3.3.6.8 1.1 1.4s.9 1.2 1.4 1.9c.5.7.9 1.4 1.4 2.2.4.7.8 1.4 1.1 2.2h-1.9l-1.2-2.1c-.4-.7-.9-1.4-1.3-2-.4-.7-.9-1.3-1.3-1.8l-1.1-1.5c-.6.1-1.1.1-1.7.1h-2.9v7.3H290v-17.7c.7-.2 1.5-.3 2.2-.4.8-.1 1.6-.1 2.3-.1 2-.1 3.9.4 5.6 1.4 1.4 1 2.1 2.6 2 4.2zm-7.3-4c-.7 0-1.2 0-1.7.1l-1.2.1v7.6h2.4c.8 0 1.5 0 2.3-.1.7-.1 1.3-.2 1.9-.5.5-.3 1-.7 1.3-1.2.3-.6.5-1.3.5-2s-.1-1.4-.5-2c-.3-.5-.7-.9-1.2-1.2-.5-.3-1.1-.5-1.7-.6-.8-.2-1.4-.3-2.1-.2zm11.3-1.4h1.8v18h-1.8v-18zm22.6 9c0 1.4-.2 2.8-.7 4.1-.4 1.1-1 2.1-1.8 3-.8.8-1.7 1.4-2.7 1.8-2.1.8-4.4.8-6.5 0-1-.4-1.9-1-2.7-1.8-.8-.8-1.4-1.9-1.8-3-.9-2.6-.9-5.5 0-8.1.4-1.1 1-2.1 1.8-2.9.8-.8 1.7-1.4 2.7-1.8 2.1-.8 4.4-.8 6.5 0 1 .4 1.9 1 2.7 1.8.8.8 1.4 1.8 1.8 2.9.5 1.2.7 2.6.7 4zm-1.9 0c0-1.1-.1-2.2-.5-3.3-.3-.9-.7-1.7-1.3-2.5-.6-.7-1.3-1.2-2.1-1.5-1.7-.7-3.7-.7-5.4 0-.8.3-1.5.9-2.1 1.5-.6.7-1 1.6-1.3 2.5-.6 2.1-.6 4.4 0 6.5.3.9.7 1.7 1.3 2.5.6.7 1.3 1.2 2.1 1.6 1.7.7 3.7.7 5.4 0 .8-.4 1.5-.9 2.1-1.6.6-.7 1-1.6 1.3-2.5.4-1 .6-2.1.5-3.2zm23 .5h1.8v8c-.6.2-1.3.4-1.9.5-1.2.2-2.4.3-3.6.3-1.1 0-2.2-.2-3.3-.6-1-.4-1.9-1-2.6-1.8-.8-.8-1.4-1.8-1.7-2.9-.4-1.3-.6-2.6-.6-4s.2-2.7.7-4c.4-1.1 1-2.1 1.8-2.9.8-.8 1.7-1.4 2.7-1.8 1-.4 2.2-.6 3.3-.6 1.1 0 2.2.1 3.3.4.7.2 1.3.5 1.9.8l-.6 1.5c-.6-.4-1.3-.7-2-.8-.9-.2-1.8-.3-2.7-.3-.9 0-1.7.2-2.5.5s-1.5.8-2.1 1.5c-.6.7-1.1 1.5-1.4 2.4-.4 1.1-.5 2.2-.5 3.4 0 1.1.1 2.2.4 3.2.2.9.7 1.7 1.3 2.5.6.7 1.3 1.2 2.1 1.6.9.4 1.9.6 2.9.5.7 0 1.5 0 2.2-.1.4 0 .8-.1 1.2-.3v-7zm17.9-4.1c.1 1.2-.3 2.3-1.1 3.2-.8.8-1.7 1.4-2.8 1.7.3.3.6.8 1.1 1.4s.9 1.2 1.4 1.9c.5.7.9 1.4 1.4 2.2.4.7.8 1.4 1.1 2.2h-1.9l-1.2-2.1c-.4-.7-.9-1.4-1.3-2-.4-.7-.9-1.3-1.3-1.8l-1.1-1.5c-.6.1-1.1.1-1.7.1h-2.9v7.3h-1.8v-17.7c.7-.2 1.5-.3 2.2-.4.8-.1 1.6-.1 2.3-.1 2-.1 3.9.4 5.6 1.4 1.4 1 2.1 2.6 2 4.2zm-7.3-4c-.7 0-1.2 0-1.7.1l-1.2.1v7.6h2.5c.8 0 1.5 0 2.3-.1.7-.1 1.3-.2 1.9-.5.5-.3 1-.7 1.3-1.2.3-.6.5-1.3.5-2s-.1-1.4-.5-2c-.3-.5-.7-.9-1.2-1.2-.5-.3-1.1-.5-1.7-.6-.8-.2-1.5-.3-2.2-.2zm24.2 16.6c-.3-.9-.7-1.7-1-2.5s-.6-1.6-.8-2.4H374l-.9 2.4c-.3.8-.6 1.7-.9 2.5h-1.8c.7-1.9 1.3-3.6 1.9-5.2.6-1.6 1.2-3.1 1.8-4.6.6-1.4 1.2-2.8 1.7-4.2s1.2-2.7 1.8-4h1.6c.7 1.3 1.3 2.7 1.8 4 .5 1.3 1.1 2.7 1.7 4.2.6 1.4 1.2 3 1.8 4.6s1.3 3.4 2 5.2h-1.9zm-6.2-16c-.7 1.5-1.3 3-1.9 4.5s-1.2 3.2-1.9 5h7.7c-.7-1.8-1.3-3.4-1.9-5-.7-1.5-1.4-3-2-4.5zm22.9 16c-.3-.6-.8-1.3-1.3-2.1s-1.1-1.7-1.7-2.6l-1.9-2.9c-.7-1-1.3-1.9-2-2.9-.7-.9-1.3-1.8-2-2.6s-1.2-1.5-1.7-2.1v15.2H389v-18h1.4c.9 1 1.8 2.1 2.8 3.4 1 1.3 2 2.6 3 4 1 1.3 1.9 2.6 2.7 3.9.8 1.3 1.5 2.4 2.1 3.4v-14.7h1.7v18h-1.4zm20.5-9c0 1.4-.2 2.7-.7 4-.4 1.1-1.1 2.1-2 2.9-.9.8-2 1.4-3.1 1.7-1.3.4-2.6.6-4 .6-.7 0-1.5 0-2.3-.1-.7-.1-1.4-.2-2.1-.4V436c.7-.2 1.4-.3 2.1-.4.8-.1 1.6-.1 2.3-.1 1.4 0 2.7.2 4 .6 1.1.4 2.2 1 3.1 1.8.9.8 1.6 1.8 2 2.9.4 1.1.7 2.4.7 3.8zm-12.5 7.4l.8.1c.7.1 1.3.1 2 .1 1.2 0 2.3-.2 3.4-.5.9-.3 1.7-.8 2.4-1.5s1.2-1.5 1.5-2.4c.3-1 .5-2.1.5-3.2s-.1-2.1-.5-3.2c-.3-.9-.8-1.7-1.5-2.4s-1.5-1.2-2.4-1.5c-1.1-.4-2.2-.6-3.4-.5-.7 0-1.3 0-2 .1l-.8.1V452zm16.4 1.6v-18h10.4v1.5h-8.6v6.3h7.7v1.5h-7.7v7.2h9.3v1.5h-11.1zm34.6-9c0 1.4-.2 2.7-.7 4-.4 1.1-1.1 2.1-2 2.9-.9.8-2 1.4-3.1 1.7-1.3.4-2.6.6-4 .6-.7 0-1.5 0-2.3-.1-.7-.1-1.4-.2-2.1-.4V436c.7-.2 1.4-.3 2.1-.4.8-.1 1.6-.1 2.3-.1 1.4 0 2.7.2 4 .6 1.2.3 2.2.9 3.1 1.7.9.8 1.6 1.8 2 2.9.5 1.1.8 2.5.7 3.9zm-12.5 7.4l.8.1c.7.1 1.3.1 2 .1 1.2 0 2.3-.2 3.4-.5.9-.3 1.7-.8 2.4-1.5s1.2-1.5 1.5-2.4c.3-1 .5-2.1.5-3.2s-.1-2.1-.5-3.2c-.3-.9-.8-1.7-1.5-2.4s-1.5-1.2-2.4-1.5c-1.1-.4-2.2-.6-3.4-.5-.7 0-1.3 0-2 .1l-.8.1V452zm32.6-7.4c0 1.4-.2 2.8-.7 4.1-.4 1.1-1 2.1-1.8 3-.8.8-1.7 1.4-2.7 1.8-2.1.8-4.4.8-6.5 0-1-.4-1.9-1-2.7-1.8-.8-.8-1.4-1.9-1.8-3-.9-2.6-.9-5.5 0-8.1.4-1.1 1-2.1 1.8-2.9.8-.8 1.7-1.4 2.7-1.8 2.1-.8 4.4-.8 6.5 0 1 .4 1.9 1 2.7 1.8.8.8 1.4 1.8 1.8 2.9.5 1.2.8 2.6.7 4zm-1.8 0c0-1.1-.1-2.2-.5-3.3-.3-.9-.7-1.7-1.3-2.5-.6-.7-1.3-1.2-2.1-1.5-1.7-.7-3.7-.7-5.4 0-.8.3-1.5.9-2.1 1.5-.6.7-1 1.6-1.3 2.5-.6 2.1-.6 4.4 0 6.5.3.9.7 1.7 1.3 2.5.6.7 1.3 1.2 2.1 1.6 1.7.7 3.7.7 5.4 0 .8-.4 1.5-.9 2.1-1.6.6-.7 1-1.6 1.3-2.5.3-1 .5-2.1.5-3.2zm24 9c-.3-.6-.8-1.3-1.3-2.1s-1.1-1.7-1.7-2.6l-1.9-2.9c-.7-1-1.3-1.9-2-2.9-.7-.9-1.3-1.8-2-2.6s-1.2-1.5-1.7-2.1v15.2h-1.7v-18h1.4c.9 1 1.8 2.1 2.8 3.4 1 1.3 2 2.6 3 4 1 1.3 1.9 2.6 2.7 3.9s1.5 2.4 2.1 3.4v-14.7h1.7v18h-1.4zm22.3-9c0 1.4-.2 2.8-.7 4.1-.4 1.1-1 2.1-1.8 3-.8.8-1.7 1.4-2.7 1.8-2.1.8-4.4.8-6.5 0-1-.4-1.9-1-2.7-1.8-.8-.8-1.4-1.9-1.8-3-.9-2.6-.9-5.5 0-8.1.4-1.1 1-2.1 1.8-2.9.8-.8 1.7-1.4 2.7-1.8 2.1-.8 4.4-.8 6.5 0 1 .4 1.9 1 2.7 1.8.8.8 1.4 1.8 1.8 2.9.5 1.2.7 2.6.7 4zm-1.9 0c0-1.1-.1-2.2-.5-3.3-.3-.9-.7-1.7-1.3-2.5-.6-.7-1.3-1.2-2.1-1.5-1.7-.7-3.7-.7-5.4 0-.8.3-1.5.9-2.1 1.5-.6.7-1 1.6-1.3 2.5-.6 2.1-.6 4.4 0 6.5.3.9.7 1.7 1.3 2.5.6.7 1.3 1.2 2.1 1.6 1.7.7 3.7.7 5.4 0 .8-.4 1.5-.9 2.1-1.6.6-.7 1-1.6 1.3-2.5.4-1 .5-2.1.5-3.2zm17.8-3.6c.1 1.2-.3 2.3-1.1 3.2-.8.8-1.8 1.4-2.8 1.7.3.3.6.8 1.1 1.4.4.6.9 1.2 1.4 1.9.5.7.9 1.4 1.4 2.2.4.7.8 1.4 1.1 2.2H540l-1.2-2.1c-.4-.7-.9-1.4-1.3-2-.4-.7-.9-1.3-1.3-1.8l-1.1-1.5c-.6.1-1.1.1-1.7.1h-2.9v7.3h-1.8v-17.7c.7-.2 1.5-.3 2.2-.4.8-.1 1.6-.1 2.3-.1 2-.1 3.9.4 5.6 1.4 1.4 1 2.1 2.6 2 4.2zm-7.3-4c-.7 0-1.2 0-1.7.1l-1.2.1v7.6h2.4c.8 0 1.5 0 2.3-.1.7-.1 1.3-.2 1.9-.5.5-.3 1-.7 1.3-1.2.3-.6.5-1.3.5-2s-.1-1.4-.5-2c-.3-.5-.7-.9-1.2-1.2-.5-.3-1.1-.5-1.7-.6-.7-.2-1.4-.3-2.1-.2zm22.8-1.4v1.5h-5.8v16.5h-1.8v-16.5H543v-1.5h13.3zm2.8 18v-18h10.4v1.5h-8.6v6.3h7.7v1.5h-7.7v7.2h9.3v1.5h-11.1z" fill="#102e46"/><path class="st0" d="M184.2 414.9h396.9v2.8H184.2z"/><path class="st2" d="M141.9 36.6L63.1 178.2l-22.4 1.4-20 34.7 58.5 21.5 29.3-12.6 15.4-28.2 60.1-20.2 11.7 3.3-.3 15.3-35 44.8v21.5h21.3l14 19.9 25.7-14.9 18.8 4.2 3 18.7 21-6.7 16-15.9-4-37.9 14.6-14.4h15.3l4.7 12.4 41.2 6.8 107.8-1.8-42.9-142.2L365 59.2l-63.4 3.5-61.3-10.3-46.5-23.3z"/><path class="st2" d="M127.9 176.5l55.9-1.8 14.2-35.5-70.1 37.3z" id="triangle36_9_"/><path class="st2" d="M184 174.5c-.1-.1-.1-.2-.1-.3l14.1-34.6c0-.1.1-.2.3-.2l1.5 27.7c.1 0 .2.1.3.2 0 .1 0 .2-.1.3l-15.6 7c-.1.1-.3 0-.4-.1z" id="triangle36-2_9_"/><path class="st2" d="M352.7 231.9c-.1-.1-.1-.2-.1-.3l7.1-73.4c.1-.1.2-.2.3-.2l91.3 44c.1.1.2.2.1.3 0 0 0 .1-.1.1l-98.4 29.4c.1.2-.1.2-.2.1z" id="triangle36-3_9_"/><path class="st2" d="M226.2 103.6l-30.5 74.5 65-34.3-34.5-40.2z" id="triangle36-4_9_"/><path class="st2" d="M146.9 91L63 178.2l60.7 17.2L146.9 91z" id="triangle36-5_9_"/><path class="st2" d="M359.7 158c-.1-.2-.1-.3 0-.4l51.5-59.2c.1-.1.2-.1.3-.1l9.6 5c.1.1.2.2.1.4 0 .1-.1.1-.2.1l-61.1 54.3c-.1 0-.2 0-.2-.1z" id="triangle36-6_9_"/><path class="st2" d="M302.5 63.8c-.1-.1-.2-.2-.1-.3.1-.1.2-.2.3-.1l113.9 24.5c.1 0 .1.1.2.2v.2l-5.4 9.4c-.1.1-.2.2-.3.1l-108.6-34z" id="triangle36-7_9_"/><path class="st2" d="M226.1 104.1c-.1-.1-.1-.3 0-.4 0 0 .1-.1.2-.1l75.8-40.3h.2l-6.4 46.8c.1.1.1.3 0 .4-.1.1-.2.1-.3.1l-69.5-6.5z" id="triangle36-8_9_"/><path class="st2" d="M326.2 71.9c.1.1.1.2.1.3l33.4 85.8c0 .1-.1.2-.2.2h-.3l-63-47.2c-.1-.1-.1-.2-.1-.3 0-.1.1-.2.2-.3l29.6-38.5c.1-.1.2-.1.3 0z" id="triangle36-9_9_"/><path class="st2" d="M196.7 71.2h-.2l-54.2-34c-.1-.1-.1-.2-.1-.3 0-.1.2-.2.3-.2l72.8 3.2c.1 0 .2 0 .2.1v.3l-18.6 30.8c0 .1-.1.1-.2.1z" id="triangle36-10_9_"/><path class="st2" d="M196.6 71.7L147.2 91c-.1.1-.3 0-.3-.1L128 62.1c-.1-.1-.1-.2 0-.3.1-.1.2-.1.3-.1l68.2 9.5c.1 0 .2 0 .3.1 0 .2-.1.3-.2.4z" id="triangle36-11_9_"/><path class="st2" d="M226 103.6c0-.1 0-.1 0 0 0-.1-29.3-32.3-29.3-32.3L240 52.4l-13.6 51.1c0 .1-.2.2-.3.2 0-.1-.1-.1-.1-.1z" id="triangle36-12_9_"/><path class="st2" d="M293.8 175.3c-.1-.1-.1-.1-.1-.2l2.3-63.8c0-.1.1-.3.3-.3.1 0 .1 0 .2.1l63 46.8c.1.1.1.2.1.3 0 .1-.1.2-.2.2l-65.3 17c-.1 0-.2 0-.3-.1z" id="triangle36-13_9_"/><path class="st2" d="M256.5 246.1l-.1-.1v-.3l37.3-69.7c.1-.1.1-.1.3-.1.1 0 .2.1.2.2l-2.9 35.9v.2c0 .1-.1.1-.2.1L256.8 246c-.2.1-.2.1-.3.1z" id="triangle36-14_9_"/><path class="st2" d="M255.9 245.8c-.1 0-.2-.1-.2-.3l-25.6-62c0-.1 30.4-39.7 30.5-39.8.1 0 12 22.6 12.1 22.7l20.7 9.4c.1.1.1.2 0 .3l-37.3 69.6c.1.1 0 .1-.2.1z" id="triangle36-15_9_"/><path class="st2" d="M230.2 183.5l64.1-26.1m-96-17.9l27.7-36M146.9 91l51.2 47.9m27.9-35.4L146.9 91m158.7 121.7l47.1 18.9M294 175.4l11.6 37.3m-11.5-36.6l58.6 55.5m-92.4-88.4l34 14.2m-22 9l-16 79.3m-147.2-23.6L63 178.2m17.8 56.9l5.3-35m-65.4 14.2l65.4-14.2m-23-21.9l-42 36m209.1-30.7L181.9 260m13.5-66.6l34.8-9.9m-69.8 54.7l21.5 21.8m82.4 20.3l12.2-52.3m-36.3 40.9l29.3-10.9m-12.9-11.9l12.9 11.9m-29.9 10.8l16.2-23.3m-34.4 19.2l34.4-19.2M181.9 260l57.3-5.2m1.9-.7l-31.4-34.6m-49.3 18.7l47.7-19.6m47.8 27.2l-47.8-27.2M392 130.1l47.3 32.9m-39.1 14.4l39.7-14m-47.7-33.3l8.2 47.3-25.2 13.2 76.3 12-97.1 10.3 14.6-37-9.2-17.7m9.2 17.7l5.9 14.7"/><path class="st3" d="M132.3 46.8L53.5 188.4l-22.4 1.4-20 34.7L69.7 246 99 233.4l15.3-28.2 60.2-20.2 11.7 3.3-.4 15.3-35 44.8v21.5h21.3l14 19.9 25.7-14.9 18.9 4.2 3 18.7 20.9-6.7 16-15.9-4-37.9 14.7-14.4h15.2l4.7 12.4 41.3 6.8 107.8-1.8-43-142.2-51.9-28.7-63.4 3.5-61.2-10.3-46.6-23.3z"/><path class="st3" d="M118.4 186.7l55.9-1.8 14.2-35.5-70.1 37.3z" id="triangle36_8_"/><path class="st3" d="M174.5 184.7c-.1-.1-.1-.2-.1-.3l14.1-34.6c0-.1.1-.2.3-.2l1.5 27.7c.1 0 .2.1.3.2 0 .1 0 .2-.1.3l-15.6 7c-.2.1-.3 0-.4-.1z" id="triangle36-2_8_"/><path class="st3" d="M343.2 242.1c-.1-.1-.1-.2-.1-.3l7.1-73.4c.1-.1.2-.2.3-.2l91.3 44c.1.1.2.2.1.3 0 0 0 .1-.1.1L343.4 242c0 .2-.1.2-.2.1z" id="triangle36-3_8_"/><path class="st3" d="M216.7 113.8l-30.5 74.5 65-34.3-34.5-40.2z" id="triangle36-4_8_"/><path class="st3" d="M137.3 101.2l-83.8 87.2 60.7 17.2 23.1-104.4z" id="triangle36-5_8_"/><path class="st3" d="M350.1 168.2c-.1-.2-.1-.3 0-.4l51.5-59.2c.1-.1.2-.1.3-.1l9.6 5c.1.1.2.2.1.4 0 .1-.1.1-.2.1l-61.1 54.3s-.1 0-.2-.1z" id="triangle36-6_8_"/><path class="st3" d="M292.9 74c-.1-.1-.2-.2-.1-.3.1-.1.2-.2.3-.1L407 98.1c.1 0 .1.1.2.2v.2l-5.4 9.4c-.1.1-.2.2-.3.1L292.9 74z" id="triangle36-7_8_"/><path class="st3" d="M216.5 114.3c-.1-.1-.1-.3 0-.4 0 0 .1-.1.2-.1l75.8-40.3h.2l-6.4 46.8c.1.1.1.3 0 .4-.1.1-.2.1-.3.1l-69.5-6.5z" id="triangle36-8_8_"/><path class="st3" d="M316.6 82.1c.1.1.1.2.1.3l33.4 85.8c0 .1-.1.2-.2.2h-.3l-63-47.2c-.1-.1-.1-.2-.1-.3 0-.1.1-.2.2-.3l29.6-38.5c.1-.1.2-.1.3 0z" id="triangle36-9_8_"/><path class="st3" d="M187.2 81.4h-.2l-54.2-34c-.1-.1-.1-.2-.1-.3 0-.1.2-.2.3-.2l72.8 3.2c.1 0 .2 0 .2.1v.3l-18.6 30.8c-.1.1-.1.1-.2.1z" id="triangle36-10_8_"/><path class="st3" d="M187 81.9l-49.4 19.3c-.1.1-.3 0-.3-.1l-18.9-28.8c-.1-.1-.1-.2 0-.3.1-.1.2-.1.3-.1l68.2 9.5c.1 0 .2 0 .3.1 0 .2 0 .3-.2.4.1 0 .1 0 0 0z" id="triangle36-11_8_"/><path class="st3" d="M216.5 113.8c-.1-.1-.1-.1 0 0 0-.1-29.3-32.3-29.3-32.3l43.3-18.9-13.6 51.1c0 .1-.2.2-.3.2l-.1-.1z" id="triangle36-12_8_"/><path class="st3" d="M284.2 185.5c-.1-.1-.1-.1-.1-.2l2.3-63.8c0-.1.1-.3.3-.3.1 0 .1 0 .2.1l63 46.8c.1.1.1.2.1.3 0 .1-.1.2-.2.2l-65.3 17c-.1 0-.2 0-.3-.1z" id="triangle36-13_8_"/><path class="st3" d="M247 256.2l-.1-.1v-.3l37.3-69.7c.1-.1.1-.1.3-.1.1 0 .2.1.2.2l-2.9 35.9v.2c0 .1-.1.1-.2.1l-34.3 33.7c-.2.2-.3.2-.3.1z" id="triangle36-14_8_"/><path class="st3" d="M246.4 256c-.1 0-.2-.1-.2-.3l-25.6-62c0-.1 30.4-39.7 30.5-39.8s12 22.6 12.1 22.7L284 186c.1.1.1.2 0 .3l-37.3 69.6c0 .1-.2.1-.3.1z" id="triangle36-15_8_"/><path class="st3" d="M220.7 193.7l64.1-26.1m-96.1-18l27.7-35.9m-79.1-12.5l51.2 47.9m27.9-35.4l-79.1-12.5M296 222.9l47.1 18.9m-58.6-56.2l11.5 37.3m-11.4-36.6l58.5 55.5m-92.3-88.4l34 14.2m-22 9l-16.1 79.3M99.6 232.3l-46.1-43.9m17.8 56.9l5.2-35m-65.4 14.2l65.4-14.2m-23-21.9l-42 36m209.2-30.7l-48.4 76.5m13.5-66.6l34.9-9.9m-69.9 54.7l21.5 21.8m82.4 20.3l12.2-52.3m-36.2 40.9l29.2-10.9m-12.8-11.9l12.8 11.9M230 279l16.2-23.3m-34.4 19.2l34.4-19.2m-73.9 14.5l57.3-5.2m2-.7l-31.4-34.6m-49.4 18.7l47.7-19.6m47.9 27.2l-47.9-27.2m184-88.5l47.3 32.9m-39.1 14.4l39.7-14m-47.7-33.3l8.2 47.3-25.3 13.2 76.3 12-97.1 10.3 14.6-37-9.1-17.7m9.1 17.7l5.9 14.7"/><path class="st4" d="M123.4 59.9L44.6 201.5l-22.4 1.4-19.9 34.7 58.5 21.5 29.3-12.6 15.4-28.2 60.1-20.3 11.7 3.3-.3 15.3-35 44.9V283h21.3l14 19.8 25.7-14.9 18.9 4.3 3 18.6 20.9-6.7 16-15.9-4-37.9 14.6-14.4h15.3l4.7 12.3 41.2 6.9 107.8-1.9-43-142.2-51.9-28.7-63.4 3.6-61.2-10.3-46.6-23.2z"/><path class="st4" d="M109.5 199.8l55.9-1.8 14.2-35.5-70.1 37.3z" id="triangle36_7_"/><path class="st4" d="M165.6 197.8c-.1-.1-.1-.2-.1-.3l14-34.6c0-.1.1-.2.3-.2l1.5 27.7c.1 0 .2.1.3.2 0 .1 0 .2-.1.3l-15.6 7c-.1 0-.2 0-.3-.1z" id="triangle36-2_7_"/><path class="st4" d="M334.3 255.1c-.1-.1-.1-.2-.1-.3l7.1-73.4c.1-.1.2-.2.3-.2l91.3 44c.1.1.2.2.1.3 0 0 0 .1-.1.1L334.5 255c.1.1 0 .1-.2.1z" id="triangle36-3_7_"/><path class="st4" d="M207.8 126.8l-30.4 74.5 65-34.4-34.6-40.1z" id="triangle36-4_7_"/><path class="st4" d="M128.4 114.2l-83.8 87.3 60.7 17.1 23.1-104.4z" id="triangle36-5_7_"/><path class="st4" d="M341.2 181.2c-.1-.2-.1-.3 0-.4l51.5-59.2c.1-.1.2-.1.3-.1l9.6 5c.1.1.2.2.1.4 0 .1-.1.1-.2.1l-61.1 54.3c0-.1-.1-.1-.2-.1z" id="triangle36-6_7_"/><path class="st4" d="M284 87c-.1-.1-.2-.2-.1-.3.1-.1.2-.2.3-.1L398.1 111c.1 0 .1.1.2.2v.2l-5.4 9.4c-.1.1-.2.2-.3.1L284 87z" id="triangle36-7_7_"/><path class="st4" d="M207.6 127.3c-.1-.1-.1-.3 0-.4 0 0 .1-.1.2-.1l75.8-40.4h.2l-6.4 46.8c.1.1.1.3 0 .4-.1.1-.2.1-.3.1l-69.5-6.4z" id="triangle36-8_7_"/><path class="st4" d="M307.7 95c.1.1.1.2.1.3l33.5 85.8c0 .1-.1.2-.2.2h-.3l-63-47.2c-.1-.1-.1-.2-.1-.3 0-.1.1-.2.2-.3L307.5 95h.2z" id="triangle36-9_7_"/><path class="st4" d="M178.2 94.5h-.2l-54.2-34c-.1-.1-.1-.2-.1-.3 0-.1.2-.2.3-.2l72.8 3.2c.1 0 .2 0 .2.1v.3l-18.5 30.8c-.1 0-.1 0-.3.1z" id="triangle36-10_7_"/><path class="st4" d="M178.1 95l-49.4 19.4c-.1.1-.3 0-.3-.1l-18.9-28.8c-.1-.1-.1-.2 0-.3.1-.1.2-.1.3-.1l68.2 9.4c.1 0 .2 0 .3.1 0 .1 0 .3-.2.4 0-.1 0-.1 0 0z" id="triangle36-11_7_"/><path class="st4" d="M207.6 126.8c-.1 0-.1-.1 0 0 0-.1-29.4-32.3-29.3-32.3l43.3-18.9-13.6 51.1c0 .1-.2.2-.3.2l-.1-.1z" id="triangle36-12_7_"/><path class="st4" d="M275.4 198.5c-.1-.1-.1-.1-.1-.2l2.3-63.8c0-.1.1-.3.3-.3.1 0 .1 0 .2.1l63 46.8c.1.1.1.2.1.3 0 .1-.1.2-.2.2l-65.3 17c-.1 0-.2 0-.3-.1z" id="triangle36-13_7_"/><path class="st4" d="M238.1 269.3l-.1-.1v-.3l37.2-69.7c.1-.1.1-.1.3-.1.1 0 .2.1.2.2l-2.9 35.9v.2c0 .1-.1.1-.2.1l-34.3 33.7c-.1.1-.1.1-.2.1z" id="triangle36-14_7_"/><path class="st4" d="M237.6 269c-.1 0-.2-.1-.2-.3l-25.6-62c0-.1 30.4-39.7 30.5-39.8.1 0 12 22.6 12.1 22.6l20.8 9.4c.1.1.1.2 0 .3l-37.3 69.6c-.1.2-.2.3-.3.2z" id="triangle36-15_7_"/><path class="st4" d="M211.8 206.7l64.1-26.1m-96-17.9l27.6-36m-79.1-12.5l51.2 47.9m27.9-35.4l-79.1-12.5m158.8 121.7l47.1 18.9m-58.7-56.2l11.6 37.3m-11.5-36.6l58.6 55.5m-92.4-88.4l34 14.2m-22 9l-16 79.3M90.7 245.4l-46.1-43.9m17.9 56.9l5.2-35M2.3 237.6l65.4-14.2m-23.1-21.9l-41.9 36m209.1-30.8l-48.3 76.6m13.5-66.7l34.8-9.9M142 261.5l21.5 21.8m82.4 20.2l12.2-52.3m-36.2 41l29.2-11m-12.8-11.9l12.8 11.9M221.2 292l16.2-23.3M203 287.9l34.4-19.2m-73.9 14.6l57.3-5.3m1.9-.7l-31.4-34.6M142 261.5l47.7-19.7m47.9 27.2l-47.9-27.2m183.9-88.6l47.3 32.9m-39.1 14.5l39.7-14.1m-47.7-33.3l8.2 47.3-25.2 13.2 76.2 12-97 10.4 14.5-37-9.1-17.8m9.1 17.8l6 14.7"/></svg>