<svg id="Camada_1" data-name="Camada 1" xmlns="http://www.w3.org/2000/svg" viewBox="0 0 200 200"><defs><style>.cls-1{fill:#020202;fill-rule:evenodd}</style></defs><path class="cls-1" d="M66.24 104.81a9.61 9.61 0 1 1-9.61 9.6 9.62 9.62 0 0 1 9.61-9.6"/><path class="cls-1" d="M82.7 100.58a26.58 26.58 0 0 0-7.7-4.65 23.8 23.8 0 0 0-8.53-1.55q-8.67 0-14.09 5.55T47 114.33a19.67 19.67 0 0 0 5.28 14.11A17.6 17.6 0 0 0 65.57 134a24.25 24.25 0 0 0 8.93-1.66 28.39 28.39 0 0 0 8.13-5V137a25 25 0 0 1-7.54 3.71 30.18 30.18 0 0 1-8.84 1.29A31 31 0 0 1 55 140a26.43 26.43 0 0 1-15-14.78 29.21 29.21 0 0 1-2.06-11A28.89 28.89 0 0 1 40 103.31a27.15 27.15 0 0 1 15-14.86 29.67 29.67 0 0 1 11-2 29 29 0 0 1 9 1.38 31 31 0 0 1 8.19 4.08z"/><path d="M61.79 61.93L64 114.81c.2 3.83 5.18 3.83 5.34 0l2.34-52.39a5 5 0 0 0-9.84-.49" fill="#0060a8" fill-rule="evenodd"/><path d="M48.32 65L64 115.58c1.18 3.64 6 2.36 5.17-1.38L58 63a4.94 4.94 0 0 0-6-3 5 5 0 0 0-3.72 5" fill="#ed3424" fill-rule="evenodd"/><path d="M36 71.54l28.28 44.76c2.08 3.21 6.4.74 4.63-2.67l-24.1-46.58a4.93 4.93 0 0 0-6.47-1.33A5 5 0 0 0 36 71.54" fill="#eb008b" fill-rule="evenodd"/><path d="M25.88 81l38.84 36c2.84 2.57 6.37-.94 3.79-3.77L33.2 74.38A5 5 0 0 0 25.88 81" fill="#7dc142" fill-rule="evenodd"/><path d="M18.6 92.5l46.69 24.92c3.4 1.76 5.93-2.53 2.71-4.61L24 84.26a5 5 0 0 0-5.4 8.24" fill="#6acef5" fill-rule="evenodd"/><path d="M14.41 106L66 117.75c3.74.81 5-4 1.4-5.16l-49.94-16a5 5 0 0 0-3.05 9.41" fill="#ffd420" fill-rule="evenodd"/><path d="M13.86 119.66l52.89-1.77c3.82-.17 3.87-5.15 0-5.35l-52.38-2.72a5 5 0 0 0-.55 9.83" fill="#caccce" fill-rule="evenodd"/><path d="M112.18 97.11a14.29 14.29 0 0 0-4.05-2.45 12.63 12.63 0 0 0-4.49-.82 9.93 9.93 0 0 0-7.42 2.93 11.4 11.4 0 0 0-.07 15 9.25 9.25 0 0 0 7 2.92 12.85 12.85 0 0 0 4.7-.87 15 15 0 0 0 4.28-2.64v5.11a13.35 13.35 0 0 1-4 2 15.74 15.74 0 0 1-4.65.65 16.4 16.4 0 0 1-5.9-1 13.89 13.89 0 0 1-4.76-3.08 13.75 13.75 0 0 1-3.12-4.71 15.42 15.42 0 0 1-1.09-5.77 15.23 15.23 0 0 1 1.09-5.74 14.17 14.17 0 0 1 7.91-7.83 16.09 16.09 0 0 1 10.47-.35 16.9 16.9 0 0 1 4.31 2.16zm10.31 10.13h7.75l-2.85-6.34q-.24-.62-.51-1.41c-.18-.52-.36-1.1-.53-1.75-.16.61-.31 1.18-.49 1.7s-.34 1-.52 1.46zM135 118.17l-3.17-7.17h-11l-3.23 7.17h-4.75l13.46-28.92 13.44 28.92zm10.66-16.07h1.72a8.66 8.66 0 0 0 4.57-.89 3.29 3.29 0 0 0 1.34-3 3.77 3.77 0 0 0-1.23-3.2c-.83-.61-2.38-.92-4.68-.92h-1.72zm0 12.29h1.56a25.32 25.32 0 0 0 3.55-.19 4.55 4.55 0 0 0 1.86-.67 3.64 3.64 0 0 0 1.29-1.48 5 5 0 0 0-.1-4.37 3.88 3.88 0 0 0-1.57-1.54 5.59 5.59 0 0 0-1.48-.48 13.77 13.77 0 0 0-2.19-.15h-2.92zm-4.43 3.78V90.35h7a22.42 22.42 0 0 1 4.43.32 6.4 6.4 0 0 1 2.44 1.07 6.23 6.23 0 0 1 2 2.49 7.91 7.91 0 0 1 .72 3.4 6.41 6.41 0 0 1-1 3.71 5.37 5.37 0 0 1-3 2.09 5.72 5.72 0 0 1 3.83 2.21 7.4 7.4 0 0 1 1.39 4.62 8.83 8.83 0 0 1-.58 3.21 7 7 0 0 1-1.68 2.59 6.33 6.33 0 0 1-2.78 1.64 24 24 0 0 1-5.68.47zm43.88-13.86a10.43 10.43 0 0 0-.77-4 10.1 10.1 0 0 0-2.21-3.38 9.59 9.59 0 0 0-3.25-2.25 9.79 9.79 0 0 0-3.9-.8 9.91 9.91 0 0 0-3.9.78 9.75 9.75 0 0 0-3.3 2.27 9.89 9.89 0 0 0-2.2 3.36 10.68 10.68 0 0 0-.76 4 10.54 10.54 0 0 0 .76 4 10.3 10.3 0 0 0 2.2 3.36 10 10 0 0 0 3.29 2.27 10.06 10.06 0 0 0 3.91.77 9.92 9.92 0 0 0 3.86-.77 10.45 10.45 0 0 0 5.5-5.64 10.35 10.35 0 0 0 .77-4m4.72 0a14.33 14.33 0 0 1-1.11 5.61 14.48 14.48 0 0 1-3.24 4.72 15.37 15.37 0 0 1-4.84 3.17 15.23 15.23 0 0 1-11.39 0 14.78 14.78 0 0 1-4.81-3.16 14.18 14.18 0 0 1-3.23-4.7 14.48 14.48 0 0 1 3.23-16 14.78 14.78 0 0 1 4.82-3.15 15.23 15.23 0 0 1 5.74-1.05 15.06 15.06 0 0 1 5.68 1.08 14.67 14.67 0 0 1 8.06 7.92 14.34 14.34 0 0 1 1.11 5.59" fill="#020202"/><path d="M96.42 124.7v15.65h-3V124.7h-4.77v-2.5h12.57v2.5zm5 15.65V122.2h10.12v2.5h-7.14v4.55h7.17v2.59h-7.17v5.87h7.17v2.64zm11.48 0V122.2h2.95v15.51h6.59v2.64zm9.91 0V122.2H133v2.5h-7.18v4.55H133v2.59h-7.18v5.87H133v2.64zm26-13.74a9.29 9.29 0 0 0-2.65-1.6 8.23 8.23 0 0 0-2.93-.53 6.42 6.42 0 0 0-4.83 1.91 7.43 7.43 0 0 0-.05 9.8 6 6 0 0 0 4.57 1.9 8.33 8.33 0 0 0 3.07-.57 9.64 9.64 0 0 0 2.79-1.72v3.34a8.67 8.67 0 0 1-2.59 1.27 10.47 10.47 0 0 1-3 .42 10.71 10.71 0 0 1-3.85-.68 9 9 0 0 1-3.1-2 8.92 8.92 0 0 1-2-3.07 10.28 10.28 0 0 1 0-7.51 9.29 9.29 0 0 1 5.16-5.11 10.16 10.16 0 0 1 3.78-.69 10 10 0 0 1 3 .47 11 11 0 0 1 2.81 1.4zm17.15 4.7a7 7 0 0 0-.5-2.61 6.75 6.75 0 0 0-1.44-2.21A6.26 6.26 0 0 0 162 125a6.44 6.44 0 0 0-2.54-.51 6.7 6.7 0 0 0-2.55.5 6.38 6.38 0 0 0-2.14 1.48 6.52 6.52 0 0 0-1.44 2.19 7.07 7.07 0 0 0-.5 2.63 6.93 6.93 0 0 0 .5 2.61 6.72 6.72 0 0 0 1.44 2.19 6.56 6.56 0 0 0 7.21 1.48 6.73 6.73 0 0 0 2.15-1.48 6.82 6.82 0 0 0 1.44-2.2 6.91 6.91 0 0 0 .5-2.6m3.08 0a9.24 9.24 0 0 1-.73 3.66 9.12 9.12 0 0 1-2.11 3.07 9.88 9.88 0 0 1-3.16 2.07 9.63 9.63 0 0 1-3.69.72 9.79 9.79 0 0 1-3.73-.72 9.63 9.63 0 0 1-3.15-2.07 9.2 9.2 0 0 1-2.82-6.73 9.33 9.33 0 0 1 2.82-6.76 9.87 9.87 0 0 1 3.15-2.06 10.23 10.23 0 0 1 7.44 0 9.83 9.83 0 0 1 3.14 2.06 9.48 9.48 0 0 1 2.11 3.11 9.22 9.22 0 0 1 .73 3.65m16.15.08a11.46 11.46 0 0 1-.16-1.17c-.07-.53-.13-1-.18-1.31a9.77 9.77 0 0 1-.31 1.24 10.85 10.85 0 0 1-.52 1.26l-4.74 9.67-4.74-9.87a11.83 11.83 0 0 1-.52-1.18c-.15-.38-.27-.75-.38-1.12 0 .38 0 .77-.09 1.19s-.14.85-.24 1.31l-1.95 8.94h-2.71l4.24-18.9 5.35 11.46c.08.18.21.48.38.9s.37.94.61 1.56a19 19 0 0 1 .81-2c.1-.21.18-.38.23-.5l5.22-11.44 4.4 18.94h-2.74z"/></svg>