<svg id="Layer_1" data-name="Layer 1" xmlns="http://www.w3.org/2000/svg" viewBox="0 0 530.9 401.46"><defs><style>.cls-1{opacity:0.5;}.cls-2{fill:#cfd1d2;}.cls-3{fill:#e5e6e6;}.cls-4{fill:#f0c881;}.cls-5{fill:#102e46;}</style></defs><title>Python14-Logo Forte Reis Magos</title><g class="cls-1"><polygon class="cls-2" points="132.11 20.91 120.36 39.7 173.45 48.16 176.82 28.08 132.11 20.91"/><polygon class="cls-2" points="341.79 55.73 347.23 77.21 294.1 69.03 297.03 48.89 341.79 55.73"/><polyline class="cls-2" points="8.69 176.87 0 222.87 96.63 234.56 98.09 234.74 140.08 268.86 140.4 268.8 141.88 268.54 232.94 252.42 234.41 252.29 325.18 263.82 326.64 263.36 329.56 178.28 329.6 178.23 330.52 177.21 405 94.37 405 53.55"/><path class="cls-3" d="M403.21,55.59l-79.59,80.59-7.46,78.11-82.28-7.48-91.42,15.79L100.07,191,8.68,176,49.4,101.27,62.7,6.54S65.19-2.6,79.32.73s96.39,26.59,96.39,26.59,6.65,4.15-17.45,4.15h-24.1l-8.31,8.31L319.38,66.37l3.32-7.48-25.76-7.48s-3.32-5,11.63-5.82,89.65,5,89.65,5S409.2,50.47,403.21,55.59Z"/></g><path class="cls-4" d="M492.75,331.5a11.34,11.34,0,0,1,4.52.93,20.83,20.83,0,0,1,4.18,2.41,34.21,34.21,0,0,1,3.87,3.34q1.86,1.86,3.53,3.65.87.93,1.95,2t2.2,2.07q1.11,1,2.07,1.76a5.15,5.15,0,0,0,1.58,1V330.2h7.73v28.58a9.85,9.85,0,0,1-1.73.12h-1.48a15,15,0,0,1-5.44-1,20.36,20.36,0,0,1-4.61-2.51,29,29,0,0,1-4-3.5q-1.86-1.95-3.71-3.87l-2.69-2.78a30.78,30.78,0,0,0-2.47-2.29,11.35,11.35,0,0,0-2.41-1.55,5.78,5.78,0,0,0-2.44-.56,4.41,4.41,0,0,0-3.84,1.55,6.4,6.4,0,0,0-1.11,3.84,9.13,9.13,0,0,0,.53,3.12,15.87,15.87,0,0,0,1.24,2.66,16.42,16.42,0,0,0,1.42,2.07q.71.87,1.14,1.3L486.31,360a23.35,23.35,0,0,1-4.18-6.34,18.6,18.6,0,0,1-1.64-7.76,21.56,21.56,0,0,1,.87-6.5,12.16,12.16,0,0,1,2.44-4.49,9.48,9.48,0,0,1,3.84-2.6A14.65,14.65,0,0,1,492.75,331.5Z"/><path class="cls-4" d="M502.83,294q10.83,0,16.61,4.11a14,14,0,0,1,0,22.71q-5.78,4.11-16.61,4.11a37.83,37.83,0,0,1-9.53-1.08,21,21,0,0,1-7-3.12,13.93,13.93,0,0,1-4.33-4.89,13.57,13.57,0,0,1-1.48-6.37,13.17,13.17,0,0,1,5.79-11.35Q492.07,294,502.83,294Zm0,9.4a50.33,50.33,0,0,0-5.85.31,21.06,21.06,0,0,0-4.55,1,7.07,7.07,0,0,0-3,1.86,4.2,4.2,0,0,0-1.05,2.91,4.09,4.09,0,0,0,1.05,2.88,7.48,7.48,0,0,0,3,1.86,19.78,19.78,0,0,0,4.55,1,50.13,50.13,0,0,0,5.85.31,50.91,50.91,0,0,0,5.88-.31,19.8,19.8,0,0,0,4.58-1,7.47,7.47,0,0,0,3-1.86,4.09,4.09,0,0,0,1.05-2.88,4.2,4.2,0,0,0-1.05-2.91,7.06,7.06,0,0,0-3-1.86,21.08,21.08,0,0,0-4.58-1A51.12,51.12,0,0,0,502.83,303.41Z"/><path class="cls-4" d="M490.39,287.57q-.74-1.79-1.7-3.74t-2.1-3.81q-1.14-1.86-2.41-3.56a24.34,24.34,0,0,0-2.69-3.06V267h42.88v9.22H493.49a28,28,0,0,1,2.26,4.14q1,2.29,1.76,4.46Z"/><path class="cls-4" d="M512.4,224a13.27,13.27,0,0,1,5.11,1,11.16,11.16,0,0,1,4.06,2.88,13.34,13.34,0,0,1,2.7,4.79,21,21,0,0,1,1,6.65,18.73,18.73,0,0,1-1.21,7.21,14,14,0,0,1-3,4.64,10.54,10.54,0,0,1-3.93,2.51,12.05,12.05,0,0,1-3.93.74,11.15,11.15,0,0,1-3.41-.49,10.79,10.79,0,0,1-2.82-1.36,15,15,0,0,1-2.32-1.95,23.94,23.94,0,0,1-2-2.32,17.1,17.1,0,0,1-4.26,3.93,10.27,10.27,0,0,1-5.38,1.27,11.55,11.55,0,0,1-4.76-1,12,12,0,0,1-4-2.88,14.12,14.12,0,0,1-2.72-4.49,16.06,16.06,0,0,1-1-5.85,17.34,17.34,0,0,1,1.08-6.47,13.62,13.62,0,0,1,2.75-4.42,10.06,10.06,0,0,1,3.74-2.51,11.66,11.66,0,0,1,4.11-.77,10.36,10.36,0,0,1,5.53,1.58,12.33,12.33,0,0,1,4,3.93,15.77,15.77,0,0,1,4.8-5A11.1,11.1,0,0,1,512.4,224Zm.38,21.41a4.69,4.69,0,0,0,1.64-.34,4.63,4.63,0,0,0,1.64-1.08,5.92,5.92,0,0,0,1.24-1.92,7.31,7.31,0,0,0,.5-2.85q0-3.22-1.55-4.7a4.9,4.9,0,0,0-3.47-1.48,5,5,0,0,0-2.54.65,6.59,6.59,0,0,0-2,1.76,12.78,12.78,0,0,0-1.49,2.63q-.65,1.52-1.21,3.25a12.64,12.64,0,0,0,3,2.91A7.23,7.23,0,0,0,512.78,245.37Zm-20.36-11.45a4.27,4.27,0,0,0-1.45.28,4.13,4.13,0,0,0-1.45.93,5.42,5.42,0,0,0-1.14,1.64,5.67,5.67,0,0,0-.46,2.41,5.84,5.84,0,0,0,.43,2.35,4.8,4.8,0,0,0,2.65,2.6,4.27,4.27,0,0,0,1.54.31,5.65,5.65,0,0,0,3.7-1.45,11.3,11.3,0,0,0,3-5,9.64,9.64,0,0,0-2.84-3A7.05,7.05,0,0,0,492.42,233.93Z"/><path class="cls-5" d="M238.87,235.16q2-.84,4.23-1.92t4.31-2.38q2.1-1.29,4-2.73a27.53,27.53,0,0,0,3.46-3h7.28v48.51H251.75V238.66a31.72,31.72,0,0,1-4.69,2.56q-2.59,1.16-5,2Z"/><path class="cls-5" d="M283.67,273.59A69.93,69.93,0,0,1,285.42,263a101.56,101.56,0,0,1,3.25-10.85,91.4,91.4,0,0,1,4.3-10,62.16,62.16,0,0,1,4.83-8.15H276.74V225h34v7.56a46.91,46.91,0,0,0-4.93,6.79,78.57,78.57,0,0,0-5.11,9.83,90.9,90.9,0,0,0-4.2,11.79,61.06,61.06,0,0,0-2.21,12.6Z"/><path class="cls-5" d="M348.42,235.79a24.15,24.15,0,0,1,7.7,1,12,12,0,0,1,4.93,3,11.08,11.08,0,0,1,2.63,4.76,23.47,23.47,0,0,1,.77,6.23v21.7q-2.24.49-6.23,1.15a59.92,59.92,0,0,1-9.66.67,30.62,30.62,0,0,1-6.47-.63,14,14,0,0,1-5-2.06,9.44,9.44,0,0,1-3.22-3.75,12.92,12.92,0,0,1-1.12-5.67,10.74,10.74,0,0,1,1.29-5.46,10,10,0,0,1,3.46-3.57,15.68,15.68,0,0,1,5-1.92,27.93,27.93,0,0,1,5.81-.6,33.09,33.09,0,0,1,3.6.18,16.16,16.16,0,0,1,2.56.46v-1a5.77,5.77,0,0,0-1.61-4.27q-1.61-1.61-5.6-1.61a35.75,35.75,0,0,0-5.25.39,22.58,22.58,0,0,0-4.48,1.08l-1.33-8.4q.91-.28,2.28-.6t3-.56q1.61-.24,3.4-.42T348.42,235.79Zm.84,30.52q1.54,0,2.94-.07a20.08,20.08,0,0,0,2.24-.21v-7.91q-.63-.14-1.89-.28a21.18,21.18,0,0,0-2.31-.14,20.75,20.75,0,0,0-2.77.18,7.23,7.23,0,0,0-2.27.67,3.9,3.9,0,0,0-1.54,1.33,3.7,3.7,0,0,0-.56,2.1,3.58,3.58,0,0,0,1.65,3.4A9.09,9.09,0,0,0,349.26,266.31Z"/><path class="cls-5" d="M420.52,237.82a12.83,12.83,0,0,1-1,5.11,23.6,23.6,0,0,1-2.73,4.73A38.75,38.75,0,0,1,413,252q-2.1,2.1-4.13,4-1.05,1-2.28,2.2t-2.34,2.49q-1.12,1.26-2,2.34a5.82,5.82,0,0,0-1.08,1.79H422v8.75H389.65a11.24,11.24,0,0,1-.14-2V270a16.91,16.91,0,0,1,1.08-6.16,23,23,0,0,1,2.83-5.22,32.81,32.81,0,0,1,4-4.51q2.2-2.1,4.38-4.2l3.15-3a34.75,34.75,0,0,0,2.59-2.8,12.78,12.78,0,0,0,1.75-2.73,6.54,6.54,0,0,0,.63-2.76q0-3.08-1.75-4.34a7.24,7.24,0,0,0-4.34-1.26,10.34,10.34,0,0,0-3.54.59,18,18,0,0,0-3,1.4,18.58,18.58,0,0,0-2.35,1.61q-1,.81-1.47,1.29l-5.18-7.28a26.41,26.41,0,0,1,7.17-4.73,21.05,21.05,0,0,1,8.79-1.85,24.4,24.4,0,0,1,7.35,1,13.75,13.75,0,0,1,5.08,2.77,10.73,10.73,0,0,1,2.94,4.34A16.57,16.57,0,0,1,420.52,237.82Z"/><path class="cls-5" d="M460.28,237.82a12.83,12.83,0,0,1-1,5.11,23.6,23.6,0,0,1-2.73,4.73,38.75,38.75,0,0,1-3.78,4.38q-2.1,2.1-4.13,4-1.05,1-2.28,2.2T444,260.71q-1.12,1.26-2,2.34a5.82,5.82,0,0,0-1.08,1.79h20.86v8.75H429.41a11.24,11.24,0,0,1-.14-2V270a16.91,16.91,0,0,1,1.08-6.16,23,23,0,0,1,2.83-5.22,32.81,32.81,0,0,1,4-4.51q2.2-2.1,4.38-4.2l3.15-3a34.75,34.75,0,0,0,2.59-2.8,12.78,12.78,0,0,0,1.75-2.73,6.54,6.54,0,0,0,.63-2.76q0-3.08-1.75-4.34a7.24,7.24,0,0,0-4.34-1.26,10.34,10.34,0,0,0-3.54.59,18,18,0,0,0-3,1.4,18.58,18.58,0,0,0-2.35,1.61q-1,.81-1.47,1.29L428,230.54a26.41,26.41,0,0,1,7.17-4.73A21.05,21.05,0,0,1,444,224a24.4,24.4,0,0,1,7.35,1,13.75,13.75,0,0,1,5.08,2.77,10.73,10.73,0,0,1,2.94,4.34A16.57,16.57,0,0,1,460.28,237.82Z"/><path class="cls-5" d="M118.41,319.31a24.54,24.54,0,0,1-1.74,9.63,18.49,18.49,0,0,1-4.88,6.83,20.66,20.66,0,0,1-7.48,4.1,31.78,31.78,0,0,1-9.57,1.37q-2.61,0-5.47-.28a33.36,33.36,0,0,1-5-.84V298.63a28.62,28.62,0,0,1,5-.9q2.86-.28,5.47-.28a31.81,31.81,0,0,1,9.57,1.37,20.69,20.69,0,0,1,7.48,4.1,18.5,18.5,0,0,1,4.88,6.83A24.37,24.37,0,0,1,118.41,319.31ZM88.47,337.14l1.89.25a44.89,44.89,0,0,0,4.88.19,23.64,23.64,0,0,0,8.14-1.27,15.79,15.79,0,0,0,5.84-3.63,15,15,0,0,0,3.54-5.75,23,23,0,0,0,1.18-7.61,22.78,22.78,0,0,0-1.18-7.58,15,15,0,0,0-3.54-5.71,15.82,15.82,0,0,0-5.84-3.63,23.66,23.66,0,0,0-8.14-1.27,44.89,44.89,0,0,0-4.88.19l-1.89.25Z"/><path class="cls-5" d="M127.85,340.87v-43H152.7v3.66H132.08v15h18.39v3.6H132.08V337.2h22.24v3.67Z"/><path class="cls-5" d="M215.13,319.31a27.21,27.21,0,0,1-1.61,9.75,20.3,20.3,0,0,1-4.38,7.05,18.07,18.07,0,0,1-6.43,4.26,21.81,21.81,0,0,1-15.53,0,18.06,18.06,0,0,1-6.43-4.26,20.27,20.27,0,0,1-4.38-7.05,30.15,30.15,0,0,1,0-19.47,20.34,20.34,0,0,1,4.38-7,18.09,18.09,0,0,1,6.43-4.26,21.82,21.82,0,0,1,15.53,0,18.11,18.11,0,0,1,6.43,4.26,20.36,20.36,0,0,1,4.38,7A27,27,0,0,1,215.13,319.31Zm-4.47,0a25.25,25.25,0,0,0-1.12-7.8,17.18,17.18,0,0,0-3.17-5.87,13.56,13.56,0,0,0-4.94-3.7,17.18,17.18,0,0,0-13,0,13.55,13.55,0,0,0-4.94,3.7,17.16,17.16,0,0,0-3.17,5.87,27.73,27.73,0,0,0,0,15.59,17.16,17.16,0,0,0,3.17,5.87,13.88,13.88,0,0,0,4.94,3.73,16.81,16.81,0,0,0,13,0,13.88,13.88,0,0,0,4.94-3.73,17.18,17.18,0,0,0,3.17-5.87A25.24,25.24,0,0,0,210.65,319.31Z"/><path class="cls-5" d="M240.1,341.8a18.33,18.33,0,0,1-7.3-1.3,12.58,12.58,0,0,1-4.88-3.6,14.46,14.46,0,0,1-2.7-5.37,25,25,0,0,1-.84-6.62V297.82h4.22v26.52a19.85,19.85,0,0,0,.84,6.12,11.8,11.8,0,0,0,2.33,4.25,9.07,9.07,0,0,0,3.6,2.48,14.2,14.2,0,0,0,9.44,0,9.09,9.09,0,0,0,3.6-2.48,11.8,11.8,0,0,0,2.33-4.25,19.85,19.85,0,0,0,.84-6.12V297.82h4.22v27.08a25,25,0,0,1-.84,6.62,14.46,14.46,0,0,1-2.7,5.37,12.58,12.58,0,0,1-4.88,3.6A18.33,18.33,0,0,1,240.1,341.8Z"/><path class="cls-5" d="M294.14,297.82v3.66H280.35v39.38h-4.22V301.49H262.34v-3.66Z"/><path class="cls-5" d="M316.38,341.8a18.33,18.33,0,0,1-7.3-1.3,12.58,12.58,0,0,1-4.88-3.6,14.46,14.46,0,0,1-2.7-5.37,25,25,0,0,1-.84-6.62V297.82h4.22v26.52a19.85,19.85,0,0,0,.84,6.12,11.8,11.8,0,0,0,2.33,4.25,9.07,9.07,0,0,0,3.6,2.48,14.2,14.2,0,0,0,9.44,0,9.09,9.09,0,0,0,3.6-2.48,11.8,11.8,0,0,0,2.33-4.25,19.85,19.85,0,0,0,.84-6.12V297.82h4.22v27.08a25,25,0,0,1-.84,6.62,14.46,14.46,0,0,1-2.7,5.37,12.58,12.58,0,0,1-4.88,3.6A18.33,18.33,0,0,1,316.38,341.8Z"/><path class="cls-5" d="M353.4,341.24q-1.06,0-2.45-.09t-2.86-.25q-1.46-.15-2.77-.37t-2.24-.47V298.63a22.92,22.92,0,0,1,2.48-.53q1.37-.22,2.83-.37t2.86-.22q1.4-.06,2.58-.06a37.78,37.78,0,0,1,6.62.56,17.78,17.78,0,0,1,5.5,1.86,10.41,10.41,0,0,1,3.76,3.44,9.5,9.5,0,0,1,1.4,5.3,9.84,9.84,0,0,1-1.77,5.92,9,9,0,0,1-4.75,3.38,14.61,14.61,0,0,1,3.42,1.24,10,10,0,0,1,2.73,2.08,8.89,8.89,0,0,1,1.83,3.11,13.14,13.14,0,0,1,.65,4.39,10.46,10.46,0,0,1-4.85,9.3Q363.52,341.24,353.4,341.24Zm-6.09-24.66h8.2a26.55,26.55,0,0,0,4.35-.34,10.29,10.29,0,0,0,3.57-1.24,6.54,6.54,0,0,0,2.39-2.41,7.7,7.7,0,0,0,.87-3.87,6.46,6.46,0,0,0-.93-3.56,7.07,7.07,0,0,0-2.64-2.38,13.1,13.1,0,0,0-4.07-1.33,31.18,31.18,0,0,0-5.22-.4q-2.3,0-3.88.12t-2.64.31Zm0,3.6v17q.93.13,2.8.28t3.79.16a40.5,40.5,0,0,0,5.56-.37,15.75,15.75,0,0,0,4.75-1.37,8.54,8.54,0,0,0,3.29-2.74,7.57,7.57,0,0,0,1.24-4.49,8.85,8.85,0,0,0-.87-4.15,6.58,6.58,0,0,0-2.49-2.62,11,11,0,0,0-3.94-1.34,32.87,32.87,0,0,0-5.19-.37Z"/><path class="cls-5" d="M410.92,310.74a10.92,10.92,0,0,1-2.55,7.64,14.42,14.42,0,0,1-6.71,4q1,1.24,2.58,3.35t3.26,4.63q1.68,2.52,3.29,5.25a53.42,53.42,0,0,1,2.73,5.22H409q-1.3-2.48-2.83-5t-3.11-4.81q-1.58-2.33-3.08-4.32l-2.61-3.48q-2,.19-4,.19h-7v17.39h-4.22V298.63a30.29,30.29,0,0,1,5.25-.9q3-.28,5.56-.28,8.88,0,13.39,3.35T410.92,310.74Zm-17.39-9.63q-2.36,0-4.13.16l-3,.28v18.32h5.84a51.94,51.94,0,0,0,5.53-.28,13.22,13.22,0,0,0,4.53-1.24,7.41,7.41,0,0,0,3-2.76,9.26,9.26,0,0,0,1.12-4.91,9.06,9.06,0,0,0-1.12-4.72,8.49,8.49,0,0,0-2.92-3,11.85,11.85,0,0,0-4.13-1.49A28.16,28.16,0,0,0,393.53,301.11Z"/><path class="cls-5" d="M459.25,319.31a27.21,27.21,0,0,1-1.61,9.75,20.3,20.3,0,0,1-4.38,7.05,18.07,18.07,0,0,1-6.43,4.26,21.81,21.81,0,0,1-15.53,0,18.06,18.06,0,0,1-6.43-4.26,20.27,20.27,0,0,1-4.38-7.05,30.15,30.15,0,0,1,0-19.47,20.34,20.34,0,0,1,4.38-7,18.09,18.09,0,0,1,6.43-4.26,21.82,21.82,0,0,1,15.53,0,18.11,18.11,0,0,1,6.43,4.26,20.36,20.36,0,0,1,4.38,7A27,27,0,0,1,459.25,319.31Zm-4.47,0a25.25,25.25,0,0,0-1.12-7.8,17.18,17.18,0,0,0-3.17-5.87,13.56,13.56,0,0,0-4.94-3.7,17.18,17.18,0,0,0-13,0,13.55,13.55,0,0,0-4.94,3.7,17.16,17.16,0,0,0-3.17,5.87,27.73,27.73,0,0,0,0,15.59,17.16,17.16,0,0,0,3.17,5.87,13.88,13.88,0,0,0,4.94,3.73,16.81,16.81,0,0,0,13,0,13.88,13.88,0,0,0,4.94-3.73,17.18,17.18,0,0,0,3.17-5.87A25.24,25.24,0,0,0,454.77,319.31Z"/><path class="cls-5" d="M96.5,393.82q-.5-.9-1.26-2.13t-1.68-2.61l-1.93-2.85q-1-1.47-2-2.86t-2-2.61q-1-1.22-1.69-2.1v15.16H84.25v-18h1.4q1.33,1.48,2.84,3.42t3,4q1.46,2,2.72,3.93t2.07,3.35V375.82H98v18Z"/><path class="cls-5" d="M114.78,393.82q-.51-1.33-.95-2.55t-.83-2.38h-8.79q-.45,1.17-.88,2.39t-.91,2.54h-1.84q1-2.81,1.94-5.24t1.79-4.59q.88-2.17,1.74-4.16t1.82-4h1.56q1,2,1.81,4T113,384q.88,2.16,1.78,4.59t2,5.24Zm-6.19-16q-1,2.24-1.9,4.55t-1.92,5h7.68q-1-2.67-1.94-5T108.59,377.85Z"/><path class="cls-5" d="M129.38,375.82v1.53h-5.77v16.46h-1.77V377.35h-5.77v-1.53Z"/><path class="cls-5" d="M143,393.82q-.51-1.33-.95-2.55t-.83-2.38h-8.79q-.45,1.17-.88,2.39t-.91,2.54h-1.84q1-2.81,1.94-5.24t1.79-4.59q.88-2.17,1.74-4.16t1.82-4h1.56q1,2,1.81,4t1.73,4.17q.88,2.16,1.78,4.59t2,5.24Zm-6.19-16q-1,2.24-1.9,4.55t-1.92,5h7.68q-1-2.67-1.94-5T136.77,377.85Z"/><path class="cls-5" d="M157.71,392.28v1.53H147.48v-18h1.77v16.46Z"/><path class="cls-5" d="M166.69,373.48h1.61v25.14h-1.61Z"/><path class="cls-5" d="M191.16,381.22a4.57,4.57,0,0,1-1.06,3.19,6,6,0,0,1-2.81,1.69q.42.52,1.08,1.4t1.36,1.93q.7,1.05,1.38,2.19a22.43,22.43,0,0,1,1.14,2.18h-1.9q-.55-1-1.18-2.08t-1.3-2q-.66-1-1.29-1.8l-1.09-1.45q-.83.08-1.66.08h-2.91v7.27h-1.77V376.16a12.69,12.69,0,0,1,2.19-.38q1.26-.12,2.32-.12a9.31,9.31,0,0,1,5.6,1.4A4.85,4.85,0,0,1,191.16,381.22Zm-7.27-4q-1,0-1.73.06l-1.23.12V385h2.44a21.84,21.84,0,0,0,2.31-.12,5.54,5.54,0,0,0,1.9-.52,3.1,3.1,0,0,0,1.27-1.16,3.87,3.87,0,0,0,.47-2.05,3.79,3.79,0,0,0-.47-2,3.56,3.56,0,0,0-1.22-1.23,5,5,0,0,0-1.73-.62A11.81,11.81,0,0,0,183.89,377.2Z"/><path class="cls-5" d="M195.21,375.82H197v18h-1.77Z"/><path class="cls-5" d="M217.8,384.81a11.38,11.38,0,0,1-.67,4.08,8.49,8.49,0,0,1-1.83,2.95,7.55,7.55,0,0,1-2.69,1.78,9.12,9.12,0,0,1-6.49,0,7.55,7.55,0,0,1-2.69-1.78,8.47,8.47,0,0,1-1.83-2.95,12.61,12.61,0,0,1,0-8.14,8.49,8.49,0,0,1,1.83-2.93,7.56,7.56,0,0,1,2.69-1.78,9.12,9.12,0,0,1,6.49,0,7.56,7.56,0,0,1,2.69,1.78,8.5,8.5,0,0,1,1.83,2.93A11.28,11.28,0,0,1,217.8,384.81Zm-1.87,0a10.53,10.53,0,0,0-.47-3.26,7.17,7.17,0,0,0-1.32-2.45,5.66,5.66,0,0,0-2.06-1.54,7.19,7.19,0,0,0-5.43,0,5.66,5.66,0,0,0-2.06,1.54,7.17,7.17,0,0,0-1.32,2.45,11.6,11.6,0,0,0,0,6.52,7.17,7.17,0,0,0,1.32,2.45,5.79,5.79,0,0,0,2.06,1.56,7,7,0,0,0,5.43,0,5.79,5.79,0,0,0,2.06-1.56,7.17,7.17,0,0,0,1.32-2.45A10.53,10.53,0,0,0,215.93,384.81Z"/><path class="cls-5" d="M238.88,385.3h1.77v8a13.64,13.64,0,0,1-1.93.53,16.46,16.46,0,0,1-3.55.32,8.48,8.48,0,0,1-3.27-.62,7.39,7.39,0,0,1-2.61-1.8,8.32,8.32,0,0,1-1.73-2.93,11.94,11.94,0,0,1-.62-4,11.1,11.1,0,0,1,.67-4,8.5,8.5,0,0,1,1.83-2.93,7.86,7.86,0,0,1,2.69-1.8,8.6,8.6,0,0,1,3.27-.62,10.69,10.69,0,0,1,3.3.43,8.64,8.64,0,0,1,1.9.82l-.6,1.51a6,6,0,0,0-2-.84,10.71,10.71,0,0,0-2.7-.32,6.6,6.6,0,0,0-2.54.49A5.66,5.66,0,0,0,230.7,379a7.13,7.13,0,0,0-1.39,2.44,10.26,10.26,0,0,0-.51,3.38,11.63,11.63,0,0,0,.42,3.23,6.77,6.77,0,0,0,1.26,2.47,5.53,5.53,0,0,0,2.09,1.57,7.13,7.13,0,0,0,2.88.55,14.47,14.47,0,0,0,2.22-.14,6.25,6.25,0,0,0,1.21-.27Z"/><path class="cls-5" d="M256.75,381.22a4.57,4.57,0,0,1-1.06,3.19,6,6,0,0,1-2.81,1.69q.42.52,1.08,1.4t1.36,1.93q.7,1.05,1.38,2.19a22.43,22.43,0,0,1,1.14,2.18h-1.9q-.55-1-1.18-2.08t-1.3-2q-.66-1-1.29-1.8l-1.09-1.45q-.83.08-1.66.08h-2.91v7.27h-1.77V376.16a12.69,12.69,0,0,1,2.19-.38q1.26-.12,2.32-.12a9.31,9.31,0,0,1,5.6,1.4A4.85,4.85,0,0,1,256.75,381.22Zm-7.27-4q-1,0-1.73.06l-1.23.12V385H249a21.84,21.84,0,0,0,2.31-.12,5.54,5.54,0,0,0,1.9-.52,3.1,3.1,0,0,0,1.27-1.16,3.87,3.87,0,0,0,.47-2.05,3.79,3.79,0,0,0-.47-2,3.56,3.56,0,0,0-1.22-1.23,5,5,0,0,0-1.73-.62A11.81,11.81,0,0,0,249.48,377.2Z"/><path class="cls-5" d="M273.65,393.82q-.51-1.33-.95-2.55t-.83-2.38h-8.79q-.45,1.17-.88,2.39t-.91,2.54h-1.84q1-2.81,1.94-5.24t1.79-4.59q.88-2.17,1.74-4.16t1.82-4h1.56q1,2,1.81,4t1.73,4.17q.88,2.16,1.78,4.59t2,5.24Zm-6.19-16q-1,2.24-1.9,4.55t-1.92,5h7.68q-1-2.67-1.94-5T267.46,377.85Z"/><path class="cls-5" d="M290.43,393.82q-.5-.9-1.26-2.13t-1.68-2.61l-1.93-2.85q-1-1.47-2-2.86t-2-2.61q-1-1.22-1.69-2.1v15.16h-1.74v-18h1.4q1.33,1.48,2.84,3.42t3,4q1.46,2,2.72,3.93t2.07,3.35V375.82h1.74v18Z"/><path class="cls-5" d="M310.87,384.81a10.25,10.25,0,0,1-.73,4,7.73,7.73,0,0,1-2,2.86A8.64,8.64,0,0,1,305,393.4a13.29,13.29,0,0,1-4,.57q-1.09,0-2.29-.12a14,14,0,0,1-2.1-.35V376.16a12,12,0,0,1,2.1-.38q1.19-.12,2.29-.12a13.3,13.3,0,0,1,4,.57A8.65,8.65,0,0,1,308.1,378a7.73,7.73,0,0,1,2,2.86A10.18,10.18,0,0,1,310.87,384.81Zm-12.52,7.45.79.1a18.67,18.67,0,0,0,2,.08,9.88,9.88,0,0,0,3.4-.53,6.6,6.6,0,0,0,2.44-1.52,6.26,6.26,0,0,0,1.48-2.4,9.63,9.63,0,0,0,.49-3.18,9.51,9.51,0,0,0-.49-3.17,6.28,6.28,0,0,0-1.48-2.39,6.61,6.61,0,0,0-2.44-1.52,9.89,9.89,0,0,0-3.4-.53,18.8,18.8,0,0,0-2,.08l-.79.1Z"/><path class="cls-5" d="M314.81,393.82v-18H325.2v1.53h-8.62v6.26h7.69v1.51h-7.69v7.17h9.3v1.53Z"/><path class="cls-5" d="M349.43,384.81a10.25,10.25,0,0,1-.73,4,7.73,7.73,0,0,1-2,2.86,8.64,8.64,0,0,1-3.13,1.71,13.29,13.29,0,0,1-4,.57q-1.09,0-2.29-.12a14,14,0,0,1-2.1-.35V376.16a12,12,0,0,1,2.1-.38q1.19-.12,2.29-.12a13.3,13.3,0,0,1,4,.57,8.65,8.65,0,0,1,3.13,1.71,7.73,7.73,0,0,1,2,2.86A10.18,10.18,0,0,1,349.43,384.81Zm-12.52,7.45.79.1a18.67,18.67,0,0,0,2,.08,9.88,9.88,0,0,0,3.4-.53,6.6,6.6,0,0,0,2.44-1.52,6.26,6.26,0,0,0,1.48-2.4,9.63,9.63,0,0,0,.49-3.18,9.51,9.51,0,0,0-.49-3.17,6.28,6.28,0,0,0-1.48-2.39,6.61,6.61,0,0,0-2.44-1.52,9.89,9.89,0,0,0-3.4-.53,18.8,18.8,0,0,0-2,.08l-.79.1Z"/><path class="cls-5" d="M369.53,384.81a11.38,11.38,0,0,1-.67,4.08,8.49,8.49,0,0,1-1.83,2.95,7.55,7.55,0,0,1-2.69,1.78,9.12,9.12,0,0,1-6.49,0,7.55,7.55,0,0,1-2.69-1.78,8.47,8.47,0,0,1-1.83-2.95,12.61,12.61,0,0,1,0-8.14,8.49,8.49,0,0,1,1.83-2.93,7.56,7.56,0,0,1,2.69-1.78,9.12,9.12,0,0,1,6.49,0,7.56,7.56,0,0,1,2.69,1.78,8.5,8.5,0,0,1,1.83,2.93A11.28,11.28,0,0,1,369.53,384.81Zm-1.87,0a10.53,10.53,0,0,0-.47-3.26,7.17,7.17,0,0,0-1.32-2.45,5.66,5.66,0,0,0-2.06-1.54,7.19,7.19,0,0,0-5.43,0,5.66,5.66,0,0,0-2.06,1.54,7.17,7.17,0,0,0-1.32,2.45,11.6,11.6,0,0,0,0,6.52,7.17,7.17,0,0,0,1.32,2.45,5.79,5.79,0,0,0,2.06,1.56,7,7,0,0,0,5.43,0,5.79,5.79,0,0,0,2.06-1.56,7.17,7.17,0,0,0,1.32-2.45A10.53,10.53,0,0,0,367.66,384.81Z"/><path class="cls-5" d="M391.65,393.82q-.5-.9-1.26-2.13t-1.68-2.61l-1.93-2.85q-1-1.47-2-2.86t-2-2.61q-1-1.22-1.69-2.1v15.16H379.4v-18h1.4q1.33,1.48,2.84,3.42t3,4q1.46,2,2.72,3.93t2.07,3.35V375.82h1.74v18Z"/><path class="cls-5" d="M414,384.81a11.38,11.38,0,0,1-.67,4.08,8.49,8.49,0,0,1-1.83,2.95,7.55,7.55,0,0,1-2.69,1.78,9.12,9.12,0,0,1-6.49,0,7.55,7.55,0,0,1-2.69-1.78,8.47,8.47,0,0,1-1.83-2.95,12.61,12.61,0,0,1,0-8.14,8.49,8.49,0,0,1,1.83-2.93,7.56,7.56,0,0,1,2.69-1.78,9.12,9.12,0,0,1,6.49,0,7.56,7.56,0,0,1,2.69,1.78,8.5,8.5,0,0,1,1.83,2.93A11.28,11.28,0,0,1,414,384.81Zm-1.87,0a10.53,10.53,0,0,0-.47-3.26,7.17,7.17,0,0,0-1.32-2.45,5.66,5.66,0,0,0-2.06-1.54,7.19,7.19,0,0,0-5.43,0,5.66,5.66,0,0,0-2.06,1.54,7.17,7.17,0,0,0-1.32,2.45,11.6,11.6,0,0,0,0,6.52,7.17,7.17,0,0,0,1.32,2.45,5.79,5.79,0,0,0,2.06,1.56,7,7,0,0,0,5.43,0,5.79,5.79,0,0,0,2.06-1.56,7.17,7.17,0,0,0,1.32-2.45A10.53,10.53,0,0,0,412.09,384.81Z"/><path class="cls-5" d="M429.9,381.22a4.57,4.57,0,0,1-1.06,3.19A6,6,0,0,1,426,386.1q.42.52,1.08,1.4t1.36,1.93q.7,1.05,1.38,2.19a22.43,22.43,0,0,1,1.14,2.18h-1.9q-.55-1-1.18-2.08t-1.3-2q-.66-1-1.29-1.8l-1.09-1.45q-.83.08-1.66.08h-2.91v7.27h-1.77V376.16a12.69,12.69,0,0,1,2.19-.38q1.26-.12,2.32-.12a9.31,9.31,0,0,1,5.6,1.4A4.85,4.85,0,0,1,429.9,381.22Zm-7.27-4q-1,0-1.73.06l-1.23.12V385h2.44a21.84,21.84,0,0,0,2.31-.12,5.54,5.54,0,0,0,1.9-.52,3.1,3.1,0,0,0,1.27-1.16,3.87,3.87,0,0,0,.47-2.05,3.79,3.79,0,0,0-.47-2,3.56,3.56,0,0,0-1.22-1.23,5,5,0,0,0-1.73-.62A11.81,11.81,0,0,0,422.63,377.2Z"/><path class="cls-5" d="M445.38,375.82v1.53h-5.77v16.46h-1.77V377.35h-5.77v-1.53Z"/><path class="cls-5" d="M448.18,393.82v-18h10.39v1.53H450v6.26h7.69v1.51H450v7.17h9.3v1.53Z"/><rect class="cls-4" x="81.75" y="357.61" width="380" height="3.56"/></svg>