<svg data-name="Layer 1" xmlns="http://www.w3.org/2000/svg" viewBox="0 0 389.31 75.28"><path d="M30.46 11.71c-4.59 0-5.91 2-5.91 6.52v7.44h12.22l-1.22 12h-11v36.49H9.88V37.69H0v-12h9.88v-7.25C9.88 6.32 14.77-.1 28.42-.1A68.16 68.16 0 0 1 37 .41v11.3zm7.33 36.68c0-13.55 6.42-23.74 19.86-23.74 7.34 0 11.82 3.77 14 8.46v-7.44h14.02v48.49H71.61v-7.33c-2 4.68-6.62 8.35-14 8.35-13.4 0-19.82-10.18-19.82-23.74zm14.67 3.26c0 7.23 2.65 12 9.47 12 6 0 9.07-4.38 9.07-11.31v-4.87c0-6.93-3.06-11.31-9.07-11.31-6.82 0-9.47 4.79-9.47 12zm63.76-27c5.71 0 11.11 1.22 14.06 3.26L127 38.3a23.1 23.1 0 0 0-9.78-2.24c-7.94 0-11.41 4.59-11.41 12.43v2.85c0 7.85 3.47 12.43 11.41 12.43a23.1 23.1 0 0 0 9.78-2.24l3.26 10.39c-3 2-8.35 3.26-14.06 3.26-17.2 0-25.04-9.27-25.04-24.18v-2.21c0-14.87 7.84-24.14 25.06-24.14zm15.99 27.1v-4.28c0-13.75 7.85-22.82 23.84-22.82 15.08 0 21.7 9.17 21.7 22.62V55h-30.87c.31 6.62 3.26 9.57 11.41 9.57a41.75 41.75 0 0 0 15.59-2.95l2.65 10.08c-3.87 2-11.82 3.57-18.85 3.57-18.54.01-25.47-9.27-25.47-23.52zm14.67-6.32h17.73v-1.22c0-5.3-2.14-9.47-8.56-9.47-6.62 0-9.17 4.17-9.17 10.69zm85.26 6.01c0 13.55-6.52 23.74-20 23.74-7.34 0-12.43-3.67-14.47-8.35v7.33h-13.81V1.32L198.53 0v32.39c2.14-4.27 6.82-7.74 13.65-7.74 13.44 0 20 10.19 20 23.74zm-14.67-3.36c0-6.82-2.64-11.92-9.67-11.92-6 0-9.27 4.28-9.27 11.21v5.09c0 6.93 3.26 11.21 9.27 11.21 7 0 9.67-5.1 9.67-11.92zM237 51.14v-2.45c0-13.95 7.95-24 24.14-24s24.15 10.09 24.15 24v2.45c0 14-7.95 24-24.15 24S237 65.09 237 51.14zm33.62-3.47c0-6.41-2.65-11.51-9.48-11.51s-9.47 5.1-9.47 11.51v4.49c0 6.41 2.65 11.51 9.47 11.51s9.48-5.1 9.48-11.51zm19.58 3.47v-2.45c0-13.95 7.95-24 24.14-24s24.15 10.09 24.15 24v2.45c0 14-7.95 24-24.15 24s-24.14-10.05-24.14-24zm33.62-3.47c0-6.41-2.65-11.51-9.48-11.51s-9.47 5.1-9.47 11.51v4.49c0 6.41 2.65 11.51 9.47 11.51s9.48-5.1 9.48-11.51zm34.83 1.12l14.47-23.12h15.58l-15.18 23.94 15.79 24.55h-15.58l-15.08-23.74v23.74H344V1.32L358.65 0z" fill="#4767ab"/><path fill="none" d="M-48.49-48.49H437.8v171.14H-48.49z"/></svg>