<svg xmlns="http://www.w3.org/2000/svg" viewBox="0 0 280.5 207.4"><path d="M229.3 95l9.7-45.9h34.4l-1.8 8.8h-21.8l-2 9.6h20.6l-1.9 8.8h-20.6l-2 9.8h22.3l-1.9 8.9h-35zM7.4 79.8h12.5c-.2.8-.3 1.5-.3 2.1 0 3.3 2.1 4.9 6.3 4.9 4.4 0 7-1.7 7.8-5.1.1-.4.1-.8.1-1.2 0-1.5-1-2.6-3.1-3.2l-10.4-2.9c-5.9-1.6-8.8-4.8-8.8-9.4 0-.9.1-1.9.3-2.9.9-4 3-7.3 6.5-9.8 3.9-2.9 9.1-4.3 15.4-4.3 10.5 0 15.8 3.4 15.8 10.2 0 1.1-.2 2.5-.5 4.1H36.5c.2-.8.3-1.5.3-2.1 0-2.8-1.6-4.1-4.9-4.1-1.8 0-3.3.4-4.6 1.3-1.3.9-2.1 2-2.3 3.4-.1.4-.1.7-.1 1.1 0 1.7 1.2 2.9 3.7 3.6l7.9 2.2c3.4 1 5.8 1.9 7.2 2.9 2.3 1.6 3.5 3.9 3.5 6.9 0 1-.1 2.1-.4 3.3-1 4.8-3.7 8.5-8 11.1-4 2.3-8.9 3.5-14.9 3.5-7.7 0-12.7-1.8-15.2-5.4C7.6 88.1 7 86 7 83.6c0-1 .1-2.3.4-3.8zm190.3-2.5h12.8L208.6 58h-.2l-10.7 19.3zM174.6 95l28.6-46H219l8.6 46h-14.7l-1.2-9.2h-18.8l-5.2 9.2h-13.1zm-19.9-37.5l-2.4 11.3h4.8c2.7 0 4.5-.1 5.3-.4 2.4-.7 3.9-2.5 4.4-5.2.1-.6.2-1.1.2-1.6 0-1.8-.8-3-2.5-3.6-1-.3-2.7-.5-5.1-.5h-4.7zM134.1 95l9.7-46H165c3.6 0 6 .1 7.2.3 2.9.4 4.9 1.4 6.2 3.1 1.1 1.4 1.7 3.2 1.7 5.4 0 1.1-.1 2.3-.4 3.5-.8 4-2.8 6.8-6 8.5-2.1 1.1-4.6 1.9-7.5 2.4l-.1.3c3.3.1 5.5.7 6.7 2 1 1 1.5 2.7 1.5 5.2 0 .8-.1 2.2-.2 4.1-.4 5.7-.5 9.5-.3 11.3H160c-.1-1.7.1-5.2.7-10.4.2-1.8.3-3.1.3-3.8 0-1.4-.4-2.4-1-3-.7-.6-2.1-.9-4.1-.9h-5.3l-3.8 18h-12.7zm-24.5-37.7l-2.2 10.2h6c2.2 0 3.8-.2 4.6-.6 1.8-.9 2.9-2.4 3.3-4.5.4-1.8.1-3.1-.9-4.1-.8-.7-2.1-1.1-3.9-1.1h-6.9zm-3.9 18.4l-2.3 10.9h7c4.4 0 6.9-1.8 7.7-5.4.1-.6.2-1.1.2-1.5 0-2.7-2-4-6-4h-6.6zM89.3 95L99 49h18.4c3.9 0 6.7.1 8.4.4 2.9.6 5.1 1.7 6.7 3.3 1.4 1.5 2.1 3.4 2.1 5.5 0 .8-.1 1.6-.3 2.4-1.1 5.3-5.1 8.8-12 10.5l-.1.1c6 1.1 9 4 9 8.5 0 2.9-.8 5.5-2.4 7.9-1.6 2.4-3.8 4.2-6.4 5.5-2.7 1.3-7 1.9-12.8 1.9H89.3zm11.8-55l3.4-15.7 84.2.4-3.8 15.5-83.8-.2zm5.4-24.3L109.9 0l84.2.4-3.8 15.5-83.8-.2zm-28.2 128l3.4-15.7 84.2.4-3.8 15.5-83.8-.2zm5.5-24.3l3.4-15.7 84.2.4-3.8 15.5-83.8-.2zM49.5 95l9.7-45.9h34.4l-1.8 8.8H69.9l-2 9.6h20.6l-1.9 8.8H66l-2 9.8h22.3L84.4 95H49.5zm-42 75.4c.2-.9.3-1.5.2-1.8-.1-.3-.4-.5-.9-.5-.3 0-.6.1-.9.3-.3.2-.4.5-.5.8-.2.6-.2 1-.1 1.4.1.3.3.6.6.9l1 .7c1 .7 1.6 1.3 1.8 1.9.1.3.2.7.2 1 0 .4-.1.9-.2 1.4-.4 1.3-1 2.2-1.8 2.7-.8.6-1.9.8-3.4.8s-2.5-.4-3-1.1c-.3-.4-.4-.9-.4-1.6 0-.5.1-1.2.3-1.9h2.8c-.2.9-.3 1.5-.2 1.9.1.4.5.6 1 .6.4 0 .7-.1 1-.4.3-.3.6-.6.7-1.1.2-.5.2-1 .1-1.3-.1-.4-.4-.7-.8-1l-1-.7c-.9-.6-1.4-1.2-1.7-1.8-.1-.3-.2-.6-.2-1s.1-.9.2-1.4c.3-1.2.9-2 1.7-2.6.8-.5 1.9-.8 3.3-.8s2.4.4 2.9 1.1c.3.4.4.9.4 1.5 0 .5-.1 1.1-.3 1.8H7.5zm5.7 9.8c-1.2 0-2.1-.3-2.5-1-.3-.4-.4-.9-.4-1.4 0-.4.1-.8.2-1.3l.4-1.2c.6-1.9 1.2-3.2 1.8-3.9.7-.7 1.6-1.1 2.8-1.1h-.1c1.3 0 2.2.3 2.6 1 .3.4.4.8.4 1.4 0 .5-.1 1-.3 1.6l-.5 1.6h-4.4l-.2.7c-.2.8-.3 1.4-.3 1.6.1.3.3.4.7.4.3 0 .5-.1.7-.4.2-.3.4-.7.6-1.3h2.5c-.3 1.2-.8 2.1-1.4 2.7-.6.3-1.4.6-2.6.6zm2.4-6c.3-.9.4-1.5.3-1.8 0-.3-.2-.4-.6-.4-.4 0-.7.1-.9.4-.2.3-.4.8-.7 1.7v.1h1.9zm5.3-3.7h2.4l-.3 1.2c.9-.9 1.8-1.4 2.8-1.4h.3l-.8 2.7c-.1-.1-.3-.1-.5-.1-.8 0-1.4.2-1.8.7-.4.4-.8 1.2-1.1 2.4l-1.2 4.1h-2.6l2.8-9.6zm6 0h2.6l-.6 6.8 3.3-6.8h2.6l-5.1 9.5h-3.3l.5-9.5zm9.4 0H39l-2.8 9.5h-2.6l2.7-9.5zm1.3-4.2h2.6l-.7 2.3h-2.6l.7-2.3zm.9 17.6l1.9-2.9h2l-1.4 2.9h-2.5zm7.3-7.3c-.3 1.3-.8 2.3-1.5 2.8-.6.6-1.5.8-2.6.8-1.2 0-2.1-.3-2.5-1-.2-.3-.3-.8-.3-1.3s.1-1.1.3-1.8l.5-1.7c.5-1.6 1-2.7 1.6-3.2.6-.6 1.5-.9 2.7-.9 1.2 0 2 .3 2.4.9.2.3.3.7.3 1.2s-.1 1-.3 1.7h-2.5c.2-.8.3-1.3.3-1.6 0-.3-.3-.4-.6-.4s-.5.2-.7.7c-.2.4-.5 1.4-.9 2.7l-.5 1.7c-.1.5-.2.9-.1 1.1.1.2.2.4.5.4.2 0 .4-.2.7-.5.2-.3.4-.8.7-1.5h2.5zm1.6 2.6c-.3-.4-.4-.9-.4-1.4 0-.4.1-.9.2-1.4l.6-2.2c.4-1.5 1-2.5 1.6-3.1.7-.6 1.6-.8 2.9-.8 1.3 0 2.1.3 2.6.9.2.3.3.8.3 1.3s-.1 1-.3 1.6l-.6 2.2c-.4 1.5-1 2.5-1.6 3-.6.5-1.6.8-2.9.8-1.1.1-2-.2-2.4-.9zm3.7-1.1c.2-.3.4-.9.6-1.7l.6-2.2c.3-.9.4-1.4.3-1.7 0-.3-.3-.4-.7-.4-.4 0-.6.1-.8.4-.2.3-.4.9-.6 1.7l-.6 2.2c-.3.9-.4 1.4-.3 1.7.1.3.3.4.8.4.3 0 .5-.1.7-.4zm10.9 2.1c-.8 0-1.4-.3-1.7-1-.1-.3-.2-.6-.2-1 0-.5.1-1.1.3-1.8l.6-2.2c.4-1.3.8-2.3 1.4-2.9.5-.6 1.1-.9 1.8-.9.9 0 1.6.3 2.1.9l.1.1 1.4-5h2.6l-4 13.7H64l.3-.9-.3.3c-.5.4-1.2.7-2 .7zm3.2-8.2c-.3 0-.6.2-.9.4-.3.3-.5.8-.7 1.4l-.8 2.9c-.2.6-.2 1-.1 1.3.1.3.3.5.6.5s.6-.1.8-.4c.2-.3.5-.8.7-1.5l.9-3.2c.1-.5.2-.8.1-1.1-.1-.2-.3-.3-.6-.3zm6.7 8.2c-1.2 0-2.1-.3-2.5-1-.3-.4-.4-.9-.4-1.4 0-.4.1-.8.2-1.3l.3-1.2c.6-1.9 1.2-3.2 1.8-3.9.7-.7 1.6-1.1 2.8-1.1 1.3 0 2.2.3 2.6 1 .2.4.4.8.4 1.4 0 .5-.1 1-.2 1.6l-.5 1.6H72l-.2.7c-.2.8-.3 1.4-.3 1.6.1.3.3.4.7.4.2 0 .5-.1.7-.4.2-.3.4-.7.6-1.3H76c-.3 1.2-.8 2.1-1.4 2.7-.7.3-1.6.6-2.7.6zm2.4-6c.3-.9.4-1.5.3-1.8 0-.3-.3-.4-.6-.4-.4 0-.7.1-.9.4-.2.3-.4.8-.7 1.7v.1h1.9zm13.2-7.9h3.8l-.6 13.7H88l.2-2.9h-3.3l-1.3 2.9h-2.8l6.7-13.7zm-1.7 8.7h2.6l.5-6.6-3.1 6.6zm8.9-4.5h2.4l-.3 1.1.2-.2c.6-.7 1.4-1.1 2.4-1.1.9 0 1.4.3 1.7 1 .1.3.1.6.1 1 0 .6-.1 1.3-.4 2.1l-.6 1.9c-.4 1.4-.9 2.5-1.4 3.1-.5.6-1.2.9-2.1.9-.8 0-1.5-.3-1.9-1v-.1l-1.3 4.4h-2.6l3.8-13.1zm1.3 8c.3 0 .6-.1.8-.4.2-.2.4-.6.6-1.1l1-3.3c.2-.6.2-1 .1-1.3-.1-.3-.3-.5-.6-.5s-.6.2-.9.6c-.3.4-.5 1.1-.8 2l-.7 2.3c-.2.5-.2.9-.1 1.2 0 .4.2.5.6.5zm6 .7c-.3-.4-.4-.9-.4-1.4 0-.4.1-.9.2-1.4l.6-2.2c.4-1.5 1-2.5 1.6-3.1.7-.6 1.6-.8 2.9-.8 1.3 0 2.1.3 2.6.9.2.3.3.8.3 1.3s-.1 1-.3 1.6l-.6 2.2c-.4 1.5-1 2.5-1.6 3-.6.5-1.6.8-2.9.8-1.1.1-1.9-.2-2.4-.9zm3.8-1.1c.2-.3.4-.9.6-1.7l.6-2.2c.3-.9.3-1.4.3-1.7 0-.3-.3-.4-.7-.4-.4 0-.7.1-.8.4-.2.3-.4.9-.6 1.7l-.6 2.2c-.3.9-.4 1.4-.3 1.7 0 .3.3.4.8.4.2 0 .5-.1.7-.4zm6.8-7.6h2.6l-2.8 9.5h-2.6l2.8-9.5zm1.2-4.2h2.6l-.7 2.3h-2.6l.7-2.3zm1.8 12.9c-.3-.4-.4-.9-.4-1.4 0-.4.1-.9.2-1.4l.6-2.2c.4-1.5 1-2.5 1.6-3.1.7-.6 1.6-.8 2.9-.8 1.3 0 2.1.3 2.6.9.2.3.3.8.4 1.3 0 .5-.1 1-.3 1.6l-.6 2.2c-.4 1.5-1 2.5-1.6 3-.6.5-1.6.8-2.9.8-1.2.1-2.1-.2-2.5-.9zm3.7-1.1c.2-.3.4-.9.6-1.7l.6-2.2c.3-.9.4-1.4.3-1.7 0-.3-.3-.4-.7-.4-.4 0-.6.1-.8.4-.2.3-.4.9-.6 1.7l-.6 2.2c-.3.9-.4 1.4-.3 1.7.1.3.3.4.8.4.3 0 .5-.1.7-.4zm10.9 2.1c-.8 0-1.4-.3-1.7-.8-.2-.3-.2-.6-.2-1s.1-.8.2-1.3c.3-1.2.8-2 1.5-2.4.6-.4 1.6-.6 3-.6h.9l.3-.9c.1-.4.1-.6 0-.8-.1-.2-.3-.3-.6-.3s-.5.1-.6.2c-.1.2-.3.5-.5 1h-2.6c.3-1.1.7-1.9 1.2-2.3.6-.4 1.4-.6 2.6-.6 1.1 0 2 .2 2.5.8.4.3.6.8.6 1.3 0 .2 0 .4-.1.7l-1.2 4.2c-.1.4-.2.9-.4 1.4-.1.5-.2.9-.2 1.3h-2.5l.2-.8-.1.1c-.7.5-1.5.8-2.3.8zm3.2-4.7h-.4c-.6 0-1.1.1-1.3.3-.3.2-.5.6-.7 1.2l-.1.3c-.1.4-.1.7 0 .9.1.2.3.3.6.3s.6-.1.8-.4c.2-.3.5-.8.8-1.7l.3-.9zm.1-6.2l-1-3h2.7l.3 3h-2zm8.5 4.1c.2-.6.2-.9.2-1.1 0-.2-.2-.3-.4-.3s-.4.1-.5.2c-.1.2-.2.4-.3.7-.1.3-.1.5 0 .7.1.2.2.3.4.5 1 .5 1.6 1 1.9 1.5.2.3.3.6.3 1 0 .2 0 .4-.1.6-.3 1.1-.7 1.8-1.3 2.3-.6.4-1.5.6-2.8.6-1.1 0-1.9-.3-2.3-.8-.2-.3-.4-.7-.4-1.2 0-.4.1-.8.2-1.3h2.6c-.2.7-.2 1.1-.2 1.3 0 .2.2.3.5.3.2 0 .4-.1.6-.3.1-.2.3-.5.3-.8.1-.3.1-.6 0-.8-.1-.2-.3-.4-.6-.6-.8-.4-1.4-.9-1.7-1.4-.2-.3-.3-.7-.3-1 0-.2 0-.4.1-.6.2-1 .7-1.7 1.3-2.1.6-.5 1.5-.7 2.6-.7s1.8.3 2.2.8c.2.3.4.7.4 1.2 0 .3 0 .7-.2 1.1H142zm9.8 6.6h-2.6l4.2-13.7h4.2l-1.3 10.1 4.8-10.1h4.2l-4 13.7h-2.6l3.6-11.6-5.6 11.6h-3l1.4-11.8-3.3 11.8zm14.7-9.5h2.6l-2.8 9.5h-2.6l2.8-9.5zm1.2-4.2h2.6l-.7 2.3H167l.7-2.3zm8.2 10.3c-.4 1.3-.8 2.3-1.5 2.8-.6.6-1.5.8-2.6.8-1.2 0-2.1-.3-2.5-1-.2-.3-.3-.8-.3-1.3s.1-1.1.3-1.8l.5-1.7c.5-1.6 1-2.7 1.6-3.2.6-.6 1.5-.9 2.7-.9 1.2 0 2 .3 2.4.9.2.3.3.7.3 1.2s-.1 1-.3 1.7H174c.2-.8.3-1.3.3-1.6-.1-.3-.2-.4-.6-.4-.2 0-.5.2-.7.7-.2.4-.5 1.4-.9 2.7l-.5 1.7c-.1.5-.2.9-.1 1.1.1.2.2.4.5.4.2 0 .4-.2.6-.5.2-.3.4-.8.7-1.5h2.6zm3.5-6.1h2.4l-.3 1.2c.9-.9 1.8-1.4 2.8-1.4h.3l-.8 2.7c-.1-.1-.3-.1-.5-.1-.8 0-1.4.2-1.8.7-.4.4-.8 1.2-1.1 2.4l-1.2 4.1h-2.6l2.8-9.6zm4.8 8.7c-.3-.4-.4-.9-.4-1.4 0-.4.1-.9.2-1.4l.6-2.2c.4-1.5 1-2.5 1.6-3.1.7-.6 1.6-.8 3-.8 1.3 0 2.1.3 2.5.9.2.3.3.8.4 1.3 0 .5-.1 1-.3 1.6l-.7 2.2c-.4 1.5-1 2.5-1.6 3-.6.5-1.6.8-2.9.8-1.1.1-2-.2-2.4-.9zm3.7-1.1c.2-.3.4-.9.7-1.7l.6-2.2c.2-.9.3-1.4.3-1.7-.1-.3-.3-.4-.8-.4-.4 0-.6.1-.8.4-.2.3-.4.9-.6 1.7l-.6 2.2c-.3.9-.4 1.4-.3 1.7 0 .3.3.4.7.4.4 0 .6-.1.8-.4zm12 2.1c-1.2 0-2.1-.3-2.5-1-.3-.4-.4-.9-.4-1.4 0-.4.1-.8.2-1.3l.3-1.2c.6-1.9 1.2-3.2 1.8-3.9.7-.7 1.6-1.1 2.8-1.1h-.1c1.3 0 2.2.3 2.6 1 .3.4.4.8.4 1.4 0 .5-.1 1-.3 1.6l-.5 1.6H200l-.2.7c-.2.8-.3 1.4-.3 1.6.1.3.3.4.7.4.3 0 .5-.1.7-.4.2-.3.4-.7.6-1.3h2.5c-.3 1.2-.8 2.1-1.4 2.7-.7.3-1.6.6-2.7.6zm2.4-6c.2-.9.4-1.5.3-1.8 0-.3-.2-.4-.6-.4-.4 0-.7.1-.9.4-.2.3-.4.8-.7 1.7v.1h1.9zm11-7.9h3.4c1.7 0 2.8.4 3.4 1.1.3.4.4.9.4 1.6 0 .6-.1 1.3-.3 2.1l-.1.2c-.4 1.3-.9 2.1-1.6 2.6-.7.5-1.7.7-3.2.7h-1.7L212 180h-2.8l4.1-13.7zm1.1 6.2h.9c.6 0 1-.1 1.4-.4.3-.3.6-.7.8-1.2l.1-.3c.2-.8.3-1.4.1-1.7-.2-.3-.6-.5-1.3-.5h-.8l-1.2 4.1zm8.6 7.7c-1.2 0-2.1-.3-2.5-1-.3-.4-.4-.9-.4-1.4 0-.4.1-.8.2-1.3l.3-1.2c.6-1.9 1.2-3.2 1.8-3.9.7-.7 1.6-1.1 2.8-1.1h-.1c1.3 0 2.2.3 2.6 1 .3.4.4.8.4 1.4 0 .5-.1 1-.3 1.6l-.5 1.6h-4.4l-.2.7c-.3.8-.3 1.4-.3 1.6.1.3.3.4.7.4.3 0 .5-.1.7-.4.2-.3.4-.7.6-1.3h2.5c-.3 1.2-.8 2.1-1.4 2.7-.5.3-1.4.6-2.5.6zm2.4-6c.3-.9.4-1.5.3-1.8 0-.3-.2-.4-.6-.4-.4 0-.7.1-.9.4-.2.3-.4.8-.7 1.7v.1h1.9zm4.8 6c-.9 0-1.4-.3-1.7-1-.1-.3-.2-.6-.2-1 0-.5.1-1.1.3-1.8l.6-2.2c.4-1.3.8-2.3 1.4-2.9.5-.6 1.1-.9 1.8-.9.9 0 1.6.3 2.1.9l.2.2.2-.9h2.4l-3.8 13.1H231l1.2-4.1c-.5.4-1.2.6-2 .6zm3.3-8.2c-.3 0-.6.2-.9.4-.3.3-.5.8-.7 1.4l-.8 2.9c-.2.6-.2 1-.1 1.3.1.3.3.5.6.5s.6-.1.8-.4c.2-.3.5-.8.7-1.5l.9-3.2c.1-.5.2-.8.1-1.1-.1-.2-.3-.3-.6-.3zm6.6 5.5c-.1.3-.1.6 0 .7.1.2.2.3.5.3s.7-.2.9-.5c.3-.4.5-.9.8-1.7l1.7-5.8h2.6l-2.8 9.5h-2.4l.3-.9-.1.1c-.7.7-1.5 1.1-2.4 1.1-.7 0-1.2-.2-1.5-.7-.1-.2-.2-.5-.2-.9 0-.3 0-.6.2-1l2.1-7.2h2.6l-2.3 7zm9.3 2.7c-1.2 0-2.1-.3-2.5-1-.3-.4-.4-.9-.4-1.4 0-.4.1-.8.2-1.3l.4-1.2c.6-1.9 1.2-3.2 1.8-3.9.7-.7 1.6-1.1 2.8-1.1h-.1c1.3 0 2.2.3 2.6 1 .2.4.4.8.4 1.4 0 .5-.1 1-.3 1.6l-.5 1.6h-4.4l-.2.7c-.2.8-.3 1.4-.3 1.6s.3.4.7.4c.3 0 .5-.1.7-.4.2-.3.4-.7.6-1.3h2.5c-.3 1.2-.8 2.1-1.4 2.7-.6.3-1.5.6-2.6.6zm2.4-6c.3-.9.4-1.5.3-1.8 0-.3-.2-.4-.6-.4-.4 0-.7.1-.9.4-.2.3-.4.8-.7 1.7v.1h1.9zm5.3-3.7h2.6l-.2.9c.7-.7 1.5-1.1 2.4-1.1.7 0 1.2.2 1.5.7.3.4.3 1.1.1 1.9l-2.1 7.2h-2.7l2-7c.1-.3.1-.6 0-.7-.1-.2-.2-.3-.5-.3-.4 0-.7.2-1 .5-.3.4-.5.9-.8 1.7L257 180h-2.6l2.7-9.5zm8.8 9.7c-.8 0-1.4-.3-1.7-.8-.1-.3-.2-.6-.2-1s.1-.8.2-1.3c.3-1.2.8-2 1.5-2.4.6-.4 1.6-.6 3-.6h.9l.3-.9c.1-.4.1-.6 0-.8-.1-.2-.3-.3-.6-.3s-.5.1-.6.2c-.1.2-.3.5-.5 1h-2.6c.3-1.1.7-1.9 1.2-2.3.6-.4 1.4-.6 2.6-.6 1.1 0 2 .2 2.5.8.4.3.6.8.6 1.3 0 .2 0 .4-.1.7l-1.2 4.2c-.1.4-.3.9-.4 1.4-.1.5-.2.9-.2 1.3H268l.2-.8-.1.1c-.7.5-1.4.8-2.2.8zm3.2-4.7h-.4c-.6 0-1.1.1-1.3.3-.3.2-.5.6-.7 1.2l-.1.3c-.1.4-.1.7 0 .9.1.2.3.3.6.3s.6-.1.8-.4c.2-.3.5-.8.7-1.7l.4-.9zm8.6-2.1c.2-.6.2-.9.2-1.1 0-.2-.2-.3-.4-.3s-.4.1-.5.2c-.1.2-.2.4-.3.7-.1.3-.1.5 0 .7.1.2.2.3.4.5 1 .5 1.6 1 1.9 1.5.2.3.3.6.3 1 0 .2 0 .4-.1.6-.3 1.1-.7 1.8-1.3 2.3-.6.4-1.5.6-2.7.6-1.1 0-1.9-.3-2.3-.8-.2-.3-.4-.7-.4-1.2 0-.4.1-.8.2-1.3h2.6c-.2.7-.2 1.1-.2 1.3 0 .2.2.3.5.3.2 0 .4-.1.6-.3.1-.2.3-.5.4-.8.1-.3.1-.6 0-.8-.1-.2-.3-.4-.6-.6-.8-.4-1.4-.9-1.7-1.4-.2-.3-.3-.7-.3-1 0-.2 0-.4.1-.6.2-1 .7-1.7 1.3-2.1.6-.5 1.5-.7 2.6-.7s1.8.3 2.2.8c.2.3.4.7.4 1.2 0 .3-.1.7-.2 1.1h-2.7zm-261 30.5l4-13.7h6.8l-.3 1-.3 1H23l-1 3.6h3.7l-.3 1-.3 1h-3.7l-1.2 3.9h4.1l-.3 1-.3 1h-7zm11.6-9.6h2.2l-.3.9.1-.1c.7-.7 1.6-1.1 2.4-1.1.8 0 1.3.2 1.6.7l.2.4c.8-.7 1.6-1.1 2.5-1.1.8 0 1.3.2 1.6.7.2.3.3.6.2 1 0 .3 0 .7-.2 1.1l-2 7H34l2-7c.1-.3.1-.6 0-.7-.1-.2-.2-.3-.5-.3-.4 0-.7.2-1 .5-.3.4-.5.9-.8 1.7l-1.7 5.8h-2.6l2-7c.1-.3.1-.6 0-.8-.1-.2-.2-.3-.5-.3-.4 0-.7.2-1 .5-.3.4-.5.9-.8 1.7l-1.7 5.8h-2.6l3.5-9.4zm13.1 0h2.4l-.3 1.1.2-.2c.6-.7 1.4-1.1 2.4-1.1.9 0 1.4.3 1.7 1 .1.3.1.6.1 1 0 .6-.1 1.3-.3 2.1l-.6 1.9c-.4 1.4-.9 2.5-1.4 3.1-.5.6-1.2.9-2.1.9-.8 0-1.5-.3-1.9-1v-.1l-1.3 4.4h-2.6l3.7-13.1zm1.2 8.1c.3 0 .6-.1.8-.4.2-.2.4-.6.6-1.1l1-3.3c.2-.6.2-1 .1-1.3-.1-.3-.3-.5-.6-.5s-.7.2-.9.6c-.3.4-.5 1.1-.8 2l-.7 2.3c-.2.5-.2.9-.1 1.2.1.4.3.5.6.5zm7.9-8.1h2.4l-.3 1.2c.9-.9 1.8-1.4 2.8-1.4h.3l-.8 2.7c-.1-.1-.3-.1-.5-.1-.8 0-1.4.2-1.8.7-.4.4-.8 1.2-1.1 2.4l-1.2 4.1h-2.6l2.8-9.6zm7.3 9.8c-1.2 0-2.1-.3-2.5-1-.3-.4-.4-.9-.4-1.4 0-.4.1-.8.2-1.3l.4-1.2c.6-1.9 1.2-3.2 1.8-3.9.7-.7 1.6-1.1 2.8-1.1 1.3 0 2.2.3 2.6 1 .3.4.4.8.4 1.4 0 .5-.1 1-.3 1.6l-.5 1.6h-4.4l-.2.7c-.2.8-.3 1.4-.3 1.6.1.3.3.4.7.4.3 0 .5-.1.7-.4.2-.3.4-.7.6-1.3h2.5c-.3 1.2-.8 2.1-1.4 2.7-.7.3-1.6.6-2.7.6zm2.4-6c.3-.9.4-1.5.3-1.8 0-.3-.2-.4-.6-.4-.4 0-.7.1-.9.4-.2.3-.4.8-.7 1.7v.1h1.9zm7.9-.8c.1-.6.2-.9.2-1.1 0-.2-.2-.3-.4-.3s-.4.1-.5.2c-.1.2-.2.4-.3.7-.1.3-.1.5 0 .7.1.2.2.3.4.5 1 .5 1.6 1 1.9 1.5.2.3.3.7.3 1 0 .2 0 .4-.1.6-.3 1.1-.7 1.8-1.3 2.3-.6.4-1.5.6-2.8.6-1.1 0-1.9-.3-2.3-.8-.2-.3-.3-.7-.4-1.2 0-.4.1-.8.2-1.3h2.6c-.2.7-.2 1.1-.2 1.3 0 .2.2.3.5.3.2 0 .4-.1.5-.3.1-.2.3-.4.4-.8.1-.3.1-.6 0-.8-.1-.2-.3-.4-.6-.6-.8-.4-1.4-.9-1.7-1.4-.2-.3-.3-.7-.3-1 0-.2 0-.4.1-.6.2-1 .7-1.7 1.3-2.1.6-.5 1.5-.7 2.6-.7s1.8.3 2.2.8c.2.3.4.7.4 1.2 0 .3 0 .7-.1 1.1h-2.6zm5.1 6.8c-.8 0-1.4-.3-1.7-.8-.2-.3-.2-.6-.2-1.1 0-.4.1-.8.2-1.3.3-1.2.8-2 1.5-2.4.6-.4 1.6-.6 3-.6h.9l.3-.9c.1-.4.1-.6 0-.8-.1-.2-.3-.3-.6-.3s-.5.1-.6.2c-.1.2-.3.5-.5 1h-2.6c.3-1.1.7-1.9 1.2-2.3.6-.4 1.4-.6 2.6-.6 1.1 0 2 .2 2.5.8.4.3.6.8.6 1.3 0 .2 0 .5-.1.7l-1.2 4.2c-.1.5-.2.9-.3 1.4-.1.5-.2.9-.2 1.3h-2.5l.2-.8-.1.1c-.9.6-1.6.9-2.4.9zm3.2-4.7H76c-.6 0-1.1.1-1.3.3-.3.2-.5.6-.7 1.2l-.1.3c-.1.4-.1.7 0 .9.1.2.3.3.6.3s.6-.1.8-.4c.2-.3.5-.8.8-1.7l.3-.9zm8.6-2.1c.1-.6.2-.9.2-1.1 0-.2-.2-.3-.4-.3s-.4.1-.5.2c-.1.2-.2.4-.3.7-.1.3-.1.5 0 .7.1.2.2.3.4.5 1 .5 1.6 1 1.9 1.5.2.3.3.7.3 1 0 .2 0 .4-.1.6-.3 1.1-.7 1.8-1.3 2.3-.6.4-1.5.6-2.8.6-1.1 0-1.9-.3-2.3-.8-.2-.3-.3-.7-.4-1.2 0-.4.1-.8.2-1.3h2.6c-.2.7-.2 1.1-.2 1.3 0 .2.2.3.5.3.2 0 .4-.1.5-.3.1-.2.3-.4.4-.8.1-.3.1-.6 0-.8-.1-.2-.3-.4-.6-.6-.8-.4-1.4-.9-1.7-1.4-.2-.3-.3-.7-.3-1 0-.2 0-.4.1-.6.2-1 .7-1.7 1.3-2.1.6-.5 1.5-.7 2.6-.7s1.8.3 2.2.8c.2.3.4.7.4 1.2 0 .3 0 .7-.2 1.1H85zm9.4 6.8c-.8 0-1.4-.3-1.7-1-.1-.3-.2-.7-.2-1.1 0-.5.1-1.1.3-1.8l.6-2.2c.4-1.3.8-2.3 1.4-2.9.5-.6 1.1-.9 1.8-.9.9 0 1.6.3 2.1.9l.1.1 1.4-5h2.6l-4 13.7h-2.4l.3-.9-.2.3c-.5.5-1.2.8-2.1.8zm3.3-8.3c-.3 0-.6.2-.9.5-.2.3-.5.8-.7 1.4l-.8 2.9c-.2.6-.2 1-.1 1.4.1.3.3.5.6.5s.6-.1.8-.4c.2-.3.5-.8.7-1.5l.9-3.2c.1-.4.2-.8.1-1.1-.1-.4-.3-.5-.6-.5zm4.1 7.3c-.3-.4-.4-.9-.4-1.4 0-.4.1-.9.2-1.4l.6-2.2c.4-1.5 1-2.5 1.6-3.1.7-.6 1.6-.8 2.9-.8 1.3 0 2.1.3 2.6.9.2.3.3.8.3 1.3s-.1 1-.3 1.6l-.6 2.2c-.4 1.5-1 2.5-1.6 3-.7.6-1.6.8-2.9.8-1.1.1-1.9-.3-2.4-.9zm3.8-1.2c.2-.3.4-.9.7-1.7l.6-2.2c.3-.9.4-1.5.3-1.7 0-.3-.3-.4-.7-.4-.4 0-.6.1-.8.4-.2.3-.4.9-.7 1.8l-.6 2.2c-.2.9-.4 1.4-.3 1.7 0 .3.3.4.7.4.3 0 .6-.2.8-.5zm12.5-11.7h3.3c1.6 0 2.7.3 3.2 1 .3.4.4.8.4 1.4 0 .5-.1 1.1-.3 1.8v.1c-.3 1-.8 1.7-1.5 2.1-.5.3-1.2.5-2 .6.8.1 1.3.3 1.7.7.5.5.6 1.2.3 2.3-.2.5-.3 1-.4 1.5-.1.6-.2 1.1-.2 1.4 0 .3-.1.6-.1.8h-2.9c0-.3 0-.6.1-1 0-.3.1-.7.2-1.2s.2-1 .4-1.6c.2-.7.2-1.2 0-1.5-.2-.3-.7-.4-1.4-.4h-.3l-1.6 5.7h-2.8l3.9-13.7zm1.1 5.9h.5c.6 0 1.1-.1 1.4-.4.4-.2.6-.6.8-1.1l.1-.3c.2-.8.2-1.3 0-1.6-.2-.3-.6-.5-1.3-.5h-.4l-1.1 3.9zm7.9-1.8h2.6l-2.8 9.5h-2.6l2.8-9.5zm1.2-4.1h2.6l-.7 2.3h-2.6l.7-2.3zm1.8 12.9c-.3-.4-.4-.9-.4-1.4 0-.4.1-.9.2-1.4l.6-2.2c.4-1.5 1-2.5 1.6-3.1.7-.6 1.6-.8 3-.8 1.3 0 2.1.3 2.6.9.2.3.3.8.4 1.3 0 .5-.1 1-.3 1.6l-.6 2.2c-.4 1.5-1 2.5-1.6 3-.6.6-1.6.8-2.9.8-1.3.1-2.2-.3-2.6-.9zm3.7-1.2c.2-.3.4-.9.6-1.7l.6-2.2c.3-.9.4-1.5.3-1.7 0-.3-.3-.4-.7-.4-.4 0-.6.1-.8.4-.2.3-.4.9-.6 1.8l-.6 2.2c-.3.9-.4 1.4-.3 1.7.1.3.3.4.8.4.2 0 .5-.2.7-.5zm13.6 2.2c-1.7 0-2.8-.4-3.4-1.3-.3-.5-.5-1.1-.5-1.8 0-.6.1-1.3.3-2.1l1.1-3.7c.6-2.1 1.3-3.4 2.1-4.2.8-.7 2-1.1 3.6-1.1 1.3 0 2.2.4 2.9 1.1.6.7.8 1.6.4 2.7l-.2.7H151l.2-.7c.2-.6.1-1 0-1.3-.2-.3-.5-.4-1-.4s-1 .2-1.3.7c-.3.5-.7 1.3-1 2.5l-1.1 3.7c-.3 1.2-.4 2-.3 2.4.2.5.6.7 1.3.7.3 0 .7-.1 1-.2l.9-3.1h-1.5l.6-2.1h4.3l-2 6.9c-1.1.4-2.3.6-3.7.6zm8.7-9.8h2.4l-.3 1.2c.9-.9 1.8-1.4 2.8-1.4h.3l-.8 2.7c-.2-.1-.3-.1-.5-.1-.8 0-1.4.2-1.8.7-.4.4-.8 1.2-1.1 2.4l-1.2 4.1h-2.6l2.8-9.6zm6.2 9.8c-.9 0-1.4-.3-1.7-.8-.2-.3-.2-.6-.3-1.1 0-.4.1-.8.2-1.3.3-1.2.8-2 1.5-2.4.6-.4 1.6-.6 3-.6h.9l.3-.9c.1-.4.1-.6 0-.8-.1-.2-.3-.3-.6-.3s-.5.1-.6.2c-.1.2-.3.5-.5 1h-2.6c.3-1.1.7-1.9 1.2-2.3.6-.4 1.4-.6 2.6-.6 1.1 0 2 .2 2.5.8.4.3.6.8.6 1.3 0 .2 0 .5-.1.7l-1.2 4.2c-.1.5-.3.9-.4 1.4-.1.5-.2.9-.2 1.3h-2.6l.2-.8-.1.1c-.5.6-1.3.9-2.1.9zm3.2-4.7h-.4c-.6 0-1.1.1-1.3.3-.3.2-.5.6-.6 1.2l-.1.3c-.1.4-.1.7 0 .9.1.2.3.3.6.3s.6-.1.8-.4c.2-.3.5-.8.7-1.7l.3-.9zm6-5.1h2.6l-.2.9c.7-.7 1.5-1.1 2.4-1.1.7 0 1.2.2 1.5.7.3.5.3 1.1.1 1.9l-2.1 7.2h-2.6l2-7c.1-.3.1-.6 0-.7-.1-.2-.2-.3-.5-.3s-.7.2-.9.5c-.3.4-.5.9-.8 1.7l-1.7 5.8h-2.6l2.8-9.6zm8.8 9.8c-.9 0-1.4-.3-1.7-1-.1-.3-.2-.7-.2-1.1 0-.5.1-1.1.3-1.8l.6-2.2c.4-1.3.8-2.3 1.4-2.9.5-.6 1.1-.9 1.8-.9.9 0 1.6.3 2.1.9l.1.1 1.4-5h2.6l-4 13.7h-2.4l.3-.9-.3.3c-.5.5-1.2.8-2 .8zm3.2-8.3c-.3 0-.6.2-.9.5-.2.3-.5.8-.7 1.4l-.8 2.9c-.2.6-.2 1-.1 1.4.1.3.3.5.6.5s.6-.1.8-.4c.2-.3.5-.8.7-1.5l.9-3.2c.1-.4.2-.8.1-1.1-.1-.4-.3-.5-.6-.5zm6.6 8.3c-1.2 0-2-.3-2.5-1-.3-.4-.4-.9-.4-1.4 0-.4.1-.8.2-1.3l.3-1.2c.6-1.9 1.2-3.2 1.8-3.9.7-.7 1.6-1.1 2.8-1.1 1.3 0 2.2.3 2.6 1 .2.4.4.8.4 1.4 0 .5-.1 1-.3 1.6l-.5 1.6h-4.4l-.2.7c-.2.8-.3 1.4-.3 1.6.1.3.3.4.7.4.3 0 .5-.1.7-.4.2-.3.4-.7.6-1.3h2.5c-.3 1.2-.8 2.1-1.4 2.7-.5.3-1.4.6-2.6.6zm2.5-6c.3-.9.4-1.5.3-1.8 0-.3-.2-.4-.6-.4-.4 0-.7.1-.9.4-.2.3-.4.8-.7 1.7v.1h1.9zm9.3 6c-.8 0-1.4-.3-1.7-1-.1-.3-.2-.7-.2-1.1 0-.5.1-1.1.3-1.8l.6-2.2c.4-1.3.8-2.3 1.4-2.9.5-.6 1.1-.9 1.8-.9.9 0 1.6.3 2.1.9l.1.1 1.4-5h2.6l-4 13.7H204l.3-.9-.3.3c-.5.5-1.3.8-2.1.8zm3.2-8.3c-.3 0-.6.2-.9.5-.2.3-.5.8-.6 1.4l-.8 2.9c-.2.6-.2 1-.1 1.4.1.3.3.5.6.5s.6-.1.8-.4c.2-.3.5-.8.7-1.5l.9-3.2c.1-.4.2-.8.1-1.1-.1-.4-.4-.5-.7-.5zm4.2 7.3c-.3-.4-.4-.9-.4-1.4 0-.4.1-.9.2-1.4l.6-2.2c.4-1.5 1-2.5 1.6-3.1.7-.6 1.6-.8 2.9-.8 1.3 0 2.1.3 2.6.9.2.3.3.8.3 1.3s-.1 1-.3 1.6l-.7 2.2c-.4 1.5-1 2.5-1.6 3-.6.6-1.6.8-2.9.8-1 .1-1.8-.3-2.3-.9zm3.7-1.2c.2-.3.4-.9.6-1.7l.6-2.2c.3-.9.4-1.5.3-1.7 0-.3-.3-.4-.7-.4-.4 0-.7.1-.9.4-.2.3-.4.9-.7 1.8l-.6 2.2c-.3.9-.4 1.4-.3 1.7 0 .3.3.4.7.4.6 0 .8-.2 1-.5zm11.2 2h-2.4l4-13.7h3.4v10l2.9-10h2.4l-4 13.7H227l.1-9.7-2.9 9.7zm9.6-.8c-.3-.4-.4-.9-.4-1.4 0-.4.1-.9.2-1.4l.6-2.2c.4-1.5 1-2.5 1.6-3.1.7-.6 1.6-.8 3-.8 1.3 0 2.1.3 2.5.9.2.3.4.8.4 1.3s-.1 1-.3 1.6l-.6 2.2c-.4 1.5-1 2.5-1.6 3-.6.6-1.6.8-2.9.8-1.2.1-2-.3-2.5-.9zm3.8-1.2c.2-.3.4-.9.6-1.7l.7-2.2c.2-.9.3-1.5.3-1.7-.1-.3-.3-.4-.7-.4-.4 0-.6.1-.8.4-.2.3-.4.9-.6 1.8l-.6 2.2c-.2.9-.4 1.4-.3 1.7 0 .3.3.4.8.4.1 0 .4-.2.6-.5zm6.8-7.6h2.4l-.3 1.2c.9-.9 1.8-1.4 2.8-1.4h.3l-.8 2.7c-.1-.1-.3-.1-.5-.1-.8 0-1.4.2-1.8.7-.4.4-.8 1.2-1.1 2.4l-1.2 4.1h-2.5l2.7-9.6zm8.3 9.7c-.4.1-.8.1-1.3.1-1.1 0-1.8-.3-2.1-.8-.3-.5-.3-1.4 0-2.6l1.4-4.7h-1.2l.5-1.6h1.2l.5-1.5 2.9-.8-.7 2.3h1.4l-.5 1.6h-1.4l-1.4 4.7c-.2.7-.3 1.2-.2 1.4.1.2.5.3 1.1.3h.2l-.4 1.6zm5.3.1c-1.2 0-2.1-.3-2.5-1-.3-.4-.4-.9-.4-1.4 0-.4.1-.8.2-1.3l.4-1.2c.6-1.9 1.2-3.2 1.8-3.9.7-.7 1.6-1.1 2.8-1.1 1.3 0 2.2.3 2.6 1 .2.4.4.8.4 1.4 0 .5-.1 1-.3 1.6l-.5 1.6h-4.4l-.2.7c-.2.8-.3 1.4-.3 1.6.1.3.3.4.7.4.3 0 .5-.1.7-.4.2-.3.4-.7.6-1.3h2.5c-.3 1.2-.8 2.1-1.4 2.7-.7.3-1.6.6-2.7.6zm2.4-6c.3-.9.4-1.5.3-1.8 0-.3-.3-.4-.6-.4-.4 0-.7.1-.9.4-.2.3-.4.8-.6 1.7v.1h1.8z" fill="#006db7"/></svg>