<svg id="Camada_1" data-name="Camada 1" xmlns="http://www.w3.org/2000/svg" viewBox="0 0 200 200"><defs><style>.cls-6{fill:#333}</style><radialGradient id="Gradiente_sem_nome_5" cx="-686.72" cy="-5122.02" r="15.14" gradientTransform="matrix(1 0 0 .27 719.66 1491.48)" gradientUnits="userSpaceOnUse"><stop offset="0" stop-color="#727272"/><stop offset="1"/></radialGradient><mask id="mask" x="-32.59" y="23.1" width="347.46" height="148.66" maskUnits="userSpaceOnUse"><path fill="url(#Gradiente_sem_nome_5)" d="M-32.59 23.1h347.46v148.66H-32.59z" id="TranspMask"/></mask><linearGradient id="Gradiente_sem_nome_2" x1="-494.2" y1="-239.58" x2="-459.97" y2="-239.58" gradientTransform="rotate(40.98 -659.592 589.331)" gradientUnits="userSpaceOnUse"><stop offset="0" stop-color="#5a9fd4"/><stop offset="1" stop-color="#306998"/></linearGradient><linearGradient id="Gradiente_sem_nome_3" x1="962.74" y1="242.13" x2="978.83" y2="242.13" gradientTransform="rotate(-124.8 470.118 414.117)" gradientUnits="userSpaceOnUse"><stop offset="0" stop-color="#ffd43b"/><stop offset="1" stop-color="#ffe873"/></linearGradient><linearGradient id="Gradiente_sem_nome_4" x1="-3710.94" y1="-1093.06" x2="-3673.13" y2="-1093.06" gradientTransform="translate(3862.89 1205.03)" gradientUnits="userSpaceOnUse"><stop offset="0" stop-color="#4c8cbf"/><stop offset="1" stop-color="#306898"/></linearGradient></defs><g id="Logo"><g id="Group"><g mask="url(#mask)"><path d="M48.08 125.26c0 2.23-6.78 4-15.14 4s-15.14-1.81-15.14-4 6.78-4 15.14-4 15.14 1.81 15.14 4z" fill="#7f7f7f"/></g><g id="Group_1" data-name="Group 1"><g id="Group_2" data-name="Group 2"><path d="M33.14 70.7a32.17 32.17 0 0 0-5.4.46C23 72 22.09 73.77 22.09 77v4.31h11.3v1.43H17.85a7 7 0 0 0-7 5.73 21 21 0 0 0 0 11.48c.8 3.35 2.72 5.73 6 5.73h3.88v-5.16a7.18 7.18 0 0 1 7.06-7H39a5.69 5.69 0 0 0 5.65-5.74V77c0-3.06-2.59-5.36-5.65-5.87a35.51 35.51 0 0 0-5.89-.46zM27 74.16a2.16 2.16 0 1 1-2.12 2.16A2.14 2.14 0 0 1 27 74.16z" fill="url(#Gradiente_sem_nome_2)"/><path d="M46.09 82.77v5A7.25 7.25 0 0 1 39 95H27.74a5.77 5.77 0 0 0-5.65 5.75v10.75c0 3.06 2.67 4.87 5.65 5.74a18.79 18.79 0 0 0 11.29 0c2.84-.82 5.65-2.48 5.65-5.74v-4.3H33.39v-1.44h16.94c3.28 0 4.5-2.29 5.65-5.73S57.1 93 56 88.5c-.82-3.27-2.37-5.73-5.65-5.73zM39.74 110a2.15 2.15 0 1 1-2.12 2.14 2.13 2.13 0 0 1 2.12-2.14z" fill="url(#Gradiente_sem_nome_3)"/></g></g><g id="Group_3" data-name="Group 3"><path class="cls-6" d="M85.48 94.88a12.56 12.56 0 0 1-2.13 7.49 7.86 7.86 0 0 1-6.59 3.46 11.63 11.63 0 0 1-6.53-2v12.83l-3.57-1.28V86.91A7.76 7.76 0 0 1 68.94 85a15.7 15.7 0 0 1 7.85-1.94 7.21 7.21 0 0 1 6.5 3.47 14.66 14.66 0 0 1 2.19 8.35zm-4.16-.24q0-8.86-5.08-9.12a9.53 9.53 0 0 0-3.94.65 5.79 5.79 0 0 0-2.07 1.09v14.12a10.09 10.09 0 0 0 5.77 1.88q5.32-.34 5.32-8.62zm26.32 8.67q0 6-1.21 8.37a8.59 8.59 0 0 1-4.64 3.72 18 18 0 0 1-6 1.19l-.59-2.28a29.87 29.87 0 0 0 4.6-.89 6.11 6.11 0 0 0 3.61-2.73q.8-1.48.8-5.7v-.94a18.69 18.69 0 0 1-7.78 1.69 7.11 7.11 0 0 1-4.7-1.69 5.72 5.72 0 0 1-2.28-4.66V84.33l3.66-1.24v15.16a4.61 4.61 0 0 0 1.57 3.75 5.89 5.89 0 0 0 4 1.27 10.09 10.09 0 0 0 5.3-1.94V83.64h3.62zm14.13 2.33h-1.19a7.15 7.15 0 0 1-4.78-1.46 5 5 0 0 1-1.71-4V86h-2.48v-2.36h2.48v-6l3.61-1.29v7.33h4.07V86h-4.07v14.12a3.41 3.41 0 0 0 1.1 2.87 5.44 5.44 0 0 0 3 .8zm22.57-.3h-3.66v-14a6.51 6.51 0 0 0-1-3.66 3.57 3.57 0 0 0-3.17-1.68q-2.47 0-6.19 2.63v16.74h-3.62V71.94l3.62-1.14V86a12.56 12.56 0 0 1 7.58-2.53 6.07 6.07 0 0 1 4.66 1.93 6.82 6.82 0 0 1 1.78 4.81zm23.83-11.25a12.82 12.82 0 0 1-2.48 8.08 8.9 8.9 0 0 1-7.53 3.62 8.72 8.72 0 0 1-7.43-3.62 13 13 0 0 1-2.43-8.08 11.52 11.52 0 0 1 2.62-7.68 9 9 0 0 1 7.29-3.32 9.17 9.17 0 0 1 7.33 3.32 11.48 11.48 0 0 1 2.63 7.68zm-4 0a11.14 11.14 0 0 0-1.28-5.65 5.41 5.41 0 0 0-4.76-2.88q-5.94.34-5.94 8.52a14.23 14.23 0 0 0 1.24 6.3 5 5 0 0 0 4.78 3.17q5.99-.03 5.99-9.45zm25.45 11.25H186V90.58a4.91 4.91 0 0 0-1.46-3.79 5.26 5.26 0 0 0-3.89-1.31 8.7 8.7 0 0 0-4.91 1.68v18.18h-3.61V86.71a16.63 16.63 0 0 1 10.11-3.62 11.74 11.74 0 0 1 2.42.25 7 7 0 0 1 3.47 1.83 4.89 4.89 0 0 1 1.49 3.57z" id="Group_4" data-name="Group 4"/></g><g id="Group_5" data-name="Group 5"><path class="cls-6" d="M71.47 126.77a2.31 2.31 0 0 1-1.14 2 3.34 3.34 0 0 1-1.85.51 3.64 3.64 0 0 1-1.43-.32 3.68 3.68 0 0 1-1.13-.7l.41-.67a3.26 3.26 0 0 0 2.17.86 2.17 2.17 0 0 0 1.24-.35 1.38 1.38 0 0 0 .61-1.16A1.17 1.17 0 0 0 70 126a2.85 2.85 0 0 0-1.11-.58l-.82-.28a3.67 3.67 0 0 1-1.49-.79 1.85 1.85 0 0 1-.49-1.33 2.19 2.19 0 0 1 .73-1.71 2.77 2.77 0 0 1 1.93-.66 3.5 3.5 0 0 1 2.09.75l-.41.63a2.75 2.75 0 0 0-1.63-.59 1.78 1.78 0 0 0-1.2.37 1.3 1.3 0 0 0-.44 1c0 .56.46 1 1.42 1.3l.93.3a3.33 3.33 0 0 1 1.48.88 2.17 2.17 0 0 1 .48 1.48zm7.92-1.88a5 5 0 0 1-.91 3 3.18 3.18 0 0 1-5.31 0 5 5 0 0 1-.91-3 4.61 4.61 0 0 1 .93-2.89 3.31 3.31 0 0 1 5.27 0 4.61 4.61 0 0 1 .93 2.89zm-1.1 0a4.28 4.28 0 0 0-.61-2.33 2.09 2.09 0 0 0-3.72 0 4.29 4.29 0 0 0-.62 2.33 4.74 4.74 0 0 0 .63 2.48 2 2 0 0 0 3.69 0 4.74 4.74 0 0 0 .63-2.48zm6.9-4.01l-.34.67h-3.31v2.82h2.77L84 125h-2.46v4.13h-1v-8.28zm6.15.64H88.9v7.64h-1v-7.64h-2.45l.31-.65h5.58zm10.37-.7L99.54 129l-.74.26-2-7.16L95 129l-.75.26-2.34-8.26.93-.34 1.86 6.71 1.76-6.37 1-.34 1.86 6.73 1.88-6.73zm6.78 8.34h-1l-.9-2.58h-3.2l-.94 2.58h-.73l3-8.15.94-.31zm-2.1-3.2l-1.32-3.96-1.46 4zm8.04 3.2h-1.16l-2.2-3.88h-.7v3.88h-1v-8.3H112a2.33 2.33 0 0 1 1.67.65 2.2 2.2 0 0 1 0 3.15 2.14 2.14 0 0 1-1.58.62zm-1-6.09A1.53 1.53 0 0 0 113 122a1.43 1.43 0 0 0-1.06-.47h-1.54v3.07h1.53a1.45 1.45 0 0 0 1.09-.44 1.52 1.52 0 0 0 .39-1.09zm6.8-2.21l-.33.67h-3.33v2.84h2.77l-.34.63h-2.42v3.47h3.58v.66h-4.52v-8.29z" id="Group_6" data-name="Group 6"/><path class="cls-6" d="M129.75 120.88l-.34.67h-3.32v2.82h2.78l-.36.66h-2.42v4.13h-.94v-8.28zm7.4 4.01a5 5 0 0 1-.91 3 3.19 3.19 0 0 1-5.32 0 5 5 0 0 1-.9-3A4.56 4.56 0 0 1 131 122a3.28 3.28 0 0 1 5.26 0 4.51 4.51 0 0 1 .89 2.89zm-1.11 0a4.39 4.39 0 0 0-.6-2.33 2.1 2.1 0 0 0-3.73 0 4.31 4.31 0 0 0-.61 2.33 4.8 4.8 0 0 0 .63 2.49 2 2 0 0 0 3.68 0 4.8 4.8 0 0 0 .59-2.49zm8.22 1.46a2.77 2.77 0 0 1-.86 2.11 3 3 0 0 1-2.16.82 3 3 0 0 1-2.12-.81 2.83 2.83 0 0 1-.85-2.11V121l1-.33v5.5c0 1.54.69 2.3 2.05 2.29a2.1 2.1 0 0 0 1.62-.63 2.37 2.37 0 0 0 .58-1.68v-5.3h.75zm7.74 2.81h-.95l-4.64-6.79v6.79h-.67V121l.76-.27 4.84 7.08v-6.9h.66zm7.54-4.01a4.57 4.57 0 0 1-.9 2.82 2.89 2.89 0 0 1-2.4 1.29 4.13 4.13 0 0 1-2.62-1v-7.37h2.66a2.84 2.84 0 0 1 2.48 1.36 5.22 5.22 0 0 1 .78 2.9zm-1.09.11q0-3.72-2.82-3.72h-1V128a2.12 2.12 0 0 0 1.45.58 2.09 2.09 0 0 0 1.82-1.1 4.19 4.19 0 0 0 .55-2.22zm8.39 3.9h-1l-.89-2.58h-3.2l-1 2.58h-.72l3-8.15.93-.31zm-2.1-3.2l-1.32-3.96-1.42 4zm7.46-4.44h-2.44v7.64h-1v-7.64h-2.47l.3-.65h5.58zm2.02 7.64h-1v-8.11l1-.33zm8.32-4.27a5 5 0 0 1-.91 3 3.18 3.18 0 0 1-5.31 0 5 5 0 0 1-.91-3 4.56 4.56 0 0 1 .93-2.88 3.29 3.29 0 0 1 5.27 0 4.56 4.56 0 0 1 .93 2.88zm-1.1 0a4.4 4.4 0 0 0-.61-2.33 2.1 2.1 0 0 0-3.72 0 4.31 4.31 0 0 0-.62 2.33 4.8 4.8 0 0 0 .63 2.49 2.06 2.06 0 0 0 3.69 0 4.8 4.8 0 0 0 .63-2.49zm8.56 4.27h-.95l-4.64-6.79v6.79h-.67V121l.76-.27 4.84 7.08v-6.9h.66z" id="Group_7" data-name="Group 7"/></g><path d="M114.13 112c0 1 .39 1.81.88 1.81h73.88c.48 0 .88-.81.88-1.81s-.4-1.81-.88-1.81H115c-.48-.03-.87.81-.87 1.81z" fill="url(#Gradiente_sem_nome_4)"/></g></g></svg>