<svg data-name="Layer 1" xmlns="http://www.w3.org/2000/svg" viewBox="0 0 211.53 223"><path d="M9.41 55.74H5.64V16.07A34 34 0 0 1 9.94 15a34.65 34.65 0 0 1 6.61-.52 16.12 16.12 0 0 1 6 1.07 13 13 0 0 1 4.64 3.1 14.12 14.12 0 0 1 3 4.93 18.8 18.8 0 0 1 1.07 6.55 21 21 0 0 1-.9 6.29 14 14 0 0 1-2.64 4.93 12.14 12.14 0 0 1-4.26 3.22 13.69 13.69 0 0 1-5.77 1.16 14.23 14.23 0 0 1-5.13-.84 13.39 13.39 0 0 1-3.16-1.6zm0-16.12a12.62 12.62 0 0 0 1.31.87 12.19 12.19 0 0 0 1.83.87 14.67 14.67 0 0 0 2.26.67 12.16 12.16 0 0 0 2.55.26 10.25 10.25 0 0 0 4.67-1 8.18 8.18 0 0 0 3-2.61 11.07 11.07 0 0 0 1.68-3.89 20.68 20.68 0 0 0 .52-4.73q0-5.92-3-9.08a10.22 10.22 0 0 0-7.83-3.16 31 31 0 0 0-4.5.26 16.68 16.68 0 0 0-2.58.55zm38.22 6.03Q45.74 42.1 44 38.27t-3.32-7.74q-1.54-3.91-2.82-7.83T35.63 15h4q.64 2.78 1.62 6t2.23 6.64q1.25 3.42 2.75 7t3.29 7.07q1.29-3.58 2.29-6.77t1.85-6.35q.85-3.16 1.64-6.46T56.91 15h3.77q-1.89 8.42-4.25 16.37a137.56 137.56 0 0 1-5.14 14.54A32.92 32.92 0 0 1 49 50.43a13.08 13.08 0 0 1-2.59 3.1 9.21 9.21 0 0 1-3.32 1.8 15.31 15.31 0 0 1-4.46.58 9.44 9.44 0 0 1-2.63-.35 8.39 8.39 0 0 1-1.47-.56l.75-3.13a5.6 5.6 0 0 0 1.31.49 7.81 7.81 0 0 0 2.24.32 11.46 11.46 0 0 0 2.94-.35 6.31 6.31 0 0 0 2.35-1.19A8.73 8.73 0 0 0 46 49a19.41 19.41 0 0 0 1.63-3.35zM70.49 15h11.94v3.19H70.49v16a16.19 16.19 0 0 0 .43 4.15 5.78 5.78 0 0 0 1.25 2.46 3.94 3.94 0 0 0 2 1.16 10.47 10.47 0 0 0 2.55.29 11 11 0 0 0 3.83-.55 16.67 16.67 0 0 0 2.26-1l.93 3.13A13.62 13.62 0 0 1 80.87 45a14.06 14.06 0 0 1-4.41.67 13.08 13.08 0 0 1-4.67-.72 6.75 6.75 0 0 1-3-2.2A9 9 0 0 1 67.18 39a25.63 25.63 0 0 1-.46-5.22V6.21l3.77-.7zm18.9 30V.7l3.77-.7v15.89a23.92 23.92 0 0 1 3.77-1.07 19.79 19.79 0 0 1 3.83-.38 14.89 14.89 0 0 1 5.8 1 9 9 0 0 1 3.71 2.81 10.92 10.92 0 0 1 1.94 4.38 26.7 26.7 0 0 1 .55 5.63V45H109V29.46a28.42 28.42 0 0 0-.43-5.39 9 9 0 0 0-1.45-3.6 5.63 5.63 0 0 0-2.7-2 12.58 12.58 0 0 0-4.23-.61 13.93 13.93 0 0 0-2.12.17q-1.13.17-2.12.38t-1.77.43a7.86 7.86 0 0 0-1 .35V45zM148 30a19.38 19.38 0 0 1-1 6.44 14.35 14.35 0 0 1-2.84 4.93 13 13 0 0 1-4.32 3.16 14 14 0 0 1-11 0 13 13 0 0 1-4.32-3.16 14.34 14.34 0 0 1-2.84-4.93 19.38 19.38 0 0 1-1-6.44 19.39 19.39 0 0 1 1-6.44 14.68 14.68 0 0 1 2.84-5 12.76 12.76 0 0 1 4.32-3.19 14 14 0 0 1 11 0 12.77 12.77 0 0 1 4.32 3.19 14.69 14.69 0 0 1 2.84 5 19.39 19.39 0 0 1 1 6.44zm-4 0q0-5.62-2.61-9a9.17 9.17 0 0 0-14.15 0q-2.61 3.34-2.61 9t2.58 9a9.22 9.22 0 0 0 14.15 0q2.64-3.33 2.64-9zm12.15-13.93q1.68-.46 4.52-1a35.54 35.54 0 0 1 7-.58 14.49 14.49 0 0 1 5.71 1 8.78 8.78 0 0 1 3.62 2.75 11.48 11.48 0 0 1 1.94 4.38 25.46 25.46 0 0 1 .58 5.63V45h-3.77V29.46a28.42 28.42 0 0 0-.43-5.39 9 9 0 0 0-1.45-3.6 5.64 5.64 0 0 0-2.67-2 12.12 12.12 0 0 0-4.15-.61 31.71 31.71 0 0 0-4.61.29 14.18 14.18 0 0 0-2.52.52V45h-3.77zM5.45 67.86H21a9.93 9.93 0 0 1 5 1.28 9.75 9.75 0 0 1 3.61 3.5 9.33 9.33 0 0 1 1.34 4.92 9 9 0 0 1-1.46 5.05 10.36 10.36 0 0 1-3.95 3.51 9.17 9.17 0 0 1 3.7 2.16A11.61 11.61 0 0 1 31.83 92a10.46 10.46 0 0 1 1 4.38 9.72 9.72 0 0 1-1.3 4.88 10.25 10.25 0 0 1-3.53 3.67 9.65 9.65 0 0 1-4.81 1.5H5.45q-.73 0-.73-.76V68.59a.64.64 0 0 1 .73-.73zm.73 17.86H21a8.68 8.68 0 0 0 4.24-1.07 8.24 8.24 0 0 0 3.1-2.92 7.71 7.71 0 0 0 1.15-4.15 7.87 7.87 0 0 0-1.15-4.16 8.35 8.35 0 0 0-3.1-3A8.51 8.51 0 0 0 21 69.35H6.18zm0 19.22h17.05a7.11 7.11 0 0 0 4.53-1.43 8.89 8.89 0 0 0 2.7-3.42 9.13 9.13 0 0 0 .88-3.66A8.62 8.62 0 0 0 30 91.67a10 10 0 0 0-3.32-3.28 7.38 7.38 0 0 0-3.76-1.18H6.18zm48.54-13.11H40.77v13.84q0 .76-.7.76-.73 0-.73-.76V68.59a.64.64 0 0 1 .73-.73h14.65a11.62 11.62 0 0 1 6 1.62 12 12 0 0 1 4.37 4.39 11.77 11.77 0 0 1 1.61 6 11.54 11.54 0 0 1-1.93 6.51 12.06 12.06 0 0 1-5.09 4.38l6.05 14.62a1.68 1.68 0 0 1 .05.27.72.72 0 0 1-.23.53.69.69 0 0 1-.5.23H65a.83.83 0 0 1-.41-.12.88.88 0 0 1-.35-.42l-6.09-14.52a11.89 11.89 0 0 1-3.43.48zm-13.95-1.51h13.95A10.38 10.38 0 0 0 60 88.93a10.16 10.16 0 0 0 3.78-3.78 10.34 10.34 0 0 0 1.38-5.26 10.54 10.54 0 0 0-1.38-5.31A10.21 10.21 0 0 0 60 70.75a10.32 10.32 0 0 0-5.3-1.41H40.77zm47.16-22.43h.13a.66.66 0 0 1 .35.12 1 1 0 0 1 .32.45l15.49 36.89a.91.91 0 0 1 .08.35.67.67 0 0 1-.24.51.77.77 0 0 1-.51.22h-.08q-.38 0-.59-.51L98.5 95.46h-21l-4.38 10.43q-.22.54-.57.54h-.08a.83.83 0 0 1-.54-.18.61.61 0 0 1-.22-.5 1 1 0 0 1 .08-.41l15.49-36.88a.82.82 0 0 1 .65-.57zM97.88 94L88 70.35 78.09 94zm9.7 6.32a.7.7 0 0 1 .22-.51l.05-.05a.8.8 0 0 1 .41-.11 1.16 1.16 0 0 1 .81.51 13.65 13.65 0 0 0 5.07 4 17.58 17.58 0 0 0 7.26 1.34 20.33 20.33 0 0 0 6.53-1 9.69 9.69 0 0 0 4.59-3.12 8.54 8.54 0 0 0 1.72-5.5 5.78 5.78 0 0 0-2-4.61 12.21 12.21 0 0 0-4.47-2.47q-2.49-.76-6.32-1.51a33.64 33.64 0 0 1-7.31-2.05 10.53 10.53 0 0 1-4.28-3.12 7.33 7.33 0 0 1-1.43-4.58 9 9 0 0 1 1.66-5.46 10.19 10.19 0 0 1 4.73-3.45 20.26 20.26 0 0 1 7.26-1.18 18.58 18.58 0 0 1 6.42 1 15 15 0 0 1 5.2 3.41.81.81 0 0 1 .24.59.79.79 0 0 1-.16.49l-.05.05a.85.85 0 0 1-.46.13.81.81 0 0 1-.43-.13 3.83 3.83 0 0 1-.51-.41 20 20 0 0 0-2.95-2.14 10.5 10.5 0 0 0-3-1.12 20.91 20.91 0 0 0-4.26-.36 20.13 20.13 0 0 0-5.91.84 9.9 9.9 0 0 0-4.5 2.74 7.06 7.06 0 0 0-1.76 5 6 6 0 0 0 3.18 5.46 27.12 27.12 0 0 0 8.66 2.93 66.29 66.29 0 0 1 7.05 1.74 12.26 12.26 0 0 1 4.8 2.87 7.09 7.09 0 0 1 2.07 5.36 10 10 0 0 1-1.86 6.16 11 11 0 0 1-5.11 3.7 20.83 20.83 0 0 1-7.35 1.22 19.49 19.49 0 0 1-7.58-1.37 15.4 15.4 0 0 1-5.88-4.53 1.18 1.18 0 0 1-.35-.76zm35.81-32.21a.65.65 0 0 1 .54-.24q.7 0 .7.86v36.81q0 .89-.7.89a.64.64 0 0 1-.55-.24 1.08 1.08 0 0 1-.18-.65V68.73a1 1 0 0 1 .19-.62zm12.24-.25q.7 0 .7.86v36.19h22.24q.92 0 .92.7a.7.7 0 0 1-.26.58 1 1 0 0 1-.66.2h-23q-.73 0-.73-.76v-36.9q.06-.87.79-.87zM6.62 119.87h10.07a1.22 1.22 0 0 1 .83.3 1.06 1.06 0 0 1 .35.83 1 1 0 0 1-.35.73 1.17 1.17 0 0 1-.83.33H7.84v67.56h8.86a1.22 1.22 0 0 1 .83.3 1.06 1.06 0 0 1 .35.83 1 1 0 0 1-.35.73 1.17 1.17 0 0 1-.83.33h-10a1.08 1.08 0 0 1-1.06-1.1v-70a.92.92 0 0 1 .98-.84zm22.54 6.87a1 1 0 0 1 .29.77V183q0 1.26-1.14 1.26a.94.94 0 0 1-.77-.35 1.39 1.39 0 0 1-.28-.91v-53.66l-6.13 2.6a1.46 1.46 0 0 1-.73.16 1 1 0 0 1-1-.73v-.12l-.08-.37a.76.76 0 0 1 .28-.63 2.81 2.81 0 0 1 .69-.39l6.91-3 .45-.2a1.8 1.8 0 0 1 .73-.16h.16a1 1 0 0 1 .62.24zm11.05 46.11a.94.94 0 0 1-.28-.69 2 2 0 0 1 .37-1.14l29.82-43.67.28-.41a1.93 1.93 0 0 1 .43-.45 1 1 0 0 1 .59-.16h.2a.67.67 0 0 1 .63.3 1.37 1.37 0 0 1 .18.71v43.51h4.87q1.26 0 1.26 1v.15q0 1.18-1.26 1.18h-4.87v9.79a1.48 1.48 0 0 1-.3 1 1 1 0 0 1-.79.37h-.08a.87.87 0 0 1-.79-.35 1.83 1.83 0 0 1-.22-1v-9.79H41a1.1 1.1 0 0 1-.79-.35zm30-41.6L43.1 170.86h27.14zm24.85 60.35a1 1 0 0 1-.73.3h-10a1.17 1.17 0 0 1-.83-.33 1 1 0 0 1-.34-.73 1.05 1.05 0 0 1 .34-.83 1.22 1.22 0 0 1 .83-.3h8.86v-67.6h-8.86a1.17 1.17 0 0 1-.83-.33 1 1 0 0 1-.34-.73 1.05 1.05 0 0 1 .34-.83 1.22 1.22 0 0 1 .83-.3h10.08a.92.92 0 0 1 1 .93v70a1 1 0 0 1-.35.75z" fill="#0f2e45"/><path d="M135.87 196.44a95.36 95.36 0 0 1-9.82-.07c-4-.42-6.6-3-8.3-6.52-2.13-4.39-2.84-9.14-3.24-13.92a41.47 41.47 0 0 1 1.62-14.23c1.92-7.15 7.14-11.12 14.67-11.15h30.37v-2.71h-22.76c.3-4.76.33-9.36 1-13.86.4-2.76 2.77-4.48 5.4-5.21a60.93 60.93 0 0 1 10-2 58.33 58.33 0 0 1 18.79.83c6.8 1.54 10.42 6.18 10.42 13.08 0 6.36-.1 12.73 0 19.09.15 7.17-5.18 12.79-12.52 12.5-6.79-.27-13.6-.07-20.4-.06-9.14 0-15.24 6.12-15.27 15.24.03 2.93.04 5.92.04 8.99zm12.7-63a4.22 4.22 0 1 0 .11 8.44 4.22 4.22 0 0 0-.11-8.44z" fill="#7fc6ce"/><path d="M186.92 151.14a95.36 95.36 0 0 1 9.82.07c4 .42 6.6 3 8.3 6.52 2.13 4.39 2.84 9.14 3.24 13.92a41.47 41.47 0 0 1-1.62 14.23C204.74 193 199.53 197 192 197h-30.37v2.71h22.76c-.3 4.76-.33 9.36-1 13.86-.4 2.76-2.77 4.48-5.4 5.21a60.93 60.93 0 0 1-10 2 58.33 58.33 0 0 1-18.79-.83c-6.8-1.54-10.42-6.18-10.42-13.08 0-6.36.1-12.73 0-19.09-.15-7.17 5.18-12.79 12.52-12.5 6.79.27 13.6.07 20.4.06 9.14 0 15.24-6.12 15.27-15.24-.04-2.9-.05-5.88-.05-8.96zm-12.7 63a4.22 4.22 0 1 0-.11-8.44 4.22 4.22 0 0 0 .11 8.44z" fill="#f0c780"/></svg>