<svg id="Camada_1" xmlns="http://www.w3.org/2000/svg" viewBox="0 0 200 200"><style>.st3{fill:#333}</style><g id="Logo"><g id="Group"><path d="M42.3 128.1c0 2.5-7.5 4.4-16.8 4.4s-16.8-2-16.8-4.4c0-2.4 7.5-4.4 16.8-4.4s16.8 1.9 16.8 4.4z" fill="#7f7f7f"/><g id="Group_1"><g id="Group_2"><linearGradient id="SVGID_1_" gradientUnits="userSpaceOnUse" x1="-384.523" y1="511.057" x2="-346.479" y2="511.057" gradientTransform="scale(1 -1) rotate(-40.982 -968.888 -291.704)"><stop offset="0" stop-color="#5a9fd4"/><stop offset="1" stop-color="#306998"/></linearGradient><path d="M25.7 67.4c-2 0-4 .2-6 .5-5.3.9-6.3 2.9-6.3 6.5v4.8H26v1.6H8.7c-3.8-.1-7.1 2.6-7.8 6.4-1.2 4.2-1.2 8.6 0 12.8.9 3.7 3 6.4 6.7 6.4h4.3v-5.7c.1-4.3 3.6-7.7 7.8-7.8h12.5c3.5 0 6.3-2.9 6.3-6.4v-12c0-3.4-2.9-6-6.3-6.5-2.2-.4-4.4-.6-6.5-.6zm-6.8 3.9c1.3 0 2.4 1 2.4 2.4 0 1.3-1 2.4-2.4 2.4-1.3 0-2.4-1-2.4-2.4 0-1.3 1-2.4 2.4-2.4z" fill="url(#SVGID_1_)"/><linearGradient id="SVGID_2_" gradientUnits="userSpaceOnUse" x1="740.444" y1="244.383" x2="758.326" y2="244.383" gradientTransform="scale(-1 1) rotate(-55.2 222.812 924.152)"><stop offset="0" stop-color="#ffd43b"/><stop offset="1" stop-color="#ffe873"/></linearGradient><path d="M40.1 80.9v5.6c0 4.4-3.5 7.9-7.9 8H19.7c-3.5.1-6.3 2.9-6.3 6.4v11.9c0 3.4 3 5.4 6.3 6.4 4.1 1.3 8.5 1.3 12.5 0 3.2-.9 6.3-2.8 6.3-6.4V108H26v-1.6h18.8c3.6 0 5-2.5 6.3-6.4 1.3-3.8 1.2-7.8 0-12.8-.9-3.6-2.6-6.4-6.3-6.4h-4.7zM33 111.1c1.3 0 2.4 1 2.4 2.4 0 1.3-1 2.4-2.4 2.4-1.3 0-2.4-1-2.4-2.4.1-1.3 1.1-2.4 2.4-2.4z" fill="url(#SVGID_2_)"/></g></g><g id="Group_3"><path class="st3" d="M83.9 94.3c.1 3-.7 5.9-2.4 8.3-1.6 2.4-4.4 3.9-7.3 3.8-2.6 0-5.1-.8-7.3-2.2v14.3l-4-1.4V85.5c.7-.9 1.6-1.6 2.5-2.1 2.7-1.5 5.7-2.2 8.7-2.2 2.9-.1 5.7 1.3 7.2 3.9 1.8 2.7 2.7 5.9 2.6 9.2zm-4.7-.3c0-6.6-1.9-9.9-5.6-10.1-1.5-.1-3 .2-4.4.7-.8.2-1.6.7-2.3 1.2v15.7c1.9 1.3 4.1 2.1 6.4 2.1 4-.2 5.9-3.4 5.9-9.6zm29.3 9.7c0 4.4-.4 7.5-1.3 9.3-1.2 1.9-3 3.4-5.2 4.1-2.1.8-4.4 1.3-6.7 1.3l-.7-2.5c1.7-.2 3.4-.5 5.1-1 1.7-.5 3.1-1.5 4-3 .6-1.1.9-3.2.9-6.3v-1c-2.7 1.2-5.7 1.9-8.6 1.9-1.9 0-3.8-.6-5.2-1.9-1.6-1.2-2.6-3.1-2.5-5.2V82.6l4.1-1.4V98c-.1 1.6.5 3.1 1.7 4.2 1.3 1 2.8 1.5 4.4 1.4 2.1-.1 4.2-.9 5.9-2.2V81.8h4l.1 21.9zm15.7 2.6h-1.3c-1.9.1-3.8-.5-5.3-1.6-1.3-1.1-2-2.8-1.9-4.4V84.4h-2.8v-2.6h2.8v-6.7l4-1.4v8.1h4.5v2.6h-4.5v15.7c-.1 1.2.3 2.4 1.2 3.2 1 .6 2.2.9 3.3.9v2.1zm25.1-.4h-4.1V90.4c0-1.4-.3-2.9-1.1-4.1-.8-1.2-2.1-1.9-3.5-1.9-1.8 0-4.1 1-6.9 2.9V106h-4V68.8l4-1.3v16.9c2.4-1.8 5.4-2.8 8.4-2.8 2-.1 3.8.7 5.2 2.1 1.3 1.5 2 3.4 2 5.3v16.9zm26.5-12.5c.1 3.2-.8 6.4-2.8 9-1.9 2.6-5.1 4.2-8.4 4-3.3.1-6.4-1.4-8.3-4-1.9-2.6-2.8-5.8-2.7-9-.1-3.1.9-6.1 2.9-8.5 2-2.4 5-3.8 8.1-3.7 3.1-.1 6.1 1.3 8.1 3.7 2.1 2.4 3.2 5.4 3.1 8.5zm-4.5 0c.1-2.2-.4-4.3-1.4-6.3-1-2-3.1-3.2-5.3-3.2-4.4.3-6.6 3.4-6.6 9.5-.1 2.4.4 4.8 1.4 7 .9 2.2 3 3.6 5.3 3.5 4.4 0 6.7-3.5 6.6-10.5zm28.3 12.5h-4V89.5c.1-1.6-.5-3.1-1.6-4.2-1.2-1.1-2.7-1.6-4.3-1.5-2 .1-3.9.7-5.5 1.9v20.2h-4V85.2c3.2-2.5 7.1-4 11.2-4 .9 0 1.8.1 2.7.3 1.5.3 2.8 1 3.9 2s1.7 2.5 1.7 4v18.4z" id="Group_4"/></g><g id="Group_5"><path class="st3" d="M68.3 129.8c0 .9-.5 1.8-1.3 2.2-.6.4-1.3.6-2.1.6-.5 0-1.1-.1-1.6-.4-.5-.2-.9-.4-1.3-.8l.5-.7c.7.6 1.5.9 2.4 1 .5 0 1-.1 1.4-.4.4-.3.7-.8.7-1.3 0-.4-.1-.8-.4-1-.4-.3-.8-.5-1.2-.6l-.9-.3c-.6-.2-1.2-.5-1.7-.9-.4-.4-.6-.9-.5-1.5 0-.7.3-1.4.8-1.9.6-.5 1.4-.8 2.1-.7.8 0 1.7.3 2.3.8l-.5.7c-.5-.4-1.2-.6-1.8-.7-.5 0-1 .1-1.3.4-.3.3-.5.7-.5 1.1 0 .6.5 1.1 1.6 1.4l1 .3c.6.2 1.2.5 1.6 1 .5.5.7 1.1.7 1.7zm8.8-2.1c0 1.2-.3 2.4-1 3.3-1.1 1.6-3.3 2.1-4.9 1-.4-.3-.7-.6-1-1-.7-1-1-2.1-1-3.3 0-1.2.3-2.3 1-3.2 1.2-1.6 3.5-1.9 5.2-.7.3.2.5.4.7.7.7.9 1 2 1 3.2zm-1.2 0c0-.9-.2-1.8-.7-2.6-.6-1.1-2-1.6-3.1-1-.4.2-.8.6-1 1-.5.8-.7 1.7-.7 2.6 0 1 .2 1.9.7 2.8.5 1.1 1.8 1.7 2.9 1.2.5-.2 1-.7 1.2-1.2.4-.9.7-1.9.7-2.8zm7.6-4.5l-.4.7h-3.7v3.1h3.1l-.3.7h-2.7v4.6h-1.1v-9.2l5.1.1zm6.9.7h-2.7v8.5h-1.1v-8.5h-2.7l.3-.7h6.2v.7zm11.5-.8l-2.4 9.1-.8.3-2.2-8-2 7.7-.8.3-2.6-9.2 1-.4 2.1 7.5 2-7.1 1.1-.4 2.1 7.5 2.1-7.5.4.2zm7.5 9.3h-1.1l-1-2.9h-3.6l-1 2.9h-.8l3.3-9.1 1-.3 3.2 9.4zm-2.3-3.5l-1.5-4.4-1.6 4.4h3.1zm8.9 3.5h-1.3l-2.4-4.3h-.8v4.3h-1.1v-9.2h2.9c.7 0 1.4.2 1.9.7 1 .9 1 2.5 0 3.5-.5.5-1.1.7-1.8.7l2.6 4.3zm-1.1-6.8c0-.4-.2-.9-.5-1.2-.3-.3-.7-.5-1.2-.5h-1.7v3.4h1.7c.5 0 .9-.2 1.2-.5.4-.3.5-.7.5-1.2zm7.6-2.4l-.4.7h-3.7v3.2h3.1l-.4.7h-2.7v3.9h4v.7h-5v-9.2h5.1z" id="Group_6"/><path class="st3" d="M133.1 123.2l-.4.7H129v3.1h3.1l-.4.7H129v4.6h-1v-9.2l5.1.1zm8.2 4.5c0 1.2-.3 2.4-1 3.3-1.1 1.6-3.3 2.1-4.9 1-.4-.3-.7-.6-1-1-.7-1-1-2.1-1-3.3 0-1.2.4-2.3 1.1-3.2 1.2-1.6 3.5-1.9 5.1-.7.3.2.5.5.7.7.7.9 1 2 1 3.2zm-1.2 0c0-.9-.2-1.8-.7-2.6-.6-1.1-2-1.6-3.1-1-.4.2-.8.6-1 1-.5.8-.7 1.7-.7 2.6 0 1 .2 1.9.7 2.8.5 1.1 1.8 1.7 2.9 1.2.5-.2.9-.6 1.2-1.2.4-.9.6-1.9.7-2.8zm9.1 1.6c0 .9-.3 1.7-1 2.3-.6.6-1.5.9-2.4.9-.9 0-1.7-.3-2.4-.9-.6-.6-1-1.5-.9-2.3v-6l1.1-.4v6.1c0 1.7.8 2.6 2.3 2.5.7 0 1.3-.2 1.8-.7.4-.5.7-1.2.6-1.9V123h.8l.1 6.3zm8.6 3.1h-1.1l-5.2-7.5v7.5h-.7v-9.1l.8-.3 5.4 7.9v-7.7h.7v9.2zm8.4-4.4c0 1.1-.3 2.2-1 3.1-.6.9-1.6 1.4-2.7 1.4s-2.1-.4-2.9-1.1v-8.2h3c1.1 0 2.2.6 2.8 1.5.5 1 .8 2.1.8 3.3zm-1.2.1c0-2.8-1-4.1-3.1-4.1h-1.1v7.2c.4.4 1 .6 1.6.6.8 0 1.6-.5 2-1.2.4-.8.6-1.7.6-2.5zm9.3 4.3h-1.1l-1-2.9h-3.6l-1.1 2.9h-.8l3.3-9.1 1-.3 3.3 9.4zm-2.3-3.5l-1.5-4.4-1.6 4.4h3.1zm8.2-5h-2.7v8.5h-1.1v-8.5h-2.7l.3-.7h6.2v.7zm2.3 8.5h-1.1v-9l1.1-.4v9.4zm9.2-4.7c0 1.2-.3 2.4-1 3.3-1.1 1.6-3.3 2.1-4.9 1-.4-.3-.7-.6-1-1-.7-1-1-2.1-1-3.3 0-1.2.3-2.3 1-3.2 1.2-1.6 3.5-1.9 5.1-.7.3.2.5.5.7.7.8.9 1.2 2 1.1 3.2zm-1.2 0c0-.9-.2-1.8-.7-2.6-.6-1.1-2-1.6-3.2-1-.4.2-.8.6-1 1-.5.8-.7 1.7-.7 2.6 0 1 .2 1.9.7 2.8.6 1.1 1.9 1.6 3.1 1 .4-.2.8-.6 1-1 .6-.9.8-1.9.8-2.8zm9.5 4.7h-1l-5.2-7.5v7.5h-.7v-9.1l.8-.3 5.4 7.9v-7.7h.7v9.2z" id="Group_7"/></g><linearGradient id="SVGID_3_" gradientUnits="userSpaceOnUse" x1="-3705.154" y1="1292.968" x2="-3663.131" y2="1292.968" gradientTransform="matrix(1 0 0 -1 3862.89 1406.306)"><stop offset="0" stop-color="#4c8cbf"/><stop offset="1" stop-color="#306898"/></linearGradient><path d="M115.7 113.3c0 1.1.4 2 1 2h82.1c.5 0 1-.9 1-2s-.4-2-1-2h-82.1c-.6 0-1 .9-1 2z" fill="url(#SVGID_3_)"/></g></g></svg>