<svg data-name="Camada 1" xmlns="http://www.w3.org/2000/svg" viewBox="0 0 200 200"><path d="M28.3 88.7c-2 0-2.58.89-2.58 2.85v3.25h5.34l-.54 5.2h-4.8v16h-6.41v-16H15v-5.2h4.31v-3.16c0-5.3 2.14-8.1 8.1-8.1a31 31 0 0 1 3.74.22v4.94zm3.2 16.02c0-5.92 2.8-10.37 8.68-10.37A6.29 6.29 0 0 1 46.27 98v-3.2h6.14V116h-6.14v-3.2a6.22 6.22 0 0 1-6.09 3.64c-5.88 0-8.68-4.44-8.68-10.36zm6.41 1.42c0 3.16 1.15 5.25 4.13 5.25 2.63 0 4-1.92 4-4.94v-2.14c0-3-1.33-4.93-4-4.93-3 0-4.13 2.09-4.13 5.25zm27.84-11.79a11.7 11.7 0 0 1 6.14 1.42l-1.42 4.54a10.07 10.07 0 0 0-4.27-1c-3.47 0-5 2-5 5.43V106c0 3.42 1.52 5.42 5 5.42a10.07 10.07 0 0 0 4.27-1l1.42 4.58a11.7 11.7 0 0 1-6.14 1.42c-7.52 0-10.94-4-10.94-10.54v-1c0-6.48 3.42-10.53 10.94-10.53zm6.98 11.83v-1.87c0-6 3.43-10 10.41-10 6.59 0 9.48 4 9.48 9.88v3.38H79.14c.13 2.89 1.42 4.18 5 4.18a18.24 18.24 0 0 0 6.81-1.29l1.15 4.4a20.65 20.65 0 0 1-8.23 1.56c-8.11.04-11.14-4.01-11.14-10.24zm6.41-2.75h7.74v-.54c0-2.31-.93-4.14-3.74-4.14s-4 1.83-4 4.68zm37.23 2.62c0 5.92-2.85 10.36-8.72 10.36-3.2 0-5.43-1.6-6.32-3.64V116h-6V84.16l6.41-.57v14.14a6.38 6.38 0 0 1 6-3.38c5.87 0 8.72 4.45 8.72 10.37zm-6.37-1.47c0-3-1.15-5.2-4.22-5.2-2.63 0-4 1.87-4 4.89v2.22c0 3 1.42 4.9 4 4.9 3.07 0 4.22-2.23 4.22-5.21zm8.5 1.34v-1.07c0-6.1 3.47-10.5 10.55-10.5s10.54 4.4 10.54 10.5v1.07c0 6.09-3.47 10.49-10.54 10.49S118.5 112 118.5 105.92zm14.68-1.52c0-2.8-1.15-5-4.13-5s-4.14 2.22-4.14 5v2c0 2.8 1.15 5 4.14 5s4.13-2.23 4.13-5zm8.54 1.52v-1.07c0-6.1 3.47-10.5 10.54-10.5s10.55 4.4 10.55 10.5v1.07c0 6.09-3.47 10.49-10.55 10.49s-10.54-4.41-10.54-10.49zm14.68-1.52c0-2.8-1.16-5-4.14-5s-4.13 2.22-4.13 5v2c0 2.8 1.15 5 4.13 5s4.14-2.23 4.14-5zm15.21.49l6.32-10.09h6.8l-6.62 10.45L185 116h-6.81l-6.58-10.37V116h-6.4V84.16l6.4-.57z" fill="#4666a9"/></svg>