<svg id="Camada_1" data-name="Camada 1" xmlns="http://www.w3.org/2000/svg" viewBox="0 0 200 200"><defs><style>.cls-1{fill:#0181ff;stroke:#0181ff;stroke-miterlimit:10;stroke-width:.09px}</style></defs><path class="cls-1" d="M65.25 58.32a4.29 4.29 0 0 1 4.8 1.83 7.4 7.4 0 0 1 .95 4.19v36.64a10 10 0 0 1-.56 3.65 4.46 4.46 0 0 1-6.61 1.74c-1.64-1-2-3.24-1.94-5V62.98a4.48 4.48 0 0 1 3.36-4.62zM33.66 75.73c3.85-3.45 10-4.45 14.53-1.72a13.55 13.55 0 0 1 2.62 2.51 8.38 8.38 0 0 1 1.62-2.77 4.7 4.7 0 0 1 6.11.38C59.81 75.4 60 77.29 60 79v24.42a19 19 0 0 1-2.06 9.48 14.34 14.34 0 0 1-5.22 5.27c-4.08 2.37-9 2.69-13.66 2.15a25 25 0 0 1-8.39-2.76 4.82 4.82 0 0 1-2.53-3.7 4.62 4.62 0 0 1 2.32-3.68c1.67-.87 3.45 0 5.08.61 2.89 1.2 6.07 2.18 9.24 1.69a6.86 6.86 0 0 0 5.57-4.19 14.58 14.58 0 0 0 .57-5.06 12 12 0 0 1-4 3.32c-4.71 2-10.7 1.18-14.35-2.55A16.33 16.33 0 0 1 28 95.21a21.74 21.74 0 0 1 .05-9.86 17.53 17.53 0 0 1 5.57-9.62zm9.61 5.12a6 6 0 0 0-4.43 2.33 11.87 11.87 0 0 0-.16 13.6 6.44 6.44 0 0 0 8 1.78 7.63 7.63 0 0 0 3.54-4.68 12.53 12.53 0 0 0 0-7.45c-.61-1.67-1.35-3.44-2.9-4.45a6 6 0 0 0-4.1-1.13zm45.02-8.4a15.34 15.34 0 0 1 10.34 3.63c4.91 4 7.07 10.82 6.13 17-.82 4.87-3.46 9.7-7.84 12.2a16.13 16.13 0 0 1-15.51.56 15.36 15.36 0 0 1-6.12-5.57A19.48 19.48 0 0 1 72.37 89a18.1 18.1 0 0 1 8.36-14.31 15.27 15.27 0 0 1 7.56-2.2zm0 8.4a5.91 5.91 0 0 0-4.38 2 11.9 11.9 0 0 0-1.35 12.25 6.68 6.68 0 0 0 6 4.14 6.47 6.47 0 0 0 6.1-4 12.12 12.12 0 0 0 .56-9.09A8 8 0 0 0 92.39 82a6 6 0 0 0-4.1-1.13zm19.12-21.03a4.51 4.51 0 0 1 7 0c1 1.17 1 2.86 1.08 4.35v11.35c4.45-3.64 11.29-4.22 16.05-.89 3.33 2.1 5.34 5.75 6.42 9.44a22.72 22.72 0 0 1 .65 9.13A18.77 18.77 0 0 1 134 103a13.84 13.84 0 0 1-8.64 4.46 10.26 10.26 0 0 1-9.91-4 7.86 7.86 0 0 1-1.78 2.93c-2.09 1.38-5.44.92-6.65-1.41a7.54 7.54 0 0 1-.71-3.84V63.62a6 6 0 0 1 1.06-3.82zm14.9 21a6.15 6.15 0 0 0-4.55 2.08 10.46 10.46 0 0 0-2.27 6.93c.07 2.89.82 6 3.12 8a6.22 6.22 0 0 0 8.64-.7 11.51 11.51 0 0 0-.37-14.53 6 6 0 0 0-4.57-1.75zm33.5-8.37a15.37 15.37 0 0 1 10.35 3.63 18.67 18.67 0 0 1 6.12 17c-.82 4.87-3.45 9.7-7.83 12.2a16.13 16.13 0 0 1-15.51.56 15.32 15.32 0 0 1-6.13-5.57A19.55 19.55 0 0 1 139.9 89a18.1 18.1 0 0 1 8.36-14.31 15.26 15.26 0 0 1 7.55-2.2zm0 8.4a5.92 5.92 0 0 0-4.38 2 11.9 11.9 0 0 0-1.34 12.21 6.66 6.66 0 0 0 6 4.14 6.48 6.48 0 0 0 6.11-4 12.17 12.17 0 0 0 .56-9.09 8.11 8.11 0 0 0-2.85-4.11 6 6 0 0 0-4.1-1.13zm-85.32 30.34a16.58 16.58 0 0 1 8 1.22 6.46 6.46 0 0 1 2.72 2.18c1 1.92 0 4.78-2.22 5.31-1.73.29-3.21-.86-4.83-1.21a6.4 6.4 0 0 0-6.16 1.36c-2.53 2.6-2.88 6.7-1.78 10 .92 2.25 3 4.39 5.58 4.38 2 .22 3.72-.84 5.55-1.4a3.31 3.31 0 0 1 4.19 3.33c.12 1.66-1.22 3-2.6 3.67a15.06 15.06 0 0 1-12 .89 14.5 14.5 0 0 1-8.94-10.8 16.5 16.5 0 0 1 2.27-12.56 13.78 13.78 0 0 1 10.19-6.37zm52.12.47a10.05 10.05 0 0 1 9 1.24 16 16 0 0 1 2.41 2.18 13.12 13.12 0 0 1 7.15-3.87 11.59 11.59 0 0 1 9.16 2.68 10.56 10.56 0 0 1 2.93 7.86c.06 4.93 0 9.89 0 14.83 0 1.46-.26 3.17-1.54 4.06a4 4 0 0 1-5.48-.56c-1-1.37-1-3.12-1-4.72-.09-4.37.05-8.73 0-13.09a4.85 4.85 0 0 0-2.54-4.08 4.66 4.66 0 0 0-4.92.62 5.57 5.57 0 0 0-1.77 4.51c-.1 4.64.09 9.3 0 14a3.93 3.93 0 0 1-3.8 4.18 3.49 3.49 0 0 1-3.09-1.27 6.57 6.57 0 0 1-1-4c-.15-4.66 0-9.32-.05-14a5.49 5.49 0 0 0-1.69-3.54 4.79 4.79 0 0 0-6.55.71 7.14 7.14 0 0 0-1 4.23v13.08a4.88 4.88 0 0 1-.92 3.26 3.94 3.94 0 0 1-5.85.37c-1.17-1.26-1.2-3.07-1.25-4.68v-17.44c.07-1.5-.14-3.14.56-4.54a3.86 3.86 0 0 1 6.23-1.19 4.75 4.75 0 0 1 1 1.85 10.71 10.71 0 0 1 4.15-2.72z"/><path class="cls-1" d="M93.87 111.19a13.32 13.32 0 0 1 11.24 4.14c5.91 5.89 5.93 16.55.07 22.5a14.2 14.2 0 0 1-17.85 1.56c-4.78-3.41-7-9.67-6.09-15.38a15.55 15.55 0 0 1 7.83-11.35 13.27 13.27 0 0 1 4.8-1.47zm.52 7.33c-3.31.43-5.18 4-5.3 7.06s.77 6.86 3.79 8.43a5.73 5.73 0 0 0 7.24-2.11 10.54 10.54 0 0 0 0-10.85 5.44 5.44 0 0 0-5.69-2.53zm-41.87 14.83a4.27 4.27 0 1 1 1 8.44 4.23 4.23 0 0 1-4.29-3.54 4.3 4.3 0 0 1 3.32-4.9z"/></svg>