<svg id="Camada_1" xmlns="http://www.w3.org/2000/svg" viewBox="0 0 200 200"><style>.st1{fill:#333358}</style><path d="M24.8 92.9c1.3 1.5 1.9 3.4 1.8 5.3v9.5h-2.7v-9.3c.1-1.3-.3-2.7-1.2-3.7-.8-.9-2-1.4-3.2-1.3-1.3 0-2.5.5-3.4 1.4-1 1.2-1.4 2.6-1.4 4.2v8.7H12v-9.3c.1-1.3-.3-2.7-1.2-3.7-.8-.9-2-1.4-3.2-1.3-1.3-.1-2.6.5-3.5 1.4-1 1.2-1.5 2.7-1.4 4.2v8.7H0V91.3h2.7V95c.3-1.2 1.1-2.3 2.1-3 1-.7 2.3-1.1 3.5-1 1.3 0 2.5.4 3.6 1.1 1.1.8 1.8 1.9 2.2 3.1.4-1.3 1.2-2.3 2.3-3.1 1.1-.7 2.4-1.1 3.7-1.1 1.8-.1 3.5.6 4.7 1.9zm15.2-.6c1.1.8 1.9 1.9 2.3 3.2v-4.2H45v16.4h-2.7v-4.2c-.4 1.3-1.2 2.4-2.3 3.2-1.2.8-2.6 1.2-4 1.2s-2.7-.3-3.9-1c-1.2-.7-2.1-1.7-2.7-2.9-.7-1.4-1-2.9-1-4.5s.3-3.1 1-4.5c.6-1.2 1.5-2.2 2.7-2.9 1.2-.7 2.5-1 3.9-1s2.8.4 4 1.2zm-7.3 2.8c-2 2.6-2 6.2 0 8.8 1 1.1 2.5 1.7 4 1.6 1 0 2-.2 2.9-.8.9-.5 1.5-1.2 2-2.1.5-1 .7-2.1.7-3.2s-.2-2.2-.7-3.2c-.4-.9-1.1-1.6-2-2.1-.9-.5-1.9-.8-2.9-.7-1.5.1-2.9.7-4 1.7zm28.5-2.2c1.3 1.5 1.9 3.4 1.8 5.3v9.5h-2.8v-9.3c.1-1.4-.3-2.7-1.2-3.8-.9-.9-2.1-1.4-3.4-1.3-1.4-.1-2.7.5-3.6 1.4-1 1.2-1.5 2.7-1.4 4.2v8.7h-2.7V91.3h2.7v3.9c.4-1.3 1.1-2.3 2.2-3.1 1.1-.7 2.4-1.1 3.7-1.1 1.8-.1 3.5.6 4.7 1.9zm15.2-.6c1.1.8 1.9 1.9 2.3 3.2v-4.2h2.7V108c0 1.4-.3 2.8-.9 4-.6 1.1-1.6 2.1-2.7 2.8-1.2.7-2.6 1-4 1-1.9.1-3.8-.5-5.4-1.6-1.4-1.1-2.3-2.6-2.7-4.3h2.7c.3 1 .9 2 1.8 2.6 1 .7 2.2 1 3.4.9 1.4.1 2.7-.4 3.7-1.4 1-1.1 1.6-2.5 1.4-4v-4.4c-.4 1.3-1.2 2.4-2.3 3.2-1.2.8-2.6 1.2-4.1 1.2-1.4 0-2.7-.3-3.9-1-1.2-.7-2.1-1.7-2.7-2.9-.7-1.4-1-2.9-1-4.5s.3-3.1 1-4.5c.6-1.2 1.5-2.2 2.7-2.9 1.2-.7 2.5-1 3.9-1 1.5-.1 2.9.3 4.1 1.1zm-7.3 2.8c-2 2.6-2 6.2 0 8.8 1 1.1 2.5 1.7 4 1.6 1 0 2-.2 2.9-.8.9-.5 1.5-1.2 2-2.1.5-1 .7-2.1.7-3.2s-.2-2.2-.7-3.2c-.4-.9-1.1-1.6-2-2.1-.9-.5-1.9-.8-2.9-.7-1.5.1-2.9.6-4 1.7zm26-2.8c1.1.8 1.9 1.9 2.3 3.2v-4.2h2.7v16.4h-2.7v-4.2c-.4 1.3-1.2 2.4-2.3 3.2-1.2.8-2.6 1.2-4 1.2s-2.7-.3-3.9-1c-1.2-.7-2.1-1.7-2.7-2.9-.7-1.4-1-2.9-1-4.5s.3-3.1 1-4.5c.6-1.2 1.5-2.2 2.7-2.9 1.2-.7 2.5-1 3.9-1s2.8.4 4 1.2zm-7.3 2.8c-2 2.6-2 6.2 0 8.8 1 1.1 2.5 1.7 4 1.6 1 0 2-.2 2.9-.8.9-.5 1.5-1.2 2-2.1.5-1 .7-2.1.7-3.2s-.2-2.2-.7-3.2c-.4-.9-1.1-1.6-2-2.1-.9-.5-1.9-.8-2.9-.7-1.5.1-3 .6-4 1.7zm15.2-9.8c.8-.6 1.9-.6 2.7 0 .7.7.7 1.7 0 2.4-.8.6-1.9.6-2.7 0-.7-.6-.7-1.7 0-2.4zm2.7 6v16.4H103V91.3h2.7z" fill="#72c6d4"/><path class="st1" d="M132.6 96.4c-1.2 0-2.3.4-3.1 1.3-1.6 2.1-1.6 5 0 7.1 1.7 1.7 4.5 1.7 6.3 0 1.6-2.1 1.6-4.9 0-7-.8-1-2-1.5-3.2-1.4z"/><path class="st1" d="M151.4 84.8v10.1c.5-1.2 1.3-2.1 2.4-2.8 1.2-.7 2.5-1 3.9-1 1.5 0 3.1.4 4.4 1.2 1.3.9 2.3 2.1 3 3.5 1.5 3.4 1.5 7.3 0 10.8-.6 1.4-1.7 2.7-3 3.5-1.3.8-2.8 1.2-4.4 1.2-1.4 0-2.7-.3-3.9-1-1.1-.7-1.9-1.6-2.4-2.8v3.5h-6V84.8h-24.7V111h-6.1V84.8h-5.4v31H190l10.1-31h-48.7zM143 111h-6v-3.6c-.5 1.2-1.3 2.1-2.4 2.8-1.2.7-2.5 1-3.9 1-1.5 0-3.1-.4-4.4-1.2-1.3-.9-2.4-2.1-3-3.5-1.5-3.4-1.5-7.3 0-10.8.7-1.4 1.7-2.6 3-3.5 1.3-.8 2.8-1.2 4.4-1.2 1.4 0 2.7.3 3.9 1 1.1.7 1.9 1.6 2.4 2.8v-3.5h6V111zm40-2.5c-.7.9-1.6 1.6-2.6 2.1-3.5 1.3-7.3.9-10.5-1-1.6-1.2-2.7-3-2.9-5.1h5.8c0 .8.4 1.5 1.1 2 .7.5 1.6.7 2.4.7.6 0 1.1-.1 1.6-.5.4-.3.6-.8.5-1.2 0-.7-.4-1.2-1-1.5-1-.4-2.1-.7-3.2-.9-1.2-.2-2.4-.6-3.6-1-.9-.4-1.8-.9-2.4-1.7-.7-.9-1.1-2.1-1-3.2 0-1.7.7-3.3 2-4.3 1.6-1.2 3.7-1.8 5.7-1.7 2.2-.1 4.3.6 6 1.9 1.5 1.3 2.5 3 2.8 4.9H178c-.1-.8-.5-1.4-1.1-1.9-.6-.5-1.4-.7-2.2-.7-.6 0-1.1.1-1.6.4-.4.3-.6.8-.5 1.2 0 .6.4 1.2 1 1.4 1 .4 2 .7 3.1.9 1.3.3 2.5.6 3.7 1.1 1 .4 1.8 1 2.5 1.8.7.9 1.1 2.1 1.1 3.3-.1 1.1-.4 2.1-1 3z"/><path class="st1" d="M155.8 106c1.2 0 2.3-.4 3.1-1.3 1.6-2.1 1.6-5 0-7.1-.8-.9-2-1.3-3.1-1.3-1.2 0-2.3.4-3.1 1.3-1.6 2.1-1.6 4.9 0 7 .7.9 1.9 1.4 3.1 1.4z"/></svg>