<svg xmlns="http://www.w3.org/2000/svg" viewBox="0 0 406.09 269.894"><path fill="#F0F2F2" d="M173.55 46.339l3.372-17.855.983.186-3.373 17.854zm120.66 17.099l2.936-14.138.978.203-2.935 14.138z"/><path fill="#E8E8E8" d="M140.535 269.895l-42.058-34.176-1.318-.163L0 223.803l8.789-46.526.982.186-8.59 45.475 97.704 11.824.111.091 41.81 33.973 1.578-.278 91.059-16.12 1.568-.141 90.714 11.524 1.018-.322 2.913-84.892.105-.13.978-1.092 74.352-82.697V54.05h1v41.012l-.128.143-75.319 83.769-2.926 85.258-1.902.598-.109-.013-90.716-11.524-1.417.125z"/><path fill="#F0F2F2" d="M142.924 223.629l-.172-.128-42.292-31.527-91.965-15.095 41.014-75.269L62.796 6.97c.039-.158 2.801-9.626 17.23-6.228 13.979 3.294 95.588 26.363 96.411 26.596l.128.057c.502.314 1.284 1.085 1.025 1.988-.219.763-.884 3.086-18.74 3.086h-23.893l-7.452 7.451 192.16 26.402 2.935-6.613-25.386-7.371-.102-.153c-.033-.05-.809-1.248-.1-2.662 1.119-2.231 5.196-3.555 12.119-3.934 14.813-.818 88.97 4.942 89.717 5 .587-.012 6.276-.005 7.129 2.265.387 1.031-.214 2.208-1.837 3.6l-79.45 80.448-7.49 78.429-82.71-7.52-91.566 15.818zM10.046 176.121l90.815 14.905.098.073 42.217 31.471 91.273-15.765.065.006 81.785 7.436 7.43-77.792.125-.127 79.62-80.618c1.224-1.046 1.78-1.935 1.566-2.503-.435-1.157-3.921-1.623-6.226-1.617-.792-.06-74.877-5.809-89.629-5.001-8.545.469-10.73 2.312-11.271 3.368a1.748 1.748 0 0 0-.044 1.532l26.107 7.581-3.704 8.347-194.9-26.778 9.168-9.168h24.307c15.869 0 17.62-1.808 17.778-2.362.089-.311-.35-.692-.541-.829-2.925-.827-82.521-23.317-96.292-26.562C66.335-1.452 63.868 6.82 63.77 7.174L50.473 101.93l-.043.08-40.384 74.111z"/></svg>