<svg id="Layer_1" xmlns="http://www.w3.org/2000/svg" viewBox="0 0 293.9 139.7"><style>.st0{fill:#7fc7cf}.st1{fill:#163853}.st3{fill:none;stroke:#fff;stroke-width:2;stroke-miterlimit:10}</style><path class="st0" d="M236.5 134.7H13.9c-5.3 0-9.5-4.2-9.5-9.5V14.1c0-5.3 4.2-9.5 9.5-9.5h222.6c5.3 0 9.5 4.2 9.5 9.5v111.1c0 5.2-4.4 9.5-9.5 9.5z"/><path class="st1" d="M275.2 69.7c0-8.9 6-16.1 13.7-16.7V17.4c0-6.9-5-12.6-11-12.6H69.4c-6 0-11 5.7-11 12.6V53c7.7.6 13.7 7.8 13.7 16.7s-6 16.1-13.7 16.7V122c0 6.9 5 12.6 11 12.6h208.5c6 0 11-5.7 11-12.6V86.3c-7.7-.4-13.7-7.6-13.7-16.6z"/><path class="st0" d="M103.2 14h109.7v53H103.2zm0 58.5h93.4v53h-93.4z"/><path d="M126.2 58.1h-5.6v-30h-7.4v-5.7h20.4v5.7h-7.5v30zm19.3 0H140V27.9l-3.2-.2v-5.4h8.9V58h-.2zm25.1-6.5l.9 5.3c-1.7.6-3.3 1.1-5 1.4-1.1.2-2.3.3-3.3.3-.6 0-1.1 0-1.7-.2-1.7-.2-3-.6-4.4-1.2-1.2-.6-2.3-1.7-3-3.2-.8-1.5-1.2-3.3-1.2-5.4V32.4c0-2.6.3-4.5 1.1-5.9.8-1.4 1.8-2.4 3.3-3.3 1.5-.9 3.3-1.4 5.4-1.4h.6c2.4.2 4.7.6 6.6 1.7l-1.7 5.1c-1.5-.6-3.3-.9-5.1-.9-1.5 0-2.6.5-3.5 1.2-.9.8-1.4 1.8-1.4 3v16.8c0 .6 0 1.2.2 1.7s.3.9.6 1.2c.3.3.6.6.9.8.3.3.8.5 1.4.5s1.1.2 1.4.2c.5 0 .9 0 1.5-.2s1.2-.2 1.5-.3c.3 0 .9-.2 1.7-.3.8-.2 1.2-.3 1.5-.3.6-.1 1.1-.2 1.7-.4zm28.1 6.5h-7.1L182 43.8l-.3.5V58h-6V22.4h6v12.3l8.3-12.3h6.8L185.3 39l13.4 19.1zm-64.6 61.4h-17V83.8h17.1v5.6h-11.4v9h7.1l-1.7 5.4h-5.4v10.7h11.4v5.1h-.1zm15.8 0h-5.7v-30h-7.4v-5.7h20.6v5.7h-7.5v30zm9.4-9.2l6-.9c.2 1.5.8 2.7 1.8 3.6 1.1.9 2.4 1.4 4.2 1.4 2.1 0 3.6-.5 4.7-1.4 1.1-.9 1.5-2 1.5-3 0-1.4-.3-2.6-.9-3.5-.6-1.1-1.5-1.8-2.6-2.4-1.1-.6-2.1-1.2-3.3-1.7-1.2-.5-2.4-1.1-3.6-1.7s-2.4-1.2-3.3-2c-1.1-.8-1.8-1.7-2.6-2.9-.6-1.2-.9-2.6-.9-4.1 0-2.4 1.1-4.5 3-6.2 2-1.8 4.8-2.7 8.6-2.7 2.9 0 5.3.5 7.5 1.5l-.3.9c-.2.6-.5 1.4-.8 2.3-.3.9-.6 1.7-.8 2.1-2.3-.8-4.2-1.1-5.6-1.1-2 0-3.3.3-4.4 1.1-.8.6-1.2 1.4-1.2 2.3v.3c.2.9.8 1.7 2 2.4 1.2.8 2.7 1.5 4.4 2.3s3.3 1.5 5 2.6c1.7.9 3 2.3 4.2 3.9s1.8 3.6 1.8 6c0 3-1.1 5.6-3 7.5-2 2-5.1 3-9.2 3-3.8 0-6.6-1.1-8.7-3-2.4-1.8-3.5-4-3.5-6.6z" fill="#fff"/><path class="st3" d="M233 5.7v3"/><path fill="none" stroke="#fff" stroke-width="2" stroke-miterlimit="10" stroke-dasharray="4.2237,5.2796" d="M233 16.7v110"/><path class="st3" d="M233 130.7v3"/><path class="st1" d="M40.4 17.7c-6.4-.8-13.3-.9-19.8-1-.4-.3-.5-.7-.6-1 0-.3.2-.7.4-1.1h3.7c5.6 0 11.3.3 16.8.9.5.1.5.6.8.9v.1c0 .7-.7 1.1-1.3 1.2zm.4 16.3c-2.4-.5-4.4-1.8-7-2-1.9-.6-4.5-.4-6.7-.6-.5.1-1.2.2-1.8.2-.6 0-1.1-.1-1.5-.5-.2-.2-.4-.6-.4-.9 0-.2 0-.3.1-.5 3.4-2.6 7.6-3.6 11.2-5.8-4.5-.6-9.1-.9-13.5-1.4-.3-.3-.4-.7-.4-1.2V21c.4-.5 1-.6 1.6-.6.7 0 1.5.1 2 .2 4.4.4 9 1.1 13.4 1.4.4-.1.8-.2 1.3-.2.8 0 1.5.2 2.2.5v.4c0 .6-.5 1.1-.9 1.3-.2-.1-.5-.1-.7-.1-1.2 0-2 1-2.9 1.5-2.7 1.3-5.5 2.4-7.9 3.9 3.1.3 6 1.1 9.1 1.5.9.7 3.9.9 3.9 2-.2.3-.5.7-1.1 1.2zM29.1 47.4c-1.1-.2-2.6-.3-3.4-.3-2.9-.3-5-.7-7.9-.9-.3-.3-.7-.7-.7-1.1 0-.2 0-.3.2-.5.3-.4.7-.5 1.2-.5s1 .1 1.4.2c.9.1 2 .3 2.9.3h.6c-.6-1.5-1.5-3.1-1.5-4.8 0-.9.2-1.7.7-2.5 1.1-1.6 3-2.2 4.7-2.4 2.5.2 4.9 1.1 7 2.4 2.4 1.5 4.4 3.5 6.3 5.6.9 1.1 1.3 2.8 1.3 2.8 0 .4-.4.7-.7 1.1-.1.1-.2.2-.4.2-.3 0-.7-.3-1-.3-.5-.9-.8-2.2-1.5-3.2-1.6-1.7-3.6-3.7-5.8-4.7-.1.4.1.7.2 1.3.1.8-.1 1.6 0 2.2.1.9.3 1.6.3 2.5 0 .6-.1 1.1-.4 1.5-.2.4-.6.7-1.1.8 0 .2-1.4.5-2.4.3zm.1-3c.8-.4 1.2-2.1 1.2-3.4 0-1.1-.2-2 .4-2.9-.9-.5-2.6-.9-3.8-.9-1.5 0-3.1 1-2.9 2.8 0 .8.2 1.5.5 2.2.5.9.7 1.4 1.5 2.1.7.5.9.6 1.1.6.5 0 1.5 0 2-.5zm-8.9 15.8l.3-.9c3.4-1.6 7.4-3.6 9.2-7.2l-7-.8c-.4-.1-.5-.4-.5-.7 0-.4.1-.8.2-1.1l.9-.4c4 .5 8.2 1.1 12.3 1.1.8 0 1.7 0 2.5-.1 1.8.1 2.6 2.1 3.1 3.6v.9c0 1.4-.2 2.7-1.2 3.7-.8.9-1.9 1.2-2.9 1.5-2.8-.2-4.9-2.3-6.7-4.4-2.8 3-6.3 4.3-9.6 6.1-.6-.4-.4-.9-.6-1.3zm18.4-3.4c.2-.6.7-1 .7-1.7 0-.1 0-.3-.1-.4-.2-2-1.4-2.3-2.9-2.3-.7 0-1.5.1-2.2.1-.7 0-1.3-.1-1.9-.3v.1c0 .3-.2.6-.3.8.5 2 2.4 3.3 4.2 4.2.3.1.6.2.9.2.6-.1 1.2-.3 1.6-.7zM25.9 75.5c-.2 0-.4 0-.6-.1-.7-.3-.7-.9-.7-1.5V73c0-1.1-.9-2.6-1.4-3.9-.5-1.1-1.6-3.3-2.1-4.4v-.2c0-.6.2-1.1.8-1.4.4-.1.9-.1 1.3-.1 2.1 0 3.9.4 5.9.4h.3c.3-.3.7-.5 1.1-.4h.3c.7.7 1.5.9 2.3.9 1.1 0 1.9-.2 3-.2h.5c.3-.6.1-1.5.8-1.8h.2c1.4 0 1.9 1.4 2.9 2.3-.2.4-.2.8-.2 1.1 0 1.9 1.5 3.6 1.5 5.6v.5c0 .5.3 1.1.3 1.5 0 .4-.2.7-.7.9h-.3c-.7 0-1.3-.4-1.6-1 .1-.4.1-.8.1-1.2 0-2.1-.9-3.9-1.9-5.6l-5 .3c0 .2.2.4.2.5.6 1.7 1.5 3.8 1.7 5.7v.4c0 .6-.1 1.1-.7 1.4h-.4c-.7 0-1.2-.3-1.5-.9.1-.2.1-.5.1-.7 0-2.1-1.1-4.2-1.9-6.2l-.5-.4c-1.6-.3-2.9-.3-4.6-.3H24v.2c.7 1.5 1.2 3.1 1.9 4.5.4 1.1 1.3 2.3 1.3 3.5 0 .5-.1 1-.2 1.4-.4 0-.8.1-1.1.1z"/><path class="st1" d="M22.7 84.4c-.2-.8-.3-1.7-.3-2.5 0-2.2.7-4.4 1.6-6.3.3-.4.8-1 1.3-1 .2 0 .4.1.6.2.4.3.6.6.6.8 0 .7-1 1.5-1.2 2.2-.3 1.2-.8 2.6-.8 4 0 .8.2 1.5.6 2.3 1.1-.4 1.8-1.7 2.4-2.6 1.6-2.4 3.5-5.7 6.7-5.8 2 0 3.8 1 5.1 2.7.5.6.6 1.2.6 1.9s-.1 1.3-.1 2v.3l-.7 1.6c-.8 1-1.8 1.6-2.9 2.1-.6-.1-.8-.7-.8-1.2 0-.2 0-.4.1-.7 1-.7 2.5-1.3 2.6-2.7-.2-1.5-1.1-2.9-2.5-3.4-.4-.1-.9-.2-1.3-.2-1 0-2 .3-2.6 1.1-2.3 2.4-3.3 6-6.4 7.4H25c-1.4.1-1.8-1.4-2.3-2.2z"/><path class="st1" d="M22.7 96.4c-.2-.8-.3-1.7-.3-2.5 0-2.2.7-4.4 1.6-6.3.3-.4.8-1 1.3-1 .2 0 .4.1.6.2.4.3.6.6.6.8 0 .7-1 1.5-1.2 2.2-.3 1.2-.8 2.6-.8 4 0 .8.2 1.5.6 2.3 1.1-.4 1.8-1.7 2.4-2.6 1.6-2.4 3.5-5.7 6.7-5.8 2 0 3.8 1 5.1 2.7.5.6.6 1.2.6 1.9s-.1 1.3-.1 2v.3l-.7 1.6c-.8 1-1.8 1.6-2.9 2.1-.6-.1-.8-.7-.8-1.2 0-.2 0-.4.1-.7 1-.7 2.5-1.3 2.6-2.7-.2-1.5-1.1-2.9-2.5-3.4-.4-.1-.9-.2-1.3-.2-1 0-2 .3-2.6 1.1-2.3 2.4-3.3 6-6.4 7.4H25c-1.4.1-1.8-1.4-2.3-2.2zm-.3 10.3c-.7-.8-.2-1.8-.9-2.5.1-1.6.7-3.3 2.4-3.8 1.4-.5 2.8-.7 4.1-.7 4.5 0 8.5 2.5 11.7 5.9.3.7.7 1.6.7 2.5 0 .3 0 .6-.2.9-1.3 1.2-2.8 2.1-4.3 2.7-1.1.4-2.2.6-3.3.6-4-.1-7.5-2.6-10.2-5.6zm13.3 2.6c.6-.5 2-.8 2-1.7 0-.2-.1-.4-.2-.7-1.6-2.3-4.2-3.3-6.8-3.3-.9 0-1.7.1-2.6.3-.2-.2-.3-.4-.3-.6 0-.2.1-.5.1-.8 0-.2-.1-.4-.3-.6-1.4.3-3.6-.3-4 1.6.2 1.2.7 2.3 1.5 3.3 2 1.8 4.7 3.1 7.4 3.1 1.1.1 2.1-.1 3.2-.6zm-13 13.1c-.2-.8-.3-1.7-.3-2.5 0-2.2.7-4.4 1.6-6.3.3-.4.8-1 1.3-1 .2 0 .4.1.6.2.4.3.6.6.6.8 0 .7-1 1.5-1.2 2.2-.3 1.2-.8 2.6-.8 4 0 .8.2 1.5.6 2.3 1.1-.4 1.8-1.7 2.4-2.6 1.6-2.4 3.5-5.7 6.7-5.8 2 0 3.8 1 5.1 2.7.5.6.6 1.2.6 1.9s-.1 1.3-.1 2v.3l-.7 1.6c-.8 1-1.8 1.6-2.9 2.1-.6-.1-.8-.7-.8-1.2 0-.2 0-.4.1-.7 1-.7 2.5-1.3 2.6-2.7-.2-1.5-1.1-2.9-2.5-3.4-.4-.1-.9-.2-1.3-.2-1 0-2 .3-2.6 1.1-2.3 2.4-3.3 6-6.4 7.4H25c-1.4.1-1.8-1.4-2.3-2.2z"/></svg>