<?xml version="1.0" encoding="utf-8"?>
<!-- Generator: Adobe Illustrator 22.1.0, SVG Export Plug-In . SVG Version: 6.00 Build 0)  -->
<svg version="1.1" id="Layer_1" xmlns="http://www.w3.org/2000/svg" xmlns:xlink="http://www.w3.org/1999/xlink" x="0px" y="0px"
	 viewBox="0 0 293.9 139.7" style="enable-background:new 0 0 293.9 139.7;" xml:space="preserve">
<style type="text/css">
	.st0{fill:#7FC7CF;}
	.st1{fill:#163853;}
	.st2{fill:#FFFFFF;}
	.st3{fill:none;stroke:#FFFFFF;stroke-width:2;stroke-miterlimit:10;}
	.st4{fill:none;stroke:#FFFFFF;stroke-width:2;stroke-miterlimit:10;stroke-dasharray:4.2237,5.2796;}
</style>
<g>
	<g>
		<path class="st0" d="M236.5,134.7H13.9c-5.3,0-9.5-4.2-9.5-9.5V14.1c0-5.3,4.2-9.5,9.5-9.5h222.6c5.3,0,9.5,4.2,9.5,9.5v111.1
			C246,130.4,241.6,134.7,236.5,134.7z"/>
		<path class="st1" d="M275.2,69.7c0-8.9,6-16.1,13.7-16.7V17.4c0-6.9-5-12.6-11-12.6H69.4c-6,0-11,5.7-11,12.6V53
			c7.7,0.6,13.7,7.8,13.7,16.7s-6,16.1-13.7,16.7v35.6c0,6.9,5,12.6,11,12.6h208.5c6,0,11-5.7,11-12.6V86.3
			C281.2,85.9,275.2,78.7,275.2,69.7z"/>
		<g>
			<rect x="103.2" y="14" class="st0" width="109.7" height="53"/>
			<rect x="103.2" y="72.5" class="st0" width="93.4" height="53"/>
			<g>
				<path class="st2" d="M126.2,58.1h-5.6v-30h-7.4v-5.7h20.4v5.7h-7.5V58.1z"/>
				<path class="st2" d="M145.5,58.1H140V27.9l-3.2-0.2v-5.4h8.9v35.7H145.5z"/>
				<path class="st2" d="M170.6,51.6l0.9,5.3c-1.7,0.6-3.3,1.1-5,1.4c-1.1,0.2-2.3,0.3-3.3,0.3c-0.6,0-1.1,0-1.7-0.2
					c-1.7-0.2-3-0.6-4.4-1.2c-1.2-0.6-2.3-1.7-3-3.2c-0.8-1.5-1.2-3.3-1.2-5.4V32.4c0-2.6,0.3-4.5,1.1-5.9c0.8-1.4,1.8-2.4,3.3-3.3
					c1.5-0.9,3.3-1.4,5.4-1.4c0.2,0,0.5,0,0.6,0c2.4,0.2,4.7,0.6,6.6,1.7l-1.7,5.1c-1.5-0.6-3.3-0.9-5.1-0.9c-1.5,0-2.6,0.5-3.5,1.2
					c-0.9,0.8-1.4,1.8-1.4,3v16.8c0,0.6,0,1.2,0.2,1.7c0.2,0.5,0.3,0.9,0.6,1.2c0.3,0.3,0.6,0.6,0.9,0.8c0.3,0.3,0.8,0.5,1.4,0.5
					s1.1,0.2,1.4,0.2c0.5,0,0.9,0,1.5-0.2s1.2-0.2,1.5-0.3c0.3,0,0.9-0.2,1.7-0.3c0.8-0.2,1.2-0.3,1.5-0.3
					C169.5,51.9,170,51.8,170.6,51.6z"/>
				<path class="st2" d="M198.7,58.1h-7.1L182,43.8l-0.3,0.5v13.7h-6V22.4h6v12.3l8.3-12.3h6.8L185.3,39L198.7,58.1z"/>
				<path class="st2" d="M134.1,119.5h-17V83.8h17.1v5.6h-11.4v9h7.1l-1.7,5.4h-5.4v10.7h11.4v5.1H134.1z"/>
				<path class="st2" d="M149.9,119.5h-5.7v-30h-7.4v-5.7h20.6v5.7h-7.5C149.9,89.5,149.9,119.5,149.9,119.5z"/>
				<path class="st2" d="M159.3,110.3l6-0.9c0.2,1.5,0.8,2.7,1.8,3.6c1.1,0.9,2.4,1.4,4.2,1.4c2.1,0,3.6-0.5,4.7-1.4
					c1.1-0.9,1.5-2,1.5-3c0-1.4-0.3-2.6-0.9-3.5c-0.6-1.1-1.5-1.8-2.6-2.4c-1.1-0.6-2.1-1.2-3.3-1.7c-1.2-0.5-2.4-1.1-3.6-1.7
					s-2.4-1.2-3.3-2c-1.1-0.8-1.8-1.7-2.6-2.9c-0.6-1.2-0.9-2.6-0.9-4.1c0-2.4,1.1-4.5,3-6.2c2-1.8,4.8-2.7,8.6-2.7
					c2.9,0,5.3,0.5,7.5,1.5l-0.3,0.9c-0.2,0.6-0.5,1.4-0.8,2.3c-0.3,0.9-0.6,1.7-0.8,2.1c-2.3-0.8-4.2-1.1-5.6-1.1
					c-2,0-3.3,0.3-4.4,1.1c-0.8,0.6-1.2,1.4-1.2,2.3c0,0.2,0,0.2,0,0.3c0.2,0.9,0.8,1.7,2,2.4c1.2,0.8,2.7,1.5,4.4,2.3
					s3.3,1.5,5,2.6c1.7,0.9,3,2.3,4.2,3.9s1.8,3.6,1.8,6c0,3-1.1,5.6-3,7.5c-2,2-5.1,3-9.2,3c-3.8,0-6.6-1.1-8.7-3
					C160.4,115.1,159.3,112.9,159.3,110.3z"/>
			</g>
		</g>
		<g>
			<g>
				<line class="st3" x1="233" y1="5.7" x2="233" y2="8.7"/>
				<line class="st4" x1="233" y1="16.7" x2="233" y2="126.7"/>
				<line class="st3" x1="233" y1="130.7" x2="233" y2="133.7"/>
			</g>
		</g>
	</g>
	<g>
		<path class="st1" d="M40.4,17.7c-6.4-0.8-13.3-0.9-19.8-1c-0.4-0.3-0.5-0.7-0.6-1c0-0.3,0.2-0.7,0.4-1.1c1.2,0,2.5,0,3.7,0
			c5.6,0,11.3,0.3,16.8,0.9c0.5,0.1,0.5,0.6,0.8,0.9v0.1C41.7,17.2,41,17.6,40.4,17.7z"/>
		<path class="st1" d="M40.8,34c-2.4-0.5-4.4-1.8-7-2c-1.9-0.6-4.5-0.4-6.7-0.6c-0.5,0.1-1.2,0.2-1.8,0.2c-0.6,0-1.1-0.1-1.5-0.5
			c-0.2-0.2-0.4-0.6-0.4-0.9c0-0.2,0-0.3,0.1-0.5c3.4-2.6,7.6-3.6,11.2-5.8c-4.5-0.6-9.1-0.9-13.5-1.4c-0.3-0.3-0.4-0.7-0.4-1.2
			v-0.3c0.4-0.5,1-0.6,1.6-0.6c0.7,0,1.5,0.1,2,0.2c4.4,0.4,9,1.1,13.4,1.4c0.4-0.1,0.8-0.2,1.3-0.2c0.8,0,1.5,0.2,2.2,0.5
			c0,0.1,0,0.2,0,0.4c0,0.6-0.5,1.1-0.9,1.3c-0.2-0.1-0.5-0.1-0.7-0.1c-1.2,0-2,1-2.9,1.5c-2.7,1.3-5.5,2.4-7.9,3.9
			c3.1,0.3,6,1.1,9.1,1.5c0.9,0.7,3.9,0.9,3.9,2C41.7,33.1,41.4,33.5,40.8,34L40.8,34z"/>
		<path class="st1" d="M29.1,47.4c-1.1-0.2-2.6-0.3-3.4-0.3c-2.9-0.3-5-0.7-7.9-0.9c-0.3-0.3-0.7-0.7-0.7-1.1c0-0.2,0-0.3,0.2-0.5
			c0.3-0.4,0.7-0.5,1.2-0.5s1,0.1,1.4,0.2c0.9,0.1,2,0.3,2.9,0.3h0.6c-0.6-1.5-1.5-3.1-1.5-4.8c0-0.9,0.2-1.7,0.7-2.5
			c1.1-1.6,3-2.2,4.7-2.4c2.5,0.2,4.9,1.1,7,2.4c2.4,1.5,4.4,3.5,6.3,5.6c0.9,1.1,1.3,2.8,1.3,2.8c0,0.4-0.4,0.7-0.7,1.1
			c-0.1,0.1-0.2,0.2-0.4,0.2c-0.3,0-0.7-0.3-1-0.3c-0.5-0.9-0.8-2.2-1.5-3.2c-1.6-1.7-3.6-3.7-5.8-4.7c-0.1,0.4,0.1,0.7,0.2,1.3
			c0.1,0.8-0.1,1.6,0,2.2c0.1,0.9,0.3,1.6,0.3,2.5c0,0.6-0.1,1.1-0.4,1.5c-0.2,0.4-0.6,0.7-1.1,0.8C31.5,47.3,30.1,47.6,29.1,47.4z
			 M29.2,44.4c0.8-0.4,1.2-2.1,1.2-3.4c0-1.1-0.2-2,0.4-2.9c-0.9-0.5-2.6-0.9-3.8-0.9c-1.5,0-3.1,1-2.9,2.8c0,0.8,0.2,1.5,0.5,2.2
			c0.5,0.9,0.7,1.4,1.5,2.1c0.7,0.5,0.9,0.6,1.1,0.6C27.7,44.9,28.7,44.9,29.2,44.4z"/>
		<path class="st1" d="M20.3,60.2l0.3-0.9c3.4-1.6,7.4-3.6,9.2-7.2l-7-0.8c-0.4-0.1-0.5-0.4-0.5-0.7c0-0.4,0.1-0.8,0.2-1.1l0.9-0.4
			c4,0.5,8.2,1.1,12.3,1.1c0.8,0,1.7,0,2.5-0.1c1.8,0.1,2.6,2.1,3.1,3.6v0.9c0,1.4-0.2,2.7-1.2,3.7c-0.8,0.9-1.9,1.2-2.9,1.5
			c-2.8-0.2-4.9-2.3-6.7-4.4c-2.8,3-6.3,4.3-9.6,6.1v0C20.3,61.1,20.5,60.6,20.3,60.2z M38.7,56.8c0.2-0.6,0.7-1,0.7-1.7
			c0-0.1,0-0.3-0.1-0.4c-0.2-2-1.4-2.3-2.9-2.3c-0.7,0-1.5,0.1-2.2,0.1c-0.7,0-1.3-0.1-1.9-0.3v0.1c0,0.3-0.2,0.6-0.3,0.8
			c0.5,2,2.4,3.3,4.2,4.2h0c0.3,0.1,0.6,0.2,0.9,0.2C37.7,57.4,38.3,57.2,38.7,56.8z"/>
		<path class="st1" d="M25.9,75.5c-0.2,0-0.4,0-0.6-0.1c-0.7-0.3-0.7-0.9-0.7-1.5c0-0.3,0-0.6,0-0.9c0-1.1-0.9-2.6-1.4-3.9
			c-0.5-1.1-1.6-3.3-2.1-4.4v-0.2c0-0.6,0.2-1.1,0.8-1.4c0.4-0.1,0.9-0.1,1.3-0.1c2.1,0,3.9,0.4,5.9,0.4h0.3
			c0.3-0.3,0.7-0.5,1.1-0.4h0.3c0.7,0.7,1.5,0.9,2.3,0.9c1.1,0,1.9-0.2,3-0.2h0.5c0.3-0.6,0.1-1.5,0.8-1.8h0.2
			c1.4,0,1.9,1.4,2.9,2.3c-0.2,0.4-0.2,0.8-0.2,1.1c0,1.9,1.5,3.6,1.5,5.6v0.5c0,0.5,0.3,1.1,0.3,1.5c0,0.4-0.2,0.7-0.7,0.9
			c-0.1,0-0.2,0-0.3,0c-0.7,0-1.3-0.4-1.6-1c0.1-0.4,0.1-0.8,0.1-1.2c0-2.1-0.9-3.9-1.9-5.6l-5,0.3c0,0.2,0.2,0.4,0.2,0.5
			c0.6,1.7,1.5,3.8,1.7,5.7v0.4c0,0.6-0.1,1.1-0.7,1.4c-0.1,0-0.2,0-0.4,0c-0.7,0-1.2-0.3-1.5-0.9c0.1-0.2,0.1-0.5,0.1-0.7
			c0-2.1-1.1-4.2-1.9-6.2l-0.5-0.4c-1.6-0.3-2.9-0.3-4.6-0.3c-0.4,0-0.7,0-1.1,0c0,0.1,0,0.1,0,0.2c0.7,1.5,1.2,3.1,1.9,4.5
			c0.4,1.1,1.3,2.3,1.3,3.5c0,0.5-0.1,1-0.2,1.4C26.6,75.4,26.2,75.5,25.9,75.5z"/>
		<path class="st1" d="M22.7,84.4c-0.2-0.8-0.3-1.7-0.3-2.5c0-2.2,0.7-4.4,1.6-6.3c0.3-0.4,0.8-1,1.3-1c0.2,0,0.4,0.1,0.6,0.2
			c0.4,0.3,0.6,0.6,0.6,0.8c0,0.7-1,1.5-1.2,2.2c-0.3,1.2-0.8,2.6-0.8,4c0,0.8,0.2,1.5,0.6,2.3c1.1-0.4,1.8-1.7,2.4-2.6
			c1.6-2.4,3.5-5.7,6.7-5.8c2,0,3.8,1,5.1,2.7c0.5,0.6,0.6,1.2,0.6,1.9s-0.1,1.3-0.1,2v0.3l-0.7,1.6c-0.8,1-1.8,1.6-2.9,2.1
			c-0.6-0.1-0.8-0.7-0.8-1.2c0-0.2,0-0.4,0.1-0.7c1-0.7,2.5-1.3,2.6-2.7c-0.2-1.5-1.1-2.9-2.5-3.4c-0.4-0.1-0.9-0.2-1.3-0.2
			c-1,0-2,0.3-2.6,1.1c-2.3,2.4-3.3,6-6.4,7.4c-0.1,0-0.2,0-0.3,0h0C23.6,86.7,23.2,85.2,22.7,84.4z"/>
		<path class="st1" d="M22.7,96.4c-0.2-0.8-0.3-1.7-0.3-2.5c0-2.2,0.7-4.4,1.6-6.3c0.3-0.4,0.8-1,1.3-1c0.2,0,0.4,0.1,0.6,0.2
			c0.4,0.3,0.6,0.6,0.6,0.8c0,0.7-1,1.5-1.2,2.2c-0.3,1.2-0.8,2.6-0.8,4c0,0.8,0.2,1.5,0.6,2.3c1.1-0.4,1.8-1.7,2.4-2.6
			c1.6-2.4,3.5-5.7,6.7-5.8c2,0,3.8,1,5.1,2.7c0.5,0.6,0.6,1.2,0.6,1.9s-0.1,1.3-0.1,2v0.3l-0.7,1.6c-0.8,1-1.8,1.6-2.9,2.1
			c-0.6-0.1-0.8-0.7-0.8-1.2c0-0.2,0-0.4,0.1-0.7c1-0.7,2.5-1.3,2.6-2.7c-0.2-1.5-1.1-2.9-2.5-3.4c-0.4-0.1-0.9-0.2-1.3-0.2
			c-1,0-2,0.3-2.6,1.1c-2.3,2.4-3.3,6-6.4,7.4c-0.1,0-0.2,0-0.3,0h0C23.6,98.7,23.2,97.2,22.7,96.4z"/>
		<path class="st1" d="M22.4,106.7c-0.7-0.8-0.2-1.8-0.9-2.5c0.1-1.6,0.7-3.3,2.4-3.8c1.4-0.5,2.8-0.7,4.1-0.7
			c4.5,0,8.5,2.5,11.7,5.9c0.3,0.7,0.7,1.6,0.7,2.5c0,0.3,0,0.6-0.2,0.9c-1.3,1.2-2.8,2.1-4.3,2.7c-1.1,0.4-2.2,0.6-3.3,0.6h0
			C28.6,112.2,25.1,109.7,22.4,106.7z M35.7,109.3c0.6-0.5,2-0.8,2-1.7c0-0.2-0.1-0.4-0.2-0.7c-1.6-2.3-4.2-3.3-6.8-3.3
			c-0.9,0-1.7,0.1-2.6,0.3c-0.2-0.2-0.3-0.4-0.3-0.6c0-0.2,0.1-0.5,0.1-0.8c0-0.2-0.1-0.4-0.3-0.6c-1.4,0.3-3.6-0.3-4,1.6
			c0.2,1.2,0.7,2.3,1.5,3.3c2,1.8,4.7,3.1,7.4,3.1C33.6,110,34.6,109.8,35.7,109.3z"/>
		<path class="st1" d="M22.7,122.4c-0.2-0.8-0.3-1.7-0.3-2.5c0-2.2,0.7-4.4,1.6-6.3c0.3-0.4,0.8-1,1.3-1c0.2,0,0.4,0.1,0.6,0.2
			c0.4,0.3,0.6,0.6,0.6,0.8c0,0.7-1,1.5-1.2,2.2c-0.3,1.2-0.8,2.6-0.8,4c0,0.8,0.2,1.5,0.6,2.3c1.1-0.4,1.8-1.7,2.4-2.6
			c1.6-2.4,3.5-5.7,6.7-5.8c2,0,3.8,1,5.1,2.7c0.5,0.6,0.6,1.2,0.6,1.9s-0.1,1.3-0.1,2v0.3l-0.7,1.6c-0.8,1-1.8,1.6-2.9,2.1
			c-0.6-0.1-0.8-0.7-0.8-1.2c0-0.2,0-0.4,0.1-0.7c1-0.7,2.5-1.3,2.6-2.7c-0.2-1.5-1.1-2.9-2.5-3.4c-0.4-0.1-0.9-0.2-1.3-0.2
			c-1,0-2,0.3-2.6,1.1c-2.3,2.4-3.3,6-6.4,7.4c-0.1,0-0.2,0-0.3,0h0C23.6,124.7,23.2,123.2,22.7,122.4z"/>
	</g>
</g>
</svg>
