<?xml version="1.0" encoding="utf-8"?>
<!-- Generator: Adobe Illustrator 22.0.1, SVG Export Plug-In . SVG Version: 6.00 Build 0)  -->
<svg version="1.1" id="Layer_1" xmlns="http://www.w3.org/2000/svg" xmlns:xlink="http://www.w3.org/1999/xlink" x="0px" y="0px"
	 viewBox="0 0 226.1 124.1" style="enable-background:new 0 0 226.1 124.1;" xml:space="preserve">
<style type="text/css">
	.st0{fill:#7FC7CF;}
	.st1{fill:#163853;}
	.st2{fill:#FFFFFF;}
	.st3{fill:none;stroke:#FFFFFF;stroke-width:2;stroke-miterlimit:10;}
	.st4{fill:none;stroke:#FFFFFF;stroke-width:2;stroke-miterlimit:10;stroke-dasharray:4.2237,5.2796;}
</style>
<g>
	<path class="st0" d="M172.5,104.8H24.2c-3.5,0-6.3-2.8-6.3-6.3v-74c0-3.5,2.8-6.3,6.3-6.3h148.3c3.5,0,6.3,2.8,6.3,6.3v74
		C178.8,102,175.9,104.8,172.5,104.8z"/>
	<path class="st1" d="M198.3,61.5c0-5.9,4-10.7,9.1-11.1V26.7c0-4.6-3.3-8.4-7.3-8.4H61.2c-4,0-7.3,3.8-7.3,8.4v23.7
		c5.1,0.4,9.1,5.2,9.1,11.1s-4,10.7-9.1,11.1v23.7c0,4.6,3.3,8.4,7.3,8.4h138.9c4,0,7.3-3.8,7.3-8.4V72.6
		C202.3,72.3,198.3,67.5,198.3,61.5z"/>
	<g>
		<rect x="83.7" y="24.4" class="st0" width="73.1" height="35.3"/>
		<rect x="83.7" y="63.4" class="st0" width="62.2" height="35.3"/>
		<g>
			<path class="st2" d="M99,53.8h-3.7v-20h-4.9V30H104v3.8h-5V53.8z"/>
			<path class="st2" d="M111.9,53.8h-3.7V33.7l-2.1-0.1V30h5.9V53.8z"/>
			<path class="st2" d="M128.6,49.5l0.6,3.5c-1.1,0.4-2.2,0.7-3.3,0.9c-0.7,0.1-1.5,0.2-2.2,0.2c-0.4,0-0.7,0-1.1-0.1
				c-1.1-0.1-2-0.4-2.9-0.8c-0.8-0.4-1.5-1.1-2-2.1c-0.5-1-0.8-2.2-0.8-3.6V36.7c0-1.7,0.2-3,0.7-3.9c0.5-0.9,1.2-1.6,2.2-2.2
				c1-0.6,2.2-0.9,3.6-0.9c0.1,0,0.3,0,0.4,0c1.6,0.1,3.1,0.4,4.4,1.1l-1.1,3.4c-1-0.4-2.2-0.6-3.4-0.6c-1,0-1.7,0.3-2.3,0.8
				s-0.9,1.2-0.9,2v11.2c0,0.4,0,0.8,0.1,1.1c0.1,0.3,0.2,0.6,0.4,0.8c0.2,0.2,0.4,0.4,0.6,0.5c0.2,0.2,0.5,0.3,0.9,0.3
				s0.7,0.1,0.9,0.1c0.3,0,0.6,0,1-0.1c0.4-0.1,0.8-0.1,1-0.2c0.2,0,0.6-0.1,1.1-0.2c0.5-0.1,0.8-0.2,1-0.2
				C127.9,49.7,128.2,49.6,128.6,49.5z"/>
			<path class="st2" d="M147.3,53.8h-4.7l-6.4-9.5l-0.2,0.3v9.1h-4V30h4v8.2l5.5-8.2h4.5l-7.6,11.1L147.3,53.8z"/>
			<path class="st2" d="M104.3,94.7H93V70.9h11.4v3.7h-7.6v6h4.7l-1.1,3.6h-3.6v7.1h7.6V94.7z"/>
			<path class="st2" d="M114.8,94.7H111v-20h-4.9v-3.8h13.7v3.8h-5V94.7z"/>
			<path class="st2" d="M121.1,88.6l4-0.6c0.1,1,0.5,1.8,1.2,2.4c0.7,0.6,1.6,0.9,2.8,0.9c1.4,0,2.4-0.3,3.1-0.9c0.7-0.6,1-1.3,1-2
				c0-0.9-0.2-1.7-0.6-2.3c-0.4-0.7-1-1.2-1.7-1.6c-0.7-0.4-1.4-0.8-2.2-1.1c-0.8-0.3-1.6-0.7-2.4-1.1c-0.8-0.4-1.6-0.8-2.2-1.3
				c-0.7-0.5-1.2-1.1-1.7-1.9c-0.4-0.8-0.6-1.7-0.6-2.7c0-1.6,0.7-3,2-4.1c1.3-1.2,3.2-1.8,5.7-1.8c1.9,0,3.5,0.3,5,1l-0.2,0.6
				c-0.1,0.4-0.3,0.9-0.5,1.5c-0.2,0.6-0.4,1.1-0.5,1.4c-1.5-0.5-2.8-0.7-3.7-0.7c-1.3,0-2.2,0.2-2.9,0.7c-0.5,0.4-0.8,0.9-0.8,1.5
				c0,0.1,0,0.1,0,0.2c0.1,0.6,0.5,1.1,1.3,1.6c0.8,0.5,1.8,1,2.9,1.5c1.1,0.5,2.2,1,3.3,1.7c1.1,0.6,2,1.5,2.8,2.6
				c0.8,1.1,1.2,2.4,1.2,4c0,2-0.7,3.7-2,5c-1.3,1.3-3.4,2-6.1,2c-2.5,0-4.4-0.7-5.8-2C121.8,91.8,121.1,90.3,121.1,88.6z"/>
		</g>
	</g>
	<g>
		<g>
			<line class="st3" x1="170.2" y1="18.9" x2="170.2" y2="20.9"/>
			<line class="st4" x1="170.2" y1="26.2" x2="170.2" y2="99.5"/>
			<line class="st3" x1="170.2" y1="102.2" x2="170.2" y2="104.2"/>
		</g>
	</g>
	<g>
		<path class="st1" d="M42.4,45.6c-4.3-2.6-9-3.8-13.5-5.9c-0.6-0.4-0.8-1-1-1.6c0.5-0.9,1.5-1.4,2.4-1.7l10.9-1.7
			c0.2-0.2,0.4-0.3,0.7-0.3c0.2,0,0.4,0.1,0.5,0.1c0.3,0.2,0.5,0.5,0.5,0.8c0,0.2-0.1,0.3-0.1,0.4c-1.9,1.1-5.7,1.1-7.9,1.5
			c-1.3,0.3-2.7,0.3-4,0.6l-0.4,0.3c2.7,1.6,5.8,2.3,8.6,3.7c1.5,0.7,2.9,1.5,4.5,2c0.3,0.2,0.5,0.5,0.5,0.8c0,0.4-0.3,0.9-0.7,0.9
			L42.4,45.6z"/>
		<path class="st1" d="M28.9,49.6c-0.2-0.4-0.2-0.7-0.2-1.1c0-0.9,0.4-1.7,0.6-2.5c0.8-1.3,2.1-1.7,3.4-1.7c0.6,0,1.2,0.1,1.7,0.1
			c0.8,0.3,2,0.8,2.7,1.3c0.9,0.7,0.9,1.7,0.9,2.6c0,0.2,0,0.4-0.1,0.6c-0.4,0.7-0.9,1.6-1.9,1.9c-0.1,0-0.7,0.2-0.8,0.2
			c-0.8,0-1.5-0.7-1.8-1.3c-0.5-1.2-0.6-3.2-0.7-3.7c-0.6-0.2-0.9,0.1-1.3,0.3c-0.5,0.2-1,1.5-1,2.1c0,0.5,0.1,1,0.5,1.4
			c0,0.1,0,0.2,0,0.2c0,0.4-0.3,0.7-0.5,0.9c-0.1,0-0.2,0-0.3,0C29.5,51,29.3,50.1,28.9,49.6z M35.1,49c0.4,0.4,0.9-0.1,0.9-0.4
			c0-0.3-0.1-1-0.4-1.3c-0.4-0.3-1-0.5-1-0.5C34.5,46.7,34.8,48.7,35.1,49z"/>
		<path class="st1" d="M29.3,58.7c0.2-1.2,1-1.3,1.9-1.3c0.4,0,0.7,0,1.1,0c0.9,0,1.7-0.1,2-1c-1.3-1.1-3-1.5-4.7-2
			c-0.3-0.2-0.5-0.5-0.5-0.8c0-0.2,0.1-0.3,0.1-0.4c0.4-0.5,0.8-0.7,1.3-0.7c0.6,0,1.3,0.2,1.9,0.3c0.2,0,0.4,0,0.6-0.1h0.1
			c1.3,0,2.5-0.5,3.6-0.5c0,0,0.1,0,0.1,0c0.2,0.2,0.3,0.5,0.3,0.8c0,0.4-0.2,0.8-0.6,1c-0.4,0.2-0.9,0.2-1.3,0.6
			c0.7,0.5,1.1,1.2,1.1,2v0.2c-0.4,2-2.7,2.3-4.3,2.8l0,0c-0.2,0-0.3-0.1-0.5-0.1c-0.4,0-0.9,0.1-1.3,0.1
			C29.9,59.4,29.5,59.3,29.3,58.7z"/>
		<path class="st1" d="M30.3,69.1c-0.2,0-0.5-0.1-0.7-0.4c-0.1-0.3-0.4-0.5-0.4-0.8c0-0.1,0-0.1,0-0.2c0.4-0.4,0.8-0.9,1.3-1
			c-1.3-0.9-2-2.3-2-3.8c0-0.2,0-0.4,0-0.5c0.6-1.5,2.1-2,3.5-2h0.2c2.5,0,4.8,1.3,5.9,3.7c0.1,0.2,0.1,0.4,0.1,0.5
			c0,0.4-0.1,0.7-0.1,1.1c0,0.1-0.2,0.4-0.2,0.5l7,0c0.3,0.2,0.4,0.5,0.4,0.7c0,0.5-0.4,1-0.8,1.2c-0.7,0-1.3,0-2,0
			c-3.7-0.2-7.4-0.1-10.3,0.2c0,0-0.4,0.2-0.4,0.2C31.4,68.5,30.8,69.1,30.3,69.1z M35.4,66.1c0.5-0.3,0.7-0.7,0.7-1.1
			c0-0.5-0.3-1.1-0.8-1.4c-0.7-0.7-1.6-0.9-2.6-0.9c-0.7,0-1.4,0.1-2,0.3c-0.1,0.1-0.2,0.2-0.2,0.4c0,0.2,0.1,0.5,0.2,0.7
			c1,1.1,2.2,2.2,3.8,2.3C34.7,66.2,35,66.2,35.4,66.1z"/>
		<path class="st1" d="M32.8,77.3c-1,0-1.9-0.1-2.8-0.3c-0.5-0.3-0.6-0.7-0.6-1.1c0-0.2,0.1-0.5,0.1-0.7c-0.3-0.7-0.8-1.6-0.8-2.5
			c0-0.4,0.1-0.9,0.4-1.3c0.2-0.7,0.9-1,1.4-1.4c0.3-0.1,0.6-0.1,0.9-0.1c0.8,0,1.6,0.3,2.1,0.9c0.8,0.8,1.3,1.6,1.3,2.6v0.2
			c0,0,0,0.1,0,0.1c0,0.5-0.4,0.7-0.4,1.1c0,0.1,0,0.2,0.1,0.3c0.3,0.1,0.6,0.2,0.8,0.2c0.9,0,1.6-0.5,2.3-1.1c0-0.1,0-0.1,0-0.2
			c0-0.6-0.7-1.3-0.7-1.8c0-0.3,0.2-0.5,0.8-0.6c1,0.1,1.4,1,1.7,1.8c-0.1,1.1-0.2,2.4-1.3,2.9C36.5,77,34.6,77.3,32.8,77.3
			L32.8,77.3z M32.1,74.3h0.2c0.4-0.2,0.5-0.4,0.5-0.6c0-0.5-0.6-1.1-0.9-1.4c-0.3,0-0.5-0.3-0.8-0.3c-0.1,0-0.3,0.1-0.4,0.3
			c-0.1,0.2-0.2,0.5-0.2,0.8s0.1,0.6,0.3,0.8c0.1,0.3,0.4,0.4,0.6,0.4C31.7,74.4,31.9,74.3,32.1,74.3z"/>
		<path class="st1" d="M30.2,83.2c-0.4-0.5-0.5-1.2-0.5-1.8c0-0.8,0.2-1.7,0.5-2.4c0.3-0.2,0.6-0.8,1-0.8c0.1,0,0.1,0,0.2,0
			c0.3,0.3,0.4,0.6,0.4,0.9c0,0.6-0.4,1.3-0.4,1.9c0,0.4,0.2,0.7,0.8,0.9c0.5-0.7,1.1-1.5,1.8-2.2c0.6-0.6,1.3-1,2-1.2
			c0.8,0.2,1.3,0.8,1.6,1.4c0.3,0.6,0.4,1.4,0.5,2c-0.1,0.5-0.2,1.1-0.6,1.3c-0.2,0-0.4,0.1-0.7,0.1c-0.1,0-0.3,0-0.4-0.1
			c-0.4-0.2-0.5-0.5-0.5-0.8c0-0.4,0.2-0.8,0.2-1.1c0-0.3-0.4-0.5-1-0.5c-0.6,0.8-1.1,1.8-1.9,2.5c-0.3,0.3-0.7,0.5-1.2,0.7l0,0v0
			C31.3,84,30.7,83.8,30.2,83.2z"/>
		<path class="st1" d="M26.4,86.2L26.4,86.2c0-0.7,0.3-1,0.8-1.3c0.1,0,0.2,0,0.2,0c0.4,0,0.7,0.3,0.8,0.6c0.1,0.1,0.1,0.2,0.1,0.3
			c0,0.5-0.5,0.8-0.7,1.1c-0.1,0-0.2,0.1-0.2,0.1C27,87,26.8,86.4,26.4,86.2z M41.1,88c-2.5-0.4-5.1-0.7-7.6-1.1
			c-0.3-0.3-0.6-0.6-0.6-0.9c0-0.1,0-0.3,0.1-0.4c0.4-0.4,0.8-0.5,1.3-0.5c0.9,0,1.9,0.6,2.9,0.6h0.1c3.2,0.6,6.4,0.8,9.7,1.2
			c0.2,0.2,0.3,0.4,0.3,0.5c0,0.5-0.4,0.9-0.8,1.1c-0.3,0-0.5,0-0.8,0h0C44.1,88.6,42.5,88.2,41.1,88z"/>
	</g>
</g>
</svg>
