<?xml version="1.0" encoding="utf-8"?>
<!-- Generator: Adobe Illustrator 22.1.0, SVG Export Plug-In . SVG Version: 6.00 Build 0)  -->
<svg version="1.1" id="star5" xmlns="http://www.w3.org/2000/svg" xmlns:xlink="http://www.w3.org/1999/xlink" x="0px" y="0px"
	 viewBox="0 0 57.1 40" style="enable-background:new 0 0 57.1 40;" xml:space="preserve">
<style type="text/css">
	.st0{fill:#009B3A;}
	.st1{fill:#FEDF00;}
	.st2{fill:#002776;}
	.st3{clip-path:url(#SVGID_2_);fill:#FFFFFF;}
	.st4{clip-path:url(#SVGID_4_);}
	.st5{fill:#FFFFFF;}
</style>
<g id="Camada_2">
</g>
<g id="Camada_1">
	<rect class="st0" width="57.1" height="40"/>
	<path class="st1" d="M4.9,20l23.7,15.1L52.3,20L28.6,4.9L4.9,20z"/>
	<circle class="st2" cx="28.6" cy="20" r="10"/>
	<g>
		<defs>
			<circle id="SVGID_1_" cx="28.6" cy="20" r="10"/>
		</defs>
		<clipPath id="SVGID_2_">
			<use xlink:href="#SVGID_1_"  style="overflow:visible;"/>
		</clipPath>
		<path class="st3" d="M-1.4,40c0-13.4,10.9-24.3,24.3-24.3S47.1,26.6,47.1,40h-1.4c0-12.6-10.2-22.9-22.9-22.9S0,27.4,0,40H-1.4z"
			/>
	</g>
	<g>
		<g transform="rotate(-7)">
			<path id="O" class="st0" d="M440-1452.9c0.2,0,0.4-0.3,0.4-0.5c0-0.3-0.2-0.4-0.5-0.4c-0.2,0-0.4,0.3-0.4,0.5
				C439.6-1453.1,439.8-1452.9,440-1452.9 M440-1453.1c0.1,0,0.2-0.2,0.2-0.3c0-0.2-0.1-0.3-0.3-0.3c-0.1,0-0.2,0.2-0.2,0.3
				C439.8-1453.2,439.9-1453.1,440-1453.1"/>
		</g>
		<g>
			<g id="R">
				<g transform="rotate(-4)">
					<path id="P" class="st0" d="M440.8-1453l0.2,0l0-0.4l0.4,0c0.2,0,0.3-0.2,0.3-0.3s-0.2-0.3-0.3-0.3l-0.5,0L440.8-1453z
						 M441-1453.6l0.4,0c0.1,0,0.1-0.1,0.1-0.1c0-0.1-0.1-0.1-0.1-0.1l-0.4,0L441-1453.6z"/>
				</g>
				<path class="st0" d="M441.6-1453.1c0-0.1,0-0.4-0.2-0.4l-0.3,0c0.3,0,0.3,0.3,0.3,0.4"/>
			</g>
			<g transform="rotate(-1)">
				<path id="D" class="st0" d="M442-1453.1l0.4,0c0.2,0,0.4-0.2,0.4-0.4l0-0.1c0-0.2-0.2-0.4-0.4-0.4l-0.4,0L442-1453.1z
					 M442.2-1453.3l0.3,0c0.1,0,0.3-0.1,0.3-0.3l0-0.1c0-0.1-0.1-0.3-0.3-0.3l-0.3,0L442.2-1453.3z"/>
			</g>
			<g transform="rotate(2)">
				<path id="E" class="st0" d="M443.2-1453.1l0.9,0l0-0.2l-0.7,0l0-0.2l0.5,0l0-0.2l-0.5,0l0-0.2l0.7,0l0-0.2l-0.8,0L443.2-1453.1z
					"/>
			</g>
			<g transform="rotate(5)">
				<path id="M" class="st0" d="M444.4-1453l0.2,0l0.1-0.7l0.1,0.7l0.1,0l0.2-0.6l-0.1,0.7l0.2,0l0.1-0.9l-0.2,0l-0.2,0.6l-0.1-0.7
					l-0.2,0L444.4-1453z"/>
			</g>
			<g transform="rotate(9.75)">
				<path id="e" class="st0" d="M446.4-1452.8l0.7,0.1l0-0.2l-0.5-0.1l0-0.2l0.4,0.1l0-0.2l-0.4-0.1l0-0.1l0.5,0.1l0-0.2l-0.7-0.1
					L446.4-1452.8z"/>
			</g>
			<g transform="rotate(14.5)">
				<path id="P_1_" class="st0" d="M448.2-1452.5l0.2,0l0.1-0.3l0.4,0.1c0.2,0,0.3-0.1,0.4-0.2c0-0.2-0.1-0.3-0.2-0.4l-0.5-0.1
					L448.2-1452.5z M448.5-1452.9l0.4,0.1c0.1,0,0.1,0,0.1-0.1s0-0.1-0.1-0.1l-0.4-0.1L448.5-1452.9z"/>
			</g>
			<g>
				<g id="R_1_">
					<g transform="rotate(17.5)">
						<path id="P_2_" class="st0" d="M449.4-1452.2l0.2,0.1l0.1-0.3l0.4,0.1c0.2,0,0.3,0,0.4-0.2c0-0.2,0-0.3-0.2-0.4l-0.5-0.2
							L449.4-1452.2z M449.7-1452.6l0.4,0.1c0.1,0,0.1,0,0.2-0.1c0-0.1,0-0.1-0.1-0.2l-0.4-0.1L449.7-1452.6z"/>
					</g>
					<path class="st0" d="M450.2-1451.9c0-0.1,0.1-0.4-0.1-0.5l-0.2-0.1c0.3,0.1,0.2,0.4,0.2,0.5"/>
				</g>
				<g transform="rotate(20.5)">
					<path id="O_1_" class="st0" d="M450.9-1451.6c0.2,0.1,0.5,0,0.6-0.3s0-0.5-0.2-0.6c-0.2-0.1-0.5,0-0.6,0.3
						S450.7-1451.7,450.9-1451.6 M451-1451.8c0.1,0,0.3,0,0.3-0.2c0.1-0.2,0-0.3-0.1-0.4c-0.1,0-0.3,0-0.3,0.2
						C450.8-1452,450.9-1451.8,451-1451.8"/>
				</g>
				<g>
					<g id="G">
						<g>
							<defs>
								<path id="SVGID_3_" d="M451.7-1451.4l0.4-0.9l0.8,0.3l-0.4,0.9L451.7-1451.4z M452.3-1451.8l-0.1,0.1l0.4,0.2l0.1-0.1
									L452.3-1451.8z"/>
							</defs>
							<clipPath id="SVGID_4_">
								<use xlink:href="#SVGID_3_"  style="overflow:visible;"/>
							</clipPath>
							<g transform="rotate(23.5)" class="st4">
								<path id="O_2_" class="st0" d="M452.1-1451.2c0.2,0.1,0.5,0,0.6-0.3c0.1-0.2,0-0.5-0.2-0.6s-0.5,0-0.6,0.3
									C451.8-1451.5,451.8-1451.3,452.1-1451.2 M452.1-1451.3c0.1,0.1,0.3,0,0.4-0.2c0.1-0.2,0-0.3-0.1-0.4s-0.3,0-0.4,0.2
									S452-1451.4,452.1-1451.3"/>
							</g>
						</g>
						
							<rect x="452.4" y="-1451.6" transform="matrix(0.3987 -0.9171 0.9171 0.3987 1603.1116 -457.7586)" class="st0" width="0.1" height="0.4"/>
						
							<rect x="452.3" y="-1451.3" transform="matrix(0.3987 -0.9171 0.9171 0.3987 1602.9486 -457.6057)" class="st0" width="0.5" height="0.1"/>
					</g>
					<g transform="translate(-420,1470)">
						<g id="R_2_">
							<g transform="rotate(26.5)">
								<path id="P_3_" class="st0" d="M452.8-1450.9l0.2,0.1l0.2-0.3l0.3,0.2c0.1,0.1,0.3,0,0.4-0.1s0-0.3-0.1-0.4l-0.5-0.2
									L452.8-1450.9z M453.2-1451.3l0.3,0.2c0.1,0,0.1,0,0.2-0.1c0-0.1,0-0.1-0.1-0.2l-0.3-0.2L453.2-1451.3z"/>
							</g>
							<path class="st0" d="M453.5-1450.5c0.1-0.1,0.2-0.4,0-0.5l-0.2-0.1c0.3,0.1,0.1,0.4,0.1,0.5"/>
						</g>
						<g transform="rotate(29.5)">
							<path id="E_1_" class="st0" d="M453.9-1450.3l0.7,0.4l0.1-0.2l-0.6-0.3l0.1-0.2l0.5,0.3l0.1-0.1l-0.5-0.3l0.1-0.2l0.6,0.3
								l0.1-0.2l-0.7-0.4L453.9-1450.3z"/>
						</g>
						<g transform="rotate(32.5)">
							<path id="S" class="st0" d="M455.2-1449.8c-0.1,0.1,0,0.2,0.1,0.2c0.1,0.1,0.2,0.1,0.2,0c0.1-0.2-0.5-0.4-0.3-0.7
								c0.2-0.2,0.4-0.1,0.5,0s0.3,0.2,0.1,0.4l-0.2-0.1c0.1-0.1,0-0.2-0.1-0.2c-0.1-0.1-0.2-0.1-0.2,0c-0.1,0.1,0.5,0.4,0.3,0.7
								c-0.1,0.2-0.4,0.1-0.5,0c-0.1-0.1-0.3-0.3-0.2-0.5L455.2-1449.8z"/>
						</g>
						<g transform="rotate(35.5)">
							<path id="S_1_" class="st0" d="M456.3-1449.2c-0.1,0.1,0,0.2,0.1,0.2c0.1,0.1,0.2,0.1,0.2,0c0.1-0.2-0.5-0.4-0.3-0.7
								c0.2-0.2,0.4,0,0.5,0c0.1,0.1,0.3,0.2,0.1,0.4l-0.2-0.1c0.1-0.1,0-0.2-0.1-0.2c-0.1-0.1-0.2-0.1-0.2,0
								c-0.1,0.1,0.5,0.4,0.3,0.7c-0.1,0.2-0.4,0.1-0.5,0c-0.1-0.1-0.3-0.3-0.2-0.5L456.3-1449.2z"/>
						</g>
						<g transform="rotate(38.5)">
							<path id="O_3_" class="st0" d="M457.2-1448.1c0.2,0.1,0.5,0.1,0.6-0.1c0.2-0.2,0.1-0.5,0-0.6s-0.5-0.1-0.6,0.1
								C457-1448.5,457-1448.2,457.2-1448.1 M457.3-1448.2c0.1,0.1,0.3,0.1,0.4-0.1s0.1-0.3,0-0.4s-0.3-0.1-0.4,0.1
								S457.2-1448.3,457.3-1448.2"/>
						</g>
					</g>
					<g>
						<g>
							<g>
								<g id="c">
									<path id="t" class="st5" d="M440.4-1452.2l-0.1,0.4l0.2,0.1"/>
									<g transform="scale(-1,1)">
										<path id="t_1_" class="st5" d="M440.4-1452.2l0.1,0.4l-0.2,0.1"/>
									</g>
								</g>
								<g>
									<g id="c_1_">
										<path id="t_2_" class="st5" d="M440.8-1451.9h-0.4v0.2"/>
										<g transform="rotate(72)">
											<path id="t_3_" class="st5" d="M440.8-1451.9l-0.3,0.3l-0.1-0.2"/>
										</g>
									</g>
									<g>
										<g id="c_2_">
											<path id="t_4_" class="st5" d="M440-1451.9l0.3,0.3l0.1-0.2"/>
											<g transform="rotate(-72)">
												<path id="t_5_" class="st5" d="M440-1451.9h0.4v0.2"/>
											</g>
										</g>
										<g>
											<g id="c_3_">
												<path id="t_6_" class="st5" d="M440.7-1451.4l-0.1-0.4l-0.2,0.1"/>
												<g transform="rotate(144)">
													<path id="t_7_" class="st5" d="M440.7-1451.4l-0.3-0.3l0.1-0.2"/>
												</g>
											</g>
											<g id="star">
												<g id="c_4_">
													<path id="t_8_" class="st5" d="M440.2-1451.4l0.3-0.3l-0.1-0.2"/>
													<g id="αCMi" transform="scale(31.5)">
														<path id="t_9_" class="st5" d="M440.2-1451.4l0.1-0.4l0.2,0.1"/>
													</g>
												</g>
											</g>
											<g>
												<g>
													<g>
														<g id="c_5_">
															<path id="t_10_" class="st5" d="M441.3-1448l-0.1,0.4l0.2,0.1"/>
															<g transform="scale(-1,1)">
																<path id="t_11_" class="st5" d="M441.3-1448l0.1,0.4l-0.2,0.1"/>
															</g>
														</g>
														<g>
															<g id="c_6_">
																<path id="t_12_" class="st5" d="M441.7-1447.7h-0.4v0.2"/>
																<g transform="rotate(72)">
																	<path id="t_13_" class="st5" d="M441.7-1447.7l-0.3,0.3l-0.1-0.2"/>
																</g>
															</g>
															<g>
																<g id="c_7_">
																	<path id="t_14_" class="st5" d="M440.9-1447.7l0.3,0.3l0.1-0.2"/>
																	<g transform="rotate(-72)">
																		<path id="t_15_" class="st5" d="M440.9-1447.7h0.4v0.2"/>
																	</g>
																</g>
																<g>
																	<g id="c_8_">
																		<path id="t_16_" class="st5" d="M441.5-1447.2l-0.1-0.4l-0.2,0.1"/>
																		<g transform="rotate(144)">
																			<path id="t_17_" class="st5" d="M441.5-1447.2l-0.3-0.3l0.1-0.2"/>
																		</g>
																	</g>
																	<g id="star_1_">
																		<g id="c_9_">
																			<path id="t_18_" class="st5" d="M441-1447.2l0.3-0.3l-0.1-0.2"/>
																			<g id="αCMa" transform="scale(31.5)">
																				<path id="t_19_" class="st5" d="M441-1447.2l0.1-0.4l0.2,0.1"/>
																			</g>
																		</g>
																	</g>
																	<g>
																		<g>
																			<g>
																				<g id="c_10_">
																					<path id="t_20_" class="st5" d="M440.1-1447.1l-0.1,0.3l0.2,0.1"/>
																					<g transform="scale(-1,1)">
																						<path id="t_21_" class="st5" d="M440.1-1447.1l0.1,0.3l-0.2,0.1"/>
																					</g>
																				</g>
																				<g>
																					<g id="c_11_">
																						<path id="t_22_" class="st5" d="M440.4-1446.8h-0.4v0.2"/>
																						<g transform="rotate(72)">
																							<path id="t_23_" class="st5" d="M440.4-1446.8l-0.3,0.2l-0.1-0.1"/>
																						</g>
																					</g>
																					<g>
																						<g id="c_12_">
																							<path id="t_24_" class="st5" d="M439.7-1446.8l0.3,0.2l0.1-0.1"/>
																							<g transform="rotate(-72)">
																								<path id="t_25_" class="st5" d="M439.7-1446.8h0.4v0.2"/>
																							</g>
																						</g>
																						<g>
																							<g id="c_13_">
																								<path id="t_26_" class="st5" d="M440.3-1446.4l-0.1-0.3l-0.2,0.1"/>
																								<g transform="rotate(144)">
																									<path id="t_27_" class="st5" d="M440.3-1446.4l-0.3-0.2l0.1-0.1"/>
																								</g>
																							</g>
																							<g id="star_2_">
																								<g id="c_14_">
																									<path id="t_28_" class="st5" d="M439.9-1446.4l0.3-0.2l-0.1-0.1"/>
																									<g id="βCMa" transform="scale(26.25)">
																										<path id="t_29_" class="st5" d="M439.9-1446.4l0.1-0.3l0.2,0.1"/>
																									</g>
																								</g>
																							</g>
																							<g>
																								<g>
																									<g>
																										<g id="c_15_">
																											<path id="t_30_" class="st5" d="M442.3-1448.4l-0.1,0.2l0.1,0"/>
																											<g transform="scale(-1,1)">
																												<path id="t_31_" class="st5" d="M442.3-1448.4l0.1,0.2l-0.1,0"/>
																											</g>
																										</g>
																										<g>
																											<g id="c_16_">
																												<path id="t_32_" class="st5" d="M442.5-1448.3h-0.2v0.1"/>
																												<g transform="rotate(72)">
																													<path id="t_33_" class="st5" d="M442.5-1448.3l-0.2,0.1l-0.1-0.1"/>
																												</g>
																											</g>
																											<g>
																												<g id="c_17_">
																													<path id="t_34_" class="st5" d="M442.1-1448.3l0.2,0.1l0.1-0.1"/>
																													<g transform="rotate(-72)">
																														<path id="t_35_" class="st5" d="M442.1-1448.3h0.2v0.1"/>
																													</g>
																												</g>
																												<g transform="rotate(-144)">
																													<g id="c_18_">
																														<path id="t_36_" class="st5" d="M442.4-1448l-0.1-0.2l-0.1,0"/>
																														<path id="t_37_" class="st5" d="M442.4-1448l-0.2-0.1l0.1-0.1"/>
																													</g>
																													<g id="star4" transform="scale(15)">
																													</g>
																												</g>
																												<g>
																													<g id="star2" transform="scale(26.25)">
																													</g>
																												</g>
																											</g>
																										</g>
																									</g>
																								</g>
																							</g>
																						</g>
																					</g>
																				</g>
																			</g>
																		</g>
																	</g>
																</g>
															</g>
														</g>
													</g>
												</g>
											</g>
										</g>
									</g>
								</g>
							</g>
						</g>
					</g>
				</g>
			</g>
		</g>
	</g>
</g>
</svg>
