<?xml version="1.0" encoding="utf-8"?>
<!-- Generator: Adobe Illustrator 22.0.1, SVG Export Plug-In . SVG Version: 6.00 Build 0)  -->
<svg version="1.1" id="Layer_1" xmlns="http://www.w3.org/2000/svg" xmlns:xlink="http://www.w3.org/1999/xlink" x="0px" y="0px"
	 viewBox="0 0 406.09 269.894" enable-background="new 0 0 406.09 269.894" xml:space="preserve">
<g>
	<g>
		
			<rect x="166.64" y="36.999" transform="matrix(0.1856 -0.9826 0.9826 0.1856 106.2661 203.2123)" fill="#F0F2F2" width="18.171" height="1"/>
	</g>
	<g>
		
			<rect x="288.935" y="55.96" transform="matrix(0.2033 -0.9791 0.9791 0.2033 180.6796 334.9579)" fill="#F0F2F2" width="14.44" height="0.999"/>
	</g>
	<g>
		<polygon fill="#E8E8E8" points="140.535,269.895 98.477,235.719 97.159,235.556 0,223.803 8.789,177.277 9.771,177.463 
			1.181,222.938 98.885,234.762 98.996,234.853 140.806,268.826 142.384,268.548 233.443,252.428 235.011,252.287 325.725,263.811 
			326.743,263.489 329.656,178.597 329.761,178.467 330.739,177.375 405.091,94.678 405.091,54.05 406.091,54.05 406.091,95.062 
			405.963,95.205 330.644,178.974 327.718,264.232 325.816,264.83 325.707,264.817 234.991,253.293 233.574,253.418 		"/>
	</g>
	<g>
		<path fill="#F0F2F2" d="M142.924,223.629l-0.172-0.128l-42.292-31.527L8.495,176.879l41.014-75.269l13.287-94.64
			c0.039-0.158,2.801-9.626,17.23-6.228c13.979,3.294,95.588,26.363,96.411,26.596l0.128,0.057c0.502,0.314,1.284,1.085,1.025,1.988
			c-0.219,0.763-0.884,3.086-18.74,3.086h-23.893l-7.452,7.451l192.16,26.402l2.935-6.613l-25.386-7.371l-0.102-0.153
			c-0.033-0.05-0.809-1.248-0.1-2.662c1.119-2.231,5.196-3.555,12.119-3.934c14.813-0.818,88.97,4.942,89.717,5
			c0.587-0.012,6.276-0.005,7.129,2.265c0.387,1.031-0.214,2.208-1.837,3.6l-79.45,80.448l-7.49,78.429l-82.71-7.52L142.924,223.629
			z M10.046,176.121l90.815,14.905l0.098,0.073l42.217,31.471l91.273-15.765l0.065,0.006l81.785,7.436l7.43-77.792l0.125-0.127
			l79.62-80.618c1.224-1.046,1.78-1.935,1.566-2.503c-0.435-1.157-3.921-1.623-6.226-1.617c-0.792-0.06-74.877-5.809-89.629-5.001
			c-8.545,0.469-10.73,2.312-11.271,3.368c-0.345,0.671-0.164,1.265-0.044,1.532l26.107,7.581l-3.704,8.347l-194.9-26.778
			l9.168-9.168h24.307c15.869,0,17.62-1.808,17.778-2.362c0.089-0.311-0.35-0.692-0.541-0.829
			c-2.925-0.827-82.521-23.317-96.292-26.562c-13.458-3.17-15.925,5.102-16.023,5.456L50.473,101.93l-0.043,0.08L10.046,176.121z"/>
	</g>
</g>
</svg>
