<?xml version="1.0" encoding="utf-8"?>
<!-- Generator: Adobe Illustrator 22.1.0, SVG Export Plug-In . SVG Version: 6.00 Build 0)  -->
<svg version="1.1" id="Camada_1" xmlns="http://www.w3.org/2000/svg" xmlns:xlink="http://www.w3.org/1999/xlink" x="0px" y="0px"
	 viewBox="0 0 16 15.2" style="enable-background:new 0 0 16 15.2;" xml:space="preserve">
<style type="text/css">
	.st0{fill:#7FC7CF;}
</style>
<path class="st0" d="M16,5.8c-0.1-0.2-0.3-0.3-0.5-0.3h-5.4L8.5,0.4C8.4,0.2,8.2,0,8,0C7.8,0,7.6,0.2,7.5,0.4L5.9,5.4H0.5
	C0.3,5.4,0.1,5.6,0,5.8C0,6,0,6.2,0.2,6.3l4.3,3.1l-1.7,5.1c-0.1,0.2,0,0.4,0.2,0.6c0.2,0.1,0.4,0.1,0.6,0L8,12l4.3,3.1
	c0.1,0.1,0.2,0.1,0.3,0.1c0.1,0,0.2,0,0.3-0.1c0.2-0.1,0.2-0.4,0.2-0.6l-1.7-5.1l4.3-3.1C16,6.2,16,6,16,5.8L16,5.8z"/>
</svg>
