<?xml version="1.0" encoding="utf-8"?>
<!-- Generator: Adobe Illustrator 22.1.0, SVG Export Plug-In . SVG Version: 6.00 Build 0)  -->
<svg version="1.1" id="Camada_1" xmlns="http://www.w3.org/2000/svg" xmlns:xlink="http://www.w3.org/1999/xlink" x="0px" y="0px"
	 viewBox="0 0 200 200" style="enable-background:new 0 0 200 200;" xml:space="preserve">
<style type="text/css">
	.st0{fill:#7F7F7F;}
	.st1{fill:url(#SVGID_1_);}
	.st2{fill:url(#SVGID_2_);}
	.st3{fill:#333333;}
	.st4{fill:url(#SVGID_3_);}
</style>
<title>logo-grid</title>
<g id="Logo">
	<g id="Group">
		<g>
			<path class="st0" d="M42.3,128.1c0,2.5-7.5,4.4-16.8,4.4s-16.8-2-16.8-4.4c0-2.4,7.5-4.4,16.8-4.4S42.3,125.6,42.3,128.1z"/>
		</g>
		<g id="Group_1">
			<g id="Group_2">
				
					<linearGradient id="SVGID_1_" gradientUnits="userSpaceOnUse" x1="-384.5231" y1="511.0565" x2="-346.4792" y2="511.0565" gradientTransform="matrix(0.7549 0.6558 0.6558 -0.7549 -46.1498 706.8854)">
					<stop  offset="0" style="stop-color:#5A9FD4"/>
					<stop  offset="1" style="stop-color:#306998"/>
				</linearGradient>
				<path class="st1" d="M25.7,67.4c-2,0-4,0.2-6,0.5c-5.3,0.9-6.3,2.9-6.3,6.5v4.8H26v1.6H8.7c-3.8-0.1-7.1,2.6-7.8,6.4
					c-1.2,4.2-1.2,8.6,0,12.8c0.9,3.7,3,6.4,6.7,6.4h4.3v-5.7c0.1-4.3,3.6-7.7,7.8-7.8h12.5c3.5,0,6.3-2.9,6.3-6.4c0,0,0,0,0,0v-12
					c0-3.4-2.9-6-6.3-6.5C30,67.6,27.8,67.4,25.7,67.4L25.7,67.4z M18.9,71.3c1.3,0,2.4,1,2.4,2.4c0,1.3-1,2.4-2.4,2.4
					c-1.3,0-2.4-1-2.4-2.4c0,0,0,0,0,0C16.5,72.4,17.5,71.3,18.9,71.3C18.9,71.3,18.9,71.3,18.9,71.3z"/>
				
					<linearGradient id="SVGID_2_" gradientUnits="userSpaceOnUse" x1="740.4436" y1="244.3826" x2="758.3264" y2="244.3826" gradientTransform="matrix(-0.57 -0.82 -0.82 0.57 662.296 578.843)">
					<stop  offset="0" style="stop-color:#FFD43B"/>
					<stop  offset="1" style="stop-color:#FFE873"/>
				</linearGradient>
				<path class="st2" d="M40.1,80.9v5.6c0,4.4-3.5,7.9-7.9,8H19.7c-3.5,0.1-6.3,2.9-6.3,6.4v11.9c0,3.4,3,5.4,6.3,6.4
					c4.1,1.3,8.5,1.3,12.5,0c3.2-0.9,6.3-2.8,6.3-6.4V108H26v-1.6h18.8c3.6,0,5-2.5,6.3-6.4c1.3-3.8,1.2-7.8,0-12.8
					c-0.9-3.6-2.6-6.4-6.3-6.4H40.1z M33,111.1c1.3,0,2.4,1,2.4,2.4c0,1.3-1,2.4-2.4,2.4c-1.3,0-2.4-1-2.4-2.4c0,0,0,0,0,0
					C30.7,112.2,31.7,111.1,33,111.1C33,111.1,33,111.1,33,111.1z"/>
			</g>
		</g>
		<g id="Group_3">
			<g id="Group_4">
				<path class="st3" d="M83.9,94.3c0.1,3-0.7,5.9-2.4,8.3c-1.6,2.4-4.4,3.9-7.3,3.8c-2.6,0-5.1-0.8-7.3-2.2v14.3l-4-1.4V85.5
					c0.7-0.9,1.6-1.6,2.5-2.1c2.7-1.5,5.7-2.2,8.7-2.2l0,0c2.9-0.1,5.7,1.3,7.2,3.9C83.1,87.8,84,91,83.9,94.3z M79.2,94
					c0-6.6-1.9-9.9-5.6-10.1c-1.5-0.1-3,0.2-4.4,0.7c-0.8,0.2-1.6,0.7-2.3,1.2v15.7c1.9,1.3,4.1,2.1,6.4,2.1
					C77.3,103.4,79.2,100.2,79.2,94z"/>
				<path class="st3" d="M108.5,103.7c0,4.4-0.4,7.5-1.3,9.3c-1.2,1.9-3,3.4-5.2,4.1c-2.1,0.8-4.4,1.3-6.7,1.3l-0.7-2.5
					c1.7-0.2,3.4-0.5,5.1-1c1.7-0.5,3.1-1.5,4-3c0.6-1.1,0.9-3.2,0.9-6.3v-1c-2.7,1.2-5.7,1.9-8.6,1.9c-1.9,0-3.8-0.6-5.2-1.9
					c-1.6-1.2-2.6-3.1-2.5-5.2V82.6l4.1-1.4v16.8c-0.1,1.6,0.5,3.1,1.7,4.2c1.3,1,2.8,1.5,4.4,1.4c2.1-0.1,4.2-0.9,5.9-2.2V81.8h4
					L108.5,103.7z"/>
				<path class="st3" d="M124.2,106.3c-0.5,0-0.9,0-1.3,0c-1.9,0.1-3.8-0.5-5.3-1.6c-1.3-1.1-2-2.8-1.9-4.4V84.4h-2.8v-2.6h2.8v-6.7
					l4-1.4v8.1h4.5v2.6h-4.5v15.7c-0.1,1.2,0.3,2.4,1.2,3.2c1,0.6,2.2,0.9,3.3,0.9L124.2,106.3z"/>
				<path class="st3" d="M149.3,105.9h-4.1V90.4c0-1.4-0.3-2.9-1.1-4.1c-0.8-1.2-2.1-1.9-3.5-1.9c-1.8,0-4.1,1-6.9,2.9V106h-4V68.8
					l4-1.3v16.9c2.4-1.8,5.4-2.8,8.4-2.8c2-0.1,3.8,0.7,5.2,2.1c1.3,1.5,2,3.4,2,5.3V105.9z"/>
				<path class="st3" d="M175.8,93.4c0.1,3.2-0.8,6.4-2.8,9c-1.9,2.6-5.1,4.2-8.4,4c-3.3,0.1-6.4-1.4-8.3-4c-1.9-2.6-2.8-5.8-2.7-9
					c-0.1-3.1,0.9-6.1,2.9-8.5c2-2.4,5-3.8,8.1-3.7c3.1-0.1,6.1,1.3,8.1,3.7C174.8,87.3,175.9,90.3,175.8,93.4z M171.3,93.4
					c0.1-2.2-0.4-4.3-1.4-6.3c-1-2-3.1-3.2-5.3-3.2c-4.4,0.3-6.6,3.4-6.6,9.5l0,0c-0.1,2.4,0.4,4.8,1.4,7c0.9,2.2,3,3.6,5.3,3.5
					C169.1,103.9,171.4,100.4,171.3,93.4L171.3,93.4z"/>
				<path class="st3" d="M199.6,105.9h-4V89.5c0.1-1.6-0.5-3.1-1.6-4.2c-1.2-1.1-2.7-1.6-4.3-1.5c-2,0.1-3.9,0.7-5.5,1.9v20.2h-4
					V85.2c3.2-2.5,7.1-4,11.2-4c0.9,0,1.8,0.1,2.7,0.3c1.5,0.3,2.8,1,3.9,2c1.1,1,1.7,2.5,1.7,4V105.9z"/>
			</g>
		</g>
		<g id="Group_5">
			<g id="Group_6">
				<path class="st3" d="M68.3,129.8c0,0.9-0.5,1.8-1.3,2.2l0,0c-0.6,0.4-1.3,0.6-2.1,0.6c-0.5,0-1.1-0.1-1.6-0.4
					c-0.5-0.2-0.9-0.4-1.3-0.8l0.5-0.7c0.7,0.6,1.5,0.9,2.4,1c0.5,0,1-0.1,1.4-0.4c0.4-0.3,0.7-0.8,0.7-1.3c0-0.4-0.1-0.8-0.4-1
					c-0.4-0.3-0.8-0.5-1.2-0.6l-0.9-0.3c-0.6-0.2-1.2-0.5-1.7-0.9c-0.4-0.4-0.6-0.9-0.5-1.5c0-0.7,0.3-1.4,0.8-1.9
					c0.6-0.5,1.4-0.8,2.1-0.7c0.8,0,1.7,0.3,2.3,0.8l-0.5,0.7c-0.5-0.4-1.2-0.6-1.8-0.7c-0.5,0-1,0.1-1.3,0.4
					c-0.3,0.3-0.5,0.7-0.5,1.1c0,0.6,0.5,1.1,1.6,1.4l1,0.3c0.6,0.2,1.2,0.5,1.6,1C68.1,128.6,68.3,129.2,68.3,129.8z"/>
				<path class="st3" d="M77.1,127.7L77.1,127.7c0,1.2-0.3,2.4-1,3.3c-1.1,1.6-3.3,2.1-4.9,1c-0.4-0.3-0.7-0.6-1-1
					c-0.7-1-1-2.1-1-3.3c0-1.2,0.3-2.3,1-3.2c1.2-1.6,3.5-1.9,5.2-0.7c0.3,0.2,0.5,0.4,0.7,0.7C76.8,125.4,77.1,126.5,77.1,127.7z
					 M75.9,127.7c0-0.9-0.2-1.8-0.7-2.6c-0.6-1.1-2-1.6-3.1-1c-0.4,0.2-0.8,0.6-1,1c-0.5,0.8-0.7,1.7-0.7,2.6c0,1,0.2,1.9,0.7,2.8
					c0.5,1.1,1.8,1.7,2.9,1.2c0.5-0.2,1-0.7,1.2-1.2C75.6,129.6,75.9,128.6,75.9,127.7z"/>
				<path class="st3" d="M83.5,123.2l-0.4,0.7h-3.7v3.1h3.1l-0.3,0.7h-2.7v4.6h-1.1v-9.2L83.5,123.2z"/>
				<path class="st3" d="M90.4,123.9h-2.7v8.5h-1.1v-8.5h-2.7l0.3-0.7h6.2V123.9z"/>
				<path class="st3" d="M101.9,123.1l-2.4,9.1l-0.8,0.3l-2.2-8l-2,7.7l-0.8,0.3l-2.6-9.2l1-0.4l2.1,7.5l2-7.1l1.1-0.4l2.1,7.5
					l2.1-7.5L101.9,123.1z"/>
				<path class="st3" d="M109.4,132.4h-1.1l-1-2.9h-3.6l-1,2.9h-0.8l3.3-9.1l1-0.3L109.4,132.4z M107.1,128.9l-1.5-4.4l-1.6,4.4
					L107.1,128.9z"/>
				<path class="st3" d="M116,132.4h-1.3l-2.4-4.3h-0.8v4.3h-1.1v-9.2h2.9c0.7,0,1.4,0.2,1.9,0.7c1,0.9,1,2.5,0,3.5c0,0,0,0,0,0
					c-0.5,0.5-1.1,0.7-1.8,0.7L116,132.4z M114.9,125.6c0-0.4-0.2-0.9-0.5-1.2c-0.3-0.3-0.7-0.5-1.2-0.5h-1.7v3.4h1.7
					c0.5,0,0.9-0.2,1.2-0.5C114.8,126.5,114.9,126.1,114.9,125.6L114.9,125.6z"/>
				<path class="st3" d="M122.5,123.2l-0.4,0.7h-3.7v3.2h3.1l-0.4,0.7h-2.7v3.9h4v0.7h-5v-9.2L122.5,123.2z"/>
			</g>
			<g id="Group_7">
				<path class="st3" d="M133.1,123.2l-0.4,0.7H129v3.1h3.1l-0.4,0.7H129v4.6h-1v-9.2L133.1,123.2z"/>
				<path class="st3" d="M141.3,127.7L141.3,127.7c0,1.2-0.3,2.4-1,3.3c-1.1,1.6-3.3,2.1-4.9,1c-0.4-0.3-0.7-0.6-1-1
					c-0.7-1-1-2.1-1-3.3c0-1.2,0.4-2.3,1.1-3.2c1.2-1.6,3.5-1.9,5.1-0.7c0.3,0.2,0.5,0.5,0.7,0.7C141,125.4,141.3,126.5,141.3,127.7
					z M140.1,127.7c0-0.9-0.2-1.8-0.7-2.6c-0.6-1.1-2-1.6-3.1-1c-0.4,0.2-0.8,0.6-1,1c-0.5,0.8-0.7,1.7-0.7,2.6c0,1,0.2,1.9,0.7,2.8
					c0.5,1.1,1.8,1.7,2.9,1.2c0.5-0.2,0.9-0.6,1.2-1.2C139.8,129.6,140,128.6,140.1,127.7L140.1,127.7z"/>
				<path class="st3" d="M149.2,129.3c0,0.9-0.3,1.7-1,2.3c-0.6,0.6-1.5,0.9-2.4,0.9c-0.9,0-1.7-0.3-2.4-0.9c-0.6-0.6-1-1.5-0.9-2.3
					v-6l1.1-0.4v6.1c0,1.7,0.8,2.6,2.3,2.5c0.7,0,1.3-0.2,1.8-0.7c0.4-0.5,0.7-1.2,0.6-1.9v-5.9h0.8L149.2,129.3z"/>
				<path class="st3" d="M157.8,132.4h-1.1l-5.2-7.5v7.5h-0.7v-9.1l0.8-0.3l5.4,7.9v-7.7h0.7V132.4z"/>
				<path class="st3" d="M166.2,128c0,1.1-0.3,2.2-1,3.1c-0.6,0.9-1.6,1.4-2.7,1.4c-1.1,0-2.1-0.4-2.9-1.1v-8.2h3
					c1.1,0,2.2,0.6,2.8,1.5C165.9,125.7,166.2,126.8,166.2,128z M165,128.1c0-2.8-1-4.1-3.1-4.1h-1.1v7.2c0.4,0.4,1,0.6,1.6,0.6
					c0.8,0,1.6-0.5,2-1.2C164.8,129.8,165,128.9,165,128.1z"/>
				<path class="st3" d="M174.3,132.4h-1.1l-1-2.9h-3.6l-1.1,2.9h-0.8l3.3-9.1l1-0.3L174.3,132.4z M172,128.9l-1.5-4.4l-1.6,4.4
					L172,128.9z"/>
				<path class="st3" d="M180.2,123.9h-2.7v8.5h-1.1v-8.5h-2.7l0.3-0.7h6.2L180.2,123.9z"/>
				<path class="st3" d="M182.5,132.4h-1.1v-9l1.1-0.4V132.4z"/>
				<path class="st3" d="M191.7,127.7L191.7,127.7c0,1.2-0.3,2.4-1,3.3c-1.1,1.6-3.3,2.1-4.9,1c-0.4-0.3-0.7-0.6-1-1
					c-0.7-1-1-2.1-1-3.3c0-1.2,0.3-2.3,1-3.2c1.2-1.6,3.5-1.9,5.1-0.7c0.3,0.2,0.5,0.5,0.7,0.7C191.4,125.4,191.8,126.5,191.7,127.7
					z M190.5,127.7c0-0.9-0.2-1.8-0.7-2.6c-0.6-1.1-2-1.6-3.2-1c-0.4,0.2-0.8,0.6-1,1c-0.5,0.8-0.7,1.7-0.7,2.6c0,1,0.2,1.9,0.7,2.8
					c0.6,1.1,1.9,1.6,3.1,1c0.4-0.2,0.8-0.6,1-1C190.3,129.6,190.5,128.6,190.5,127.7L190.5,127.7z"/>
				<path class="st3" d="M200,132.4H199l-5.2-7.5v7.5h-0.7v-9.1l0.8-0.3l5.4,7.9v-7.7h0.7V132.4z"/>
			</g>
		</g>
		
			<linearGradient id="SVGID_3_" gradientUnits="userSpaceOnUse" x1="-3705.1543" y1="1292.9684" x2="-3663.1313" y2="1292.9684" gradientTransform="matrix(1 0 0 -1 3862.8899 1406.3057)">
			<stop  offset="0" style="stop-color:#4C8CBF"/>
			<stop  offset="1" style="stop-color:#306898"/>
		</linearGradient>
		<path class="st4" d="M115.7,113.3L115.7,113.3c0,1.1,0.4,2,1,2h82.1c0.5,0,1-0.9,1-2l0,0c0-1.1-0.4-2-1-2h-82.1
			C116.1,111.3,115.7,112.2,115.7,113.3z"/>
	</g>
</g>
</svg>
