<?xml version="1.0" encoding="utf-8"?>
<!-- Generator: Adobe Illustrator 22.1.0, SVG Export Plug-In . SVG Version: 6.00 Build 0)  -->
<svg version="1.1" id="Camada_1" xmlns="http://www.w3.org/2000/svg" xmlns:xlink="http://www.w3.org/1999/xlink" x="0px" y="0px"
	 viewBox="0 0 200 200" style="enable-background:new 0 0 200 200;" xml:space="preserve">
<style type="text/css">
	.st0{fill:#72C6D4;}
	.st1{fill:#333358;}
</style>
<title>logo-mangailabs</title>
<path class="st0" d="M24.8,92.9c1.3,1.5,1.9,3.4,1.8,5.3v9.5h-2.7v-9.3c0.1-1.3-0.3-2.7-1.2-3.7c-0.8-0.9-2-1.4-3.2-1.3
	c-1.3,0-2.5,0.5-3.4,1.4c-1,1.2-1.4,2.6-1.4,4.2v8.7h-2.7v-9.3c0.1-1.3-0.3-2.7-1.2-3.7c-0.8-0.9-2-1.4-3.2-1.3
	c-1.3-0.1-2.6,0.5-3.5,1.4C3.1,96,2.6,97.5,2.7,99v8.7H0V91.3h2.7v3.7c0.3-1.2,1.1-2.3,2.1-3c1-0.7,2.3-1.1,3.5-1
	c1.3,0,2.5,0.4,3.6,1.1c1.1,0.8,1.8,1.9,2.2,3.1c0.4-1.3,1.2-2.3,2.3-3.1c1.1-0.7,2.4-1.1,3.7-1.1C21.9,90.9,23.6,91.6,24.8,92.9z"
	/>
<path class="st0" d="M40,92.3c1.1,0.8,1.9,1.9,2.3,3.2v-4.2H45v16.4h-2.7v-4.2c-0.4,1.3-1.2,2.4-2.3,3.2c-1.2,0.8-2.6,1.2-4,1.2
	c-1.4,0-2.7-0.3-3.9-1c-1.2-0.7-2.1-1.7-2.7-2.9c-0.7-1.4-1-2.9-1-4.5c0-1.6,0.3-3.1,1-4.5c0.6-1.2,1.5-2.2,2.7-2.9
	c1.2-0.7,2.5-1,3.9-1C37.4,91.1,38.8,91.5,40,92.3z M32.7,95.1c-2,2.6-2,6.2,0,8.8c1,1.1,2.5,1.7,4,1.6c1,0,2-0.2,2.9-0.8
	c0.9-0.5,1.5-1.2,2-2.1c0.5-1,0.7-2.1,0.7-3.2c0-1.1-0.2-2.2-0.7-3.2c-0.4-0.9-1.1-1.6-2-2.1c-0.9-0.5-1.9-0.8-2.9-0.7
	C35.2,93.5,33.8,94.1,32.7,95.1L32.7,95.1z"/>
<path class="st0" d="M61.2,92.9c1.3,1.5,1.9,3.4,1.8,5.3v9.5h-2.8v-9.3c0.1-1.4-0.3-2.7-1.2-3.8c-0.9-0.9-2.1-1.4-3.4-1.3
	c-1.4-0.1-2.7,0.5-3.6,1.4c-1,1.2-1.5,2.7-1.4,4.2v8.7h-2.7V91.3h2.7v3.9c0.4-1.3,1.1-2.3,2.2-3.1c1.1-0.7,2.4-1.1,3.7-1.1
	C58.3,90.9,60,91.6,61.2,92.9z"/>
<path class="st0" d="M76.4,92.3c1.1,0.8,1.9,1.9,2.3,3.2v-4.2h2.7V108c0,1.4-0.3,2.8-0.9,4c-0.6,1.1-1.6,2.1-2.7,2.8
	c-1.2,0.7-2.6,1-4,1c-1.9,0.1-3.8-0.5-5.4-1.6c-1.4-1.1-2.3-2.6-2.7-4.3h2.7c0.3,1,0.9,2,1.8,2.6c1,0.7,2.2,1,3.4,0.9
	c1.4,0.1,2.7-0.4,3.7-1.4c1-1.1,1.6-2.5,1.4-4v-4.4c-0.4,1.3-1.2,2.4-2.3,3.2c-1.2,0.8-2.6,1.2-4.1,1.2c-1.4,0-2.7-0.3-3.9-1
	c-1.2-0.7-2.1-1.7-2.7-2.9c-0.7-1.4-1-2.9-1-4.5c0-1.6,0.3-3.1,1-4.5c0.6-1.2,1.5-2.2,2.7-2.9c1.2-0.7,2.5-1,3.9-1
	C73.8,91.1,75.2,91.5,76.4,92.3z M69.1,95.1c-2,2.6-2,6.2,0,8.8c1,1.1,2.5,1.7,4,1.6c1,0,2-0.2,2.9-0.8c0.9-0.5,1.5-1.2,2-2.1
	c0.5-1,0.7-2.1,0.7-3.2c0-1.1-0.2-2.2-0.7-3.2c-0.4-0.9-1.1-1.6-2-2.1c-0.9-0.5-1.9-0.8-2.9-0.7C71.6,93.5,70.2,94,69.1,95.1z"/>
<path class="st0" d="M95.1,92.3c1.1,0.8,1.9,1.9,2.3,3.2v-4.2h2.7v16.4h-2.7v-4.2c-0.4,1.3-1.2,2.4-2.3,3.2c-1.2,0.8-2.6,1.2-4,1.2
	c-1.4,0-2.7-0.3-3.9-1c-1.2-0.7-2.1-1.7-2.7-2.9c-0.7-1.4-1-2.9-1-4.5c0-1.6,0.3-3.1,1-4.5c0.6-1.2,1.5-2.2,2.7-2.9
	c1.2-0.7,2.5-1,3.9-1C92.5,91.1,93.9,91.5,95.1,92.3z M87.8,95.1c-2,2.6-2,6.2,0,8.8c1,1.1,2.5,1.7,4,1.6c1,0,2-0.2,2.9-0.8
	c0.9-0.5,1.5-1.2,2-2.1c0.5-1,0.7-2.1,0.7-3.2c0-1.1-0.2-2.2-0.7-3.2c-0.4-0.9-1.1-1.6-2-2.1c-0.9-0.5-1.9-0.8-2.9-0.7
	C90.3,93.5,88.8,94,87.8,95.1z"/>
<path class="st0" d="M103,85.3c0.8-0.6,1.9-0.6,2.7,0c0.7,0.7,0.7,1.7,0,2.4c0,0,0,0,0,0c-0.8,0.6-1.9,0.6-2.7,0
	C102.3,87.1,102.3,86,103,85.3C103,85.3,103,85.3,103,85.3z M105.7,91.3v16.4H103V91.3L105.7,91.3z"/>
<path class="st1" d="M132.6,96.4c-1.2,0-2.3,0.4-3.1,1.3c-1.6,2.1-1.6,5,0,7.1c1.7,1.7,4.5,1.7,6.3,0c1.6-2.1,1.6-4.9,0-7
	C135,96.8,133.8,96.3,132.6,96.4z"/>
<path class="st1" d="M151.4,84.8v10.1c0.5-1.2,1.3-2.1,2.4-2.8c1.2-0.7,2.5-1,3.9-1c1.5,0,3.1,0.4,4.4,1.2c1.3,0.9,2.3,2.1,3,3.5
	c1.5,3.4,1.5,7.3,0,10.8c-0.6,1.4-1.7,2.7-3,3.5c-1.3,0.8-2.8,1.2-4.4,1.2c-1.4,0-2.7-0.3-3.9-1c-1.1-0.7-1.9-1.6-2.4-2.8v3.5h-6
	V84.8h-24.7V111h-6.1V84.8h-5.4v31H190l10.1-31H151.4z M143,111h-6v-3.6c-0.5,1.2-1.3,2.1-2.4,2.8c-1.2,0.7-2.5,1-3.9,1
	c-1.5,0-3.1-0.4-4.4-1.2c-1.3-0.9-2.4-2.1-3-3.5c-1.5-3.4-1.5-7.3,0-10.8c0.7-1.4,1.7-2.6,3-3.5c1.3-0.8,2.8-1.2,4.4-1.2
	c1.4,0,2.7,0.3,3.9,1c1.1,0.7,1.9,1.6,2.4,2.8v-3.5h6V111z M183,108.5c-0.7,0.9-1.6,1.6-2.6,2.1c-3.5,1.3-7.3,0.9-10.5-1
	c-1.6-1.2-2.7-3-2.9-5.1h5.8c0,0.8,0.4,1.5,1.1,2c0.7,0.5,1.6,0.7,2.4,0.7c0.6,0,1.1-0.1,1.6-0.5c0.4-0.3,0.6-0.8,0.5-1.2
	c0-0.7-0.4-1.2-1-1.5c-1-0.4-2.1-0.7-3.2-0.9c-1.2-0.2-2.4-0.6-3.6-1c-0.9-0.4-1.8-0.9-2.4-1.7c-0.7-0.9-1.1-2.1-1-3.2
	c0-1.7,0.7-3.3,2-4.3c1.6-1.2,3.7-1.8,5.7-1.7c2.2-0.1,4.3,0.6,6,1.9c1.5,1.3,2.5,3,2.8,4.9H178c-0.1-0.8-0.5-1.4-1.1-1.9
	c-0.6-0.5-1.4-0.7-2.2-0.7c-0.6,0-1.1,0.1-1.6,0.4c-0.4,0.3-0.6,0.8-0.5,1.2c0,0.6,0.4,1.2,1,1.4c1,0.4,2,0.7,3.1,0.9
	c1.3,0.3,2.5,0.6,3.7,1.1c1,0.4,1.8,1,2.5,1.8c0.7,0.9,1.1,2.1,1.1,3.3C183.9,106.6,183.6,107.6,183,108.5L183,108.5z"/>
<path class="st1" d="M155.8,106c1.2,0,2.3-0.4,3.1-1.3c1.6-2.1,1.6-5,0-7.1c-0.8-0.9-2-1.3-3.1-1.3c-1.2,0-2.3,0.4-3.1,1.3
	c-1.6,2.1-1.6,4.9,0,7C153.4,105.5,154.6,106,155.8,106z"/>
</svg>
