<?xml version="1.0" encoding="utf-8"?>
<!-- Generator: Adobe Illustrator 22.0.1, SVG Export Plug-In . SVG Version: 6.00 Build 0)  -->
<svg version="1.1" id="Layer_1" xmlns="http://www.w3.org/2000/svg" xmlns:xlink="http://www.w3.org/1999/xlink" x="0px" y="0px"
	 viewBox="0 0 179 42.4" style="enable-background:new 0 0 179 42.4;" xml:space="preserve">
<style type="text/css">
	.st0{fill:#FFFFFF;}
	.st1{fill:#80C7CE;}
	.st2{fill:#F1C781;}
</style>
<g>
	<g>
		<g>
			<path class="st0" d="M52,22.1h-1.5V6.4c0.6-0.2,1.1-0.3,1.7-0.4c0.9-0.2,1.7-0.2,2.6-0.2c0.8,0,1.6,0.1,2.4,0.4
				c0.7,0.3,1.3,0.7,1.8,1.2c0.5,0.6,0.9,1.2,1.2,2c0.3,0.8,0.4,1.7,0.4,2.6c0,0.8-0.1,1.7-0.4,2.5c-0.2,0.7-0.6,1.4-1,2
				c-0.5,0.5-1,1-1.7,1.3c-0.7,0.3-1.5,0.5-2.3,0.5c-0.7,0-1.4-0.1-2-0.3c-0.4-0.2-0.9-0.4-1.3-0.6L52,22.1z M52,15.7
				c0.2,0.1,0.3,0.2,0.5,0.3c0.2,0.1,0.5,0.3,0.7,0.3c0.3,0.1,0.6,0.2,0.9,0.3c0.3,0.1,0.7,0.1,1,0.1c0.6,0,1.3-0.1,1.9-0.4
				c0.5-0.2,0.9-0.6,1.2-1c0.3-0.5,0.5-1,0.7-1.5c0.1-0.6,0.2-1.2,0.2-1.9c0-1.6-0.4-2.8-1.2-3.6c-0.8-0.8-1.9-1.3-3.1-1.3
				c-0.6,0-1.2,0-1.8,0.1c-0.3,0-0.7,0.1-1,0.2L52,15.7z"/>
			<path class="st0" d="M67.1,18.1c-0.5-0.9-1-1.9-1.4-2.9c-0.5-1-0.9-2-1.3-3.1c-0.4-1-0.8-2.1-1.1-3.1s-0.6-2.1-0.9-3.1H64
				c0.2,0.7,0.4,1.5,0.6,2.4c0.3,0.9,0.6,1.7,0.9,2.6s0.7,1.8,1.1,2.8c0.4,0.9,0.8,1.9,1.3,2.8c0.3-0.9,0.6-1.8,0.9-2.7
				c0.3-0.8,0.5-1.7,0.7-2.5c0.2-0.8,0.4-1.7,0.6-2.6c0.2-0.9,0.4-1.8,0.6-2.8h1.5c-0.5,2.2-1.1,4.4-1.7,6.5c-0.6,2-1.3,3.9-2,5.8
				c-0.3,0.6-0.6,1.2-0.9,1.8c-0.3,0.5-0.6,0.9-1,1.2c-0.4,0.3-0.8,0.6-1.3,0.7c-0.6,0.2-1.2,0.2-1.8,0.2c-0.4,0-0.7,0-1-0.1
				c-0.2-0.1-0.4-0.1-0.6-0.2l0.3-1.2c0.2,0.1,0.3,0.2,0.5,0.2c0.3,0.1,0.6,0.1,0.9,0.1c0.4,0,0.8,0,1.2-0.1
				c0.3-0.1,0.7-0.3,0.9-0.5c0.3-0.2,0.5-0.5,0.7-0.8C66.7,19,67,18.6,67.1,18.1z"/>
			<path class="st0" d="M76.2,5.9h4.7v1.3h-4.7v6.3c0,0.6,0,1.1,0.2,1.6c0.1,0.4,0.3,0.7,0.5,1c0.2,0.2,0.5,0.4,0.8,0.5
				c0.3,0.1,0.7,0.1,1,0.1c0.5,0,1-0.1,1.5-0.2c0.3-0.1,0.6-0.2,0.9-0.4l0.4,1.2c-0.4,0.2-0.7,0.4-1.1,0.5c-0.6,0.2-1.2,0.3-1.7,0.3
				c-0.6,0-1.3-0.1-1.9-0.3c-0.5-0.2-0.9-0.5-1.2-0.9c-0.3-0.4-0.5-0.9-0.6-1.5c-0.1-0.7-0.2-1.4-0.2-2.1V2.5l1.5-0.3V5.9z"/>
			<path class="st0" d="M83.7,17.8V0.3L85.2,0v6.3c0.5-0.2,1-0.3,1.5-0.4c0.5-0.1,1-0.1,1.5-0.2c0.8,0,1.6,0.1,2.3,0.4
				c0.6,0.2,1.1,0.6,1.5,1.1c0.4,0.5,0.6,1.1,0.8,1.7c0.2,0.7,0.2,1.5,0.2,2.2v6.6h-1.5v-6.2c0-0.7,0-1.4-0.2-2.1
				c-0.1-0.5-0.3-1-0.6-1.4c-0.3-0.4-0.6-0.6-1.1-0.8c-0.5-0.2-1.1-0.3-1.7-0.2c-0.3,0-0.6,0-0.8,0.1c-0.3,0-0.6,0.1-0.8,0.2
				c-0.3,0.1-0.5,0.1-0.7,0.2c-0.1,0-0.3,0.1-0.4,0.1v10.2H83.7z"/>
			<path class="st0" d="M106.9,11.9c0,0.9-0.1,1.7-0.4,2.6c-0.2,0.7-0.6,1.4-1.1,2c-0.5,0.5-1.1,1-1.7,1.3c-1.4,0.6-3,0.6-4.4,0
				c-0.7-0.3-1.2-0.7-1.7-1.3c-0.5-0.6-0.9-1.2-1.1-2c-0.3-0.8-0.4-1.7-0.4-2.6c0-0.9,0.1-1.7,0.4-2.6c0.2-0.7,0.6-1.4,1.1-2
				c0.5-0.5,1.1-1,1.7-1.3c1.4-0.6,3-0.6,4.4,0c0.7,0.3,1.2,0.7,1.7,1.3c0.5,0.6,0.9,1.3,1.1,2C106.8,10.2,106.9,11,106.9,11.9z
				 M105.3,11.9c0-1.5-0.3-2.7-1-3.6c-1.3-1.5-3.6-1.8-5.1-0.5C99,8,98.8,8.1,98.7,8.3c-0.7,0.9-1,2.1-1,3.6s0.3,2.7,1,3.6
				c1.3,1.5,3.6,1.8,5.1,0.5c0.2-0.1,0.3-0.3,0.5-0.5C105,14.6,105.3,13.4,105.3,11.9z"/>
			<path class="st0" d="M110.1,6.4c0.4-0.1,1-0.3,1.8-0.4c0.9-0.2,1.8-0.2,2.8-0.2c0.8,0,1.5,0.1,2.3,0.4c0.6,0.2,1.1,0.6,1.4,1.1
				c0.4,0.5,0.6,1.1,0.8,1.7c0.2,0.7,0.2,1.5,0.2,2.2v6.6h-1.5v-6.2c0-0.7,0-1.4-0.2-2.1c-0.1-0.5-0.3-1-0.6-1.4
				c-0.3-0.4-0.6-0.6-1.1-0.8c-0.5-0.2-1.1-0.3-1.6-0.2c-0.6,0-1.2,0-1.8,0.1c-0.3,0-0.7,0.1-1,0.2v10.4h-1.5V6.4z"/>
		</g>
		<g>
			<path class="st0" d="M50.4,26.9h6.2c0.7,0,1.4,0.2,2,0.5c0.6,0.3,1.1,0.8,1.4,1.4c0.4,0.6,0.5,1.3,0.5,1.9c0,0.7-0.2,1.4-0.6,2
				c-0.4,0.6-0.9,1.1-1.6,1.4c0.5,0.2,1.1,0.5,1.5,0.9c0.4,0.4,0.8,0.9,1,1.5c0.3,0.5,0.4,1.1,0.4,1.7c0,0.7-0.2,1.3-0.5,1.9
				c-0.3,0.6-0.8,1.1-1.4,1.5c-0.6,0.4-1.2,0.6-1.9,0.6h-7c-0.2,0-0.3-0.1-0.3-0.3V27.2C50.1,27,50.2,26.9,50.4,26.9
				C50.4,26.9,50.4,26.9,50.4,26.9z M50.7,34h5.9c0.6,0,1.2-0.1,1.7-0.4c0.5-0.3,0.9-0.7,1.2-1.2c0.3-0.5,0.5-1.1,0.5-1.6
				c0-0.6-0.2-1.2-0.5-1.6c-0.3-0.5-0.7-0.9-1.2-1.2c-0.5-0.3-1.1-0.4-1.7-0.4h-5.9V34z M50.7,41.6h6.8c0.6,0,1.3-0.2,1.8-0.6
				c0.5-0.4,0.8-0.8,1.1-1.4c0.2-0.5,0.3-0.9,0.3-1.5c0-0.7-0.2-1.3-0.5-1.9c-0.3-0.5-0.8-1-1.3-1.3c-0.4-0.3-1-0.4-1.5-0.5h-6.6
				V41.6z"/>
			<path class="st0" d="M69.9,36.4h-5.5v5.5c0,0.2-0.1,0.3-0.3,0.3l0,0c-0.2,0-0.3-0.1-0.3-0.3V27.2c0-0.1,0.1-0.3,0.2-0.3
				c0,0,0.1,0,0.1,0h5.8c0.8,0,1.7,0.2,2.4,0.6c0.7,0.4,1.3,1,1.7,1.7c0.4,0.7,0.6,1.5,0.6,2.4c0,0.9-0.3,1.8-0.8,2.6
				c-0.5,0.8-1.2,1.4-2,1.7l2.4,5.8c0,0,0,0.1,0,0.1c0,0.1,0,0.2-0.1,0.2c-0.1,0.1-0.1,0.1-0.2,0.1h0c-0.1,0-0.1,0-0.2,0
				c-0.1,0-0.1-0.1-0.1-0.2l-2.4-5.8C70.9,36.3,70.4,36.4,69.9,36.4z M64.4,35.8h5.5c0.7,0,1.5-0.2,2.1-0.6c0.6-0.4,1.1-0.9,1.5-1.5
				c0.4-0.6,0.6-1.4,0.5-2.1c0-0.7-0.2-1.5-0.5-2.1c-0.4-0.6-0.9-1.2-1.5-1.5c-0.6-0.4-1.4-0.6-2.1-0.6h-5.5V35.8z"/>
			<path class="st0" d="M83.1,26.9L83.1,26.9c0.1,0,0.1,0,0.2,0c0.1,0,0.1,0.1,0.1,0.2l6.1,14.6c0,0,0,0.1,0,0.1
				c0,0.1,0,0.2-0.1,0.2c-0.1,0.1-0.1,0.1-0.2,0.1h0c-0.1,0-0.2-0.1-0.2-0.2l-1.7-4.1H79L77.2,42c-0.1,0.1-0.1,0.2-0.2,0.2h0
				c-0.1,0-0.2,0-0.2-0.1c-0.1,0-0.1-0.1-0.1-0.2c0-0.1,0-0.1,0-0.2l6.1-14.6C82.9,27,83,26.9,83.1,26.9z M87,37.2l-3.9-9.4
				l-3.9,9.4H87z"/>
			<path class="st0" d="M90.9,39.8c0-0.1,0-0.1,0.1-0.2l0,0c0,0,0.1,0,0.2,0c0.1,0,0.2,0.1,0.3,0.2c0.5,0.7,1.2,1.2,2,1.6
				c0.9,0.4,1.9,0.6,2.9,0.5c0.9,0,1.8-0.1,2.6-0.4c0.7-0.2,1.3-0.7,1.8-1.2c0.5-0.6,0.7-1.4,0.7-2.2c0-0.7-0.3-1.4-0.8-1.8
				c-0.5-0.4-1.1-0.8-1.8-1c-0.7-0.2-1.5-0.4-2.5-0.6c-1-0.2-2-0.4-2.9-0.8c-0.7-0.3-1.2-0.7-1.7-1.2c-0.4-0.5-0.6-1.2-0.6-1.8
				c0-0.8,0.2-1.5,0.7-2.2c0.5-0.6,1.1-1.1,1.9-1.4c0.9-0.3,1.9-0.5,2.9-0.5c0.9,0,1.7,0.1,2.5,0.4c0.8,0.3,1.5,0.8,2.1,1.4
				c0.1,0.1,0.1,0.1,0.1,0.2c0,0.1,0,0.1-0.1,0.2l0,0c-0.1,0-0.1,0.1-0.2,0.1c-0.1,0-0.1,0-0.2-0.1c-0.1,0-0.1-0.1-0.2-0.2
				c-0.4-0.3-0.8-0.6-1.2-0.8c-0.4-0.2-0.8-0.4-1.2-0.4c-0.6-0.1-1.1-0.2-1.7-0.1c-0.8,0-1.6,0.1-2.3,0.3c-0.7,0.2-1.3,0.6-1.8,1.1
				c-0.5,0.5-0.7,1.3-0.7,2c0,0.9,0.5,1.7,1.3,2.2c1.1,0.6,2.2,1,3.4,1.2c0.9,0.2,1.9,0.4,2.8,0.7c0.7,0.2,1.4,0.6,1.9,1.1
				c0.6,0.6,0.9,1.3,0.8,2.1c0,0.9-0.2,1.7-0.7,2.4c-0.5,0.7-1.2,1.2-2,1.5c-0.9,0.3-1.9,0.5-2.9,0.5c-1,0-2-0.2-3-0.5
				c-0.9-0.4-1.7-1-2.3-1.8C90.9,40,90.9,39.9,90.9,39.8z"/>
			<path class="st0" d="M105.1,27c0.1-0.1,0.1-0.1,0.2-0.1l0,0c0.2,0,0.3,0.1,0.3,0.3v14.6c0,0.2-0.1,0.4-0.3,0.4l0,0
				c-0.1,0-0.2,0-0.2-0.1c-0.1-0.1-0.1-0.2-0.1-0.3V27.2C105,27.1,105,27.1,105.1,27z"/>
			<path class="st0" d="M109.9,26.9L109.9,26.9c0.2,0,0.3,0.1,0.3,0.3v14.3h8.8c0.2,0,0.4,0.1,0.4,0.3l0,0c0,0.1,0,0.2-0.1,0.2
				c-0.1,0.1-0.2,0.1-0.3,0.1h-9.1c-0.2,0-0.3-0.1-0.3-0.3V27.2C109.6,27,109.7,26.9,109.9,26.9z"/>
		</g>
	</g>
	<g>
		<path class="st0" d="M126.7,0h5.9c0.2,0,0.4,0.1,0.5,0.2c0.1,0.1,0.2,0.3,0.2,0.5l0,0c0,0.2-0.1,0.3-0.2,0.4
			c-0.1,0.1-0.3,0.2-0.5,0.2h-5.2v39.8h5.2c0.2,0,0.4,0.1,0.5,0.2c0.1,0.1,0.2,0.3,0.2,0.5l0,0c0,0.2-0.1,0.3-0.2,0.4
			c-0.1,0.1-0.3,0.2-0.5,0.2h-5.9c-0.4,0-0.6-0.3-0.6-0.6c0,0,0,0,0,0V0.5C126.2,0.2,126.4,0,126.7,0z"/>
		<path class="st0" d="M140,4c0.1,0.1,0.2,0.3,0.2,0.5v32.7c0,0.5-0.2,0.7-0.7,0.7l0,0c-0.2,0-0.3-0.1-0.5-0.2
			c-0.1-0.2-0.2-0.3-0.2-0.5V5.6l-3.6,1.5c-0.1,0.1-0.3,0.1-0.4,0.1c-0.3,0-0.5-0.2-0.6-0.4V6.7l0-0.2c0-0.1,0.1-0.3,0.2-0.4
			c0.1-0.1,0.3-0.2,0.4-0.2l4.1-1.8l0.3-0.1c0.1-0.1,0.3-0.1,0.4-0.1h0.1C139.8,3.9,139.9,4,140,4z"/>
		<path class="st0" d="M146.5,31.2c-0.1-0.1-0.2-0.3-0.2-0.4c0-0.2,0.1-0.5,0.2-0.7l17.5-25.7l0.2-0.2c0.1-0.1,0.2-0.2,0.3-0.3
			c0.1-0.1,0.2-0.1,0.3-0.1h0.1c0.1,0,0.3,0.1,0.4,0.2c0.1,0.1,0.1,0.3,0.1,0.4V30h2.9c0.5,0,0.7,0.2,0.7,0.6v0.1
			c0,0.5-0.2,0.7-0.7,0.7h-2.9v5.8c0,0.2,0,0.4-0.2,0.6c-0.1,0.1-0.3,0.2-0.5,0.2h0c-0.2,0-0.4-0.1-0.5-0.2
			c-0.1-0.2-0.1-0.4-0.1-0.6v-5.8H147C146.8,31.4,146.6,31.3,146.5,31.2z M164.2,6.7l-16,23.3h16L164.2,6.7z"/>
		<path class="st0" d="M178.8,42.2c-0.1,0.1-0.3,0.2-0.4,0.2h-5.9c-0.2,0-0.4-0.1-0.5-0.2c-0.1-0.1-0.2-0.3-0.2-0.4l0,0
			c0-0.2,0.1-0.4,0.2-0.5c0.1-0.1,0.3-0.2,0.5-0.2h5.2V1.3h-5.2c-0.2,0-0.4-0.1-0.5-0.2c-0.1-0.1-0.2-0.3-0.2-0.4l0,0
			c0-0.2,0.1-0.4,0.2-0.5c0.1-0.1,0.3-0.2,0.5-0.2h5.9c0.3,0,0.6,0.2,0.6,0.5c0,0,0,0,0,0.1v41.2C179,41.9,178.9,42.1,178.8,42.2z"
			/>
	</g>
	<g>
		<path class="st1" d="M9.4,31.5c-1.4,0.1-2.9,0.1-4.3,0c-1.8-0.2-2.9-1.3-3.6-2.9c-0.9-1.9-1.2-4-1.4-6.1c-0.1-2.1,0.1-4.2,0.7-6.3
			c0.8-3.1,3.1-4.9,6.4-4.9c4.1,0,8.2,0,12.3,0h1v-1.2h-10c0.1-2.1,0.1-4.1,0.4-6.1c0.2-1.2,1.2-2,2.4-2.3c1.4-0.4,2.9-0.7,4.4-0.9
			c2.8-0.3,5.5-0.2,8.3,0.4C29,2,30.6,4,30.6,7c0,2.8,0,5.6,0,8.4c0.1,3.1-2.3,5.6-5.5,5.5c-3-0.1-6,0-9,0c-4,0-6.7,2.7-6.7,6.7
			C9.4,28.9,9.4,30.2,9.4,31.5z M15,3.9c-1,0-1.8,0.9-1.8,1.9c0,1,0.9,1.8,1.9,1.8s1.8-0.9,1.8-1.9C16.9,4.7,16,3.8,15,3.9L15,3.9z"
			/>
		<path class="st2" d="M31.8,11.6c1.4-0.1,2.9-0.1,4.3,0c1.8,0.2,2.9,1.3,3.6,2.9c0.9,1.9,1.2,4,1.4,6.1c0.1,2.1-0.1,4.2-0.7,6.3
			c-0.8,3.1-3.1,4.9-6.4,4.9c-4.1,0-8.2,0-12.3,0h-1V33h10c-0.1,2.1-0.1,4.1-0.4,6.1c-0.2,1.2-1.2,2-2.4,2.3
			c-1.4,0.4-2.9,0.7-4.4,0.9c-2.8,0.3-5.5,0.2-8.3-0.4c-3-0.7-4.6-2.7-4.6-5.7c0-2.8,0-5.6,0-8.4c-0.1-3.1,2.3-5.6,5.5-5.5
			c3,0.1,6,0,9,0c4,0,6.7-2.7,6.7-6.7C31.8,14.3,31.8,13,31.8,11.6z M26.3,39.3c1,0,1.8-0.9,1.8-1.9c0-1-0.9-1.8-1.9-1.8
			c-1,0-1.8,0.9-1.8,1.9C24.4,38.5,25.2,39.3,26.3,39.3z"/>
	</g>
</g>
</svg>
