<svg id="Layer_1" data-name="Layer 1" xmlns="http://www.w3.org/2000/svg" viewBox="0 0 389.31 75.28"><defs><style>.cls-1{fill:#4767ab;}.cls-2{fill:none;}</style></defs><title>logo-facebook</title><path class="cls-1" d="M30.46,11.71c-4.59,0-5.91,2-5.91,6.52v7.44H36.77l-1.22,12h-11V74.16H9.88V37.69H0v-12H9.88V18.44C9.88,6.32,14.77-.1,28.42-.1A68.16,68.16,0,0,1,37,.41v11.3Z"/><path class="cls-1" d="M37.79,48.39c0-13.55,6.42-23.74,19.86-23.74,7.34,0,11.82,3.77,14,8.46V25.67H85.67V74.16H71.61V66.83c-2,4.68-6.62,8.35-14,8.35C44.21,75.18,37.79,65,37.79,51.44Zm14.67,3.26c0,7.23,2.65,12,9.47,12,6,0,9.07-4.38,9.07-11.31V47.47c0-6.93-3.06-11.31-9.07-11.31-6.82,0-9.47,4.79-9.47,12Z"/><path class="cls-1" d="M116.22,24.65c5.71,0,11.11,1.22,14.06,3.26L127,38.3a23.1,23.1,0,0,0-9.78-2.24c-7.94,0-11.41,4.59-11.41,12.43v2.85c0,7.85,3.47,12.43,11.41,12.43A23.1,23.1,0,0,0,127,61.53l3.26,10.39c-3,2-8.35,3.26-14.06,3.26C99,75.18,91.16,65.91,91.16,51V48.79C91.16,33.92,99,24.65,116.22,24.65Z"/><path class="cls-1" d="M132.21,51.75V47.47c0-13.75,7.85-22.82,23.84-22.82,15.08,0,21.7,9.17,21.7,22.62V55H146.88c.31,6.62,3.26,9.57,11.41,9.57a41.75,41.75,0,0,0,15.59-2.95l2.65,10.08c-3.87,2-11.82,3.57-18.85,3.57C139.14,75.28,132.21,66,132.21,51.75Zm14.67-6.32h17.73V44.21c0-5.3-2.14-9.47-8.56-9.47C149.43,34.74,146.88,38.91,146.88,45.43Z"/><path class="cls-1" d="M232.14,51.44c0,13.55-6.52,23.74-20,23.74-7.34,0-12.43-3.67-14.47-8.35v7.33H183.86V1.32L198.53,0V32.39c2.14-4.27,6.82-7.74,13.65-7.74,13.44,0,20,10.19,20,23.74Zm-14.67-3.36c0-6.82-2.64-11.92-9.67-11.92-6,0-9.27,4.28-9.27,11.21v5.09c0,6.93,3.26,11.21,9.27,11.21,7,0,9.67-5.1,9.67-11.92Z"/><path class="cls-1" d="M237,51.14V48.69c0-13.95,7.95-24,24.14-24s24.15,10.09,24.15,24v2.45c0,14-7.95,24-24.15,24S237,65.09,237,51.14Zm33.62-3.47c0-6.41-2.65-11.51-9.48-11.51s-9.47,5.1-9.47,11.51v4.49c0,6.41,2.65,11.51,9.47,11.51s9.48-5.1,9.48-11.51Z"/><path class="cls-1" d="M290.2,51.14V48.69c0-13.95,7.95-24,24.14-24s24.15,10.09,24.15,24v2.45c0,14-7.95,24-24.15,24S290.2,65.09,290.2,51.14Zm33.62-3.47c0-6.41-2.65-11.51-9.48-11.51s-9.47,5.1-9.47,11.51v4.49c0,6.41,2.65,11.51,9.47,11.51s9.48-5.1,9.48-11.51Z"/><path class="cls-1" d="M358.65,48.79l14.47-23.12H388.7L373.52,49.61l15.79,24.55H373.73L358.65,50.42V74.16H344V1.32L358.65,0Z"/><rect class="cls-2" x="-48.49" y="-48.49" width="486.29" height="171.14"/></svg>