<?xml version="1.0" encoding="utf-8"?>
<!-- Generator: Adobe Illustrator 22.1.0, SVG Export Plug-In . SVG Version: 6.00 Build 0)  -->
<svg version="1.1" id="Layer_2" xmlns="http://www.w3.org/2000/svg" xmlns:xlink="http://www.w3.org/1999/xlink" x="0px" y="0px"
	 viewBox="0 0 280.5 207.4" style="enable-background:new 0 0 280.5 207.4;" xml:space="preserve">
<style type="text/css">
	.st0{fill:#006DB7;}
</style>
<g>
	<path class="st0" d="M229.3,95l9.7-45.9h34.4l-1.8,8.8h-21.8l-2,9.6h20.6l-1.9,8.8h-20.6l-2,9.8h22.3l-1.9,8.9H229.3z M7.4,79.8
		h12.5c-0.2,0.8-0.3,1.5-0.3,2.1c0,3.3,2.1,4.9,6.3,4.9c4.4,0,7-1.7,7.8-5.1c0.1-0.4,0.1-0.8,0.1-1.2c0-1.5-1-2.6-3.1-3.2l-10.4-2.9
		c-5.9-1.6-8.8-4.8-8.8-9.4c0-0.9,0.1-1.9,0.3-2.9c0.9-4,3-7.3,6.5-9.8c3.9-2.9,9.1-4.3,15.4-4.3c10.5,0,15.8,3.4,15.8,10.2
		c0,1.1-0.2,2.5-0.5,4.1H36.5c0.2-0.8,0.3-1.5,0.3-2.1c0-2.8-1.6-4.1-4.9-4.1c-1.8,0-3.3,0.4-4.6,1.3c-1.3,0.9-2.1,2-2.3,3.4
		c-0.1,0.4-0.1,0.7-0.1,1.1c0,1.7,1.2,2.9,3.7,3.6l7.9,2.2c3.4,1,5.8,1.9,7.2,2.9c2.3,1.6,3.5,3.9,3.5,6.9c0,1-0.1,2.1-0.4,3.3
		c-1,4.8-3.7,8.5-8,11.1c-4,2.3-8.9,3.5-14.9,3.5c-7.7,0-12.7-1.8-15.2-5.4C7.6,88.1,7,86,7,83.6C7,82.6,7.1,81.3,7.4,79.8z
		 M197.7,77.3h12.8L208.6,58h-0.2L197.7,77.3z M174.6,95l28.6-46H219l8.6,46h-14.7l-1.2-9.2h-18.8l-5.2,9.2H174.6z M154.7,57.5
		l-2.4,11.3h4.8c2.7,0,4.5-0.1,5.3-0.4c2.4-0.7,3.9-2.5,4.4-5.2c0.1-0.6,0.2-1.1,0.2-1.6c0-1.8-0.8-3-2.5-3.6
		c-1-0.3-2.7-0.5-5.1-0.5H154.7z M134.1,95l9.7-46h21.2c3.6,0,6,0.1,7.2,0.3c2.9,0.4,4.9,1.4,6.2,3.1c1.1,1.4,1.7,3.2,1.7,5.4
		c0,1.1-0.1,2.3-0.4,3.5c-0.8,4-2.8,6.8-6,8.5c-2.1,1.1-4.6,1.9-7.5,2.4l-0.1,0.3c3.3,0.1,5.5,0.7,6.7,2c1,1,1.5,2.7,1.5,5.2
		c0,0.8-0.1,2.2-0.2,4.1c-0.4,5.7-0.5,9.5-0.3,11.3h-13.8c-0.1-1.7,0.1-5.2,0.7-10.4c0.2-1.8,0.3-3.1,0.3-3.8c0-1.4-0.4-2.4-1-3
		c-0.7-0.6-2.1-0.9-4.1-0.9h-5.3l-3.8,18H134.1z M109.6,57.3l-2.2,10.2h6c2.2,0,3.8-0.2,4.6-0.6c1.8-0.9,2.9-2.4,3.3-4.5
		c0.4-1.8,0.1-3.1-0.9-4.1c-0.8-0.7-2.1-1.1-3.9-1.1H109.6z M105.7,75.7l-2.3,10.9h7c4.4,0,6.9-1.8,7.7-5.4c0.1-0.6,0.2-1.1,0.2-1.5
		c0-2.7-2-4-6-4H105.7z M89.3,95L99,49h18.4c3.9,0,6.7,0.1,8.4,0.4c2.9,0.6,5.1,1.7,6.7,3.3c1.4,1.5,2.1,3.4,2.1,5.5
		c0,0.8-0.1,1.6-0.3,2.4c-1.1,5.3-5.1,8.8-12,10.5l-0.1,0.1c6,1.1,9,4,9,8.5c0,2.9-0.8,5.5-2.4,7.9c-1.6,2.4-3.8,4.2-6.4,5.5
		c-2.7,1.3-7,1.9-12.8,1.9H89.3z M101.1,40l3.4-15.7l84.2,0.4l-3.8,15.5L101.1,40z M106.5,15.7L109.9,0l84.2,0.4l-3.8,15.5
		L106.5,15.7z M78.3,143.7l3.4-15.7l84.2,0.4l-3.8,15.5L78.3,143.7z M83.8,119.4l3.4-15.7l84.2,0.4l-3.8,15.5L83.8,119.4z M49.5,95
		l9.7-45.9h34.4l-1.8,8.8H69.9l-2,9.6h20.6l-1.9,8.8H66l-2,9.8h22.3L84.4,95H49.5z"/>
	<g>
		<path class="st0" d="M7.5,170.4c0.2-0.9,0.3-1.5,0.2-1.8c-0.1-0.3-0.4-0.5-0.9-0.5c-0.3,0-0.6,0.1-0.9,0.3
			c-0.3,0.2-0.4,0.5-0.5,0.8c-0.2,0.6-0.2,1-0.1,1.4c0.1,0.3,0.3,0.6,0.6,0.9l1,0.7c1,0.7,1.6,1.3,1.8,1.9c0.1,0.3,0.2,0.7,0.2,1
			c0,0.4-0.1,0.9-0.2,1.4c-0.4,1.3-1,2.2-1.8,2.7c-0.8,0.6-1.9,0.8-3.4,0.8c-1.5,0-2.5-0.4-3-1.1c-0.3-0.4-0.4-0.9-0.4-1.6
			c0-0.5,0.1-1.2,0.3-1.9h2.8c-0.2,0.9-0.3,1.5-0.2,1.9c0.1,0.4,0.5,0.6,1,0.6c0.4,0,0.7-0.1,1-0.4c0.3-0.3,0.6-0.6,0.7-1.1
			c0.2-0.5,0.2-1,0.1-1.3c-0.1-0.4-0.4-0.7-0.8-1l-1-0.7c-0.9-0.6-1.4-1.2-1.7-1.8c-0.1-0.3-0.2-0.6-0.2-1c0-0.4,0.1-0.9,0.2-1.4
			c0.3-1.2,0.9-2,1.7-2.6c0.8-0.5,1.9-0.8,3.3-0.8c1.4,0,2.4,0.4,2.9,1.1c0.3,0.4,0.4,0.9,0.4,1.5c0,0.5-0.1,1.1-0.3,1.8H7.5z"/>
		<path class="st0" d="M13.2,180.2c-1.2,0-2.1-0.3-2.5-1c-0.3-0.4-0.4-0.9-0.4-1.4c0-0.4,0.1-0.8,0.2-1.3l0.4-1.2
			c0.6-1.9,1.2-3.2,1.8-3.9c0.7-0.7,1.6-1.1,2.8-1.1h-0.1c1.3,0,2.2,0.3,2.6,1c0.3,0.4,0.4,0.8,0.4,1.4c0,0.5-0.1,1-0.3,1.6
			l-0.5,1.6h-4.4l-0.2,0.7c-0.2,0.8-0.3,1.4-0.3,1.6c0.1,0.3,0.3,0.4,0.7,0.4c0.3,0,0.5-0.1,0.7-0.4c0.2-0.3,0.4-0.7,0.6-1.3h2.5
			c-0.3,1.2-0.8,2.1-1.4,2.7C15.2,179.9,14.4,180.2,13.2,180.2z M15.6,174.2L15.6,174.2c0.3-0.9,0.4-1.5,0.3-1.8
			c0-0.3-0.2-0.4-0.6-0.4c-0.4,0-0.7,0.1-0.9,0.4c-0.2,0.3-0.4,0.8-0.7,1.7l0,0.1H15.6z"/>
		<path class="st0" d="M20.9,170.5h1.2h1.2l-0.3,1.2c0.9-0.9,1.8-1.4,2.8-1.4l0.3,0l-0.8,2.7c-0.1-0.1-0.3-0.1-0.5-0.1
			c-0.8,0-1.4,0.2-1.8,0.7c-0.4,0.4-0.8,1.2-1.1,2.4l-1.2,4.1h-1.3h-1.3L20.9,170.5z"/>
		<path class="st0" d="M26.9,170.5h1.3h1.3l-0.6,6.8h0l3.3-6.8h1.3h1.3l-5.1,9.5H28h-1.6L26.9,170.5z"/>
		<path class="st0" d="M36.3,170.5h1.3H39l-2.8,9.5h-1.3h-1.3L36.3,170.5z M37.6,166.3h2.6l-0.7,2.3h-2.6L37.6,166.3z"/>
		<path class="st0" d="M38.5,183.9l1.9-2.9h2l-1.4,2.9H38.5z M45.8,176.6c-0.3,1.3-0.8,2.3-1.5,2.8c-0.6,0.6-1.5,0.8-2.6,0.8
			c-1.2,0-2.1-0.3-2.5-1c-0.2-0.3-0.3-0.8-0.3-1.3c0-0.5,0.1-1.1,0.3-1.8l0.5-1.7c0.5-1.6,1-2.7,1.6-3.2c0.6-0.6,1.5-0.9,2.7-0.9
			c1.2,0,2,0.3,2.4,0.9c0.2,0.3,0.3,0.7,0.3,1.2c0,0.5-0.1,1-0.3,1.7h-2.5c0.2-0.8,0.3-1.3,0.3-1.6c0-0.3-0.3-0.4-0.6-0.4
			c-0.3,0-0.5,0.2-0.7,0.7c-0.2,0.4-0.5,1.4-0.9,2.7l-0.5,1.7c-0.1,0.5-0.2,0.9-0.1,1.1c0.1,0.2,0.2,0.4,0.5,0.4
			c0.2,0,0.4-0.2,0.7-0.5c0.2-0.3,0.4-0.8,0.7-1.5H45.8z"/>
		<path class="st0" d="M47.4,179.2c-0.3-0.4-0.4-0.9-0.4-1.4c0-0.4,0.1-0.9,0.2-1.4l0.6-2.2c0.4-1.5,1-2.5,1.6-3.1
			c0.7-0.6,1.6-0.8,2.9-0.8c1.3,0,2.1,0.3,2.6,0.9c0.2,0.3,0.3,0.8,0.3,1.3c0,0.5-0.1,1-0.3,1.6l-0.6,2.2c-0.4,1.5-1,2.5-1.6,3
			c-0.6,0.5-1.6,0.8-2.9,0.8C48.7,180.2,47.8,179.9,47.4,179.2z M51.1,178.1c0.2-0.3,0.4-0.9,0.6-1.7l0.6-2.2
			c0.3-0.9,0.4-1.4,0.3-1.7c0-0.3-0.3-0.4-0.7-0.4c-0.4,0-0.6,0.1-0.8,0.4c-0.2,0.3-0.4,0.9-0.6,1.7l-0.6,2.2
			c-0.3,0.9-0.4,1.4-0.3,1.7c0.1,0.3,0.3,0.4,0.8,0.4C50.7,178.5,50.9,178.4,51.1,178.1z"/>
		<path class="st0" d="M62,180.2c-0.8,0-1.4-0.3-1.7-1c-0.1-0.3-0.2-0.6-0.2-1c0-0.5,0.1-1.1,0.3-1.8l0.6-2.2
			c0.4-1.3,0.8-2.3,1.4-2.9c0.5-0.6,1.1-0.9,1.8-0.9c0.9,0,1.6,0.3,2.1,0.9l0.1,0.1l1.4-5h1.3h1.3l-4,13.7h-1.2h-1.2l0.3-0.9
			l-0.3,0.3C63.5,179.9,62.8,180.2,62,180.2z M65.2,172c-0.3,0-0.6,0.2-0.9,0.4c-0.3,0.3-0.5,0.8-0.7,1.4l-0.8,2.9
			c-0.2,0.6-0.2,1-0.1,1.3c0.1,0.3,0.3,0.5,0.6,0.5c0.3,0,0.6-0.1,0.8-0.4c0.2-0.3,0.5-0.8,0.7-1.5l0.9-3.2c0.1-0.5,0.2-0.8,0.1-1.1
			C65.7,172.1,65.5,172,65.2,172z"/>
		<path class="st0" d="M71.9,180.2c-1.2,0-2.1-0.3-2.5-1c-0.3-0.4-0.4-0.9-0.4-1.4c0-0.4,0.1-0.8,0.2-1.3l0.3-1.2
			c0.6-1.9,1.2-3.2,1.8-3.9c0.7-0.7,1.6-1.1,2.8-1.1h0c1.3,0,2.2,0.3,2.6,1c0.2,0.4,0.4,0.8,0.4,1.4c0,0.5-0.1,1-0.2,1.6l-0.5,1.6
			H72l-0.2,0.7c-0.2,0.8-0.3,1.4-0.3,1.6c0.1,0.3,0.3,0.4,0.7,0.4c0.2,0,0.5-0.1,0.7-0.4c0.2-0.3,0.4-0.7,0.6-1.3H76
			c-0.3,1.2-0.8,2.1-1.4,2.7C73.9,179.9,73,180.2,71.9,180.2z M74.3,174.2L74.3,174.2c0.3-0.9,0.4-1.5,0.3-1.8
			c0-0.3-0.3-0.4-0.6-0.4c-0.4,0-0.7,0.1-0.9,0.4c-0.2,0.3-0.4,0.8-0.7,1.7l0,0.1H74.3z"/>
		<path class="st0" d="M87.5,166.3h1.9h1.9L90.7,180h-1.3H88l0.2-2.9h-3.3l-1.3,2.9h-1.4h-1.4L87.5,166.3z M85.8,175h2.6l0.5-6.6h0
			L85.8,175z"/>
		<path class="st0" d="M94.7,170.5h1.2h1.2l-0.3,1.1l0.2-0.2c0.6-0.7,1.4-1.1,2.4-1.1c0.9,0,1.4,0.3,1.7,1c0.1,0.3,0.1,0.6,0.1,1
			c0,0.6-0.1,1.3-0.4,2.1l-0.6,1.9c-0.4,1.4-0.9,2.5-1.4,3.1c-0.5,0.6-1.2,0.9-2.1,0.9c-0.8,0-1.5-0.3-1.9-1l0-0.1l-1.3,4.4h-1.3
			h-1.3L94.7,170.5z M96,178.5c0.3,0,0.6-0.1,0.8-0.4c0.2-0.2,0.4-0.6,0.6-1.1l1-3.3c0.2-0.6,0.2-1,0.1-1.3
			c-0.1-0.3-0.3-0.5-0.6-0.5c-0.3,0-0.6,0.2-0.9,0.6c-0.3,0.4-0.5,1.1-0.8,2l-0.7,2.3c-0.2,0.5-0.2,0.9-0.1,1.2
			C95.4,178.4,95.6,178.5,96,178.5z"/>
		<path class="st0" d="M102,179.2c-0.3-0.4-0.4-0.9-0.4-1.4c0-0.4,0.1-0.9,0.2-1.4l0.6-2.2c0.4-1.5,1-2.5,1.6-3.1
			c0.7-0.6,1.6-0.8,2.9-0.8c1.3,0,2.1,0.3,2.6,0.9c0.2,0.3,0.3,0.8,0.3,1.3c0,0.5-0.1,1-0.3,1.6l-0.6,2.2c-0.4,1.5-1,2.5-1.6,3
			c-0.6,0.5-1.6,0.8-2.9,0.8C103.3,180.2,102.5,179.9,102,179.2z M105.8,178.1c0.2-0.3,0.4-0.9,0.6-1.7l0.6-2.2
			c0.3-0.9,0.3-1.4,0.3-1.7c0-0.3-0.3-0.4-0.7-0.4c-0.4,0-0.7,0.1-0.8,0.4c-0.2,0.3-0.4,0.9-0.6,1.7l-0.6,2.2
			c-0.3,0.9-0.4,1.4-0.3,1.7c0,0.3,0.3,0.4,0.8,0.4C105.3,178.5,105.6,178.4,105.8,178.1z"/>
		<path class="st0" d="M112.6,170.5h1.3h1.3l-2.8,9.5h-1.3h-1.3L112.6,170.5z M113.8,166.3h2.6l-0.7,2.3h-2.6L113.8,166.3z"/>
		<path class="st0" d="M115.6,179.2c-0.3-0.4-0.4-0.9-0.4-1.4c0-0.4,0.1-0.9,0.2-1.4l0.6-2.2c0.4-1.5,1-2.5,1.6-3.1
			c0.7-0.6,1.6-0.8,2.9-0.8c1.3,0,2.1,0.3,2.6,0.9c0.2,0.3,0.3,0.8,0.4,1.3c0,0.5-0.1,1-0.3,1.6l-0.6,2.2c-0.4,1.5-1,2.5-1.6,3
			c-0.6,0.5-1.6,0.8-2.9,0.8C116.9,180.2,116,179.9,115.6,179.2z M119.3,178.1c0.2-0.3,0.4-0.9,0.6-1.7l0.6-2.2
			c0.3-0.9,0.4-1.4,0.3-1.7c0-0.3-0.3-0.4-0.7-0.4c-0.4,0-0.6,0.1-0.8,0.4c-0.2,0.3-0.4,0.9-0.6,1.7l-0.6,2.2
			c-0.3,0.9-0.4,1.4-0.3,1.7c0.1,0.3,0.3,0.4,0.8,0.4C118.9,178.5,119.1,178.4,119.3,178.1z"/>
		<path class="st0" d="M130.2,180.2c-0.8,0-1.4-0.3-1.7-0.8c-0.2-0.3-0.2-0.6-0.2-1c0-0.4,0.1-0.8,0.2-1.3c0.3-1.2,0.8-2,1.5-2.4
			c0.6-0.4,1.6-0.6,3-0.6h0.9l0.3-0.9c0.1-0.4,0.1-0.6,0-0.8c-0.1-0.2-0.3-0.3-0.6-0.3c-0.3,0-0.5,0.1-0.6,0.2
			c-0.1,0.2-0.3,0.5-0.5,1h-2.6c0.3-1.1,0.7-1.9,1.2-2.3c0.6-0.4,1.4-0.6,2.6-0.6c1.1,0,2,0.2,2.5,0.8c0.4,0.3,0.6,0.8,0.6,1.3
			c0,0.2,0,0.4-0.1,0.7l-1.2,4.2c-0.1,0.4-0.2,0.9-0.4,1.4c-0.1,0.5-0.2,0.9-0.2,1.3h-2.5l0.2-0.8l-0.1,0.1
			C131.8,179.9,131,180.2,130.2,180.2z M133.4,175.5H133c-0.6,0-1.1,0.1-1.3,0.3c-0.3,0.2-0.5,0.6-0.7,1.2l-0.1,0.3
			c-0.1,0.4-0.1,0.7,0,0.9c0.1,0.2,0.3,0.3,0.6,0.3c0.3,0,0.6-0.1,0.8-0.4c0.2-0.3,0.5-0.8,0.8-1.7L133.4,175.5z M133.5,169.3l-1-3
			h2.7l0.3,3H133.5z"/>
		<path class="st0" d="M142,173.4c0.2-0.6,0.2-0.9,0.2-1.1c0-0.2-0.2-0.3-0.4-0.3c-0.2,0-0.4,0.1-0.5,0.2c-0.1,0.2-0.2,0.4-0.3,0.7
			c-0.1,0.3-0.1,0.5,0,0.7c0.1,0.2,0.2,0.3,0.4,0.5c1,0.5,1.6,1,1.9,1.5c0.2,0.3,0.3,0.6,0.3,1c0,0.2,0,0.4-0.1,0.6
			c-0.3,1.1-0.7,1.8-1.3,2.3c-0.6,0.4-1.5,0.6-2.8,0.6c-1.1,0-1.9-0.3-2.3-0.8c-0.2-0.3-0.4-0.7-0.4-1.2c0-0.4,0.1-0.8,0.2-1.3h2.6
			c-0.2,0.7-0.2,1.1-0.2,1.3c0,0.2,0.2,0.3,0.5,0.3c0.2,0,0.4-0.1,0.6-0.3c0.1-0.2,0.3-0.5,0.3-0.8c0.1-0.3,0.1-0.6,0-0.8
			c-0.1-0.2-0.3-0.4-0.6-0.6c-0.8-0.4-1.4-0.9-1.7-1.4c-0.2-0.3-0.3-0.7-0.3-1c0-0.2,0-0.4,0.1-0.6c0.2-1,0.7-1.7,1.3-2.1
			c0.6-0.5,1.5-0.7,2.6-0.7c1.1,0,1.8,0.3,2.2,0.8c0.2,0.3,0.4,0.7,0.4,1.2c0,0.3,0,0.7-0.2,1.1H142z"/>
		<path class="st0" d="M151.8,180h-1.3h-1.3l4.2-13.7h2.1h2.1l-1.3,10.1h0l4.8-10.1h2.1h2.1l-4,13.7H160h-1.3l3.6-11.6h0l-5.6,11.6
			h-1.5h-1.5l1.4-11.8h0L151.8,180z"/>
		<path class="st0" d="M166.5,170.5h1.3h1.3l-2.8,9.5h-1.3h-1.3L166.5,170.5z M167.7,166.3h2.6l-0.7,2.3h-2.6L167.7,166.3z"/>
		<path class="st0" d="M175.9,176.6c-0.4,1.3-0.8,2.3-1.5,2.8c-0.6,0.6-1.5,0.8-2.6,0.8c-1.2,0-2.1-0.3-2.5-1
			c-0.2-0.3-0.3-0.8-0.3-1.3c0-0.5,0.1-1.1,0.3-1.8l0.5-1.7c0.5-1.6,1-2.7,1.6-3.2c0.6-0.6,1.5-0.9,2.7-0.9c1.2,0,2,0.3,2.4,0.9
			c0.2,0.3,0.3,0.7,0.3,1.2c0,0.5-0.1,1-0.3,1.7h-2.5c0.2-0.8,0.3-1.3,0.3-1.6c-0.1-0.3-0.2-0.4-0.6-0.4c-0.2,0-0.5,0.2-0.7,0.7
			c-0.2,0.4-0.5,1.4-0.9,2.7l-0.5,1.7c-0.1,0.5-0.2,0.9-0.1,1.1c0.1,0.2,0.2,0.4,0.5,0.4c0.2,0,0.4-0.2,0.6-0.5
			c0.2-0.3,0.4-0.8,0.7-1.5H175.9z"/>
		<path class="st0" d="M179.4,170.5h1.2h1.2l-0.3,1.2c0.9-0.9,1.8-1.4,2.8-1.4l0.3,0l-0.8,2.7c-0.1-0.1-0.3-0.1-0.5-0.1
			c-0.8,0-1.4,0.2-1.8,0.7c-0.4,0.4-0.8,1.2-1.1,2.4l-1.2,4.1h-1.3h-1.3L179.4,170.5z"/>
		<path class="st0" d="M184.2,179.2c-0.3-0.4-0.4-0.9-0.4-1.4c0-0.4,0.1-0.9,0.2-1.4l0.6-2.2c0.4-1.5,1-2.5,1.6-3.1
			c0.7-0.6,1.6-0.8,3-0.8c1.3,0,2.1,0.3,2.5,0.9c0.2,0.3,0.3,0.8,0.4,1.3c0,0.5-0.1,1-0.3,1.6l-0.7,2.2c-0.4,1.5-1,2.5-1.6,3
			c-0.6,0.5-1.6,0.8-2.9,0.8C185.5,180.2,184.6,179.9,184.2,179.2z M187.9,178.1c0.2-0.3,0.4-0.9,0.7-1.7l0.6-2.2
			c0.2-0.9,0.3-1.4,0.3-1.7c-0.1-0.3-0.3-0.4-0.8-0.4c-0.4,0-0.6,0.1-0.8,0.4c-0.2,0.3-0.4,0.9-0.6,1.7l-0.6,2.2
			c-0.3,0.9-0.4,1.4-0.3,1.7c0,0.3,0.3,0.4,0.7,0.4C187.5,178.5,187.7,178.4,187.9,178.1z"/>
		<path class="st0" d="M199.9,180.2c-1.2,0-2.1-0.3-2.5-1c-0.3-0.4-0.4-0.9-0.4-1.4c0-0.4,0.1-0.8,0.2-1.3l0.3-1.2
			c0.6-1.9,1.2-3.2,1.8-3.9c0.7-0.7,1.6-1.1,2.8-1.1H202c1.3,0,2.2,0.3,2.6,1c0.3,0.4,0.4,0.8,0.4,1.4c0,0.5-0.1,1-0.3,1.6l-0.5,1.6
			H200l-0.2,0.7c-0.2,0.8-0.3,1.4-0.3,1.6c0.1,0.3,0.3,0.4,0.7,0.4c0.3,0,0.5-0.1,0.7-0.4c0.2-0.3,0.4-0.7,0.6-1.3h2.5
			c-0.3,1.2-0.8,2.1-1.4,2.7C201.9,179.9,201,180.2,199.9,180.2z M202.3,174.2L202.3,174.2c0.2-0.9,0.4-1.5,0.3-1.8
			c0-0.3-0.2-0.4-0.6-0.4c-0.4,0-0.7,0.1-0.9,0.4c-0.2,0.3-0.4,0.8-0.7,1.7l0,0.1H202.3z"/>
		<path class="st0" d="M213.3,166.3h1.4h2c1.7,0,2.8,0.4,3.4,1.1c0.3,0.4,0.4,0.9,0.4,1.6c0,0.6-0.1,1.3-0.3,2.1l-0.1,0.2
			c-0.4,1.3-0.9,2.1-1.6,2.6c-0.7,0.5-1.7,0.7-3.2,0.7h-1.7l-1.6,5.4h-1.4h-1.4L213.3,166.3z M214.4,172.5h0.9c0.6,0,1-0.1,1.4-0.4
			c0.3-0.3,0.6-0.7,0.8-1.2l0.1-0.3c0.2-0.8,0.3-1.4,0.1-1.7c-0.2-0.3-0.6-0.5-1.3-0.5h-0.8L214.4,172.5z"/>
		<path class="st0" d="M223,180.2c-1.2,0-2.1-0.3-2.5-1c-0.3-0.4-0.4-0.9-0.4-1.4c0-0.4,0.1-0.8,0.2-1.3l0.3-1.2
			c0.6-1.9,1.2-3.2,1.8-3.9c0.7-0.7,1.6-1.1,2.8-1.1h-0.1c1.3,0,2.2,0.3,2.6,1c0.3,0.4,0.4,0.8,0.4,1.4c0,0.5-0.1,1-0.3,1.6
			l-0.5,1.6h-4.4l-0.2,0.7c-0.3,0.8-0.3,1.4-0.3,1.6c0.1,0.3,0.3,0.4,0.7,0.4c0.3,0,0.5-0.1,0.7-0.4c0.2-0.3,0.4-0.7,0.6-1.3h2.5
			c-0.3,1.2-0.8,2.1-1.4,2.7C225,179.9,224.1,180.2,223,180.2z M225.4,174.2L225.4,174.2c0.3-0.9,0.4-1.5,0.3-1.8
			c0-0.3-0.2-0.4-0.6-0.4c-0.4,0-0.7,0.1-0.9,0.4c-0.2,0.3-0.4,0.8-0.7,1.7l0,0.1H225.4z"/>
		<path class="st0" d="M230.2,180.2c-0.9,0-1.4-0.3-1.7-1c-0.1-0.3-0.2-0.6-0.2-1c0-0.5,0.1-1.1,0.3-1.8l0.6-2.2
			c0.4-1.3,0.8-2.3,1.4-2.9c0.5-0.6,1.1-0.9,1.8-0.9c0.9,0,1.6,0.3,2.1,0.9l0.2,0.2l0.2-0.9h2.4l-3.8,13.1h-1.3H231l1.2-4.1
			C231.7,180,231,180.2,230.2,180.2z M233.5,172c-0.3,0-0.6,0.2-0.9,0.4c-0.3,0.3-0.5,0.8-0.7,1.4l-0.8,2.9c-0.2,0.6-0.2,1-0.1,1.3
			c0.1,0.3,0.3,0.5,0.6,0.5c0.3,0,0.6-0.1,0.8-0.4c0.2-0.3,0.5-0.8,0.7-1.5l0.9-3.2c0.1-0.5,0.2-0.8,0.1-1.1
			C234,172.1,233.8,172,233.5,172z"/>
		<path class="st0" d="M240.1,177.5c-0.1,0.3-0.1,0.6,0,0.7c0.1,0.2,0.2,0.3,0.5,0.3c0.3,0,0.7-0.2,0.9-0.5c0.3-0.4,0.5-0.9,0.8-1.7
			l1.7-5.8h1.3h1.3l-2.8,9.5h-1.2h-1.2l0.3-0.9l-0.1,0.1c-0.7,0.7-1.5,1.1-2.4,1.1c-0.7,0-1.2-0.2-1.5-0.7c-0.1-0.2-0.2-0.5-0.2-0.9
			c0-0.3,0-0.6,0.2-1l2.1-7.2h1.3h1.3L240.1,177.5z"/>
		<path class="st0" d="M249.4,180.2c-1.2,0-2.1-0.3-2.5-1c-0.3-0.4-0.4-0.9-0.4-1.4c0-0.4,0.1-0.8,0.2-1.3l0.4-1.2
			c0.6-1.9,1.2-3.2,1.8-3.9c0.7-0.7,1.6-1.1,2.8-1.1h-0.1c1.3,0,2.2,0.3,2.6,1c0.2,0.4,0.4,0.8,0.4,1.4c0,0.5-0.1,1-0.3,1.6
			l-0.5,1.6h-4.4l-0.2,0.7c-0.2,0.8-0.3,1.4-0.3,1.6s0.3,0.4,0.7,0.4c0.3,0,0.5-0.1,0.7-0.4c0.2-0.3,0.4-0.7,0.6-1.3h2.5
			c-0.3,1.2-0.8,2.1-1.4,2.7C251.4,179.9,250.5,180.2,249.4,180.2z M251.8,174.2L251.8,174.2c0.3-0.9,0.4-1.5,0.3-1.8
			c0-0.3-0.2-0.4-0.6-0.4c-0.4,0-0.7,0.1-0.9,0.4c-0.2,0.3-0.4,0.8-0.7,1.7l0,0.1H251.8z"/>
		<path class="st0" d="M257.1,170.5h1.3h1.3l-0.2,0.9l0,0c0.7-0.7,1.5-1.1,2.4-1.1c0.7,0,1.2,0.2,1.5,0.7c0.3,0.4,0.3,1.1,0.1,1.9
			l-2.1,7.2H260h-1.3l2-7c0.1-0.3,0.1-0.6,0-0.7c-0.1-0.2-0.2-0.3-0.5-0.3c-0.4,0-0.7,0.2-1,0.5c-0.3,0.4-0.5,0.9-0.8,1.7L257,180
			h-1.3h-1.3L257.1,170.5z"/>
		<path class="st0" d="M265.9,180.2c-0.8,0-1.4-0.3-1.7-0.8c-0.1-0.3-0.2-0.6-0.2-1c0-0.4,0.1-0.8,0.2-1.3c0.3-1.2,0.8-2,1.5-2.4
			c0.6-0.4,1.6-0.6,3-0.6h0.9l0.3-0.9c0.1-0.4,0.1-0.6,0-0.8c-0.1-0.2-0.3-0.3-0.6-0.3c-0.3,0-0.5,0.1-0.6,0.2
			c-0.1,0.2-0.3,0.5-0.5,1h-2.6c0.3-1.1,0.7-1.9,1.2-2.3c0.6-0.4,1.4-0.6,2.6-0.6c1.1,0,2,0.2,2.5,0.8c0.4,0.3,0.6,0.8,0.6,1.3
			c0,0.2,0,0.4-0.1,0.7l-1.2,4.2c-0.1,0.4-0.3,0.9-0.4,1.4c-0.1,0.5-0.2,0.9-0.2,1.3H268l0.2-0.8l-0.1,0.1
			C267.4,179.9,266.7,180.2,265.9,180.2z M269.1,175.5h-0.4c-0.6,0-1.1,0.1-1.3,0.3c-0.3,0.2-0.5,0.6-0.7,1.2l-0.1,0.3
			c-0.1,0.4-0.1,0.7,0,0.9c0.1,0.2,0.3,0.3,0.6,0.3c0.3,0,0.6-0.1,0.8-0.4c0.2-0.3,0.5-0.8,0.7-1.7L269.1,175.5z"/>
		<path class="st0" d="M277.7,173.4c0.2-0.6,0.2-0.9,0.2-1.1c0-0.2-0.2-0.3-0.4-0.3c-0.2,0-0.4,0.1-0.5,0.2
			c-0.1,0.2-0.2,0.4-0.3,0.7c-0.1,0.3-0.1,0.5,0,0.7c0.1,0.2,0.2,0.3,0.4,0.5c1,0.5,1.6,1,1.9,1.5c0.2,0.3,0.3,0.6,0.3,1
			c0,0.2,0,0.4-0.1,0.6c-0.3,1.1-0.7,1.8-1.3,2.3c-0.6,0.4-1.5,0.6-2.7,0.6c-1.1,0-1.9-0.3-2.3-0.8c-0.2-0.3-0.4-0.7-0.4-1.2
			c0-0.4,0.1-0.8,0.2-1.3h2.6c-0.2,0.7-0.2,1.1-0.2,1.3c0,0.2,0.2,0.3,0.5,0.3c0.2,0,0.4-0.1,0.6-0.3c0.1-0.2,0.3-0.5,0.4-0.8
			c0.1-0.3,0.1-0.6,0-0.8c-0.1-0.2-0.3-0.4-0.6-0.6c-0.8-0.4-1.4-0.9-1.7-1.4c-0.2-0.3-0.3-0.7-0.3-1c0-0.2,0-0.4,0.1-0.6
			c0.2-1,0.7-1.7,1.3-2.1c0.6-0.5,1.5-0.7,2.6-0.7c1.1,0,1.8,0.3,2.2,0.8c0.2,0.3,0.4,0.7,0.4,1.2c0,0.3-0.1,0.7-0.2,1.1H277.7z"/>
		<path class="st0" d="M16.7,203.9l4-13.7h6.8l-0.3,1l-0.3,1H23l-1,3.6h3.7l-0.3,1l-0.3,1h-3.7l-1.2,3.9h4.1l-0.3,1l-0.3,1H16.7z"/>
		<path class="st0" d="M28.3,194.3h1.1h1.1l-0.3,0.9l0.1-0.1c0.7-0.7,1.6-1.1,2.4-1.1c0.8,0,1.3,0.2,1.6,0.7l0.2,0.4l0,0
			c0.8-0.7,1.6-1.1,2.5-1.1c0.8,0,1.3,0.2,1.6,0.7c0.2,0.3,0.3,0.6,0.2,1c0,0.3,0,0.7-0.2,1.1l-2,7h-1.3h-1.3l2-7
			c0.1-0.3,0.1-0.6,0-0.7c-0.1-0.2-0.2-0.3-0.5-0.3c-0.4,0-0.7,0.2-1,0.5c-0.3,0.4-0.5,0.9-0.8,1.7l-1.7,5.8h-1.3h-1.3l2-7
			c0.1-0.3,0.1-0.6,0-0.8c-0.1-0.2-0.2-0.3-0.5-0.3c-0.4,0-0.7,0.2-1,0.5c-0.3,0.4-0.5,0.9-0.8,1.7l-1.7,5.8h-1.3h-1.3L28.3,194.3z"
			/>
		<path class="st0" d="M41.4,194.3h1.2h1.2l-0.3,1.1l0.2-0.2c0.6-0.7,1.4-1.1,2.4-1.1c0.9,0,1.4,0.3,1.7,1c0.1,0.3,0.1,0.6,0.1,1
			c0,0.6-0.1,1.3-0.3,2.1l-0.6,1.9c-0.4,1.4-0.9,2.5-1.4,3.1c-0.5,0.6-1.2,0.9-2.1,0.9c-0.8,0-1.5-0.3-1.9-1l0-0.1l-1.3,4.4h-1.3
			h-1.3L41.4,194.3z M42.6,202.4c0.3,0,0.6-0.1,0.8-0.4c0.2-0.2,0.4-0.6,0.6-1.1l1-3.3c0.2-0.6,0.2-1,0.1-1.3
			c-0.1-0.3-0.3-0.5-0.6-0.5c-0.3,0-0.7,0.2-0.9,0.6c-0.3,0.4-0.5,1.1-0.8,2l-0.7,2.3c-0.2,0.5-0.2,0.9-0.1,1.2
			C42.1,202.3,42.3,202.4,42.6,202.4z"/>
		<path class="st0" d="M50.5,194.3h1.2h1.2l-0.3,1.2c0.9-0.9,1.8-1.4,2.8-1.4l0.3,0l-0.8,2.7c-0.1-0.1-0.3-0.1-0.5-0.1
			c-0.8,0-1.4,0.2-1.8,0.7c-0.4,0.4-0.8,1.2-1.1,2.4l-1.2,4.1H49h-1.3L50.5,194.3z"/>
		<path class="st0" d="M57.8,204.1c-1.2,0-2.1-0.3-2.5-1c-0.3-0.4-0.4-0.9-0.4-1.4c0-0.4,0.1-0.8,0.2-1.3l0.4-1.2
			c0.6-1.9,1.2-3.2,1.8-3.9c0.7-0.7,1.6-1.1,2.8-1.1h0c1.3,0,2.2,0.3,2.6,1c0.3,0.4,0.4,0.8,0.4,1.4c0,0.5-0.1,1-0.3,1.6l-0.5,1.6
			h-4.4l-0.2,0.7c-0.2,0.8-0.3,1.4-0.3,1.6c0.1,0.3,0.3,0.4,0.7,0.4c0.3,0,0.5-0.1,0.7-0.4c0.2-0.3,0.4-0.7,0.6-1.3h2.5
			c-0.3,1.2-0.8,2.1-1.4,2.7C59.8,203.8,58.9,204.1,57.8,204.1z M60.2,198.1L60.2,198.1c0.3-0.9,0.4-1.5,0.3-1.8
			c0-0.3-0.2-0.4-0.6-0.4c-0.4,0-0.7,0.1-0.9,0.4c-0.2,0.3-0.4,0.8-0.7,1.7l0,0.1H60.2z"/>
		<path class="st0" d="M68.1,197.3c0.1-0.6,0.2-0.9,0.2-1.1c0-0.2-0.2-0.3-0.4-0.3c-0.2,0-0.4,0.1-0.5,0.2c-0.1,0.2-0.2,0.4-0.3,0.7
			c-0.1,0.3-0.1,0.5,0,0.7c0.1,0.2,0.2,0.3,0.4,0.5c1,0.5,1.6,1,1.9,1.5c0.2,0.3,0.3,0.7,0.3,1c0,0.2,0,0.4-0.1,0.6
			c-0.3,1.1-0.7,1.8-1.3,2.3c-0.6,0.4-1.5,0.6-2.8,0.6c-1.1,0-1.9-0.3-2.3-0.8c-0.2-0.3-0.3-0.7-0.4-1.2c0-0.4,0.1-0.8,0.2-1.3h2.6
			c-0.2,0.7-0.2,1.1-0.2,1.3c0,0.2,0.2,0.3,0.5,0.3c0.2,0,0.4-0.1,0.5-0.3c0.1-0.2,0.3-0.4,0.4-0.8c0.1-0.3,0.1-0.6,0-0.8
			c-0.1-0.2-0.3-0.4-0.6-0.6c-0.8-0.4-1.4-0.9-1.7-1.4c-0.2-0.3-0.3-0.7-0.3-1c0-0.2,0-0.4,0.1-0.6c0.2-1,0.7-1.7,1.3-2.1
			c0.6-0.5,1.5-0.7,2.6-0.7c1.1,0,1.8,0.3,2.2,0.8c0.2,0.3,0.4,0.7,0.4,1.2c0,0.3,0,0.7-0.1,1.1H68.1z"/>
		<path class="st0" d="M73.2,204.1c-0.8,0-1.4-0.3-1.7-0.8c-0.2-0.3-0.2-0.6-0.2-1.1c0-0.4,0.1-0.8,0.2-1.3c0.3-1.2,0.8-2,1.5-2.4
			c0.6-0.4,1.6-0.6,3-0.6h0.9l0.3-0.9c0.1-0.4,0.1-0.6,0-0.8c-0.1-0.2-0.3-0.3-0.6-0.3c-0.3,0-0.5,0.1-0.6,0.2
			c-0.1,0.2-0.3,0.5-0.5,1h-2.6c0.3-1.1,0.7-1.9,1.2-2.3c0.6-0.4,1.4-0.6,2.6-0.6c1.1,0,2,0.2,2.5,0.8c0.4,0.3,0.6,0.8,0.6,1.3
			c0,0.2,0,0.5-0.1,0.7l-1.2,4.2c-0.1,0.5-0.2,0.9-0.3,1.4c-0.1,0.5-0.2,0.9-0.2,1.3h-2.5l0.2-0.8l-0.1,0.1
			C74.7,203.8,74,204.1,73.2,204.1z M76.4,199.4H76c-0.6,0-1.1,0.1-1.3,0.3c-0.3,0.2-0.5,0.6-0.7,1.2l-0.1,0.3
			c-0.1,0.4-0.1,0.7,0,0.9c0.1,0.2,0.3,0.3,0.6,0.3c0.3,0,0.6-0.1,0.8-0.4c0.2-0.3,0.5-0.8,0.8-1.7L76.4,199.4z"/>
		<path class="st0" d="M85,197.3c0.1-0.6,0.2-0.9,0.2-1.1c0-0.2-0.2-0.3-0.4-0.3c-0.2,0-0.4,0.1-0.5,0.2c-0.1,0.2-0.2,0.4-0.3,0.7
			c-0.1,0.3-0.1,0.5,0,0.7c0.1,0.2,0.2,0.3,0.4,0.5c1,0.5,1.6,1,1.9,1.5c0.2,0.3,0.3,0.7,0.3,1c0,0.2,0,0.4-0.1,0.6
			c-0.3,1.1-0.7,1.8-1.3,2.3c-0.6,0.4-1.5,0.6-2.8,0.6c-1.1,0-1.9-0.3-2.3-0.8c-0.2-0.3-0.3-0.7-0.4-1.2c0-0.4,0.1-0.8,0.2-1.3h2.6
			c-0.2,0.7-0.2,1.1-0.2,1.3c0,0.2,0.2,0.3,0.5,0.3c0.2,0,0.4-0.1,0.5-0.3c0.1-0.2,0.3-0.4,0.4-0.8c0.1-0.3,0.1-0.6,0-0.8
			c-0.1-0.2-0.3-0.4-0.6-0.6c-0.8-0.4-1.4-0.9-1.7-1.4c-0.2-0.3-0.3-0.7-0.3-1c0-0.2,0-0.4,0.1-0.6c0.2-1,0.7-1.7,1.3-2.1
			c0.6-0.5,1.5-0.7,2.6-0.7c1.1,0,1.8,0.3,2.2,0.8c0.2,0.3,0.4,0.7,0.4,1.2c0,0.3,0,0.7-0.2,1.1H85z"/>
		<path class="st0" d="M94.4,204.1c-0.8,0-1.4-0.3-1.7-1c-0.1-0.3-0.2-0.7-0.2-1.1c0-0.5,0.1-1.1,0.3-1.8l0.6-2.2
			c0.4-1.3,0.8-2.3,1.4-2.9c0.5-0.6,1.1-0.9,1.8-0.9c0.9,0,1.6,0.3,2.1,0.9l0.1,0.1l1.4-5h1.3h1.3l-4,13.7h-1.2h-1.2l0.3-0.9
			l-0.2,0.3C96,203.8,95.3,204.1,94.4,204.1z M97.7,195.8c-0.3,0-0.6,0.2-0.9,0.5c-0.2,0.3-0.5,0.8-0.7,1.4l-0.8,2.9
			c-0.2,0.6-0.2,1-0.1,1.4c0.1,0.3,0.3,0.5,0.6,0.5c0.3,0,0.6-0.1,0.8-0.4c0.2-0.3,0.5-0.8,0.7-1.5l0.9-3.2c0.1-0.4,0.2-0.8,0.1-1.1
			C98.2,195.9,98,195.8,97.7,195.8z"/>
		<path class="st0" d="M101.8,203.1c-0.3-0.4-0.4-0.9-0.4-1.4c0-0.4,0.1-0.9,0.2-1.4l0.6-2.2c0.4-1.5,1-2.5,1.6-3.1
			c0.7-0.6,1.6-0.8,2.9-0.8c1.3,0,2.1,0.3,2.6,0.9c0.2,0.3,0.3,0.8,0.3,1.3c0,0.5-0.1,1-0.3,1.6l-0.6,2.2c-0.4,1.5-1,2.5-1.6,3
			c-0.7,0.6-1.6,0.8-2.9,0.8C103.1,204.1,102.3,203.7,101.8,203.1z M105.6,201.9c0.2-0.3,0.4-0.9,0.7-1.7l0.6-2.2
			c0.3-0.9,0.4-1.5,0.3-1.7c0-0.3-0.3-0.4-0.7-0.4c-0.4,0-0.6,0.1-0.8,0.4c-0.2,0.3-0.4,0.9-0.7,1.8l-0.6,2.2
			c-0.2,0.9-0.4,1.4-0.3,1.7c0,0.3,0.3,0.4,0.7,0.4C105.1,202.4,105.4,202.2,105.6,201.9z"/>
		<path class="st0" d="M118.1,190.2h1.4h1.9c1.6,0,2.7,0.3,3.2,1c0.3,0.4,0.4,0.8,0.4,1.4c0,0.5-0.1,1.1-0.3,1.8l0,0.1
			c-0.3,1-0.8,1.7-1.5,2.1c-0.5,0.3-1.2,0.5-2,0.6c0.8,0.1,1.3,0.3,1.7,0.7c0.5,0.5,0.6,1.2,0.3,2.3c-0.2,0.5-0.3,1-0.4,1.5
			c-0.1,0.6-0.2,1.1-0.2,1.4c0,0.3-0.1,0.6-0.1,0.8H121h-1.4c0-0.3,0-0.6,0.1-1c0-0.3,0.1-0.7,0.2-1.2c0.1-0.5,0.2-1,0.4-1.6
			c0.2-0.7,0.2-1.2,0-1.5c-0.2-0.3-0.7-0.4-1.4-0.4h-0.3h0l-1.6,5.7h-1.4h-1.4L118.1,190.2z M119.2,196.1h0.5c0.6,0,1.1-0.1,1.4-0.4
			c0.4-0.2,0.6-0.6,0.8-1.1l0.1-0.3c0.2-0.8,0.2-1.3,0-1.6c-0.2-0.3-0.6-0.5-1.3-0.5h-0.4L119.2,196.1z"/>
		<path class="st0" d="M127.1,194.3h1.3h1.3l-2.8,9.5h-1.3h-1.3L127.1,194.3z M128.3,190.2h2.6l-0.7,2.3h-2.6L128.3,190.2z"/>
		<path class="st0" d="M130.1,203.1c-0.3-0.4-0.4-0.9-0.4-1.4c0-0.4,0.1-0.9,0.2-1.4l0.6-2.2c0.4-1.5,1-2.5,1.6-3.1
			c0.7-0.6,1.6-0.8,3-0.8c1.3,0,2.1,0.3,2.6,0.9c0.2,0.3,0.3,0.8,0.4,1.3c0,0.5-0.1,1-0.3,1.6l-0.6,2.2c-0.4,1.5-1,2.5-1.6,3
			c-0.6,0.6-1.6,0.8-2.9,0.8C131.4,204.1,130.5,203.7,130.1,203.1z M133.8,201.9c0.2-0.3,0.4-0.9,0.6-1.7l0.6-2.2
			c0.3-0.9,0.4-1.5,0.3-1.7c0-0.3-0.3-0.4-0.7-0.4c-0.4,0-0.6,0.1-0.8,0.4c-0.2,0.3-0.4,0.9-0.6,1.8l-0.6,2.2
			c-0.3,0.9-0.4,1.4-0.3,1.7c0.1,0.3,0.3,0.4,0.8,0.4C133.3,202.4,133.6,202.2,133.8,201.9z"/>
		<path class="st0" d="M147.4,204.1c-1.7,0-2.8-0.4-3.4-1.3c-0.3-0.5-0.5-1.1-0.5-1.8c0-0.6,0.1-1.3,0.3-2.1l1.1-3.7
			c0.6-2.1,1.3-3.4,2.1-4.2c0.8-0.7,2-1.1,3.6-1.1c1.3,0,2.2,0.4,2.9,1.1c0.6,0.7,0.8,1.6,0.4,2.7l-0.2,0.7H151l0.2-0.7
			c0.2-0.6,0.1-1,0-1.3c-0.2-0.3-0.5-0.4-1-0.4c-0.5,0-1,0.2-1.3,0.7c-0.3,0.5-0.7,1.3-1,2.5l-1.1,3.7c-0.3,1.2-0.4,2-0.3,2.4
			c0.2,0.5,0.6,0.7,1.3,0.7h0c0.3,0,0.7-0.1,1-0.2l0.9-3.1h-1.5l0.6-2.1h4.3l-2,6.9C150,203.9,148.8,204.1,147.4,204.1z"/>
		<path class="st0" d="M156.1,194.3h1.2h1.2l-0.3,1.2c0.9-0.9,1.8-1.4,2.8-1.4l0.3,0l-0.8,2.7c-0.2-0.1-0.3-0.1-0.5-0.1
			c-0.8,0-1.4,0.2-1.8,0.7c-0.4,0.4-0.8,1.2-1.1,2.4l-1.2,4.1h-1.3h-1.3L156.1,194.3z"/>
		<path class="st0" d="M162.3,204.1c-0.9,0-1.4-0.3-1.7-0.8c-0.2-0.3-0.2-0.6-0.3-1.1c0-0.4,0.1-0.8,0.2-1.3c0.3-1.2,0.8-2,1.5-2.4
			c0.6-0.4,1.6-0.6,3-0.6h0.9l0.3-0.9c0.1-0.4,0.1-0.6,0-0.8c-0.1-0.2-0.3-0.3-0.6-0.3c-0.3,0-0.5,0.1-0.6,0.2
			c-0.1,0.2-0.3,0.5-0.5,1h-2.6c0.3-1.1,0.7-1.9,1.2-2.3c0.6-0.4,1.4-0.6,2.6-0.6c1.1,0,2,0.2,2.5,0.8c0.4,0.3,0.6,0.8,0.6,1.3
			c0,0.2,0,0.5-0.1,0.7l-1.2,4.2c-0.1,0.5-0.3,0.9-0.4,1.4c-0.1,0.5-0.2,0.9-0.2,1.3h-2.6l0.2-0.8l-0.1,0.1
			C163.9,203.8,163.1,204.1,162.3,204.1z M165.5,199.4h-0.4c-0.6,0-1.1,0.1-1.3,0.3c-0.3,0.2-0.5,0.6-0.6,1.2l-0.1,0.3
			c-0.1,0.4-0.1,0.7,0,0.9c0.1,0.2,0.3,0.3,0.6,0.3c0.3,0,0.6-0.1,0.8-0.4c0.2-0.3,0.5-0.8,0.7-1.7L165.5,199.4z"/>
		<path class="st0" d="M171.5,194.3h1.3h1.3l-0.2,0.9l0,0c0.7-0.7,1.5-1.1,2.4-1.1c0.7,0,1.2,0.2,1.5,0.7c0.3,0.5,0.3,1.1,0.1,1.9
			l-2.1,7.2h-1.3h-1.3l2-7c0.1-0.3,0.1-0.6,0-0.7c-0.1-0.2-0.2-0.3-0.5-0.3c-0.3,0-0.7,0.2-0.9,0.5c-0.3,0.4-0.5,0.9-0.8,1.7
			l-1.7,5.8H170h-1.3L171.5,194.3z"/>
		<path class="st0" d="M180.3,204.1c-0.9,0-1.4-0.3-1.7-1c-0.1-0.3-0.2-0.7-0.2-1.1c0-0.5,0.1-1.1,0.3-1.8l0.6-2.2
			c0.4-1.3,0.8-2.3,1.4-2.9c0.5-0.6,1.1-0.9,1.8-0.9c0.9,0,1.6,0.3,2.1,0.9l0.1,0.1l1.4-5h1.3h1.3l-4,13.7h-1.2h-1.2l0.3-0.9
			l-0.3,0.3C181.8,203.8,181.1,204.1,180.3,204.1z M183.5,195.8c-0.3,0-0.6,0.2-0.9,0.5c-0.2,0.3-0.5,0.8-0.7,1.4l-0.8,2.9
			c-0.2,0.6-0.2,1-0.1,1.4c0.1,0.3,0.3,0.5,0.6,0.5c0.3,0,0.6-0.1,0.8-0.4c0.2-0.3,0.5-0.8,0.7-1.5l0.9-3.2c0.1-0.4,0.2-0.8,0.1-1.1
			C184,195.9,183.8,195.8,183.5,195.8z"/>
		<path class="st0" d="M190.1,204.1c-1.2,0-2-0.3-2.5-1c-0.3-0.4-0.4-0.9-0.4-1.4c0-0.4,0.1-0.8,0.2-1.3l0.3-1.2
			c0.6-1.9,1.2-3.2,1.8-3.9c0.7-0.7,1.6-1.1,2.8-1.1h0c1.3,0,2.2,0.3,2.6,1c0.2,0.4,0.4,0.8,0.4,1.4c0,0.5-0.1,1-0.3,1.6l-0.5,1.6
			h-4.4l-0.2,0.7c-0.2,0.8-0.3,1.4-0.3,1.6c0.1,0.3,0.3,0.4,0.7,0.4c0.3,0,0.5-0.1,0.7-0.4c0.2-0.3,0.4-0.7,0.6-1.3h2.5
			c-0.3,1.2-0.8,2.1-1.4,2.7C192.2,203.8,191.3,204.1,190.1,204.1z M192.6,198.1L192.6,198.1c0.3-0.9,0.4-1.5,0.3-1.8
			c0-0.3-0.2-0.4-0.6-0.4c-0.4,0-0.7,0.1-0.9,0.4c-0.2,0.3-0.4,0.8-0.7,1.7l0,0.1H192.6z"/>
		<path class="st0" d="M201.9,204.1c-0.8,0-1.4-0.3-1.7-1c-0.1-0.3-0.2-0.7-0.2-1.1c0-0.5,0.1-1.1,0.3-1.8l0.6-2.2
			c0.4-1.3,0.8-2.3,1.4-2.9c0.5-0.6,1.1-0.9,1.8-0.9c0.9,0,1.6,0.3,2.1,0.9l0.1,0.1l1.4-5h1.3h1.3l-4,13.7h-1.2H204l0.3-0.9
			l-0.3,0.3C203.5,203.8,202.7,204.1,201.9,204.1z M205.1,195.8c-0.3,0-0.6,0.2-0.9,0.5c-0.2,0.3-0.5,0.8-0.6,1.4l-0.8,2.9
			c-0.2,0.6-0.2,1-0.1,1.4c0.1,0.3,0.3,0.5,0.6,0.5c0.3,0,0.6-0.1,0.8-0.4c0.2-0.3,0.5-0.8,0.7-1.5l0.9-3.2c0.1-0.4,0.2-0.8,0.1-1.1
			C205.7,195.9,205.4,195.8,205.1,195.8z"/>
		<path class="st0" d="M209.3,203.1c-0.3-0.4-0.4-0.9-0.4-1.4c0-0.4,0.1-0.9,0.2-1.4l0.6-2.2c0.4-1.5,1-2.5,1.6-3.1
			c0.7-0.6,1.6-0.8,2.9-0.8c1.3,0,2.1,0.3,2.6,0.9c0.2,0.3,0.3,0.8,0.3,1.3c0,0.5-0.1,1-0.3,1.6l-0.7,2.2c-0.4,1.5-1,2.5-1.6,3
			c-0.6,0.6-1.6,0.8-2.9,0.8C210.6,204.1,209.8,203.7,209.3,203.1z M213,201.9c0.2-0.3,0.4-0.9,0.6-1.7l0.6-2.2
			c0.3-0.9,0.4-1.5,0.3-1.7c0-0.3-0.3-0.4-0.7-0.4c-0.4,0-0.7,0.1-0.9,0.4c-0.2,0.3-0.4,0.9-0.7,1.8l-0.6,2.2
			c-0.3,0.9-0.4,1.4-0.3,1.7c0,0.3,0.3,0.4,0.7,0.4C212.6,202.4,212.8,202.2,213,201.9z"/>
		<path class="st0" d="M224.2,203.9H223h-1.2l4-13.7h1.7h1.7l0,10l2.9-10h1.2h1.2l-4,13.7h-1.8H227l0.1-9.7L224.2,203.9z"/>
		<path class="st0" d="M233.8,203.1c-0.3-0.4-0.4-0.9-0.4-1.4c0-0.4,0.1-0.9,0.2-1.4l0.6-2.2c0.4-1.5,1-2.5,1.6-3.1
			c0.7-0.6,1.6-0.8,3-0.8c1.3,0,2.1,0.3,2.5,0.9c0.2,0.3,0.4,0.8,0.4,1.3c0,0.5-0.1,1-0.3,1.6l-0.6,2.2c-0.4,1.5-1,2.5-1.6,3
			c-0.6,0.6-1.6,0.8-2.9,0.8C235.1,204.1,234.3,203.7,233.8,203.1z M237.6,201.9c0.2-0.3,0.4-0.9,0.6-1.7l0.7-2.2
			c0.2-0.9,0.3-1.5,0.3-1.7c-0.1-0.3-0.3-0.4-0.7-0.4c-0.4,0-0.6,0.1-0.8,0.4c-0.2,0.3-0.4,0.9-0.6,1.8l-0.6,2.2
			c-0.2,0.9-0.4,1.4-0.3,1.7c0,0.3,0.3,0.4,0.8,0.4C237.1,202.4,237.4,202.2,237.6,201.9z"/>
		<path class="st0" d="M244.4,194.3h1.2h1.2l-0.3,1.2c0.9-0.9,1.8-1.4,2.8-1.4l0.3,0l-0.8,2.7c-0.1-0.1-0.3-0.1-0.5-0.1
			c-0.8,0-1.4,0.2-1.8,0.7c-0.4,0.4-0.8,1.2-1.1,2.4l-1.2,4.1H243h-1.3L244.4,194.3z"/>
		<path class="st0" d="M252.7,204c-0.4,0.1-0.8,0.1-1.3,0.1c-1.1,0-1.8-0.3-2.1-0.8c-0.3-0.5-0.3-1.4,0-2.6l1.4-4.7h-1.2l0.5-1.6
			h1.2l0.5-1.5l2.9-0.8l-0.7,2.3h1.4l-0.5,1.6h-1.4l-1.4,4.7c-0.2,0.7-0.3,1.2-0.2,1.4c0.1,0.2,0.5,0.3,1.1,0.3l0.2,0L252.7,204z"/>
		<path class="st0" d="M258,204.1c-1.2,0-2.1-0.3-2.5-1c-0.3-0.4-0.4-0.9-0.4-1.4c0-0.4,0.1-0.8,0.2-1.3l0.4-1.2
			c0.6-1.9,1.2-3.2,1.8-3.9c0.7-0.7,1.6-1.1,2.8-1.1h0c1.3,0,2.2,0.3,2.6,1c0.2,0.4,0.4,0.8,0.4,1.4c0,0.5-0.1,1-0.3,1.6l-0.5,1.6
			h-4.4l-0.2,0.7c-0.2,0.8-0.3,1.4-0.3,1.6c0.1,0.3,0.3,0.4,0.7,0.4c0.3,0,0.5-0.1,0.7-0.4c0.2-0.3,0.4-0.7,0.6-1.3h2.5
			c-0.3,1.2-0.8,2.1-1.4,2.7C260,203.8,259.1,204.1,258,204.1z M260.4,198.1L260.4,198.1c0.3-0.9,0.4-1.5,0.3-1.8
			c0-0.3-0.3-0.4-0.6-0.4c-0.4,0-0.7,0.1-0.9,0.4c-0.2,0.3-0.4,0.8-0.6,1.7l0,0.1H260.4z"/>
	</g>
</g>
</svg>
