<svg id="Camada_1" data-name="Camada 1" xmlns="http://www.w3.org/2000/svg" viewBox="0 0 200 200"><defs><style>.cls-1{fill:#006eb6;}</style></defs><title>logo-sebrae_Prancheta 1 coÌpia 2</title><path class="cls-1" d="M144.49,95.63l4.84-22.92h17.18l-.92,4.39h-10.9l-1,4.78h10.26L163,86.27H152.73l-1,4.9h11.16l-1,4.46ZM33.71,88H40a5.86,5.86,0,0,0-.13,1c0,1.65,1.06,2.47,3.17,2.47s3.51-.85,3.89-2.56a3.19,3.19,0,0,0,.06-.59q0-1.16-1.56-1.59L40.2,85.35q-4.41-1.21-4.41-4.71a7.7,7.7,0,0,1,.15-1.46,8,8,0,0,1,3.26-4.9,12.7,12.7,0,0,1,7.68-2.15q7.88,0,7.88,5.11a10.28,10.28,0,0,1-.25,2.06h-6.3a4.79,4.79,0,0,0,.16-1.06c0-1.37-.81-2.06-2.43-2.06a3.87,3.87,0,0,0-2.29.67,2.84,2.84,0,0,0-1.22,2.23c0,.85.61,1.45,1.84,1.78L48.21,82a12.6,12.6,0,0,1,3.6,1.44,3.89,3.89,0,0,1,1.74,3.43A8.37,8.37,0,0,1,49.36,94a14.42,14.42,0,0,1-7.42,1.75q-5.74,0-7.58-2.69a5.18,5.18,0,0,1-.87-3A10.79,10.79,0,0,1,33.71,88Zm95-1.24h6.38l-.94-9.64H134Zm-11.56,8.84,14.26-23h7.95l4.3,23h-7.36L135.67,91h-9.41l-2.61,4.61Zm-9.9-18.71-1.17,5.63h2.37a11.94,11.94,0,0,0,2.66-.19,3.13,3.13,0,0,0,2.22-2.61,4.08,4.08,0,0,0,.09-.8,1.74,1.74,0,0,0-1.26-1.78,9.35,9.35,0,0,0-2.54-.25ZM96.92,95.64l4.84-23h10.57a30.34,30.34,0,0,1,3.61.13A4.45,4.45,0,0,1,119,74.35a4.22,4.22,0,0,1,.86,2.7,9.25,9.25,0,0,1-.19,1.75,6,6,0,0,1-3,4.25,10.76,10.76,0,0,1-3.74,1.18l0,.13a4.84,4.84,0,0,1,3.36,1,3.61,3.61,0,0,1,.76,2.58c0,.4,0,1.09-.1,2.07a40.53,40.53,0,0,0-.13,5.65h-6.86a42,42,0,0,1,.35-5.18c.08-.91.12-1.53.12-1.87a1.82,1.82,0,0,0-.52-1.48,3.38,3.38,0,0,0-2-.43h-2.66l-1.9,9ZM84.7,76.85l-1.07,5.09h3a6,6,0,0,0,2.28-.29,3,3,0,0,0,1.65-2.23,2.05,2.05,0,0,0-.44-2,2.79,2.79,0,0,0-1.94-.54ZM82.77,86l-1.14,5.44h3.52q3.27,0,3.84-2.67a3.72,3.72,0,0,0,.09-.77c0-1.34-1-2-3-2Zm-8.21,9.64,4.85-23h9.16a27.89,27.89,0,0,1,4.22.22,5.85,5.85,0,0,1,3.33,1.65,4,4,0,0,1,1,2.77A6,6,0,0,1,97,78.5q-.86,4-6,5.22l0,.07q4.45.83,4.46,4.26A6.86,6.86,0,0,1,94.28,92a8,8,0,0,1-3.22,2.72,16,16,0,0,1-6.39,1Zm5.89-27.45,1.7-7.83,42,.21-1.9,7.73Zm2.74-12.15,1.69-7.84,42,.21L125,56.16ZM69.09,120l1.69-7.83,42,.21-1.91,7.73Zm2.73-12.16,1.7-7.83,42,.21-1.9,7.73ZM54.69,95.63l4.85-22.92H76.71L75.8,77.1H64.9l-1,4.78H74.15l-1,4.39H62.93l-1,4.9H73.07l-.95,4.46Z"/><path class="cls-1" d="M33.75,133.29a2,2,0,0,0,.1-.89c-.05-.15-.2-.23-.45-.23a.7.7,0,0,0-.44.17.79.79,0,0,0-.27.42,1.29,1.29,0,0,0-.06.68.68.68,0,0,0,.31.43l.5.33a2.29,2.29,0,0,1,.9,1,1.38,1.38,0,0,1,.1.52,2.57,2.57,0,0,1-.12.72,2.38,2.38,0,0,1-.89,1.36,2.91,2.91,0,0,1-1.69.41,1.73,1.73,0,0,1-1.52-.57,1.37,1.37,0,0,1-.22-.79,3.13,3.13,0,0,1,.16-.93h1.38a1.83,1.83,0,0,0-.08,1,.47.47,0,0,0,.5.29.81.81,0,0,0,.53-.21,1.15,1.15,0,0,0,.33-.55,1.08,1.08,0,0,0,0-.66.88.88,0,0,0-.39-.48l-.49-.34a2,2,0,0,1-.83-.91,1.71,1.71,0,0,1-.09-.48,3.51,3.51,0,0,1,.12-.71,2.2,2.2,0,0,1,.84-1.28,2.91,2.91,0,0,1,1.63-.39,1.67,1.67,0,0,1,1.46.54,1.26,1.26,0,0,1,.2.73,3.12,3.12,0,0,1-.15.88Z"/><path class="cls-1" d="M36.59,138.18a1.46,1.46,0,0,1-1.27-.5,1.17,1.17,0,0,1-.21-.71,2.52,2.52,0,0,1,.11-.67l.17-.59a5.19,5.19,0,0,1,.91-2,1.82,1.82,0,0,1,1.39-.53h0a1.53,1.53,0,0,1,1.32.48,1.21,1.21,0,0,1,.19.68,2.64,2.64,0,0,1-.13.78l-.23.79H36.64l-.1.35a2.14,2.14,0,0,0-.14.82c0,.14.14.21.34.21a.43.43,0,0,0,.34-.2,2.85,2.85,0,0,0,.31-.67h1.25a2.47,2.47,0,0,1-.72,1.33A2,2,0,0,1,36.59,138.18Zm1.2-3h0a2.47,2.47,0,0,0,.15-.87c0-.14-.12-.21-.31-.21a.47.47,0,0,0-.42.2,2.6,2.6,0,0,0-.33.83l0,.06Z"/><path class="cls-1" d="M40.45,133.32h1.19l-.16.58a1.94,1.94,0,0,1,1.39-.68h.18l-.41,1.34a.62.62,0,0,0-.25-.05,1.19,1.19,0,0,0-.9.33,2.92,2.92,0,0,0-.55,1.2l-.59,2H39.07Z"/><path class="cls-1" d="M43.42,133.32h1.25l-.29,3.4h0l1.64-3.4h1.3l-2.55,4.76H43.2Z"/><path class="cls-1" d="M48.13,133.32h1.33l-1.39,4.76H46.75Zm.62-2.08H50l-.34,1.16H48.41Z"/><path class="cls-1" d="M49.24,140.05l.95-1.43h1l-.67,1.43Zm3.6-3.69a2.74,2.74,0,0,1-.73,1.41,1.86,1.86,0,0,1-1.3.41c-.62,0-1-.16-1.23-.5a1.21,1.21,0,0,1-.16-.64,3.42,3.42,0,0,1,.16-.91l.24-.85a3.78,3.78,0,0,1,.81-1.62,1.93,1.93,0,0,1,1.36-.44,1.31,1.31,0,0,1,1.18.44,1.08,1.08,0,0,1,.15.59,3.19,3.19,0,0,1-.14.83H51.93a2,2,0,0,0,.13-.79q0-.21-.3-.21c-.13,0-.25.11-.35.33a14.41,14.41,0,0,0-.46,1.37l-.24.85a1.05,1.05,0,0,0-.06.55c0,.12.11.17.25.17a.41.41,0,0,0,.33-.22,3.53,3.53,0,0,0,.33-.77Z"/><path class="cls-1" d="M53.65,137.67a1.24,1.24,0,0,1-.2-.71,2.39,2.39,0,0,1,.12-.7l.32-1.1a3,3,0,0,1,.81-1.52,2.22,2.22,0,0,1,1.47-.42,1.47,1.47,0,0,1,1.28.47,1.18,1.18,0,0,1,.17.65,3.06,3.06,0,0,1-.14.82l-.32,1.1a3.07,3.07,0,0,1-.81,1.51,2.18,2.18,0,0,1-1.46.41A1.4,1.4,0,0,1,53.65,137.67Zm1.87-.55a3.17,3.17,0,0,0,.33-.86l.32-1.1a2.75,2.75,0,0,0,.15-.87c0-.14-.15-.21-.37-.21a.49.49,0,0,0-.42.21,3.13,3.13,0,0,0-.33.87l-.31,1.1a2.48,2.48,0,0,0-.16.85c0,.14.15.22.38.22A.46.46,0,0,0,55.52,137.12Z"/><path class="cls-1" d="M60.94,138.18a.83.83,0,0,1-.85-.51,1.38,1.38,0,0,1-.09-.52,3.18,3.18,0,0,1,.15-.89l.32-1.1a4.41,4.41,0,0,1,.67-1.47,1.18,1.18,0,0,1,.92-.47,1.33,1.33,0,0,1,1,.43l.07.07.71-2.48h1.28l-2,6.84H62l.13-.47-.12.14A1.53,1.53,0,0,1,60.94,138.18Zm1.63-4.12a.57.57,0,0,0-.44.22,2,2,0,0,0-.32.7l-.42,1.45a1.3,1.3,0,0,0-.07.67.27.27,0,0,0,.29.25.51.51,0,0,0,.41-.21,2.59,2.59,0,0,0,.36-.75l.46-1.61a.83.83,0,0,0,0-.53A.29.29,0,0,0,62.57,134.06Z"/><path class="cls-1" d="M65.88,138.18a1.46,1.46,0,0,1-1.27-.5,1.17,1.17,0,0,1-.21-.71,2.52,2.52,0,0,1,.11-.67l.17-.59a5.35,5.35,0,0,1,.91-2,1.82,1.82,0,0,1,1.39-.53h0a1.53,1.53,0,0,1,1.32.48,1.21,1.21,0,0,1,.18.68,2.32,2.32,0,0,1-.12.78l-.23.79H65.93l-.1.35a2.14,2.14,0,0,0-.14.82c0,.14.14.21.34.21a.43.43,0,0,0,.34-.2,2.85,2.85,0,0,0,.31-.67h1.25a2.54,2.54,0,0,1-.72,1.33A2,2,0,0,1,65.88,138.18Zm1.2-3h0a2.87,2.87,0,0,0,.16-.87c0-.14-.13-.21-.32-.21a.5.5,0,0,0-.43.2,2.93,2.93,0,0,0-.32.83l0,.06Z"/><path class="cls-1" d="M73.69,131.24H75.6l-.33,6.84H73.93l.11-1.46H72.37l-.67,1.46H70.27Zm-.85,4.34h1.28l.24-3.31h0Z"/><path class="cls-1" d="M77.29,133.32h1.16l-.16.53.09-.1a1.54,1.54,0,0,1,1.19-.53.79.79,0,0,1,.83.51,1.73,1.73,0,0,1,.07.48,3.72,3.72,0,0,1-.18,1l-.27.94a4.09,4.09,0,0,1-.72,1.54,1.3,1.3,0,0,1-1,.46,1,1,0,0,1-.93-.48l0,0-.63,2.2H75.4Zm.62,4a.51.51,0,0,0,.39-.19,1.27,1.27,0,0,0,.28-.56l.48-1.64a1.35,1.35,0,0,0,.06-.66.28.28,0,0,0-.3-.23.55.55,0,0,0-.46.3,4.32,4.32,0,0,0-.4,1l-.33,1.15a1.09,1.09,0,0,0,0,.6A.32.32,0,0,0,77.91,137.35Z"/><path class="cls-1" d="M80.92,137.67a1.16,1.16,0,0,1-.19-.71,2.07,2.07,0,0,1,.11-.7l.32-1.1a3,3,0,0,1,.81-1.52,2.22,2.22,0,0,1,1.47-.42,1.47,1.47,0,0,1,1.28.47,1.18,1.18,0,0,1,.17.65,3.06,3.06,0,0,1-.14.82l-.32,1.1a3.07,3.07,0,0,1-.81,1.51,2.18,2.18,0,0,1-1.46.41A1.41,1.41,0,0,1,80.92,137.67Zm1.87-.55a3.17,3.17,0,0,0,.33-.86l.32-1.1a2.75,2.75,0,0,0,.15-.87c0-.14-.15-.21-.37-.21a.49.49,0,0,0-.42.21,3.21,3.21,0,0,0-.32.87l-.32,1.1a2.48,2.48,0,0,0-.16.85c0,.14.15.22.38.22A.46.46,0,0,0,82.79,137.12Z"/><path class="cls-1" d="M86.21,133.32h1.32l-1.38,4.76H84.82Zm.61-2.08h1.29l-.33,1.16h-1.3Z"/><path class="cls-1" d="M87.69,137.67a1.23,1.23,0,0,1-.19-.71,2.35,2.35,0,0,1,.11-.7l.32-1.1a3.09,3.09,0,0,1,.81-1.52,2.22,2.22,0,0,1,1.47-.42,1.46,1.46,0,0,1,1.28.47,1.28,1.28,0,0,1,.18.65,3.52,3.52,0,0,1-.14.82l-.32,1.1a3.07,3.07,0,0,1-.82,1.51,2.18,2.18,0,0,1-1.46.41A1.41,1.41,0,0,1,87.69,137.67Zm1.88-.55a3.65,3.65,0,0,0,.32-.86l.32-1.1a2.25,2.25,0,0,0,.15-.87c0-.14-.14-.21-.37-.21a.49.49,0,0,0-.42.21,3.21,3.21,0,0,0-.32.87l-.32,1.1a2.48,2.48,0,0,0-.16.85c0,.14.16.22.38.22A.49.49,0,0,0,89.57,137.12Z"/><path class="cls-1" d="M95,138.18a.89.89,0,0,1-.86-.42,1.21,1.21,0,0,1-.13-.52,2.77,2.77,0,0,1,.11-.64,2,2,0,0,1,.73-1.21,2.71,2.71,0,0,1,1.52-.32h.45l.13-.45a.53.53,0,0,0,0-.41c0-.09-.14-.13-.29-.13a.4.4,0,0,0-.31.12,1.47,1.47,0,0,0-.25.51H94.79a2,2,0,0,1,.63-1.14,2.06,2.06,0,0,1,1.28-.33,1.85,1.85,0,0,1,1.27.38.85.85,0,0,1,.28.65,1.18,1.18,0,0,1,0,.35l-.61,2.1a8,8,0,0,0-.29,1.36H96l.13-.42-.07.07A1.51,1.51,0,0,1,95,138.18Zm1.6-2.36h-.2a1.13,1.13,0,0,0-.66.15,1.19,1.19,0,0,0-.33.59l0,.16a.6.6,0,0,0,0,.46.3.3,0,0,0,.3.17.48.48,0,0,0,.41-.21,3.43,3.43,0,0,0,.38-.84Zm.06-3.06-.49-1.51h1.36l.15,1.51Z"/><path class="cls-1" d="M100.89,134.79a1.49,1.49,0,0,0,.09-.57.18.18,0,0,0-.2-.14.31.31,0,0,0-.24.12.85.85,0,0,0-.16.37.73.73,0,0,0,0,.36.41.41,0,0,0,.23.22,2.81,2.81,0,0,1,1,.75.82.82,0,0,1,.17.51c0,.1,0,.21,0,.32a1.86,1.86,0,0,1-.66,1.13,2.29,2.29,0,0,1-1.37.32,1.38,1.38,0,0,1-1.17-.41,1,1,0,0,1-.17-.59,2.52,2.52,0,0,1,.11-.67h1.28a2.11,2.11,0,0,0-.09.67c0,.1.1.15.25.15a.39.39,0,0,0,.28-.13,1.23,1.23,0,0,0,.17-.41.57.57,0,0,0,0-.41.62.62,0,0,0-.29-.29,2.3,2.3,0,0,1-.87-.67,1,1,0,0,1-.16-.52,1.24,1.24,0,0,1,0-.27,1.86,1.86,0,0,1,.67-1.07,2.18,2.18,0,0,1,1.3-.34,1.32,1.32,0,0,1,1.1.39,1,1,0,0,1,.18.62,1.94,1.94,0,0,1-.08.56Z"/><path class="cls-1" d="M105.77,138.08h-1.29l2.1-6.84h2.07l-.64,5h0l2.4-5h2.1l-2,6.84h-1.29l1.78-5.77h0l-2.78,5.77h-1.46l.69-5.9h0Z"/><path class="cls-1" d="M113.12,133.32h1.33l-1.38,4.76h-1.33Zm.62-2.08H115l-.34,1.16H113.4Z"/><path class="cls-1" d="M117.81,136.36a2.9,2.9,0,0,1-.73,1.41,1.89,1.89,0,0,1-1.31.41,1.1,1.1,0,0,1-1.38-1.14,3.81,3.81,0,0,1,.15-.91l.25-.85a3.78,3.78,0,0,1,.81-1.62,1.93,1.93,0,0,1,1.36-.44,1.31,1.31,0,0,1,1.18.44,1.28,1.28,0,0,1,.15.59,3.68,3.68,0,0,1-.14.83H116.9a2.24,2.24,0,0,0,.13-.79c0-.14-.12-.21-.3-.21s-.25.11-.35.33a14.41,14.41,0,0,0-.46,1.37l-.25.85a1.32,1.32,0,0,0-.06.55c0,.12.12.17.26.17a.39.39,0,0,0,.32-.22,2.76,2.76,0,0,0,.33-.77Z"/><path class="cls-1" d="M119.54,133.32h1.19l-.16.58a2,2,0,0,1,1.4-.68h.16l-.4,1.34a.6.6,0,0,0-.24-.05,1.21,1.21,0,0,0-.91.33A2.93,2.93,0,0,0,120,136l-.6,2h-1.28Z"/><path class="cls-1" d="M121.94,137.67a1.24,1.24,0,0,1-.2-.71,2.39,2.39,0,0,1,.12-.7l.31-1.1a3.09,3.09,0,0,1,.82-1.52,2.2,2.2,0,0,1,1.47-.42,1.44,1.44,0,0,1,1.27.47,1.11,1.11,0,0,1,.18.65,3.06,3.06,0,0,1-.14.82l-.32,1.1a3,3,0,0,1-.82,1.51,2.15,2.15,0,0,1-1.45.41A1.4,1.4,0,0,1,121.94,137.67Zm1.87-.55a3.55,3.55,0,0,0,.33-.86l.32-1.1a2.75,2.75,0,0,0,.15-.87c0-.14-.15-.21-.37-.21a.46.46,0,0,0-.42.21,3.13,3.13,0,0,0-.33.87l-.31,1.1a2.48,2.48,0,0,0-.16.85c0,.14.15.22.37.22A.47.47,0,0,0,123.81,137.12Z"/><path class="cls-1" d="M129.78,138.18a1.45,1.45,0,0,1-1.27-.5,1.18,1.18,0,0,1-.22-.71,2.52,2.52,0,0,1,.11-.67l.18-.59a5.19,5.19,0,0,1,.91-2,1.82,1.82,0,0,1,1.39-.53h0a1.51,1.51,0,0,1,1.32.48,1.14,1.14,0,0,1,.19.68,2.6,2.6,0,0,1-.12.78L132,136h-2.17l-.11.35a2.06,2.06,0,0,0-.13.82c0,.14.14.21.34.21a.44.44,0,0,0,.34-.2,2.53,2.53,0,0,0,.3-.67h1.25a2.41,2.41,0,0,1-.72,1.33A2,2,0,0,1,129.78,138.18Zm1.2-3h0a2.75,2.75,0,0,0,.15-.87c0-.14-.12-.21-.31-.21a.46.46,0,0,0-.42.2,2.55,2.55,0,0,0-.34.83l0,.06Z"/><path class="cls-1" d="M136.5,131.24h1.73a2,2,0,0,1,1.69.56,1.33,1.33,0,0,1,.21.78,4.2,4.2,0,0,1-.17,1.06l0,.08a2.23,2.23,0,0,1-.78,1.3,2.8,2.8,0,0,1-1.59.34h-.82l-.79,2.72h-1.43Zm.54,3.09h.46a1.23,1.23,0,0,0,.7-.19,1.08,1.08,0,0,0,.37-.59l.05-.16a1.23,1.23,0,0,0,0-.86c-.09-.17-.3-.26-.63-.26h-.39Z"/><path class="cls-1" d="M141.31,138.18a1.44,1.44,0,0,1-1.27-.5,1.18,1.18,0,0,1-.22-.71,2.21,2.21,0,0,1,.12-.67l.17-.59a5.19,5.19,0,0,1,.91-2,1.82,1.82,0,0,1,1.39-.53h0a1.52,1.52,0,0,1,1.32.48,1.21,1.21,0,0,1,.19.68,3,3,0,0,1-.12.78l-.24.79h-2.17l-.1.35a2,2,0,0,0-.14.82c0,.14.14.21.34.21a.44.44,0,0,0,.34-.2,2.91,2.91,0,0,0,.3-.67h1.25a2.47,2.47,0,0,1-.72,1.33A2,2,0,0,1,141.31,138.18Zm1.2-3h0a2.57,2.57,0,0,0,.16-.87c0-.14-.12-.21-.31-.21a.49.49,0,0,0-.43.2,3.19,3.19,0,0,0-.33.83l0,.06Z"/><path class="cls-1" d="M144.93,138.18a.82.82,0,0,1-.85-.51,1.21,1.21,0,0,1-.08-.52,2.59,2.59,0,0,1,.15-.89l.31-1.1a4.21,4.21,0,0,1,.68-1.47,1.16,1.16,0,0,1,.91-.47,1.33,1.33,0,0,1,1,.43l.09.1.12-.43h1.22l-1.9,6.54h-1.27l.58-2A1.43,1.43,0,0,1,144.93,138.18Zm1.63-4.12a.57.57,0,0,0-.43.22,2,2,0,0,0-.33.7l-.42,1.45a1.27,1.27,0,0,0-.06.67c0,.17.13.25.28.25a.51.51,0,0,0,.42-.21,2.59,2.59,0,0,0,.36-.75l.46-1.61a.88.88,0,0,0,0-.53A.27.27,0,0,0,146.56,134.06Z"/><path class="cls-1" d="M149.87,136.84a.6.6,0,0,0,0,.37.23.23,0,0,0,.23.13.56.56,0,0,0,.46-.27,2.59,2.59,0,0,0,.38-.83l.85-2.92h1.32l-1.38,4.76h-1.23l.14-.47-.05,0a1.67,1.67,0,0,1-1.21.53.82.82,0,0,1-.76-.34.84.84,0,0,1-.11-.44,1.52,1.52,0,0,1,.08-.49l1-3.59h1.29Z"/><path class="cls-1" d="M154.48,138.18a1.43,1.43,0,0,1-1.26-.5A1.11,1.11,0,0,1,153,137a2.52,2.52,0,0,1,.11-.67l.18-.59a5.2,5.2,0,0,1,.9-2,1.85,1.85,0,0,1,1.4-.53h0a1.53,1.53,0,0,1,1.32.48,1.21,1.21,0,0,1,.19.68,2.64,2.64,0,0,1-.13.78l-.23.79h-2.18l-.1.35a2.37,2.37,0,0,0-.14.82c0,.14.14.21.34.21a.43.43,0,0,0,.34-.2,2.5,2.5,0,0,0,.31-.67h1.25a2.53,2.53,0,0,1-.71,1.33A2.06,2.06,0,0,1,154.48,138.18Zm1.21-3h0a2.57,2.57,0,0,0,.16-.87c0-.14-.12-.21-.31-.21a.49.49,0,0,0-.43.2,2.86,2.86,0,0,0-.33.83l0,.06Z"/><path class="cls-1" d="M158.33,133.32h1.28l-.12.45,0,0a1.64,1.64,0,0,1,1.18-.53.8.8,0,0,1,.75.34,1.1,1.1,0,0,1,0,.94l-1,3.58h-1.28l1-3.51a.6.6,0,0,0,0-.37.24.24,0,0,0-.23-.14.6.6,0,0,0-.48.27,3.2,3.2,0,0,0-.38.84l-.84,2.91H157Z"/><path class="cls-1" d="M162.72,138.18a.89.89,0,0,1-.86-.42,1.08,1.08,0,0,1-.12-.52,2.79,2.79,0,0,1,.84-1.85,2.69,2.69,0,0,1,1.51-.32h.45l.14-.45a.64.64,0,0,0,0-.41.29.29,0,0,0-.29-.13.41.41,0,0,0-.32.12,1.5,1.5,0,0,0-.24.51h-1.31a2,2,0,0,1,.62-1.14,2.08,2.08,0,0,1,1.29-.33,1.87,1.87,0,0,1,1.27.38.88.88,0,0,1,.28.65,1.22,1.22,0,0,1-.06.35l-.61,2.1a4.78,4.78,0,0,0-.17.7,6.7,6.7,0,0,0-.12.66h-1.27l.12-.42-.07.07A1.51,1.51,0,0,1,162.72,138.18Zm1.6-2.36h-.19a1.16,1.16,0,0,0-.67.15,1.27,1.27,0,0,0-.32.59l0,.16a.66.66,0,0,0,0,.46.31.31,0,0,0,.31.17.49.49,0,0,0,.41-.21,3.52,3.52,0,0,0,.37-.84Z"/><path class="cls-1" d="M168.63,134.79a1.41,1.41,0,0,0,.08-.57c0-.09-.08-.14-.19-.14a.3.3,0,0,0-.25.12,1,1,0,0,0-.15.37.55.55,0,0,0,0,.36.45.45,0,0,0,.21.22,2.77,2.77,0,0,1,1,.75.82.82,0,0,1,.17.51,1.25,1.25,0,0,1-.05.32,1.85,1.85,0,0,1-.65,1.13,2.31,2.31,0,0,1-1.37.32,1.36,1.36,0,0,1-1.17-.41.94.94,0,0,1-.18-.59,2.52,2.52,0,0,1,.11-.67h1.29a1.94,1.94,0,0,0-.1.67c0,.1.11.15.25.15a.37.37,0,0,0,.28-.13,1.22,1.22,0,0,0,.18-.41.62.62,0,0,0,0-.41.58.58,0,0,0-.29-.29,2.17,2.17,0,0,1-.86-.67.9.9,0,0,1-.17-.52,1.26,1.26,0,0,1,0-.27,1.8,1.8,0,0,1,.66-1.07,2.22,2.22,0,0,1,1.3-.34,1.32,1.32,0,0,1,1.1.39,1,1,0,0,1,.18.62,2.36,2.36,0,0,1-.08.56Z"/><path class="cls-1" d="M38.34,150l2-6.84h3.41l-.15.51-.15.52h-2L40.94,146h1.83l-.15.52-.15.52H40.64l-.57,2h2l-.15.51-.15.52Z"/><path class="cls-1" d="M44.14,145.24h1.13l-.13.46,0,0a1.68,1.68,0,0,1,1.2-.53.84.84,0,0,1,.78.35l.09.2,0,0a1.82,1.82,0,0,1,1.26-.53.89.89,0,0,1,.82.36.9.9,0,0,1,.12.48,1.8,1.8,0,0,1-.08.53l-1,3.49H47.09l1-3.51a.55.55,0,0,0,0-.38.23.23,0,0,0-.23-.13.6.6,0,0,0-.48.27,2.59,2.59,0,0,0-.38.83L46.19,150H44.93l1-3.49a.58.58,0,0,0,0-.39.23.23,0,0,0-.23-.14.6.6,0,0,0-.48.27,2.82,2.82,0,0,0-.38.83L44,150H42.76Z"/><path class="cls-1" d="M50.66,145.24h1.16l-.16.53.09-.1a1.52,1.52,0,0,1,1.19-.53.78.78,0,0,1,.82.51,1.38,1.38,0,0,1,.08.48,3.66,3.66,0,0,1-.18,1l-.27.95a4.17,4.17,0,0,1-.72,1.54,1.32,1.32,0,0,1-1,.46,1,1,0,0,1-.93-.48l0,0-.63,2.2H48.77Zm.61,4a.55.55,0,0,0,.41-.18,1.44,1.44,0,0,0,.27-.57l.48-1.64a1.18,1.18,0,0,0,0-.65.28.28,0,0,0-.3-.23.56.56,0,0,0-.45.29,4.64,4.64,0,0,0-.4,1L51,148.44a1.1,1.1,0,0,0,0,.6A.31.31,0,0,0,51.27,149.26Z"/><path class="cls-1" d="M55.19,145.24h1.19l-.16.58a1.9,1.9,0,0,1,1.39-.68h.17l-.4,1.33a.66.66,0,0,0-.25,0,1.19,1.19,0,0,0-.9.33,2.92,2.92,0,0,0-.55,1.2l-.59,2H53.81Z"/><path class="cls-1" d="M58.84,150.1a1.47,1.47,0,0,1-1.27-.5,1.17,1.17,0,0,1-.21-.71,2.47,2.47,0,0,1,.1-.67l.18-.6a5.21,5.21,0,0,1,.91-2,1.78,1.78,0,0,1,1.39-.53h0a1.53,1.53,0,0,1,1.32.48,1.12,1.12,0,0,1,.19.68,2.75,2.75,0,0,1-.13.78l-.23.79H58.89l-.11.35a2,2,0,0,0-.13.82c0,.14.14.2.34.2a.39.39,0,0,0,.33-.2,2,2,0,0,0,.31-.66h1.25a2.57,2.57,0,0,1-.71,1.33A2,2,0,0,1,58.84,150.1Zm1.2-3h0a2.61,2.61,0,0,0,.16-.87c0-.15-.12-.22-.31-.22a.49.49,0,0,0-.43.21,2.86,2.86,0,0,0-.33.83l0,.06Z"/><path class="cls-1" d="M64,146.71a1.72,1.72,0,0,0,.09-.57.18.18,0,0,0-.2-.15.32.32,0,0,0-.25.12,1.18,1.18,0,0,0-.15.37.55.55,0,0,0,0,.36.49.49,0,0,0,.22.23,2.62,2.62,0,0,1,1,.74.85.85,0,0,1,.17.52,1.32,1.32,0,0,1,0,.32,1.9,1.9,0,0,1-.65,1.13,2.29,2.29,0,0,1-1.37.32,1.38,1.38,0,0,1-1.17-.42.92.92,0,0,1-.18-.59,2.45,2.45,0,0,1,.11-.66h1.29a1.79,1.79,0,0,0-.09.66c0,.1.1.15.25.15a.32.32,0,0,0,.27-.13,1.13,1.13,0,0,0,.18-.41.55.55,0,0,0-.31-.69,2.27,2.27,0,0,1-.86-.68,1,1,0,0,1-.17-.51,2.7,2.7,0,0,1,0-.28,1.83,1.83,0,0,1,.67-1.06,2.17,2.17,0,0,1,1.29-.34,1.31,1.31,0,0,1,1.1.39,1,1,0,0,1,.18.61,2.46,2.46,0,0,1-.07.57Z"/><path class="cls-1" d="M66.53,150.1a.91.91,0,0,1-.87-.42,1.22,1.22,0,0,1-.12-.53,2.86,2.86,0,0,1,.11-.64,2.08,2.08,0,0,1,.73-1.21A2.8,2.8,0,0,1,67.9,147h.45l.13-.45a.55.55,0,0,0,0-.4.29.29,0,0,0-.29-.14.36.36,0,0,0-.31.13,1.47,1.47,0,0,0-.25.51H66.33a2.05,2.05,0,0,1,.62-1.15,2.17,2.17,0,0,1,1.29-.32,1.8,1.8,0,0,1,1.27.38.86.86,0,0,1,.28.64,1.48,1.48,0,0,1-.05.35l-.62,2.1c-.06.23-.12.46-.17.7s-.09.46-.12.67H67.56l.12-.42-.06.06A1.5,1.5,0,0,1,66.53,150.1Zm1.6-2.36h-.19a1.14,1.14,0,0,0-.67.15,1.1,1.1,0,0,0-.33.59l0,.15a.69.69,0,0,0,0,.47.31.31,0,0,0,.31.16.48.48,0,0,0,.41-.21,3.31,3.31,0,0,0,.38-.83Z"/><path class="cls-1" d="M72.44,146.71a1.92,1.92,0,0,0,.08-.57.18.18,0,0,0-.2-.15.33.33,0,0,0-.25.12,1.18,1.18,0,0,0-.15.37.72.72,0,0,0,0,.36.49.49,0,0,0,.22.23,2.62,2.62,0,0,1,1,.74.85.85,0,0,1,.17.52,2,2,0,0,1,0,.32,1.91,1.91,0,0,1-.66,1.13,2.29,2.29,0,0,1-1.37.32,1.38,1.38,0,0,1-1.17-.42,1,1,0,0,1-.18-.59,2.92,2.92,0,0,1,.11-.66h1.29a2.06,2.06,0,0,0-.09.66c0,.1.1.15.25.15a.32.32,0,0,0,.27-.13.87.87,0,0,0,.18-.41.63.63,0,0,0,0-.41.63.63,0,0,0-.3-.28,2.27,2.27,0,0,1-.86-.68.88.88,0,0,1-.16-.51,1.33,1.33,0,0,1,0-.28,1.83,1.83,0,0,1,.67-1.06,2.17,2.17,0,0,1,1.29-.34,1.29,1.29,0,0,1,1.1.39,1,1,0,0,1,.18.61,2,2,0,0,1-.07.57Z"/><path class="cls-1" d="M77.14,150.1a.82.82,0,0,1-.84-.51,1.26,1.26,0,0,1-.09-.53,3.6,3.6,0,0,1,.14-.89l.32-1.09a4.12,4.12,0,0,1,.68-1.47,1.13,1.13,0,0,1,.91-.47,1.28,1.28,0,0,1,1,.43l.07.07.72-2.48h1.28l-2,6.84H78.22l.14-.47-.13.13A1.5,1.5,0,0,1,77.14,150.1ZM78.77,146a.57.57,0,0,0-.44.23,2.09,2.09,0,0,0-.32.7l-.42,1.44a1.6,1.6,0,0,0-.07.68.28.28,0,0,0,.29.24.53.53,0,0,0,.42-.2,3.14,3.14,0,0,0,.35-.75l.47-1.62a.85.85,0,0,0,0-.52A.3.3,0,0,0,78.77,146Z"/><path class="cls-1" d="M80.83,149.59a1.26,1.26,0,0,1-.19-.71,2.41,2.41,0,0,1,.11-.71l.32-1.09a3.18,3.18,0,0,1,.81-1.53,2.22,2.22,0,0,1,1.47-.41,1.43,1.43,0,0,1,1.28.47,1.16,1.16,0,0,1,.17.65,3.52,3.52,0,0,1-.13.82l-.32,1.09a3.06,3.06,0,0,1-.82,1.52,2.23,2.23,0,0,1-1.46.41A1.41,1.41,0,0,1,80.83,149.59Zm1.88-.56a3.31,3.31,0,0,0,.32-.86l.32-1.09a2.27,2.27,0,0,0,.15-.87c0-.15-.15-.22-.37-.22a.49.49,0,0,0-.42.21,3.56,3.56,0,0,0-.32.88l-.32,1.09a2.19,2.19,0,0,0-.15.86c0,.14.15.21.37.21A.49.49,0,0,0,82.71,149Z"/><path class="cls-1" d="M89,143.16h1.64a2,2,0,0,1,1.59.49,1.14,1.14,0,0,1,.21.72,3.17,3.17,0,0,1-.15.88l0,.06a1.75,1.75,0,0,1-.73,1.05,2.23,2.23,0,0,1-1,.31,1.53,1.53,0,0,1,.83.33c.24.23.28.61.13,1.13-.08.26-.14.52-.19.76s-.1.53-.13.7a3.43,3.43,0,0,0,0,.41H89.69a3.87,3.87,0,0,1,0-.48,5,5,0,0,1,.12-.61c0-.23.12-.49.2-.78s.11-.62,0-.75-.32-.21-.68-.21h-.15L88.4,150H87Zm.54,3h.24a1.32,1.32,0,0,0,.73-.18,1,1,0,0,0,.38-.56l0-.14a1.14,1.14,0,0,0,0-.82c-.09-.16-.31-.24-.64-.24h-.21Z"/><path class="cls-1" d="M93.44,145.24h1.32L93.38,150H92.06Zm.62-2.08h1.28L95,144.32H93.72Z"/><path class="cls-1" d="M94.93,149.59a1.26,1.26,0,0,1-.2-.71,2.45,2.45,0,0,1,.12-.71l.31-1.09a3.18,3.18,0,0,1,.82-1.53,2.22,2.22,0,0,1,1.47-.41,1.43,1.43,0,0,1,1.28.47,1.16,1.16,0,0,1,.17.65,3.12,3.12,0,0,1-.14.82l-.32,1.09a3.06,3.06,0,0,1-.81,1.52,2.24,2.24,0,0,1-1.47.41A1.38,1.38,0,0,1,94.93,149.59ZM96.8,149a2.9,2.9,0,0,0,.33-.86l.32-1.09a2.79,2.79,0,0,0,.15-.87c0-.15-.15-.22-.37-.22a.49.49,0,0,0-.42.21,3.18,3.18,0,0,0-.32.88l-.33,1.09A2.4,2.4,0,0,0,96,149c0,.14.15.21.38.21A.46.46,0,0,0,96.8,149Z"/><path class="cls-1" d="M103.59,150.1a2,2,0,0,1-1.72-.65,1.57,1.57,0,0,1-.24-.9,3.94,3.94,0,0,1,.17-1.05l.53-1.83a4.77,4.77,0,0,1,1-2.08,2.62,2.62,0,0,1,1.82-.53,1.79,1.79,0,0,1,1.43.53,1.33,1.33,0,0,1,.22,1.35l-.1.34h-1.38l.1-.34a.85.85,0,0,0,0-.64.57.57,0,0,0-.52-.21.76.76,0,0,0-.65.35,4.08,4.08,0,0,0-.51,1.22l-.53,1.83a2.61,2.61,0,0,0-.15,1.22c.08.24.29.36.64.36h0a1.76,1.76,0,0,0,.52-.1l.47-1.57H104l.3-1h2.14l-1,3.42A5,5,0,0,1,103.59,150.1Z"/><path class="cls-1" d="M107.92,145.24h1.18l-.16.58a1.92,1.92,0,0,1,1.4-.68h.17l-.4,1.33a.69.69,0,0,0-.25,0,1.22,1.22,0,0,0-.91.33,2.93,2.93,0,0,0-.54,1.2l-.6,2h-1.27Z"/><path class="cls-1" d="M111,150.1a.89.89,0,0,1-.87-.42,1.09,1.09,0,0,1-.12-.53,2.38,2.38,0,0,1,.11-.64,2,2,0,0,1,.73-1.21,2.78,2.78,0,0,1,1.51-.32h.45l.14-.45a.61.61,0,0,0,0-.4.3.3,0,0,0-.29-.14.41.41,0,0,0-.32.13,1.73,1.73,0,0,0-.24.51h-1.31a2,2,0,0,1,.63-1.15,2.11,2.11,0,0,1,1.28-.32,1.82,1.82,0,0,1,1.27.38.86.86,0,0,1,.28.64,1.12,1.12,0,0,1-.06.35l-.61,2.1c-.06.23-.12.46-.17.7a4.44,4.44,0,0,0-.11.67h-1.28l.12-.42-.06.06A1.5,1.5,0,0,1,111,150.1Zm1.59-2.36h-.19a1.16,1.16,0,0,0-.67.15,1.1,1.1,0,0,0-.32.59l0,.15a.69.69,0,0,0,0,.47.31.31,0,0,0,.31.16.51.51,0,0,0,.41-.21,3,3,0,0,0,.37-.83Z"/><path class="cls-1" d="M115.59,145.24h1.28l-.11.44h0a1.66,1.66,0,0,1,1.18-.53.84.84,0,0,1,.76.33,1.17,1.17,0,0,1,0,.95l-1,3.58h-1.28l1-3.51a.55.55,0,0,0,0-.38.21.21,0,0,0-.22-.13.59.59,0,0,0-.47.27,2.59,2.59,0,0,0-.38.83l-.84,2.92h-1.33Z"/><path class="cls-1" d="M120,150.1a.84.84,0,0,1-.85-.51,1.44,1.44,0,0,1-.08-.53,2.85,2.85,0,0,1,.14-.89l.32-1.09a4.12,4.12,0,0,1,.68-1.47,1.12,1.12,0,0,1,.91-.47,1.28,1.28,0,0,1,1,.43l.07.07.72-2.48h1.27l-2,6.84h-1.15l.14-.47-.13.13A1.47,1.47,0,0,1,120,150.1Zm1.63-4.13a.57.57,0,0,0-.44.23,2.09,2.09,0,0,0-.32.7l-.42,1.44a1.31,1.31,0,0,0-.06.68.26.26,0,0,0,.28.24.53.53,0,0,0,.42-.2,2.74,2.74,0,0,0,.36-.75l.46-1.62a.87.87,0,0,0,0-.52A.31.31,0,0,0,121.61,146Z"/><path class="cls-1" d="M124.92,150.1a1.5,1.5,0,0,1-1.27-.5,1.17,1.17,0,0,1-.2-.71,2.17,2.17,0,0,1,.11-.67l.16-.6a5.37,5.37,0,0,1,.91-2,1.79,1.79,0,0,1,1.39-.53h0a1.53,1.53,0,0,1,1.32.48,1.19,1.19,0,0,1,.19.68,2.75,2.75,0,0,1-.13.78l-.23.79H125l-.1.35a2.34,2.34,0,0,0-.14.82c0,.14.14.2.34.2a.4.4,0,0,0,.34-.2,2.27,2.27,0,0,0,.31-.66H127a2.51,2.51,0,0,1-.72,1.33A2,2,0,0,1,124.92,150.1Zm1.2-3h0a2.61,2.61,0,0,0,.16-.87c0-.15-.13-.22-.31-.22a.48.48,0,0,0-.43.21,2.86,2.86,0,0,0-.33.83l0,.06Z"/><path class="cls-1" d="M130.78,150.1a.83.83,0,0,1-.85-.51,1.26,1.26,0,0,1-.08-.53,2.85,2.85,0,0,1,.14-.89l.32-1.09a4.3,4.3,0,0,1,.68-1.47,1.12,1.12,0,0,1,.91-.47,1.28,1.28,0,0,1,1,.43l.07.07.71-2.48H135L133,150h-1.16l.14-.47-.13.13A1.5,1.5,0,0,1,130.78,150.1Zm1.63-4.13a.57.57,0,0,0-.44.23,1.91,1.91,0,0,0-.32.7l-.42,1.44a1.33,1.33,0,0,0-.07.68.27.27,0,0,0,.29.24.5.5,0,0,0,.41-.2,2.74,2.74,0,0,0,.36-.75l.46-1.62a.8.8,0,0,0,0-.52A.3.3,0,0,0,132.41,146Z"/><path class="cls-1" d="M134.47,149.59a1.18,1.18,0,0,1-.19-.71,2.12,2.12,0,0,1,.11-.71l.32-1.09a3.1,3.1,0,0,1,.81-1.53,2.22,2.22,0,0,1,1.47-.41,1.45,1.45,0,0,1,1.28.47,1.16,1.16,0,0,1,.17.65,3.52,3.52,0,0,1-.13.82l-.33,1.09a3.06,3.06,0,0,1-.81,1.52,2.23,2.23,0,0,1-1.46.41A1.41,1.41,0,0,1,134.47,149.59Zm1.88-.56a3.31,3.31,0,0,0,.32-.86l.32-1.09a2.79,2.79,0,0,0,.15-.87c0-.15-.15-.22-.37-.22a.47.47,0,0,0-.42.21,3.1,3.1,0,0,0-.33.88l-.31,1.09a2.49,2.49,0,0,0-.16.86c0,.14.16.21.38.21A.49.49,0,0,0,136.35,149Z"/><path class="cls-1" d="M141.92,150h-1.24l2-6.84h1.72l0,5,1.44-5h1.25l-2,6.84H143.3l0-4.83Z"/><path class="cls-1" d="M146.74,149.59a1.26,1.26,0,0,1-.2-.71,2.16,2.16,0,0,1,.12-.71l.31-1.09a3.27,3.27,0,0,1,.81-1.53,2.25,2.25,0,0,1,1.48-.41,1.42,1.42,0,0,1,1.27.47,1.16,1.16,0,0,1,.18.65,3.12,3.12,0,0,1-.14.82l-.32,1.09a3.06,3.06,0,0,1-.81,1.52,2.26,2.26,0,0,1-1.47.41A1.38,1.38,0,0,1,146.74,149.59Zm1.87-.56a2.7,2.7,0,0,0,.32-.86l.33-1.09a2.79,2.79,0,0,0,.15-.87c0-.15-.15-.22-.38-.22a.46.46,0,0,0-.41.21,3.1,3.1,0,0,0-.33.88l-.32,1.09a2.4,2.4,0,0,0-.15.86c0,.14.15.21.38.21A.47.47,0,0,0,148.61,149Z"/><path class="cls-1" d="M152,145.24h1.19l-.16.58a1.91,1.91,0,0,1,1.4-.68h.17l-.41,1.33a.62.62,0,0,0-.25,0,1.19,1.19,0,0,0-.9.33,3.21,3.21,0,0,0-.55,1.2l-.59,2h-1.28Z"/><path class="cls-1" d="M156.15,150.05a4.34,4.34,0,0,1-.63,0,1.15,1.15,0,0,1-1.06-.41,1.59,1.59,0,0,1,0-1.3l.72-2.33h-.62l.25-.82h.63l.23-.76,1.44-.39-.35,1.15h.72l-.26.82h-.72l-.71,2.33c-.12.36-.14.6-.08.7s.24.15.56.15h.11Z"/><path class="cls-1" d="M158.79,150.1a1.48,1.48,0,0,1-1.27-.5,1.17,1.17,0,0,1-.21-.71,2.94,2.94,0,0,1,.1-.67l.18-.6a5.21,5.21,0,0,1,.91-2,1.78,1.78,0,0,1,1.39-.53h0a1.56,1.56,0,0,1,1.32.48,1.19,1.19,0,0,1,.18.68,2.7,2.7,0,0,1-.12.78l-.24.79h-2.18l-.1.35a2.62,2.62,0,0,0-.14.82c0,.14.15.2.35.2a.42.42,0,0,0,.34-.2,2.27,2.27,0,0,0,.31-.66h1.25a2.51,2.51,0,0,1-.72,1.33A2,2,0,0,1,158.79,150.1Zm1.2-3h0a2.91,2.91,0,0,0,.16-.87c0-.15-.13-.22-.32-.22a.49.49,0,0,0-.43.21,2.65,2.65,0,0,0-.32.83l0,.06Z"/></svg>