<svg id="Camada_1" data-name="Camada 1" xmlns="http://www.w3.org/2000/svg" viewBox="0 0 200 200"><defs><style>.cls-1{fill:#4666a9;}</style></defs><title>logo</title><path class="cls-1" d="M28.3,88.7c-2,0-2.58.89-2.58,2.85V94.8h5.34L30.52,100h-4.8V116H19.31V100H15V94.8h4.31V91.64c0-5.3,2.14-8.1,8.1-8.1a31,31,0,0,1,3.74.22V88.7Z"/><path class="cls-1" d="M31.5,104.72c0-5.92,2.8-10.37,8.68-10.37A6.29,6.29,0,0,1,46.27,98V94.8h6.14V116H46.27v-3.2a6.22,6.22,0,0,1-6.09,3.64c-5.88,0-8.68-4.44-8.68-10.36Zm6.41,1.42c0,3.16,1.15,5.25,4.13,5.25,2.63,0,4-1.92,4-4.94v-2.14c0-3-1.33-4.93-4-4.93-3,0-4.13,2.09-4.13,5.25Z"/><path class="cls-1" d="M65.75,94.35a11.7,11.7,0,0,1,6.14,1.42l-1.42,4.54a10.07,10.07,0,0,0-4.27-1c-3.47,0-5,2-5,5.43V106c0,3.42,1.52,5.42,5,5.42a10.07,10.07,0,0,0,4.27-1L71.89,115a11.7,11.7,0,0,1-6.14,1.42c-7.52,0-10.94-4-10.94-10.54v-1C54.81,98.4,58.23,94.35,65.75,94.35Z"/><path class="cls-1" d="M72.73,106.18v-1.87c0-6,3.43-10,10.41-10,6.59,0,9.48,4,9.48,9.88v3.38H79.14c.13,2.89,1.42,4.18,5,4.18a18.24,18.24,0,0,0,6.81-1.29l1.15,4.4a20.65,20.65,0,0,1-8.23,1.56C75.76,116.46,72.73,112.41,72.73,106.18Zm6.41-2.75h7.74v-.54c0-2.31-.93-4.14-3.74-4.14S79.14,100.58,79.14,103.43Z"/><path class="cls-1" d="M116.37,106.05c0,5.92-2.85,10.36-8.72,10.36-3.2,0-5.43-1.6-6.32-3.64V116h-6V84.16l6.41-.57V97.73a6.38,6.38,0,0,1,6-3.38c5.87,0,8.72,4.45,8.72,10.37ZM110,104.58c0-3-1.15-5.2-4.22-5.2-2.63,0-4,1.87-4,4.89v2.22c0,3,1.42,4.9,4,4.9,3.07,0,4.22-2.23,4.22-5.21Z"/><path class="cls-1" d="M118.5,105.92v-1.07c0-6.1,3.47-10.5,10.55-10.5s10.54,4.4,10.54,10.5v1.07c0,6.09-3.47,10.49-10.54,10.49S118.5,112,118.5,105.92Zm14.68-1.52c0-2.8-1.15-5-4.13-5s-4.14,2.22-4.14,5v2c0,2.8,1.15,5,4.14,5s4.13-2.23,4.13-5Z"/><path class="cls-1" d="M141.72,105.92v-1.07c0-6.1,3.47-10.5,10.54-10.5s10.55,4.4,10.55,10.5v1.07c0,6.09-3.47,10.49-10.55,10.49S141.72,112,141.72,105.92Zm14.68-1.52c0-2.8-1.16-5-4.14-5s-4.13,2.22-4.13,5v2c0,2.8,1.15,5,4.13,5s4.14-2.23,4.14-5Z"/><path class="cls-1" d="M171.61,104.89l6.32-10.09h6.8l-6.62,10.45L185,116h-6.81l-6.58-10.37V116h-6.4V84.16l6.4-.57Z"/></svg>