<?xml version="1.0" encoding="utf-8"?>
<!-- Generator: Adobe Illustrator 22.1.0, SVG Export Plug-In . SVG Version: 6.00 Build 0)  -->
<svg version="1.1" id="Layer_1" xmlns="http://www.w3.org/2000/svg" xmlns:xlink="http://www.w3.org/1999/xlink" x="0px" y="0px"
	 viewBox="0 0 1209.1 752.3" style="enable-background:new 0 0 1209.1 752.3;" xml:space="preserve">
<style type="text/css">
	.st0{fill:#0181FF;stroke:#0181FF;stroke-width:9.000000e-02;stroke-miterlimit:10;}
</style>
<title>logo_globo</title>
<g>
	<path class="st0" d="M338.3,56.8c13.6-3.9,29.7,1.8,36.8,14c6.4,9.4,6.8,21.1,7,32.1c-0.3,93.6-0.3,187.2,0,280.8
		c-0.1,9.5-0.7,19.1-4.3,27.9c-7.9,18.6-34.6,26.3-50.7,13.4c-12.6-8-15.4-24.9-14.8-38.6c0.4-98-0.1-196.1,0.3-294.1
		C311.9,76.6,322.3,59.6,338.3,56.8z"/>
	<path class="st0" d="M96.2,190.2c29.5-26.5,76.7-34.1,111.4-13.2c7.5,5.5,14.3,12,20.1,19.2c3.4-7.5,6.4-15.4,12.4-21.2
		c13.6-9.9,35-10.2,46.8,2.9c9.8,9.8,11.1,24.2,11,37.3c-0.1,62.3-0.1,124.7,0,187.2c0.4,24.9-3.6,50.5-15.8,72.6
		c-9.6,16.6-23.3,30.9-40,40.4c-31.3,18.2-69.4,20.6-104.7,16.5c-22.1-4.3-44.8-9.2-64.3-21.1c-9.9-6.1-19-16-19.4-28.4
		c0.1-11.8,8.2-22.1,17.8-28.2c12.8-6.7,26.5,0.4,38.9,4.7c22.2,9.2,46.5,16.7,70.8,13c18.4-2.4,36.1-14.3,42.6-32.1
		c4.9-12.3,4-25.8,4.4-38.8c-8.8,10.2-18.6,19.9-31,25.4c-36.1,15.1-82,9.1-109.9-19.5c-18.7-17.7-29.2-42.6-34.2-67.4
		s-6.1-50.9,0.4-75.5C59.9,235.8,74,208.9,96.2,190.2z M169.9,229.4c-13.4,0.7-25.9,7.2-34,17.9c-11.8,15.5-17.1,35-17,54.3
		c1.2,17.5,4.6,36,15.8,49.9c13.2,19.2,41.3,23.9,61.5,13.6c13.9-7,22.6-21.4,27.1-35.8c6.6-18.3,5.2-38.5,0.1-57.1
		c-4.7-12.8-10.3-26.3-22.2-34.1C192.6,231,180.8,228.9,169.9,229.4L169.9,229.4z"/>
	<path class="st0" d="M514.8,165.1c28.7-1.1,57.5,9.4,79.3,27.8c37.6,31,54.2,82.9,46.9,130.5c-6.3,37.3-26.5,74.3-60,93.5
		c-35.4,21.4-82.1,23.5-118.9,4.3c-19.3-9.6-35.5-24.4-46.9-42.6c-17-25.4-23.1-56.8-22.3-86.9c2.8-43.7,25.9-86.9,64-109.6
		C474.2,170.9,494.6,165.9,514.8,165.1L514.8,165.1z M514.8,229.4c-12.6,0.5-25.5,5.6-33.6,15.6c-21.3,25.7-23.7,63.8-10.3,93.6
		c7.8,18.2,25.9,32,46,31.7c20.6,1.3,38.8-12.7,46.8-30.8c11.4-21.3,11-46.9,4.3-69.6c-4.4-12.2-10.7-24.5-21.8-31.8
		C537.5,231,525.8,228.9,514.8,229.4L514.8,229.4z"/>
	<path class="st0" d="M661.3,68.3c12.4-16.4,41.2-17.1,53.3,0c8,9,8,21.9,8.3,33.3c0,29-0.4,58-0.1,87c34.1-27.9,86.5-32.3,123-6.8
		c25.5,16,40.9,44,49.2,72.3c5.3,22.7,9.1,46.7,5,69.9c-3.9,27.9-16,54-34.6,75.1c-17.1,18.9-40.9,31.4-66.2,34.2
		c-28.3,4.5-59.4-7-75.9-30.6c-3.6,7.9-6.8,16.7-13.6,22.5c-16,10.6-41.7,7.1-50.9-10.8c-5.3-8.7-5.2-19.5-5.5-29.4
		c0.1-95.9,0.1-191.7,0-287.4C652.9,87.2,655.1,76.5,661.3,68.3L661.3,68.3z M775.5,229.1c-13.1,0.5-26.5,5.6-34.9,15.9
		c-11.8,15-18.3,34-17.4,53.1c0.5,22.2,6.3,46.2,23.9,61.1c18.6,16.6,50.4,13.9,66.2-5.3c25.5-31.1,24.5-81.6-2.8-111.4
		C801.3,233.3,788.6,228.4,775.5,229.1L775.5,229.1z"/>
	<path class="st0" d="M1032.2,165.1c28.8-1.1,57.5,9.4,79.3,27.8c37.6,31,54.2,82.9,46.9,130.5c-6.3,37.3-26.5,74.3-60,93.5
		c-35.4,21.4-82.1,23.5-118.8,4.3c-19.3-9.6-35.5-24.4-46.9-42.6c-17-25.4-23.1-56.8-22.3-86.9c2.8-43.7,25.9-86.9,64-109.6
		C991.6,170.9,1012,165.9,1032.2,165.1L1032.2,165.1z M1032.2,229.4c-12.6,0.5-25.5,5.6-33.5,15.6c-21.3,25.7-23.7,63.8-10.3,93.6
		c7.8,18.2,25.9,32,46,31.7c20.6,1.3,38.8-12.7,46.8-30.8c11.4-21.3,11-46.9,4.3-69.6c-4.4-12.2-10.7-24.5-21.8-31.8
		C1054.9,231,1043.2,228.9,1032.2,229.4L1032.2,229.4z"/>
	<path class="st0" d="M378.4,461.9c21-2.7,42.1,1.9,61.5,9.4c8.1,3.7,15.9,9.2,20.9,16.7c7.4,14.7,0,36.6-17,40.6
		c-13.2,2.3-24.6-6.5-37-9.2c-16.2-4.8-34.8-1.3-47.2,10.4c-19.4,19.9-22.1,51.3-13.6,76.9c7.1,17.2,22.9,33.7,42.8,33.5
		c15.1,1.7,28.5-6.4,42.5-10.7c15.8-5.6,33.4,9.2,32.1,25.5c0.9,12.7-9.4,22.9-19.9,28.1c-27.9,14.7-62.6,17.9-92.2,6.8
		c-35.4-13-61.2-46.4-68.2-83c-7.3-33.1-1.1-67.8,17.4-96.2C317.4,483.8,346.6,464.9,378.4,461.9L378.4,461.9z"/>
	<path class="st0" d="M777.8,465.5c22.7-7.8,49.5-4.8,69.1,9.5c6.8,4.7,12.7,10.7,18.4,16.7c14.8-15,33.8-26.3,54.8-29.7
		c24.7-3.3,51.3,3.8,70.2,20.6c16,15.5,22.9,38.2,22.5,60.2c0.4,37.8,0,75.8,0.3,113.6c0.1,11.2-2,24.3-11.8,31.2
		c-12.2,9.8-32.3,8.6-42-4.3c-7.5-10.6-7.3-23.9-7.8-36.2c-0.7-33.4,0.4-66.8-0.1-100.3c-1.1-12.6-7.6-25.9-19.5-31.3
		c-12.3-4.7-27.8-5-37.7,4.8c-10.6,8-13.4,22.1-13.5,34.5c-0.8,35.6,0.7,71.3-0.4,107c0.9,16.2-12.3,32.8-29.2,32.1
		c-9.2,1.6-17.6-3.3-23.7-9.8c-6.8-8.6-7.6-19.9-8-30.3c-1.2-35.7,0.3-71.4-0.4-107c-0.8-10.3-5.5-20-13-27.1
		c-14.7-11.4-38.6-9.8-50.1,5.5c-6.7,9.3-7.8,21.1-7.8,32.3c-0.3,33.4,0.3,66.8,0,100.3c0.1,8.7-1.3,18.2-7.1,25
		c-10,13.9-33,15.5-44.8,2.8c-9-9.6-9.2-23.5-9.6-35.8c-0.3-44.5,0.1-89.2-0.1-133.7c0.5-11.5-1.1-24.1,4.3-34.8
		c6.5-18.6,34.6-23.8,47.7-9.1c4,3.8,5.5,9.2,7.4,14.2C755.2,477.5,765.5,469.2,777.8,465.5L777.8,465.5z"/>
	<path class="st0" d="M557.6,461.9c31.7-4.1,64.4,8.6,86.1,31.7c45.3,45.2,45.5,126.9,0.5,172.5c-35,35.8-96.1,40.9-136.8,11.9
		c-36.6-26.1-53.3-74.1-46.7-117.8c6-35.8,27.1-70.2,60-87C532,466.9,544.9,463.5,557.6,461.9L557.6,461.9z M561.6,518
		c-25.4,3.3-39.7,30.8-40.7,54.1c-1.9,24.3,5.9,52.5,29,64.6c19.1,9.1,44.7,2.4,55.5-16.2c15.5-24.7,15-58.4-0.3-83.2
		C596.5,522.6,578.4,514.7,561.6,518L561.6,518z"/>
	<path class="st0" d="M240.7,631.7c19-5.5,39.7,10.7,39.6,30.1c2.5,18-14.2,35.4-32.1,34.6c-15.9,1.3-30.4-11.9-32.9-27.1
		C212,652.5,224.2,634.7,240.7,631.7L240.7,631.7z"/>
</g>
</svg>
