<svg xmlns="http://www.w3.org/2000/svg" viewBox="8510 2027 55.817 38.97">
  <defs>
    <style>
      .cls-1 {
        fill: #fff;
      }
    </style>
  </defs>
  <path id="Path_14" data-name="Path 14" class="cls-1" d="M27.907.014c2.265,0,4.53-.037,6.794.009,2.9.059,5.8.14,8.7.3A51.907,51.907,0,0,1,49.309.9a6.56,6.56,0,0,1,5.256,4.507,17.537,17.537,0,0,1,.959,5.3c.164,3.717.284,7.439.3,11.16a53.991,53.991,0,0,1-.655,9.255,8.893,8.893,0,0,1-2.11,4.926A6.729,6.729,0,0,1,48.6,38.2c-3.118.237-6.239.432-9.36.611-1.358.078-2.72.094-4.081.1-4.315.029-8.63.067-12.945.052-2.344-.008-4.69-.065-7.03-.194-2.794-.155-5.592-.323-8.369-.646a7,7,0,0,1-5.945-5.92A44.645,44.645,0,0,1,.081,24.3c-.035-2.723-.113-5.446-.064-8.168A46.319,46.319,0,0,1,.986,6.328,7.106,7.106,0,0,1,7.278.759C11.57.312,15.871.107,20.183.083c2.575-.014,5.15,0,7.725,0ZM38.515,18.947l-17.793-9.3V28.194Z" transform="translate(8509.998 2027)"/>
</svg>
