<?xml version="1.0" encoding="UTF-8" standalone="no"?>
<svg
   xmlns:dc="http://purl.org/dc/elements/1.1/"
   xmlns:cc="http://creativecommons.org/ns#"
   xmlns:rdf="http://www.w3.org/1999/02/22-rdf-syntax-ns#"
   xmlns:svg="http://www.w3.org/2000/svg"
   xmlns="http://www.w3.org/2000/svg"
   xmlns:sodipodi="http://sodipodi.sourceforge.net/DTD/sodipodi-0.dtd"
   xmlns:inkscape="http://www.inkscape.org/namespaces/inkscape"
   id="Layer_1"
   data-name="Layer 1"
   viewBox="0 0 530.9 401.46"
   version="1.1"
   sodipodi:docname="PythonSul2018-HercilioLuz.svg"
   inkscape:version="0.92.2 5c3e80d, 2017-08-06">
  <metadata
     id="metadata103">
    <rdf:RDF>
      <cc:Work
         rdf:about="">
        <dc:format>image/svg+xml</dc:format>
        <dc:type
           rdf:resource="http://purl.org/dc/dcmitype/StillImage" />
      </cc:Work>
    </rdf:RDF>
  </metadata>
  <sodipodi:namedview
     pagecolor="#ffffff"
     bordercolor="#666666"
     borderopacity="1"
     objecttolerance="10"
     gridtolerance="10"
     guidetolerance="10"
     inkscape:pageopacity="0"
     inkscape:pageshadow="2"
     inkscape:window-width="1916"
     inkscape:window-height="1021"
     id="namedview101"
     showgrid="false"
     inkscape:zoom="1.6622136"
     inkscape:cx="270.05643"
     inkscape:cy="200.73"
     inkscape:window-x="0"
     inkscape:window-y="28"
     inkscape:window-maximized="0"
     inkscape:current-layer="Layer_1" />
  <defs
     id="defs4">
    <style
       id="style2">.cls-1{opacity:0.5;}.cls-2{fill:#cfd1d2;}.cls-3{fill:#e5e6e6;}.cls-4{fill:#f0c881;}.cls-5{fill:#102e46;}</style>
  </defs>
  <title
     id="title6">Python14-Logo Forte Reis Magos</title>
  <path
     class="cls-4"
     d="M492.75,331.5a11.34,11.34,0,0,1,4.52.93,20.83,20.83,0,0,1,4.18,2.41,34.21,34.21,0,0,1,3.87,3.34q1.86,1.86,3.53,3.65.87.93,1.95,2t2.2,2.07q1.11,1,2.07,1.76a5.15,5.15,0,0,0,1.58,1V330.2h7.73v28.58a9.85,9.85,0,0,1-1.73.12h-1.48a15,15,0,0,1-5.44-1,20.36,20.36,0,0,1-4.61-2.51,29,29,0,0,1-4-3.5q-1.86-1.95-3.71-3.87l-2.69-2.78a30.78,30.78,0,0,0-2.47-2.29,11.35,11.35,0,0,0-2.41-1.55,5.78,5.78,0,0,0-2.44-.56,4.41,4.41,0,0,0-3.84,1.55,6.4,6.4,0,0,0-1.11,3.84,9.13,9.13,0,0,0,.53,3.12,15.87,15.87,0,0,0,1.24,2.66,16.42,16.42,0,0,0,1.42,2.07q.71.87,1.14,1.3L486.31,360a23.35,23.35,0,0,1-4.18-6.34,18.6,18.6,0,0,1-1.64-7.76,21.56,21.56,0,0,1,.87-6.5,12.16,12.16,0,0,1,2.44-4.49,9.48,9.48,0,0,1,3.84-2.6A14.65,14.65,0,0,1,492.75,331.5Z"
     id="path18" />
  <path
     class="cls-4"
     d="M502.83,294q10.83,0,16.61,4.11a14,14,0,0,1,0,22.71q-5.78,4.11-16.61,4.11a37.83,37.83,0,0,1-9.53-1.08,21,21,0,0,1-7-3.12,13.93,13.93,0,0,1-4.33-4.89,13.57,13.57,0,0,1-1.48-6.37,13.17,13.17,0,0,1,5.79-11.35Q492.07,294,502.83,294Zm0,9.4a50.33,50.33,0,0,0-5.85.31,21.06,21.06,0,0,0-4.55,1,7.07,7.07,0,0,0-3,1.86,4.2,4.2,0,0,0-1.05,2.91,4.09,4.09,0,0,0,1.05,2.88,7.48,7.48,0,0,0,3,1.86,19.78,19.78,0,0,0,4.55,1,50.13,50.13,0,0,0,5.85.31,50.91,50.91,0,0,0,5.88-.31,19.8,19.8,0,0,0,4.58-1,7.47,7.47,0,0,0,3-1.86,4.09,4.09,0,0,0,1.05-2.88,4.2,4.2,0,0,0-1.05-2.91,7.06,7.06,0,0,0-3-1.86,21.08,21.08,0,0,0-4.58-1A51.12,51.12,0,0,0,502.83,303.41Z"
     id="path20" />
  <path
     class="cls-4"
     d="M490.39,287.57q-.74-1.79-1.7-3.74t-2.1-3.81q-1.14-1.86-2.41-3.56a24.34,24.34,0,0,0-2.69-3.06V267h42.88v9.22H493.49a28,28,0,0,1,2.26,4.14q1,2.29,1.76,4.46Z"
     id="path22" />
  <path
     class="cls-4"
     d="M512.4,224a13.27,13.27,0,0,1,5.11,1,11.16,11.16,0,0,1,4.06,2.88,13.34,13.34,0,0,1,2.7,4.79,21,21,0,0,1,1,6.65,18.73,18.73,0,0,1-1.21,7.21,14,14,0,0,1-3,4.64,10.54,10.54,0,0,1-3.93,2.51,12.05,12.05,0,0,1-3.93.74,11.15,11.15,0,0,1-3.41-.49,10.79,10.79,0,0,1-2.82-1.36,15,15,0,0,1-2.32-1.95,23.94,23.94,0,0,1-2-2.32,17.1,17.1,0,0,1-4.26,3.93,10.27,10.27,0,0,1-5.38,1.27,11.55,11.55,0,0,1-4.76-1,12,12,0,0,1-4-2.88,14.12,14.12,0,0,1-2.72-4.49,16.06,16.06,0,0,1-1-5.85,17.34,17.34,0,0,1,1.08-6.47,13.62,13.62,0,0,1,2.75-4.42,10.06,10.06,0,0,1,3.74-2.51,11.66,11.66,0,0,1,4.11-.77,10.36,10.36,0,0,1,5.53,1.58,12.33,12.33,0,0,1,4,3.93,15.77,15.77,0,0,1,4.8-5A11.1,11.1,0,0,1,512.4,224Zm.38,21.41a4.69,4.69,0,0,0,1.64-.34,4.63,4.63,0,0,0,1.64-1.08,5.92,5.92,0,0,0,1.24-1.92,7.31,7.31,0,0,0,.5-2.85q0-3.22-1.55-4.7a4.9,4.9,0,0,0-3.47-1.48,5,5,0,0,0-2.54.65,6.59,6.59,0,0,0-2,1.76,12.78,12.78,0,0,0-1.49,2.63q-.65,1.52-1.21,3.25a12.64,12.64,0,0,0,3,2.91A7.23,7.23,0,0,0,512.78,245.37Zm-20.36-11.45a4.27,4.27,0,0,0-1.45.28,4.13,4.13,0,0,0-1.45.93,5.42,5.42,0,0,0-1.14,1.64,5.67,5.67,0,0,0-.46,2.41,5.84,5.84,0,0,0,.43,2.35,4.8,4.8,0,0,0,2.65,2.6,4.27,4.27,0,0,0,1.54.31,5.65,5.65,0,0,0,3.7-1.45,11.3,11.3,0,0,0,3-5,9.64,9.64,0,0,0-2.84-3A7.05,7.05,0,0,0,492.42,233.93Z"
     id="path24" />
  <path
     class="cls-5"
     d="M238.87,235.16q2-.84,4.23-1.92t4.31-2.38q2.1-1.29,4-2.73a27.53,27.53,0,0,0,3.46-3h7.28v48.51H251.75V238.66a31.72,31.72,0,0,1-4.69,2.56q-2.59,1.16-5,2Z"
     id="path26" />
  <path
     class="cls-5"
     d="M283.67,273.59A69.93,69.93,0,0,1,285.42,263a101.56,101.56,0,0,1,3.25-10.85,91.4,91.4,0,0,1,4.3-10,62.16,62.16,0,0,1,4.83-8.15H276.74V225h34v7.56a46.91,46.91,0,0,0-4.93,6.79,78.57,78.57,0,0,0-5.11,9.83,90.9,90.9,0,0,0-4.2,11.79,61.06,61.06,0,0,0-2.21,12.6Z"
     id="path28" />
  <path
     class="cls-5"
     d="M348.42,235.79a24.15,24.15,0,0,1,7.7,1,12,12,0,0,1,4.93,3,11.08,11.08,0,0,1,2.63,4.76,23.47,23.47,0,0,1,.77,6.23v21.7q-2.24.49-6.23,1.15a59.92,59.92,0,0,1-9.66.67,30.62,30.62,0,0,1-6.47-.63,14,14,0,0,1-5-2.06,9.44,9.44,0,0,1-3.22-3.75,12.92,12.92,0,0,1-1.12-5.67,10.74,10.74,0,0,1,1.29-5.46,10,10,0,0,1,3.46-3.57,15.68,15.68,0,0,1,5-1.92,27.93,27.93,0,0,1,5.81-.6,33.09,33.09,0,0,1,3.6.18,16.16,16.16,0,0,1,2.56.46v-1a5.77,5.77,0,0,0-1.61-4.27q-1.61-1.61-5.6-1.61a35.75,35.75,0,0,0-5.25.39,22.58,22.58,0,0,0-4.48,1.08l-1.33-8.4q.91-.28,2.28-.6t3-.56q1.61-.24,3.4-.42T348.42,235.79Zm.84,30.52q1.54,0,2.94-.07a20.08,20.08,0,0,0,2.24-.21v-7.91q-.63-.14-1.89-.28a21.18,21.18,0,0,0-2.31-.14,20.75,20.75,0,0,0-2.77.18,7.23,7.23,0,0,0-2.27.67,3.9,3.9,0,0,0-1.54,1.33,3.7,3.7,0,0,0-.56,2.1,3.58,3.58,0,0,0,1.65,3.4A9.09,9.09,0,0,0,349.26,266.31Z"
     id="path30" />
  <path
     class="cls-5"
     d="M420.52,237.82a12.83,12.83,0,0,1-1,5.11,23.6,23.6,0,0,1-2.73,4.73A38.75,38.75,0,0,1,413,252q-2.1,2.1-4.13,4-1.05,1-2.28,2.2t-2.34,2.49q-1.12,1.26-2,2.34a5.82,5.82,0,0,0-1.08,1.79H422v8.75H389.65a11.24,11.24,0,0,1-.14-2V270a16.91,16.91,0,0,1,1.08-6.16,23,23,0,0,1,2.83-5.22,32.81,32.81,0,0,1,4-4.51q2.2-2.1,4.38-4.2l3.15-3a34.75,34.75,0,0,0,2.59-2.8,12.78,12.78,0,0,0,1.75-2.73,6.54,6.54,0,0,0,.63-2.76q0-3.08-1.75-4.34a7.24,7.24,0,0,0-4.34-1.26,10.34,10.34,0,0,0-3.54.59,18,18,0,0,0-3,1.4,18.58,18.58,0,0,0-2.35,1.61q-1,.81-1.47,1.29l-5.18-7.28a26.41,26.41,0,0,1,7.17-4.73,21.05,21.05,0,0,1,8.79-1.85,24.4,24.4,0,0,1,7.35,1,13.75,13.75,0,0,1,5.08,2.77,10.73,10.73,0,0,1,2.94,4.34A16.57,16.57,0,0,1,420.52,237.82Z"
     id="path32" />
  <path
     class="cls-5"
     d="M460.28,237.82a12.83,12.83,0,0,1-1,5.11,23.6,23.6,0,0,1-2.73,4.73,38.75,38.75,0,0,1-3.78,4.38q-2.1,2.1-4.13,4-1.05,1-2.28,2.2T444,260.71q-1.12,1.26-2,2.34a5.82,5.82,0,0,0-1.08,1.79h20.86v8.75H429.41a11.24,11.24,0,0,1-.14-2V270a16.91,16.91,0,0,1,1.08-6.16,23,23,0,0,1,2.83-5.22,32.81,32.81,0,0,1,4-4.51q2.2-2.1,4.38-4.2l3.15-3a34.75,34.75,0,0,0,2.59-2.8,12.78,12.78,0,0,0,1.75-2.73,6.54,6.54,0,0,0,.63-2.76q0-3.08-1.75-4.34a7.24,7.24,0,0,0-4.34-1.26,10.34,10.34,0,0,0-3.54.59,18,18,0,0,0-3,1.4,18.58,18.58,0,0,0-2.35,1.61q-1,.81-1.47,1.29L428,230.54a26.41,26.41,0,0,1,7.17-4.73A21.05,21.05,0,0,1,444,224a24.4,24.4,0,0,1,7.35,1,13.75,13.75,0,0,1,5.08,2.77,10.73,10.73,0,0,1,2.94,4.34A16.57,16.57,0,0,1,460.28,237.82Z"
     id="path34" />
  <path
     class="cls-5"
     d="m 312.88059,368.47196 h 1.61 v 25.14 h -1.61 z"
     id="path64"
     inkscape:connector-curvature="0"
     style="fill:#102e46" />
  <rect
     class="cls-4"
     x="111.83037"
     y="357.60999"
     width="349.91962"
     height="3.5599999"
     id="rect98"
     style="fill:#f0c881;stroke-width:0.95960468" />
  <text
     xml:space="preserve"
     style="font-style:normal;font-variant:normal;font-weight:normal;font-stretch:normal;font-size:32.73699951px;line-height:1.25;font-family:'Ostrich Sans';-inkscape-font-specification:'Ostrich Sans';letter-spacing:0px;word-spacing:0px;fill:#000000;fill-opacity:1;stroke:none;stroke-width:1.02303123"
     x="185.25441"
     y="384.18912"
     id="text115"
     transform="scale(0.97748728,1.0230312)"><tspan
       sodipodi:role="line"
       id="tspan113"
       x="185.25441"
       y="384.18912"
       style="stroke-width:1.02303123">FLORIAnÓPOLIS</tspan></text>
  <text
     xml:space="preserve"
     style="font-style:normal;font-variant:normal;font-weight:normal;font-stretch:normal;font-size:32px;line-height:1.25;font-family:'Ostrich Sans';-inkscape-font-specification:'Ostrich Sans';letter-spacing:0px;word-spacing:0px;fill:#000000;fill-opacity:1;stroke:none"
     x="321.25833"
     y="391.83426"
     id="text119"><tspan
       sodipodi:role="line"
       id="tspan117"
       x="321.25833"
       y="391.83426">SANTA CATARINA</tspan></text>
  <text
     xml:space="preserve"
     style="font-style:normal;font-variant:normal;font-weight:normal;font-stretch:normal;font-size:91.3360672px;line-height:1.25;font-family:'Ostrich Sans';-inkscape-font-specification:'Ostrich Sans';letter-spacing:0px;word-spacing:0px;fill:#000000;fill-opacity:1;stroke:none;stroke-width:1.22325099"
     x="194.69136"
     y="395.08597"
     id="text38"
     transform="scale(1.1414971,0.87604253)"><tspan
       sodipodi:role="line"
       id="tspan36"
       x="194.69136"
       y="395.08597"
       style="stroke-width:1.22325099">DE ABRIL</tspan></text>
  <flowRoot
     xml:space="preserve"
     id="flowRoot40"
     style="fill:black;fill-opacity:1;stroke:none;font-family:'Ostrich Sans';font-style:normal;font-weight:bold;font-size:64px;line-height:1.25;letter-spacing:0px;word-spacing:0px;-inkscape-font-specification:'Ostrich Sans Bold';font-stretch:normal;font-variant:normal"><flowRegion
       id="flowRegion42"><rect
         id="rect44"
         width="394.36996"
         height="80.682724"
         x="67.380028"
         y="276.92725" /></flowRegion><flowPara
       id="flowPara46"></flowPara></flowRoot></svg>
