<svg id="Layer_1" data-name="Layer 1" xmlns="http://www.w3.org/2000/svg" viewBox="0 0 40 40.39"><defs><style>.cls-1{fill:#7fc6ce;}.cls-2{fill:#f0c780;}</style></defs><title>Imagens Layout Python14</title><path class="cls-1" d="M9.14,29.83A40.58,40.58,0,0,1,5,29.8,4.44,4.44,0,0,1,1.42,27,16.41,16.41,0,0,1,0,21.11,17.65,17.65,0,0,1,.73,15,6,6,0,0,1,7,10.3c4,0,8,0,11.95,0h1V9.15H10.22c.13-2,.14-4,.42-5.9A2.89,2.89,0,0,1,12.94,1,25.93,25.93,0,0,1,17.2.16a24.82,24.82,0,0,1,8,.35,5.27,5.27,0,0,1,4.43,5.57c0,2.71,0,5.42,0,8.12a5,5,0,0,1-5.33,5.32c-2.89-.12-5.79,0-8.68,0A6.15,6.15,0,0,0,9.14,26C9.13,27.26,9.14,28.53,9.14,29.83ZM14.54,3a1.8,1.8,0,1,0,0,3.59,1.72,1.72,0,0,0,1.72-1.78A1.73,1.73,0,0,0,14.54,3Z"/><path class="cls-2" d="M30.86,10.56a40.58,40.58,0,0,1,4.18,0,4.44,4.44,0,0,1,3.53,2.77A16.41,16.41,0,0,1,40,19.29a17.65,17.65,0,0,1-.69,6.06A6,6,0,0,1,33,30.09c-4,0-8,0-11.95,0h-1v1.15h9.68c-.13,2-.14,4-.42,5.9a2.89,2.89,0,0,1-2.3,2.22,25.93,25.93,0,0,1-4.26.87,24.82,24.82,0,0,1-8-.35,5.27,5.27,0,0,1-4.43-5.57c0-2.71,0-5.42,0-8.12a5,5,0,0,1,5.33-5.32c2.89.12,5.79,0,8.68,0a6.15,6.15,0,0,0,6.5-6.49C30.87,13.14,30.86,11.87,30.86,10.56Zm-5.4,26.81a1.8,1.8,0,1,0,0-3.59,1.8,1.8,0,0,0,0,3.59Z"/></svg>