<?xml version="1.0" encoding="UTF-8" standalone="no"?>
<svg
   xmlns:dc="http://purl.org/dc/elements/1.1/"
   xmlns:cc="http://creativecommons.org/ns#"
   xmlns:rdf="http://www.w3.org/1999/02/22-rdf-syntax-ns#"
   xmlns:svg="http://www.w3.org/2000/svg"
   xmlns="http://www.w3.org/2000/svg"
   xmlns:sodipodi="http://sodipodi.sourceforge.net/DTD/sodipodi-0.dtd"
   xmlns:inkscape="http://www.inkscape.org/namespaces/inkscape"
   id="Layer_1"
   data-name="Layer 1"
   viewBox="0 0 530.9 401.46"
   version="1.1"
   sodipodi:docname="PythonSul2018-HercilioLuz.svg"
   inkscape:version="0.92.2 5c3e80d, 2017-08-06">
  <metadata
     id="metadata103">
    <rdf:RDF>
      <cc:Work
         rdf:about="">
        <dc:format>image/svg+xml</dc:format>
        <dc:type
           rdf:resource="http://purl.org/dc/dcmitype/StillImage" />
      </cc:Work>
    </rdf:RDF>
  </metadata>
  <sodipodi:namedview
     pagecolor="#ffffff"
     bordercolor="#666666"
     borderopacity="1"
     objecttolerance="10"
     gridtolerance="10"
     guidetolerance="10"
     inkscape:pageopacity="0"
     inkscape:pageshadow="2"
     inkscape:window-width="1916"
     inkscape:window-height="1021"
     id="namedview101"
     showgrid="false"
     inkscape:zoom="1.8844256"
     inkscape:cx="271.25964"
     inkscape:cy="215.79045"
     inkscape:window-x="0"
     inkscape:window-y="28"
     inkscape:window-maximized="0"
     inkscape:current-layer="Layer_1" />
  <defs
     id="defs4">
    <style
       id="style2">.cls-1{opacity:0.5;}.cls-2{fill:#cfd1d2;}.cls-3{fill:#e5e6e6;}.cls-4{fill:#f0c881;}.cls-5{fill:#102e46;}</style>
  </defs>
  <title
     id="title6">Python14-Logo Forte Reis Magos</title>
  <path
     class="cls-4"
     d="M492.75,331.5a11.34,11.34,0,0,1,4.52.93,20.83,20.83,0,0,1,4.18,2.41,34.21,34.21,0,0,1,3.87,3.34q1.86,1.86,3.53,3.65.87.93,1.95,2t2.2,2.07q1.11,1,2.07,1.76a5.15,5.15,0,0,0,1.58,1V330.2h7.73v28.58a9.85,9.85,0,0,1-1.73.12h-1.48a15,15,0,0,1-5.44-1,20.36,20.36,0,0,1-4.61-2.51,29,29,0,0,1-4-3.5q-1.86-1.95-3.71-3.87l-2.69-2.78a30.78,30.78,0,0,0-2.47-2.29,11.35,11.35,0,0,0-2.41-1.55,5.78,5.78,0,0,0-2.44-.56,4.41,4.41,0,0,0-3.84,1.55,6.4,6.4,0,0,0-1.11,3.84,9.13,9.13,0,0,0,.53,3.12,15.87,15.87,0,0,0,1.24,2.66,16.42,16.42,0,0,0,1.42,2.07q.71.87,1.14,1.3L486.31,360a23.35,23.35,0,0,1-4.18-6.34,18.6,18.6,0,0,1-1.64-7.76,21.56,21.56,0,0,1,.87-6.5,12.16,12.16,0,0,1,2.44-4.49,9.48,9.48,0,0,1,3.84-2.6A14.65,14.65,0,0,1,492.75,331.5Z"
     id="path18" />
  <path
     class="cls-4"
     d="M502.83,294q10.83,0,16.61,4.11a14,14,0,0,1,0,22.71q-5.78,4.11-16.61,4.11a37.83,37.83,0,0,1-9.53-1.08,21,21,0,0,1-7-3.12,13.93,13.93,0,0,1-4.33-4.89,13.57,13.57,0,0,1-1.48-6.37,13.17,13.17,0,0,1,5.79-11.35Q492.07,294,502.83,294Zm0,9.4a50.33,50.33,0,0,0-5.85.31,21.06,21.06,0,0,0-4.55,1,7.07,7.07,0,0,0-3,1.86,4.2,4.2,0,0,0-1.05,2.91,4.09,4.09,0,0,0,1.05,2.88,7.48,7.48,0,0,0,3,1.86,19.78,19.78,0,0,0,4.55,1,50.13,50.13,0,0,0,5.85.31,50.91,50.91,0,0,0,5.88-.31,19.8,19.8,0,0,0,4.58-1,7.47,7.47,0,0,0,3-1.86,4.09,4.09,0,0,0,1.05-2.88,4.2,4.2,0,0,0-1.05-2.91,7.06,7.06,0,0,0-3-1.86,21.08,21.08,0,0,0-4.58-1A51.12,51.12,0,0,0,502.83,303.41Z"
     id="path20" />
  <path
     class="cls-4"
     d="M490.39,287.57q-.74-1.79-1.7-3.74t-2.1-3.81q-1.14-1.86-2.41-3.56a24.34,24.34,0,0,0-2.69-3.06V267h42.88v9.22H493.49a28,28,0,0,1,2.26,4.14q1,2.29,1.76,4.46Z"
     id="path22" />
  <path
     class="cls-4"
     d="M512.4,224a13.27,13.27,0,0,1,5.11,1,11.16,11.16,0,0,1,4.06,2.88,13.34,13.34,0,0,1,2.7,4.79,21,21,0,0,1,1,6.65,18.73,18.73,0,0,1-1.21,7.21,14,14,0,0,1-3,4.64,10.54,10.54,0,0,1-3.93,2.51,12.05,12.05,0,0,1-3.93.74,11.15,11.15,0,0,1-3.41-.49,10.79,10.79,0,0,1-2.82-1.36,15,15,0,0,1-2.32-1.95,23.94,23.94,0,0,1-2-2.32,17.1,17.1,0,0,1-4.26,3.93,10.27,10.27,0,0,1-5.38,1.27,11.55,11.55,0,0,1-4.76-1,12,12,0,0,1-4-2.88,14.12,14.12,0,0,1-2.72-4.49,16.06,16.06,0,0,1-1-5.85,17.34,17.34,0,0,1,1.08-6.47,13.62,13.62,0,0,1,2.75-4.42,10.06,10.06,0,0,1,3.74-2.51,11.66,11.66,0,0,1,4.11-.77,10.36,10.36,0,0,1,5.53,1.58,12.33,12.33,0,0,1,4,3.93,15.77,15.77,0,0,1,4.8-5A11.1,11.1,0,0,1,512.4,224Zm.38,21.41a4.69,4.69,0,0,0,1.64-.34,4.63,4.63,0,0,0,1.64-1.08,5.92,5.92,0,0,0,1.24-1.92,7.31,7.31,0,0,0,.5-2.85q0-3.22-1.55-4.7a4.9,4.9,0,0,0-3.47-1.48,5,5,0,0,0-2.54.65,6.59,6.59,0,0,0-2,1.76,12.78,12.78,0,0,0-1.49,2.63q-.65,1.52-1.21,3.25a12.64,12.64,0,0,0,3,2.91A7.23,7.23,0,0,0,512.78,245.37Zm-20.36-11.45a4.27,4.27,0,0,0-1.45.28,4.13,4.13,0,0,0-1.45.93,5.42,5.42,0,0,0-1.14,1.64,5.67,5.67,0,0,0-.46,2.41,5.84,5.84,0,0,0,.43,2.35,4.8,4.8,0,0,0,2.65,2.6,4.27,4.27,0,0,0,1.54.31,5.65,5.65,0,0,0,3.7-1.45,11.3,11.3,0,0,0,3-5,9.64,9.64,0,0,0-2.84-3A7.05,7.05,0,0,0,492.42,233.93Z"
     id="path24" />
  <path
     class="cls-5"
     d="m 370.42,235.79 a 24.15,24.15 0 0 1 7.7,1 12,12 0 0 1 4.93,3 11.08,11.08 0 0 1 2.63,4.76 23.47,23.47 0 0 1 0.77,6.23 v 21.7 q -2.24,0.49 -6.23,1.15 a 59.92,59.92 0 0 1 -9.66,0.67 30.62,30.62 0 0 1 -6.47,-0.63 14,14 0 0 1 -5,-2.06 9.44,9.44 0 0 1 -3.22,-3.75 12.92,12.92 0 0 1 -1.12,-5.67 10.74,10.74 0 0 1 1.29,-5.46 10,10 0 0 1 3.46,-3.57 15.68,15.68 0 0 1 5,-1.92 27.93,27.93 0 0 1 5.81,-0.6 33.09,33.09 0 0 1 3.6,0.18 16.16,16.16 0 0 1 2.56,0.46 v -1 a 5.77,5.77 0 0 0 -1.61,-4.27 q -1.61,-1.61 -5.6,-1.61 a 35.75,35.75 0 0 0 -5.25,0.39 22.58,22.58 0 0 0 -4.48,1.08 l -1.33,-8.4 q 0.91,-0.28 2.28,-0.6 1.37,-0.32 3,-0.56 1.61,-0.24 3.4,-0.42 1.79,-0.18 3.54,-0.1 z m 0.84,30.52 q 1.54,0 2.94,-0.07 a 20.08,20.08 0 0 0 2.24,-0.21 v -7.91 q -0.63,-0.14 -1.89,-0.28 a 21.18,21.18 0 0 0 -2.31,-0.14 20.75,20.75 0 0 0 -2.77,0.18 7.23,7.23 0 0 0 -2.27,0.67 3.9,3.9 0 0 0 -1.54,1.33 3.7,3.7 0 0 0 -0.56,2.1 3.58,3.58 0 0 0 1.65,3.4 9.09,9.09 0 0 0 4.51,0.93 z"
     id="path30"
     inkscape:connector-curvature="0"
     style="fill:#102e46" />
  <path
     class="cls-5"
     d="m 312.88059,368.47196 h 1.61 v 25.14 h -1.61 z"
     id="path64"
     inkscape:connector-curvature="0"
     style="fill:#102e46" />
  <rect
     class="cls-4"
     x="111.83037"
     y="357.60999"
     width="349.91962"
     height="3.5599999"
     id="rect98"
     style="fill:#f0c881;stroke-width:0.95960468" />
  <text
     xml:space="preserve"
     style="font-style:normal;font-variant:normal;font-weight:normal;font-stretch:normal;font-size:32.73699951px;line-height:1.25;font-family:'Ostrich Sans';-inkscape-font-specification:'Ostrich Sans';letter-spacing:0px;word-spacing:0px;fill:#000000;fill-opacity:1;stroke:none;stroke-width:1.02303123"
     x="185.25441"
     y="384.18912"
     id="text115"
     transform="scale(0.97748728,1.0230312)"><tspan
       sodipodi:role="line"
       id="tspan113"
       x="185.25441"
       y="384.18912"
       style="stroke-width:1.02303123">FLORIAnÓPOLIS</tspan></text>
  <text
     xml:space="preserve"
     style="font-style:normal;font-variant:normal;font-weight:normal;font-stretch:normal;font-size:32px;line-height:1.25;font-family:'Ostrich Sans';-inkscape-font-specification:'Ostrich Sans';letter-spacing:0px;word-spacing:0px;fill:#000000;fill-opacity:1;stroke:none"
     x="321.25833"
     y="391.83426"
     id="text119"><tspan
       sodipodi:role="line"
       id="tspan117"
       x="321.25833"
       y="391.83426">SANTA CATARINA</tspan></text>
  <text
     xml:space="preserve"
     style="font-style:normal;font-variant:normal;font-weight:normal;font-stretch:normal;font-size:91.3360672px;line-height:1.25;font-family:'Ostrich Sans';-inkscape-font-specification:'Ostrich Sans';letter-spacing:0px;word-spacing:0px;fill:#000000;fill-opacity:1;stroke:none;stroke-width:1.22325099"
     x="194.69136"
     y="395.08597"
     id="text38"
     transform="scale(1.1414971,0.87604253)"><tspan
       sodipodi:role="line"
       id="tspan36"
       x="194.69136"
       y="395.08597"
       style="stroke-width:1.22325099">DE ABRIL</tspan></text>
  <flowRoot
     xml:space="preserve"
     id="flowRoot40"
     style="fill:black;fill-opacity:1;stroke:none;font-family:'Ostrich Sans';font-style:normal;font-weight:bold;font-size:64px;line-height:1.25;letter-spacing:0px;word-spacing:0px;-inkscape-font-specification:'Ostrich Sans Bold';font-stretch:normal;font-variant:normal"><flowRegion
       id="flowRegion42"><rect
         id="rect44"
         width="394.36996"
         height="80.682724"
         x="67.380028"
         y="276.92725" /></flowRegion><flowPara
       id="flowPara46" /></flowRoot>  <text
     xml:space="preserve"
     style="font-style:normal;font-variant:normal;font-weight:bold;font-stretch:normal;font-size:64px;line-height:1.25;font-family:'DejaVu Sans Mono';-inkscape-font-specification:'DejaVu Sans Mono Bold';letter-spacing:0px;word-spacing:0px;fill:#000000;fill-opacity:1;stroke:none"
     x="174.11011"
     y="152.67764"
     id="text3744"><tspan
       sodipodi:role="line"
       id="tspan3742"
       x="174.11011"
       y="209.30264"></tspan></text>
  <path
     style="fill:#102e46;fill-opacity:1;stroke-width:0.37523732"
     d="m 314.93719,273.69355 c -2.73165,-0.73542 -4.03437,-1.4703 -5.88237,-3.3183 -3.58232,-3.58233 -5.18246,-9.598 -5.20079,-19.55226 -0.0179,-9.72709 1.60277,-15.43497 5.59416,-19.70209 4.17463,-4.46302 12.23868,-6.05549 19.47403,-3.84567 l 2.25143,0.68762 0.10665,4.03331 0.10664,4.0333 -1.41997,-0.72325 c -3.45572,-1.76015 -7.68669,-2.3757 -10.65744,-1.55051 -3.20034,0.88897 -5.52219,3.50688 -6.48429,7.31112 -0.57721,2.28229 -1.0171,5.81617 -0.724,5.81617 0.0881,0 0.76088,-0.58345 1.49514,-1.29655 2.69668,-2.61898 8.53606,-3.40097 12.94041,-1.73294 2.44305,0.92524 5.21162,3.61122 6.32621,6.1375 2.48121,5.62378 1.63457,14.71402 -1.78998,19.21861 -3.30108,4.3422 -9.87592,6.16927 -16.13583,4.48394 z m 8.08009,-7.54937 c 2.0622,-1.5371 2.52781,-2.90774 2.52781,-7.44121 0,-3.42996 -0.13052,-4.3813 -0.77222,-5.62856 -0.8715,-1.69393 -3.32462,-3.18952 -5.23158,-3.18952 -1.90695,0 -4.36007,1.49559 -5.23158,3.18952 -0.64169,1.24726 -0.77222,2.1986 -0.77222,5.62856 0,4.68437 0.50674,6.04846 2.83457,7.63049 1.07854,0.73299 1.65181,0.85366 3.4557,0.72744 1.40243,-0.0981 2.52363,-0.42038 3.18952,-0.91672 z"
     id="path3754"
     inkscape:connector-curvature="0" />
  <path
     style="fill:#102e46;fill-opacity:1;stroke-width:0.37523732"
     d="m 419.03919,275.02312 c -4.68121,-1.11274 -7.4817,-3.26976 -9.21515,-7.09778 -0.91826,-2.02782 -1.06442,-2.82552 -1.08272,-5.90904 -0.0176,-2.97095 0.12621,-3.89065 0.86349,-5.52116 1.02871,-2.27501 3.81728,-5.04492 5.80109,-5.76227 0.76003,-0.27483 1.37751,-0.59241 1.37219,-0.70574 -0.005,-0.11333 -0.64588,-0.49879 -1.42346,-0.85659 -4.43872,-2.04247 -6.56162,-7.21092 -5.17884,-12.60845 1.58833,-6.19985 6.6817,-9.36336 14.47144,-8.98826 4.58541,0.2208 7.54741,1.43932 9.92388,4.08253 2.16818,2.41154 3.00355,5.09436 2.77541,8.91328 -0.25654,4.29417 -2.1436,7.27792 -5.47582,8.65817 -1.52755,0.63273 -1.51331,0.99424 0.0596,1.51335 1.84804,0.60991 4.05226,2.6605 5.31987,4.94908 1.04584,1.88821 1.11376,2.26299 1.11376,6.14633 0,3.92384 -0.0637,4.26479 -1.24364,6.66169 -1.43296,2.91074 -3.44568,4.67486 -6.73985,5.90737 -2.66688,0.9978 -8.42286,1.3112 -11.34124,0.61749 z m 7.40926,-7.20496 c 1.86075,-0.77747 2.69756,-1.57751 3.51738,-3.36282 1.28034,-2.7882 0.59316,-7.11649 -1.41263,-8.89758 -2.09354,-1.859 -5.62991,-2.2907 -8.27513,-1.01017 -4.88878,2.36662 -4.90744,10.6382 -0.0294,13.05277 1.8937,0.93736 4.27727,1.0211 6.19982,0.2178 z m 0.38035,-21.93504 c 2.0711,-1.26277 2.77651,-2.79952 2.63058,-5.73077 -0.11717,-2.35356 -0.22791,-2.64072 -1.51455,-3.92737 -1.28665,-1.28664 -1.57381,-1.39738 -3.92737,-1.51455 -4.30744,-0.21444 -6.2916,1.64648 -6.2916,5.90084 0,4.0107 1.96478,5.97561 6.0038,6.00421 1.2309,0.009 2.2968,-0.24317 3.09914,-0.73236 z"
     id="path3756"
     inkscape:connector-curvature="0" />
</svg>
