<svg id="Layer_1" data-name="Layer 1" xmlns="http://www.w3.org/2000/svg" viewBox="0 0 231 233.27"><defs><style>.cls-1{opacity:0.5;}.cls-2{fill:#fff;}</style></defs><title>Imagens Layout Python14</title><g class="cls-1"><path class="cls-2" d="M52.77,172.29c-8.56,0-16.43.66-24.14-.17-9.78-1-16.22-7.42-20.41-16-5.24-10.78-7-22.45-8-34.21s.9-23.54,4-35C9,69.33,21.78,59.59,40.29,59.51c23-.1,46,0,69,0h5.66V52.82H59c.75-11.71.81-23,2.42-34.06,1-6.78,6.8-11,13.26-12.8a149.74,149.74,0,0,1,24.62-5c15.43-1.55,31-1.41,46.18,2,16.71,3.79,25.6,15.19,25.61,32.14,0,15.64-.26,31.28.07,46.91.37,17.63-12.72,31.44-30.76,30.72-16.68-.67-33.42-.16-50.13-.14-22.45,0-37.46,15-37.53,37.46C52.75,157.41,52.77,164.73,52.77,172.29ZM84,17.47a10.37,10.37,0,1,0,.28,20.74,10,10,0,0,0,10-10.27A10,10,0,0,0,84,17.47Z"/><path class="cls-2" d="M178.23,61c8.56,0,16.43-.66,24.14.17,9.78,1,16.22,7.42,20.41,16,5.24,10.78,7,22.45,8,34.21s-.9,23.54-4,35c-4.73,17.58-17.54,27.32-36.05,27.41-23,.1-46,0-69,0h-5.66v6.66H172c-.75,11.71-.81,23-2.42,34.06-1,6.78-6.8,11-13.26,12.8a149.74,149.74,0,0,1-24.62,5c-15.43,1.55-31,1.41-46.18-2-16.71-3.79-25.6-15.19-25.61-32.14,0-15.64.26-31.28-.07-46.91-.37-17.63,12.72-31.44,30.76-30.72,16.68.67,33.42.16,50.13.14,22.45,0,37.46-15,37.53-37.46C178.25,75.86,178.23,68.53,178.23,61ZM147,215.8a10.37,10.37,0,1,0-.28-20.74A10.37,10.37,0,0,0,147,215.8Z"/></g></svg>