<svg id="Layer_1" data-name="Layer 1" xmlns="http://www.w3.org/2000/svg" viewBox="0 0 405 268.86"><defs><style>.cls-1{opacity:0.5;}.cls-2{fill:#cfd1d2;}.cls-3{fill:#e5e6e6;}</style></defs><title>Imagens Layout Python14</title><g class="cls-1"><polygon class="cls-2" points="132.11 20.91 120.36 39.7 173.45 48.16 176.82 28.08 132.11 20.91"/><polygon class="cls-2" points="341.79 55.73 347.23 77.21 294.1 69.03 297.03 48.89 341.79 55.73"/><polyline class="cls-2" points="8.69 176.87 0 222.87 96.63 234.56 98.09 234.74 140.08 268.86 140.4 268.8 141.88 268.54 232.94 252.42 234.41 252.29 325.18 263.82 326.64 263.36 329.56 178.28 329.6 178.23 330.52 177.21 405 94.37 405 53.55"/><path class="cls-3" d="M403.21,55.59l-79.59,80.59-7.46,78.11-82.28-7.48-91.42,15.79L100.07,191,8.68,176,49.4,101.27,62.7,6.54S65.19-2.6,79.32.73s96.39,26.59,96.39,26.59,6.65,4.15-17.45,4.15h-24.1l-8.31,8.31L319.38,66.37l3.32-7.48-25.76-7.48s-3.32-5,11.63-5.82,89.65,5,89.65,5S409.2,50.47,403.21,55.59Z"/></g></svg>