<svg id="Layer_1" data-name="Layer 1" xmlns="http://www.w3.org/2000/svg" viewBox="0 0 632.19 372.37"><defs><style>.cls-1{opacity:0.8;}.cls-2,.cls-3{fill:none;stroke:gray;}.cls-2{stroke-miterlimit:10;}.cls-3{stroke-linejoin:round;}</style></defs><title>Imagens Layout Python14</title><g class="cls-1"><polygon class="cls-2" points="174.67 11.34 61.57 214.74 29.4 216.73 0.73 266.59 84.83 297.44 126.89 279.38 148.96 238.9 235.32 209.73 252.16 214.49 251.67 236.48 201.44 300.89 201.44 331.79 232.02 331.79 252.16 360.25 289.08 338.82 316.12 344.96 320.47 371.72 350.53 362.16 373.47 339.23 367.73 284.8 388.76 264.18 410.67 264.18 417.43 281.88 476.69 291.7 631.52 289.01 569.69 84.72 495.16 43.57 404.05 48.68 316.12 33.91 249.22 0.52 174.67 11.34"/><g id="triangle36"><path class="cls-3" d="M154.72,212.29,235,209.72l20.41-51Z"/></g><g id="triangle36-2" data-name="triangle36"><path class="cls-2" d="M235.35,209.4a.39.39,0,0,1-.09-.42l20.16-49.76a.37.37,0,0,1,.37-.23L258,198.77a.4.4,0,0,1,.36.32.37.37,0,0,1-.21.42l-22.35,10a.39.39,0,0,1-.43-.08Z"/></g><g id="triangle36-3" data-name="triangle36"><path class="cls-2" d="M477.66,291.66a.37.37,0,0,1-.09-.39l10.15-105.43a.38.38,0,0,1,.52-.21L619.39,248.8a.37.37,0,0,1,.08.62l-141.3,42.26a.37.37,0,0,1-.45,0Z"/></g><g id="triangle36-4" data-name="triangle36"><path class="cls-3" d="M295.89,107.51l-43.73,107,93.36-49.37Z"/></g><g id="triangle36-5" data-name="triangle36"><path class="cls-3" d="M181.87,89.38,61.56,214.76l87.17,24.63Z"/></g><g id="triangle36-6" data-name="triangle36"><path class="cls-2" d="M487.61,185.52l-.07-.09a.37.37,0,0,1,.06-.43L561.52,99.9a.38.38,0,0,1,.44-.08l13.86,7.11a.38.38,0,0,1-.11.7l-87.78,78A.38.38,0,0,1,487.61,185.52Z"/></g><g id="triangle36-7" data-name="triangle36"><path class="cls-2" d="M405.38,50.24a.37.37,0,0,1,.29-.68L569.33,84.71a.37.37,0,0,1,.25.22.37.37,0,0,1,0,.33l-7.71,13.47a.38.38,0,0,1-.47.16L405.43,50.27Z"/></g><g id="triangle36-8" data-name="triangle36"><path class="cls-2" d="M295.66,108.15a.37.37,0,0,1,.23-.64l108.87-58a.38.38,0,0,1,.26.07l-9.2,67.29a.38.38,0,0,1-.38.64l-99.67-9.33Z"/></g><g id="triangle36-9" data-name="triangle36"><path class="cls-2" d="M439.41,61.81l.06,0a.41.41,0,0,1,.1.41l48.07,123.22a.54.54,0,0,1-.25.34.35.35,0,0,1-.36,0L396.48,118a.38.38,0,0,1-.15-.39.54.54,0,0,1,.27-.39l42.48-55.37A.35.35,0,0,1,439.41,61.81Z"/></g><g id="triangle36-10" data-name="triangle36"><path class="cls-2" d="M253.46,61a.44.44,0,0,1-.26-.06L175.32,12.12a.36.36,0,0,1-.15-.43.42.42,0,0,1,.41-.26L280.11,16a.41.41,0,0,1,.33.18.34.34,0,0,1,0,.36L253.8,60.8a.41.41,0,0,1-.27.2Z"/></g><g id="triangle36-11" data-name="triangle36"><path class="cls-2" d="M253.3,61.72l-.06,0L182.36,89.54a.38.38,0,0,1-.49-.16L154.76,48a.38.38,0,0,1,0-.4.44.44,0,0,1,.39-.17L253.1,61a.37.37,0,0,1,.38.17.38.38,0,0,1-.17.53Z"/></g><g id="triangle36-12" data-name="triangle36"><path class="cls-2" d="M295.59,107.41a.38.38,0,0,1-.07-.11S253.42,61,253.53,61l62.13-27.11-19.45,73.35a.38.38,0,0,1-.63.16Z"/></g><g id="triangle36-13" data-name="triangle36"><path class="cls-2" d="M393,210.42a.38.38,0,0,1-.11-.28l3.28-91.61a.37.37,0,0,1,.6-.28l90.51,67.2a.38.38,0,0,1,.15.37.38.38,0,0,1-.27.29l-93.79,24.41a.38.38,0,0,1-.33-.07Z"/></g><g id="triangle36-14" data-name="triangle36"><path class="cls-2" d="M339.49,312.06a.37.37,0,0,1-.15-.13.38.38,0,0,1,0-.39l53.5-100.09a.38.38,0,0,1,.36-.19.37.37,0,0,1,.31.26l-4.19,51.63a.38.38,0,0,1,0,.31.38.38,0,0,1-.27.17l-49.3,48.46A.37.37,0,0,1,339.49,312.06Z"/></g><g id="triangle36-15" data-name="triangle36"><path class="cls-2" d="M338.68,311.69a.37.37,0,0,1-.22-.36l-36.78-89.06c0-.15,43.7-57.09,43.83-57.14s17.24,32.42,17.35,32.53l29.81,13.43a.37.37,0,0,1,.06.45l-53.57,100a.37.37,0,0,1-.43.18Z"/></g><line class="cls-2" x1="301.68" y1="222.27" x2="393.77" y2="184.74"/><line class="cls-2" x1="255.79" y1="158.99" x2="295.52" y2="107.3"/><line class="cls-2" x1="181.87" y1="89.38" x2="255.44" y2="158.21"/><line class="cls-2" x1="295.52" y1="107.3" x2="181.87" y2="89.38"/><line class="cls-2" x1="409.97" y1="264.18" x2="477.57" y2="291.27"/><line class="cls-2" x1="393.33" y1="210.52" x2="409.97" y2="264.18"/><line class="cls-2" x1="393.49" y1="211.52" x2="477.57" y2="291.27"/><line class="cls-2" x1="344.88" y1="164.38" x2="393.77" y2="184.74"/><line class="cls-2" x1="362.15" y1="197.62" x2="339.17" y2="311.53"/><line class="cls-2" x1="127.79" y1="277.73" x2="61.56" y2="214.76"/><line class="cls-2" x1="87.17" y1="296.44" x2="94.67" y2="246.24"/><line class="cls-2" x1="0.73" y1="266.59" x2="94.67" y2="246.24"/><line class="cls-2" x1="61.57" y1="214.74" x2="1.29" y2="266.47"/><line class="cls-2" x1="301.68" y1="222.27" x2="232.29" y2="332.18"/><line class="cls-2" x1="251.67" y1="236.48" x2="301.68" y2="222.27"/><line class="cls-2" x1="201.43" y1="300.89" x2="232.29" y2="332.18"/><line class="cls-2" x1="350.66" y1="361.22" x2="368.13" y2="286.12"/><line class="cls-2" x1="316.12" y1="344.96" x2="358.09" y2="329.26"/><line class="cls-2" x1="339.69" y1="312.09" x2="358.09" y2="329.26"/><line class="cls-2" x1="315.18" y1="344.75" x2="338.47" y2="311.33"/><line class="cls-2" x1="289.08" y1="338.82" x2="338.47" y2="311.33"/><line class="cls-2" x1="232.29" y1="332.18" x2="314.58" y2="324.63"/><line class="cls-2" x1="317.39" y1="323.67" x2="272.25" y2="273.97"/><line class="cls-2" x1="201.43" y1="300.89" x2="269.89" y2="272.63"/><line class="cls-2" x1="338.68" y1="311.69" x2="269.89" y2="272.63"/><line class="cls-2" x1="534.06" y1="145.39" x2="602.04" y2="192.69"/><line class="cls-2" x1="545.89" y1="213.39" x2="602.86" y2="193.26"/><polyline class="cls-3" points="534.31 145.34 546.14 213.36 509.9 232.31 619.47 249.43 480.07 264.39 500.94 211.26 487.85 185.75"/><line class="cls-2" x1="500.94" y1="211.26" x2="509.5" y2="232.37"/></g></svg>