<?xml version="1.0" encoding="UTF-8" standalone="no"?>
<svg
   xmlns:dc="http://purl.org/dc/elements/1.1/"
   xmlns:cc="http://creativecommons.org/ns#"
   xmlns:rdf="http://www.w3.org/1999/02/22-rdf-syntax-ns#"
   xmlns:svg="http://www.w3.org/2000/svg"
   xmlns="http://www.w3.org/2000/svg"
   xmlns:sodipodi="http://sodipodi.sourceforge.net/DTD/sodipodi-0.dtd"
   xmlns:inkscape="http://www.inkscape.org/namespaces/inkscape"
   id="Layer_1"
   data-name="Layer 1"
   viewBox="0 0 530.9 401.46"
   version="1.1"
   sodipodi:docname="PythonSul2018-HercilioLuz.svg"
   inkscape:version="0.92.2 5c3e80d, 2017-08-06">
  <metadata
     id="metadata103">
    <rdf:RDF>
      <cc:Work
         rdf:about="">
        <dc:format>image/svg+xml</dc:format>
        <dc:type
           rdf:resource="http://purl.org/dc/dcmitype/StillImage" />
      </cc:Work>
    </rdf:RDF>
  </metadata>
  <sodipodi:namedview
     pagecolor="#ffffff"
     bordercolor="#666666"
     borderopacity="1"
     objecttolerance="10"
     gridtolerance="10"
     guidetolerance="10"
     inkscape:pageopacity="0"
     inkscape:pageshadow="2"
     inkscape:window-width="956"
     inkscape:window-height="1021"
     id="namedview101"
     showgrid="false"
     inkscape:zoom="1.3324901"
     inkscape:cx="272.32097"
     inkscape:cy="215.79045"
     inkscape:window-x="960"
     inkscape:window-y="28"
     inkscape:window-maximized="0"
     inkscape:current-layer="Layer_1" />
  <defs
     id="defs4">
    <style
       id="style2">.cls-1{opacity:0.5;}.cls-2{fill:#cfd1d2;}.cls-3{fill:#e5e6e6;}.cls-4{fill:#f0c881;}.cls-5{fill:#102e46;}</style>
  </defs>
  <title
     id="title6">Python14-Logo Forte Reis Magos</title>
  <path
     class="cls-4"
     d="M492.75,331.5a11.34,11.34,0,0,1,4.52.93,20.83,20.83,0,0,1,4.18,2.41,34.21,34.21,0,0,1,3.87,3.34q1.86,1.86,3.53,3.65.87.93,1.95,2t2.2,2.07q1.11,1,2.07,1.76a5.15,5.15,0,0,0,1.58,1V330.2h7.73v28.58a9.85,9.85,0,0,1-1.73.12h-1.48a15,15,0,0,1-5.44-1,20.36,20.36,0,0,1-4.61-2.51,29,29,0,0,1-4-3.5q-1.86-1.95-3.71-3.87l-2.69-2.78a30.78,30.78,0,0,0-2.47-2.29,11.35,11.35,0,0,0-2.41-1.55,5.78,5.78,0,0,0-2.44-.56,4.41,4.41,0,0,0-3.84,1.55,6.4,6.4,0,0,0-1.11,3.84,9.13,9.13,0,0,0,.53,3.12,15.87,15.87,0,0,0,1.24,2.66,16.42,16.42,0,0,0,1.42,2.07q.71.87,1.14,1.3L486.31,360a23.35,23.35,0,0,1-4.18-6.34,18.6,18.6,0,0,1-1.64-7.76,21.56,21.56,0,0,1,.87-6.5,12.16,12.16,0,0,1,2.44-4.49,9.48,9.48,0,0,1,3.84-2.6A14.65,14.65,0,0,1,492.75,331.5Z"
     id="path18" />
  <path
     class="cls-4"
     d="M502.83,294q10.83,0,16.61,4.11a14,14,0,0,1,0,22.71q-5.78,4.11-16.61,4.11a37.83,37.83,0,0,1-9.53-1.08,21,21,0,0,1-7-3.12,13.93,13.93,0,0,1-4.33-4.89,13.57,13.57,0,0,1-1.48-6.37,13.17,13.17,0,0,1,5.79-11.35Q492.07,294,502.83,294Zm0,9.4a50.33,50.33,0,0,0-5.85.31,21.06,21.06,0,0,0-4.55,1,7.07,7.07,0,0,0-3,1.86,4.2,4.2,0,0,0-1.05,2.91,4.09,4.09,0,0,0,1.05,2.88,7.48,7.48,0,0,0,3,1.86,19.78,19.78,0,0,0,4.55,1,50.13,50.13,0,0,0,5.85.31,50.91,50.91,0,0,0,5.88-.31,19.8,19.8,0,0,0,4.58-1,7.47,7.47,0,0,0,3-1.86,4.09,4.09,0,0,0,1.05-2.88,4.2,4.2,0,0,0-1.05-2.91,7.06,7.06,0,0,0-3-1.86,21.08,21.08,0,0,0-4.58-1A51.12,51.12,0,0,0,502.83,303.41Z"
     id="path20" />
  <path
     class="cls-4"
     d="M490.39,287.57q-.74-1.79-1.7-3.74t-2.1-3.81q-1.14-1.86-2.41-3.56a24.34,24.34,0,0,0-2.69-3.06V267h42.88v9.22H493.49a28,28,0,0,1,2.26,4.14q1,2.29,1.76,4.46Z"
     id="path22" />
  <path
     class="cls-4"
     d="M512.4,224a13.27,13.27,0,0,1,5.11,1,11.16,11.16,0,0,1,4.06,2.88,13.34,13.34,0,0,1,2.7,4.79,21,21,0,0,1,1,6.65,18.73,18.73,0,0,1-1.21,7.21,14,14,0,0,1-3,4.64,10.54,10.54,0,0,1-3.93,2.51,12.05,12.05,0,0,1-3.93.74,11.15,11.15,0,0,1-3.41-.49,10.79,10.79,0,0,1-2.82-1.36,15,15,0,0,1-2.32-1.95,23.94,23.94,0,0,1-2-2.32,17.1,17.1,0,0,1-4.26,3.93,10.27,10.27,0,0,1-5.38,1.27,11.55,11.55,0,0,1-4.76-1,12,12,0,0,1-4-2.88,14.12,14.12,0,0,1-2.72-4.49,16.06,16.06,0,0,1-1-5.85,17.34,17.34,0,0,1,1.08-6.47,13.62,13.62,0,0,1,2.75-4.42,10.06,10.06,0,0,1,3.74-2.51,11.66,11.66,0,0,1,4.11-.77,10.36,10.36,0,0,1,5.53,1.58,12.33,12.33,0,0,1,4,3.93,15.77,15.77,0,0,1,4.8-5A11.1,11.1,0,0,1,512.4,224Zm.38,21.41a4.69,4.69,0,0,0,1.64-.34,4.63,4.63,0,0,0,1.64-1.08,5.92,5.92,0,0,0,1.24-1.92,7.31,7.31,0,0,0,.5-2.85q0-3.22-1.55-4.7a4.9,4.9,0,0,0-3.47-1.48,5,5,0,0,0-2.54.65,6.59,6.59,0,0,0-2,1.76,12.78,12.78,0,0,0-1.49,2.63q-.65,1.52-1.21,3.25a12.64,12.64,0,0,0,3,2.91A7.23,7.23,0,0,0,512.78,245.37Zm-20.36-11.45a4.27,4.27,0,0,0-1.45.28,4.13,4.13,0,0,0-1.45.93,5.42,5.42,0,0,0-1.14,1.64,5.67,5.67,0,0,0-.46,2.41,5.84,5.84,0,0,0,.43,2.35,4.8,4.8,0,0,0,2.65,2.6,4.27,4.27,0,0,0,1.54.31,5.65,5.65,0,0,0,3.7-1.45,11.3,11.3,0,0,0,3-5,9.64,9.64,0,0,0-2.84-3A7.05,7.05,0,0,0,492.42,233.93Z"
     id="path24" />
  <path
     class="cls-5"
     d="m 380.42,235.79 a 24.15,24.15 0 0 1 7.7,1 12,12 0 0 1 4.93,3 11.08,11.08 0 0 1 2.63,4.76 23.47,23.47 0 0 1 0.77,6.23 v 21.7 q -2.24,0.49 -6.23,1.15 a 59.92,59.92 0 0 1 -9.66,0.67 30.62,30.62 0 0 1 -6.47,-0.63 14,14 0 0 1 -5,-2.06 9.44,9.44 0 0 1 -3.22,-3.75 12.92,12.92 0 0 1 -1.12,-5.67 10.74,10.74 0 0 1 1.29,-5.46 10,10 0 0 1 3.46,-3.57 15.68,15.68 0 0 1 5,-1.92 27.93,27.93 0 0 1 5.81,-0.6 33.09,33.09 0 0 1 3.6,0.18 16.16,16.16 0 0 1 2.56,0.46 v -1 a 5.77,5.77 0 0 0 -1.61,-4.27 q -1.61,-1.61 -5.6,-1.61 a 35.75,35.75 0 0 0 -5.25,0.39 22.58,22.58 0 0 0 -4.48,1.08 l -1.33,-8.4 q 0.91,-0.28 2.28,-0.6 1.37,-0.32 3,-0.56 1.61,-0.24 3.4,-0.42 1.79,-0.18 3.54,-0.1 z m 0.84,30.52 q 1.54,0 2.94,-0.07 a 20.08,20.08 0 0 0 2.24,-0.21 v -7.91 q -0.63,-0.14 -1.89,-0.28 a 21.18,21.18 0 0 0 -2.31,-0.14 20.75,20.75 0 0 0 -2.77,0.18 7.23,7.23 0 0 0 -2.27,0.67 3.9,3.9 0 0 0 -1.54,1.33 3.7,3.7 0 0 0 -0.56,2.1 3.58,3.58 0 0 0 1.65,3.4 9.09,9.09 0 0 0 4.51,0.93 z"
     id="path30"
     inkscape:connector-curvature="0"
     style="fill:#102e46" />
  <path
     class="cls-5"
     d="m 312.88059,368.47196 h 1.61 v 25.14 h -1.61 z"
     id="path64"
     inkscape:connector-curvature="0"
     style="fill:#102e46" />
  <rect
     class="cls-4"
     x="111.83037"
     y="357.60999"
     width="349.91962"
     height="3.5599999"
     id="rect98"
     style="fill:#f0c881;stroke-width:0.95960468" />
  <g
     aria-label="FLORIAnÓPOLIS"
     transform="scale(0.97748728,1.0230312)"
     style="font-style:normal;font-variant:normal;font-weight:normal;font-stretch:normal;font-size:32.73699951px;line-height:1.25;font-family:'Ostrich Sans';-inkscape-font-specification:'Ostrich Sans';letter-spacing:0px;word-spacing:0px;fill:#000000;fill-opacity:1;stroke:none;stroke-width:1.02303123"
     id="text115">
    <path
       d="m 185.48357,362.12438 v 22.06474 h 1.01485 V 373.6478 h 6.9075 v -1.01484 h -6.9075 v -9.49373 h 6.9075 v -1.01485 z"
       style="stroke-width:1.02303123"
       id="path80" />
    <path
       d="m 203.2792,383.17427 h -6.74383 v -21.04989 h -1.04758 v 22.06474 h 7.79141 z"
       style="stroke-width:1.02303123"
       id="path82" />
    <path
       d="m 205.01937,378.32919 c 0,2.45528 0.62201,3.86297 1.53864,4.74687 0.91664,0.8839 2.09517,1.11306 3.14275,1.11306 1.08033,0 2.25886,-0.22916 3.17549,-1.11306 0.91664,-0.8839 1.53864,-2.29159 1.53864,-4.74687 v -10.37762 c 0,-3.7975 -1.57137,-5.82719 -4.71413,-5.82719 -3.11001,0 -4.68139,2.06243 -4.68139,5.82719 z m 1.01485,-10.37762 c 0,-3.2737 1.17853,-4.81234 3.66654,-4.81234 2.45528,0 3.66655,1.44042 3.66655,4.81234 v 10.37762 c 0,3.40465 -1.27674,4.84508 -3.66655,4.84508 -2.45527,0 -3.66654,-1.53864 -3.66654,-4.84508 z"
       style="stroke-width:1.02303123"
       id="path84" />
    <path
       d="m 225.82271,378.03456 c 0,-1.66959 -0.49105,-2.94633 -1.47316,-3.8957 -0.32737,-0.32737 -0.68748,-0.58927 -1.11306,-0.78569 0.52379,-0.2619 1.27674,-0.58927 1.63685,-1.01485 0.81843,-0.94937 1.21127,-2.42253 1.21127,-4.38675 0,-4.02666 -1.24401,-5.85993 -4.7796,-5.85993 h -4.61592 v 22.06474 h 1.01485 v -10.31215 h 2.94633 c 2.61896,0 4.12486,1.53863 4.12486,4.19033 v 6.12182 h 1.04758 z m -8.11877,-14.89533 h 3.60107 c 2.91359,0 3.76475,1.37495 3.76475,4.81234 0,3.40464 -1.5059,4.84507 -4.41949,4.84507 h -2.94633 z"
       style="stroke-width:1.02303123"
       id="path86" />
    <path
       d="m 229.15063,362.12438 h -1.01484 v 22.06474 h 1.01484 z"
       style="stroke-width:1.02303123"
       id="path88" />
    <path
       d="m 241.50476,384.18912 h 1.04759 l -5.0415,-22.06474 h -0.81843 l -3.33917,14.30607 v 0.0982 l -1.73506,7.66046 h 1.04758 l 1.5059,-6.74382 h 5.82719 z m -4.41949,-19.2821 2.68443,11.52343 h -5.33613 z"
       style="stroke-width:1.02303123"
       id="path90" />
    <path
       d="m 253.96375,384.18912 v -22.06474 h -1.04759 v 18.88925 l -7.59498,-18.88925 h -0.8839 v 22.06474 h 1.04758 v -18.88925 l 7.62772,18.88925 z"
       style="stroke-width:1.02303123"
       id="path92" />
    <path
       d="m 256.23487,378.32919 c 0,2.45528 0.622,3.86297 1.53864,4.74687 0.91664,0.8839 2.09517,1.11306 3.14275,1.11306 1.08032,0 2.25886,-0.22916 3.17549,-1.11306 0.91664,-0.8839 1.53864,-2.29159 1.53864,-4.74687 v -10.37762 c 0,-3.7975 -1.57138,-5.82719 -4.71413,-5.82719 -3.11001,0 -4.68139,2.06243 -4.68139,5.82719 z m 1.01485,-10.37762 c 0,-3.2737 1.17853,-4.81234 3.66654,-4.81234 2.45528,0 3.66655,1.44042 3.66655,4.81234 v 10.37762 c 0,3.40465 -1.27675,4.84508 -3.66655,4.84508 -2.45527,0 -3.66654,-1.53864 -3.66654,-4.84508 z m 6.18729,-10.18121 h -1.57137 l -3.92844,2.71717 h 1.57137 z"
       style="stroke-width:1.02303123"
       id="path94" />
    <path
       d="m 271.86577,373.6478 c 3.5356,0 5.13971,-1.93148 5.13971,-5.76171 0,-3.83023 -1.60411,-5.76171 -5.13971,-5.76171 h -3.96118 v 22.06474 h 1.01485 V 373.6478 Z m 0,-10.50857 c 2.91359,0 4.09213,1.34221 4.09213,4.74686 0,3.30644 -1.21127,4.74687 -4.09213,4.74687 h -2.94633 v -9.49373 z"
       style="stroke-width:1.02303123"
       id="path96" />
    <path
       d="m 278.99732,378.32919 c 0,2.45528 0.62201,3.86297 1.53864,4.74687 0.91664,0.8839 2.09517,1.11306 3.14275,1.11306 1.08032,0 2.25886,-0.22916 3.17549,-1.11306 0.91664,-0.8839 1.53864,-2.29159 1.53864,-4.74687 v -10.37762 c 0,-3.7975 -1.57137,-5.82719 -4.71413,-5.82719 -3.11001,0 -4.68139,2.06243 -4.68139,5.82719 z m 1.01485,-10.37762 c 0,-3.2737 1.17853,-4.81234 3.66654,-4.81234 2.45528,0 3.66655,1.44042 3.66655,4.81234 v 10.37762 c 0,3.40465 -1.27675,4.84508 -3.66655,4.84508 -2.45527,0 -3.66654,-1.53864 -3.66654,-4.84508 z"
       style="stroke-width:1.02303123"
       id="path98" />
    <path
       d="m 298.22928,383.17427 h -6.74382 v -21.04989 h -1.04758 v 22.06474 h 7.7914 z"
       style="stroke-width:1.02303123"
       id="path100" />
    <path
       d="m 301.08252,362.12438 h -1.01485 v 22.06474 h 1.01485 z"
       style="stroke-width:1.02303123"
       id="path103" />
    <path
       d="m 303.55007,378.32919 c 0,3.89571 1.57138,5.82719 4.71413,5.82719 3.04454,0 4.74686,-1.73506 4.74686,-5.00876 0,-5.6635 -8.44614,-6.71109 -8.44614,-11.94901 0,-2.84811 1.34222,-4.05938 3.69928,-4.05938 2.48801,0 3.69928,1.5059 3.69928,4.81234 v 0.52379 h 1.04758 v -0.52379 c 0,-3.7975 -1.63685,-5.85993 -4.74686,-5.85993 -3.0118,0 -4.71413,1.89875 -4.71413,5.20519 0,5.69623 8.41341,7.03845 8.41341,11.949 0,2.91359 -1.34222,3.8957 -3.69928,3.8957 -0.78569,0 -1.70232,-0.13094 -2.42254,-0.78568 -0.72021,-0.65474 -1.27674,-1.83328 -1.27674,-4.02666 v -0.49105 h -1.01485 z"
       style="stroke-width:1.02303123"
       id="path105" />
  </g>
  <g
     aria-label="SANTA CATARINA"
     style="font-style:normal;font-variant:normal;font-weight:normal;font-stretch:normal;font-size:32px;line-height:1.25;font-family:'Ostrich Sans';-inkscape-font-specification:'Ostrich Sans';letter-spacing:0px;word-spacing:0px;fill:#000000;fill-opacity:1;stroke:none"
     id="text119">
    <path
       d="m 321.57833,386.10626 c 0,3.808 1.536,5.696 4.608,5.696 2.976,0 4.64,-1.696 4.64,-4.896 0,-5.536 -8.256,-6.56 -8.256,-11.68 0,-2.784 1.312,-3.968 3.616,-3.968 2.432,0 3.616,1.472 3.616,4.704 v 0.512 h 1.024 v -0.512 c 0,-3.712 -1.6,-5.728 -4.64,-5.728 -2.944,0 -4.608,1.856 -4.608,5.088 0,5.568 8.224,6.88 8.224,11.68 0,2.848 -1.312,3.808 -3.616,3.808 -0.768,0 -1.664,-0.128 -2.368,-0.768 -0.704,-0.64 -1.248,-1.792 -1.248,-3.936 v -0.48 h -0.992 z"
       style=""
       id="path53" />
    <path
       d="m 341.11733,391.83426 h 1.024 l -4.928,-21.568 h -0.8 l -3.264,13.984 v 0.096 l -1.696,7.488 h 1.024 l 1.472,-6.592 h 5.696 z m -4.32,-18.848 2.624,11.264 h -5.216 z"
       style=""
       id="path55" />
    <path
       d="m 353.29583,391.83426 v -21.568 h -1.024 v 18.464 l -7.424,-18.464 h -0.864 v 21.568 h 1.024 v -18.464 l 7.456,18.464 z"
       style=""
       id="path57" />
    <path
       d="m 355.35583,371.25826 h 4.192 v 20.544 h 0.992 v -20.544 h 4.224 v -1.024 h -9.408 z"
       style=""
       id="path59" />
    <path
       d="m 372.92983,391.83426 h 1.024 l -4.928,-21.568 h -0.8 l -3.264,13.984 v 0.096 l -1.696,7.488 h 1.024 l 1.472,-6.592 h 5.696 z m -4.32,-18.848 2.624,11.264 h -5.216 z"
       style=""
       id="path61" />
    <path
       d="m 382.51433,386.10626 c 0,2.4 0.608,3.776 1.504,4.64 0.896,0.864 2.048,1.088 3.104,1.088 1.024,0 2.176,-0.224 3.072,-1.088 0.896,-0.864 1.504,-2.24 1.504,-4.64 v -0.512 h -1.024 v 0.512 c 0,1.632 -0.288,2.816 -0.896,3.616 -0.608,0.736 -1.504,1.12 -2.656,1.12 -2.4,0 -3.584,-1.44 -3.584,-4.736 v -10.144 c 0,-3.296 1.248,-4.704 3.584,-4.704 2.304,0 3.552,1.408 3.552,4.704 v 0.512 h 1.024 v -0.512 c 0,-2.336 -0.608,-3.808 -1.504,-4.64 -0.896,-0.832 -2.048,-1.056 -3.072,-1.056 -1.056,0 -2.208,0.224 -3.104,1.056 -0.896,0.832 -1.504,2.304 -1.504,4.64 z"
       style=""
       id="path63" />
    <path
       d="m 403.24233,391.83426 h 1.024 l -4.928,-21.568 h -0.8 l -3.264,13.984 v 0.096 l -1.696,7.488 h 1.024 l 1.472,-6.592 h 5.696 z m -4.32,-18.848 2.624,11.264 h -5.216 z"
       style=""
       id="path65" />
    <path
       d="m 402.79333,371.25826 h 4.192 v 20.544 h 0.992 v -20.544 h 4.224 v -1.024 h -9.408 z"
       style=""
       id="path67" />
    <path
       d="m 420.36733,391.83426 h 1.024 l -4.928,-21.568 h -0.8 l -3.264,13.984 v 0.096 l -1.696,7.488 h 1.024 l 1.472,-6.592 h 5.696 z m -4.32,-18.848 2.624,11.264 h -5.216 z"
       style=""
       id="path69" />
    <path
       d="m 432.22583,385.81826 c 0,-1.632 -0.48,-2.88 -1.44,-3.808 -0.32,-0.32 -0.672,-0.576 -1.088,-0.768 0.512,-0.256 1.248,-0.576 1.6,-0.992 0.8,-0.928 1.184,-2.368 1.184,-4.288 0,-3.936 -1.216,-5.728 -4.672,-5.728 h -4.512 v 21.568 h 0.992 v -10.08 h 2.88 c 2.56,0 4.032,1.504 4.032,4.096 v 5.984 h 1.024 z m -7.936,-14.56 h 3.52 c 2.848,0 3.68,1.344 3.68,4.704 0,3.328 -1.472,4.736 -4.32,4.736 h -2.88 z"
       style=""
       id="path71" />
    <path
       d="m 435.47883,370.26626 h -0.992 v 21.568 h 0.992 z"
       style=""
       id="path73" />
    <path
       d="m 447.17083,391.83426 v -21.568 h -1.024 v 18.464 l -7.424,-18.464 h -0.864 v 21.568 h 1.024 v -18.464 l 7.456,18.464 z"
       style=""
       id="path75" />
    <path
       d="m 459.05483,391.83426 h 1.024 l -4.928,-21.568 h -0.8 l -3.264,13.984 v 0.096 l -1.696,7.488 h 1.024 l 1.472,-6.592 h 5.696 z m -4.32,-18.848 2.624,11.264 h -5.216 z"
       style=""
       id="path77" />
  </g>
  <g
     aria-label="DE ABRIL"
     transform="scale(1.1414971,0.87604253)"
     style="font-style:normal;font-variant:normal;font-weight:normal;font-stretch:normal;font-size:91.3360672px;line-height:1.25;font-family:'Ostrich Sans';-inkscape-font-specification:'Ostrich Sans';letter-spacing:0px;word-spacing:0px;fill:#000000;fill-opacity:1;stroke:none;stroke-width:1.22325099"
     id="text38">
    <path
       d="m 206.29104,395.08597 c 9.77296,0 14.24843,-5.66284 14.24843,-16.62317 v -28.31418 c 0,-10.96033 -4.47547,-16.62316 -14.24843,-16.62316 h -10.50365 v 61.56051 z m 0,-58.72909 c 7.94624,0 11.32567,4.29279 11.32567,13.79174 v 28.31418 c 0,9.49895 -3.37943,13.79175 -11.32567,13.79175 h -7.67223 v -55.89767 z"
       style="stroke-width:1.22325099"
       id="path38" />
    <path
       d="m 227.35828,333.52546 v 61.56051 h 22.10332 v -2.83142 h -19.27191 v -26.5788 h 16.53183 v -2.83141 h -16.53183 v -26.48746 h 19.27191 v -2.83142 z"
       style="stroke-width:1.22325099"
       id="path40" />
    <path
       d="m 301.85854,395.08597 h 2.92275 l -14.06575,-61.56051 h -2.2834 l -9.31628,39.91386 v 0.27401 l -4.84081,21.37264 h 2.92275 l 4.20146,-18.81523 h 16.25782 z m -12.33037,-53.79695 7.48956,32.1503 h -14.88778 z"
       style="stroke-width:1.22325099"
       id="path42" />
    <path
       d="m 320.90924,395.08597 c 9.40762,0 13.60907,-5.38883 13.60907,-16.07515 0,-5.38883 -1.09603,-9.40761 -3.19676,-12.05636 -1.00469,-1.18737 -2.10073,-2.00939 -3.37943,-2.64875 1.37004,-0.73069 2.37474,-1.55271 3.37943,-2.74008 2.10073,-2.64874 3.19676,-6.66753 3.19676,-11.96502 0,-10.68632 -4.20145,-16.07515 -13.60907,-16.07515 h -10.1383 v 61.56051 z m 0,-58.72909 c 7.67223,0 10.68632,3.74478 10.68632,13.24373 0,9.40761 -3.10543,13.24373 -10.68632,13.24373 h -7.21555 v -26.48746 z m 0,29.31887 c 7.58089,0 10.68632,3.83612 10.68632,13.33507 0,9.49895 -3.01409,13.24373 -10.68632,13.24373 h -7.21555 v -26.5788 z"
       style="stroke-width:1.22325099"
       id="path44" />
    <path
       d="m 366.3889,377.91479 c 0,-4.65814 -1.37004,-8.22025 -4.11012,-10.86899 -0.91336,-0.91337 -1.91806,-1.64405 -3.10543,-2.19207 1.46138,-0.73069 3.56211,-1.64405 4.56681,-2.83142 2.2834,-2.64874 3.37943,-6.75887 3.37943,-12.23903 0,-11.23434 -3.47077,-16.34916 -13.33506,-16.34916 h -12.87839 v 61.56051 h 2.83142 v -28.77086 h 8.22024 c 7.30689,0 11.50835,4.2928 11.50835,11.69102 v 17.07984 h 2.92275 z m -22.65134,-41.55791 h 10.04697 c 8.12891,0 10.50364,3.83611 10.50364,13.4264 0,9.49895 -4.20146,13.51774 -12.33037,13.51774 h -8.22024 z"
       style="stroke-width:1.22325099"
       id="path46" />
    <path
       d="m 375.67377,333.52546 h -2.83142 v 61.56051 h 2.83142 z"
       style="stroke-width:1.22325099"
       id="path48" />
    <path
       d="m 403.7482,392.25455 h -18.81523 v -58.72909 h -2.92276 v 61.56051 h 21.73799 z"
       style="stroke-width:1.22325099"
       id="path50" />
  </g>
  <flowRoot
     xml:space="preserve"
     id="flowRoot40"
     style="fill:black;fill-opacity:1;stroke:none;font-family:'Ostrich Sans';font-style:normal;font-weight:bold;font-size:64px;line-height:1.25;letter-spacing:0px;word-spacing:0px;-inkscape-font-specification:'Ostrich Sans Bold';font-stretch:normal;font-variant:normal"><flowRegion
       id="flowRegion42"><rect
         id="rect44"
         width="394.36996"
         height="80.682724"
         x="67.380028"
         y="276.92725" /></flowRegion><flowPara
       id="flowPara46" /></flowRoot>  <text
     xml:space="preserve"
     style="font-style:normal;font-variant:normal;font-weight:bold;font-stretch:normal;font-size:64px;line-height:1.25;font-family:'DejaVu Sans Mono';-inkscape-font-specification:'DejaVu Sans Mono Bold';letter-spacing:0px;word-spacing:0px;fill:#000000;fill-opacity:1;stroke:none"
     x="174.11011"
     y="152.67764"
     id="text3744"><tspan
       sodipodi:role="line"
       id="tspan3742"
       x="174.11011"
       y="209.30264" /></text>
  <path
     style="fill:#102e46;fill-opacity:1;stroke-width:0.37523732"
     d="m 324.93719,273.69355 c -2.73165,-0.73542 -4.03437,-1.4703 -5.88237,-3.3183 -3.58232,-3.58233 -5.18246,-9.598 -5.20079,-19.55226 -0.0179,-9.72709 1.60277,-15.43497 5.59416,-19.70209 4.17463,-4.46302 12.23868,-6.05549 19.47403,-3.84567 l 2.25143,0.68762 0.10665,4.03331 0.10664,4.0333 -1.41997,-0.72325 c -3.45572,-1.76015 -7.68669,-2.3757 -10.65744,-1.55051 -3.20034,0.88897 -5.52219,3.50688 -6.48429,7.31112 -0.57721,2.28229 -1.0171,5.81617 -0.724,5.81617 0.0881,0 0.76088,-0.58345 1.49514,-1.29655 2.69668,-2.61898 8.53606,-3.40097 12.94041,-1.73294 2.44305,0.92524 5.21162,3.61122 6.32621,6.1375 2.48121,5.62378 1.63457,14.71402 -1.78998,19.21861 -3.30108,4.3422 -9.87592,6.16927 -16.13583,4.48394 z m 8.08009,-7.54937 c 2.0622,-1.5371 2.52781,-2.90774 2.52781,-7.44121 0,-3.42996 -0.13052,-4.3813 -0.77222,-5.62856 -0.8715,-1.69393 -3.32462,-3.18952 -5.23158,-3.18952 -1.90695,0 -4.36007,1.49559 -5.23158,3.18952 -0.64169,1.24726 -0.77222,2.1986 -0.77222,5.62856 0,4.68437 0.50674,6.04846 2.83457,7.63049 1.07854,0.73299 1.65181,0.85366 3.4557,0.72744 1.40243,-0.0981 2.52363,-0.42038 3.18952,-0.91672 z"
     id="path3754"
     inkscape:connector-curvature="0" />
  <path
     style="fill:#102e46;fill-opacity:1;stroke-width:0.37523732"
     d="m 429.03919,275.02312 c -4.68121,-1.11274 -7.4817,-3.26976 -9.21515,-7.09778 -0.91826,-2.02782 -1.06442,-2.82552 -1.08272,-5.90904 -0.0176,-2.97095 0.12621,-3.89065 0.86349,-5.52116 1.02871,-2.27501 3.81728,-5.04492 5.80109,-5.76227 0.76003,-0.27483 1.37751,-0.59241 1.37219,-0.70574 -0.005,-0.11333 -0.64588,-0.49879 -1.42346,-0.85659 -4.43872,-2.04247 -6.56162,-7.21092 -5.17884,-12.60845 1.58833,-6.19985 6.6817,-9.36336 14.47144,-8.98826 4.58541,0.2208 7.54741,1.43932 9.92388,4.08253 2.16818,2.41154 3.00355,5.09436 2.77541,8.91328 -0.25654,4.29417 -2.1436,7.27792 -5.47582,8.65817 -1.52755,0.63273 -1.51331,0.99424 0.0596,1.51335 1.84804,0.60991 4.05226,2.6605 5.31987,4.94908 1.04584,1.88821 1.11376,2.26299 1.11376,6.14633 0,3.92384 -0.0637,4.26479 -1.24364,6.66169 -1.43296,2.91074 -3.44568,4.67486 -6.73985,5.90737 -2.66688,0.9978 -8.42286,1.3112 -11.34124,0.61749 z m 7.40926,-7.20496 c 1.86075,-0.77747 2.69756,-1.57751 3.51738,-3.36282 1.28034,-2.7882 0.59316,-7.11649 -1.41263,-8.89758 -2.09354,-1.859 -5.62991,-2.2907 -8.27513,-1.01017 -4.88878,2.36662 -4.90744,10.6382 -0.0294,13.05277 1.8937,0.93736 4.27727,1.0211 6.19982,0.2178 z m 0.38035,-21.93504 c 2.0711,-1.26277 2.77651,-2.79952 2.63058,-5.73077 -0.11717,-2.35356 -0.22791,-2.64072 -1.51455,-3.92737 -1.28665,-1.28664 -1.57381,-1.39738 -3.92737,-1.51455 -4.30744,-0.21444 -6.2916,1.64648 -6.2916,5.90084 0,4.0107 1.96478,5.97561 6.0038,6.00421 1.2309,0.009 2.2968,-0.24317 3.09914,-0.73236 z"
     id="path3756"
     inkscape:connector-curvature="0" />
  <path
     inkscape:connector-curvature="0"
     id="path102"
     style="fill:#000000;stroke-width:1.96168733"
     d="m 188.39803,-62.483982 c -1.57352,0.383896 -3.14511,0.781003 -4.71488,1.190875 2.47062,-0.348094 1.98693,-0.374187 3.56079,-0.394534 0.0392,-0.01922 0.0767,-0.03097 0.11573,-0.04951 -0.0426,-0.0089 -0.0561,-0.03303 -0.007,-0.0904 0.19315,-0.224254 0.53611,-0.239359 0.86866,-0.268382 0.11994,-0.04306 0.23739,-0.07511 0.35597,-0.111371 -0.0571,-0.09337 -0.12047,-0.184091 -0.17955,-0.276697 z m 4.33078,0.487808 c 0.0856,0.04801 0.17715,0.09027 0.25679,0.14398 0.42221,-0.02461 0.84431,-0.04745 1.26648,-0.07236 -0.50739,-0.0308 -1.01501,-0.05397 -1.52327,-0.07159 z m 154.31958,28.011265 c -0.18045,0.01036 -0.3606,0.02468 -0.54116,0.0337 0.19638,0.03849 0.38961,0.07837 0.58559,0.117084 -0.0155,-0.05013 -0.0292,-0.100598 -0.0445,-0.150763 z m 64.93166,21.685196 c -0.0794,0.168251 -0.14268,0.295532 -0.21733,0.451675 0.41557,0.01859 0.85185,0.106114 1.29859,0.256654 -0.2276,-0.229785 -0.42532,-0.40862 -0.55042,-0.471263 -0.15702,-0.07859 -0.34677,-0.157849 -0.53084,-0.237066 z m -0.12129,10.935332 c 0.58028,0.785571 1.14651,1.586625 1.71385,2.386199 -0.16788,-0.345698 -0.34953,-0.684592 -0.54498,-1.016241 -0.42666,-0.348151 -0.71161,-0.724055 -0.7683,-1.127099 -0.0455,-0.05955 -0.0857,-0.122327 -0.13186,-0.181389 -0.0897,-0.01967 -0.17943,-0.03925 -0.26871,-0.06144 z m -103.29798,6.292841 -6.80196,6.092948 c -7.46896,6.690463 -9.53828,11.932202 -2.43877,6.178689 2.43397,-1.971921 3.79534,-2.59072 3.02579,-1.374731 -0.76957,1.215719 -0.54491,2.511593 0.49907,2.879233 1.0456,0.368055 1.32846,4.267498 0.629,8.66565 -1.09203,6.868991 -3.46562,9.953594 -16.82983,21.875095 -38.37077,34.228186 -81.5887,65.426326 -90.45867,65.300686 -6.17659,-0.0875 -5.10125,-3.62312 2.32822,-7.65549 11.98119,-6.50279 40.9942,-30.72559 40.11875,-33.495168 -0.438,-1.387489 0.14596,-1.93382 1.31007,-1.224958 1.7882,1.088898 31.35837,-24.034224 48.40716,-41.127177 4.42037,-4.432709 7.71546,-10.8354 5.59058,-10.865499 -0.33602,-0.0054 -5.53236,4.584269 -11.54721,10.197996 -6.01486,5.613583 -22.40369,20.095208 -36.42086,32.180007 -14.01699,12.084862 -25.25127,22.838449 -24.96496,23.897679 0.28632,1.05918 -0.26772,1.446 -1.23136,0.85944 -1.42926,-0.87029 -16.83075,9.58362 -20.67016,14.02996 -0.56353,0.65253 -7.33398,5.15243 -15.04551,10.00048 -12.74598,8.01321 -14.7674,8.6932 -22.2322,7.47802 -13.14067,-2.13924 -37.30659,-9.20236 -48.93973,-14.30439 -5.90301,-2.5893 -11.41384,-4.71686 -12.24323,-4.72861 -1.18382,-0.0168 -15.38209,-6.18641 -26.441838,-11.48892 -0.823084,-0.39438 -1.533194,1.5293 -1.578362,4.27393 -0.08078,4.90962 -0.164022,4.93704 -5.156247,1.71663 -2.992912,-1.93061 -5.817506,-2.57814 -6.885632,-1.57822 -2.053953,1.92142 -14.88773,32.54124 -15.47926,36.93065 -0.212276,1.57691 -1.725716,6.07939 -3.361299,10.00604 l -0.0011,9e-4 c -1.968048,4.72187 -2.884495,6.7332 -4.51454,6.75963 0.01137,2.23152 -0.02104,3.93555 -0.840632,6.47548 -0.263313,0.81588 -0.812351,1.5276 -1.218572,2.29135 -0.571269,1.07405 -1.19129,1.54991 -1.824183,1.61151 -1.813733,1.47487 -4.357929,2.54927 -7.230665,2.71427 -3.423275,0.19654 -9.29793,1.53754 -13.054909,2.9799 -6.611577,2.53829 -6.395787,2.59551 6.747492,1.77753 l 13.579145,-0.84557 -1.96633,4.54804 c -1.081542,2.50035 -3.453786,7.73048 -5.272318,11.62067 -3.91467,8.37579 -4.45643,12.78293 -1.200979,9.77445 1.200229,-1.10927 2.435175,-3.20354 2.743178,-4.65342 1.479359,-6.95703 6.433166,-19.06259 8.426595,-20.59068 1.22768,-0.94111 6.426229,-2.12079 11.551531,-2.62152 l 9.318795,-0.91026 -1.314501,16.67256 c -0.722452,9.17049 -2.168004,17.67045 -3.211943,18.88793 -1.043771,1.21749 -8.412389,2.67972 -16.374426,3.24949 -4.433073,0.31724 -10.25195,0.63384 -15.869024,0.89907 0.713178,0.34172 1.429835,0.67836 2.142035,1.02145 0.737217,0.35514 1.360774,0.74404 1.885443,1.15164 0.978673,-0.0628 1.905355,-0.11908 2.927684,-0.18809 51.909352,-3.50371 107.685342,-3.62461 196.410742,-0.42533 14.91485,0.53769 35.10001,1.22209 44.85584,1.52091 l 17.73796,0.54281 -1.53863,12.90511 c -0.74006,6.20693 -1.71768,12.57464 -2.33209,15.30257 0.0156,0.006 0.031,0.0123 0.0466,0.018 1.86184,-6.33713 9.16727,-32.51476 6.84894,-38.23656 2.43664,-23.40099 4.75678,-40.86833 5.15578,-38.81649 0.59607,3.06648 -3.48358,60.52301 -5.35601,76.9949 0.49279,-0.10717 0.98547,-0.21474 1.47815,-0.32176 0.29716,0.0272 0.59421,0.0521 0.89103,0.0823 0.0256,0.003 0.0515,0.005 0.0773,0.006 0.0978,-2.63318 0.69209,-5.92019 2.07902,-9.68694 1.20527,-8.38158 2.87976,-28.50325 3.72135,-44.71384 0.84125,-16.21057 2.10403,-29.98094 2.80663,-30.601 0.7026,-0.62001 0.28336,15.66304 -0.92962,36.18478 -1.21299,20.52182 -2.33283,41.54754 -2.49969,46.72317 -0.0168,0.44394 -0.0495,0.8395 -0.079,1.24348 0.18242,-0.059 0.28474,-0.0962 0.49392,-0.15728 0.67037,-0.19577 1.29771,-0.46145 1.90642,-0.76502 -0.14248,-3.15275 -0.009,-8.25042 0.38102,-12.89322 l 0.9125,-10.84254 11.36192,1.06174 c 17.95756,1.67893 24.26678,2.9746 24.35669,5.01551 0.49901,0.0334 0.9988,0.0573 1.49853,0.0789 1.0056,-0.21104 2.0193,-0.36731 2.9896,-0.38847 0.81275,-0.0177 1.58994,0.0579 2.29999,0.25995 0.24171,-0.19711 0.49069,-0.40401 0.69991,-0.56017 3.85421,-2.8761 4.37777,-4.63281 3.48577,-11.65578 -0.99145,-7.7974 -0.73561,-8.3404 4.4671,-9.50625 6.28811,-1.40909 7.67203,-0.58247 7.99872,4.76969 0.17954,2.95418 -1.02918,3.77579 -5.46114,3.71303 -3.13094,-0.0443 -5.70697,0.76426 -5.72396,1.79671 -0.0335,2.03532 9.98332,1.61204 13.84338,-0.58507 1.30572,-0.74257 2.26265,-2.3655 2.11966,-3.60478 -0.59235,-5.24575 0.69538,-6.76305 7.99191,-9.42477 4.23355,-1.54427 8.90807,-4.15597 10.39023,-5.80496 1.61175,-1.79352 5.82526,-2.95394 10.48646,-2.88791 4.2855,0.0607 7.80581,-0.75202 7.82313,-1.80506 0.0189,-1.14878 8.06934,-1.80048 20.12605,-1.62972 l 16.8588,0.23879 c 0.48252,-0.30236 1.13866,-0.53567 1.99336,-0.63323 0.96736,-0.11027 1.94302,-0.18218 2.9132,-0.16219 0.5633,0.0118 1.12393,0.059 1.68039,0.14348 l 0.76999,-39.0962 c -0.32815,-0.1228 -0.65653,-0.24495 -0.98485,-0.36752 -0.67104,-0.26137 -1.3424,-0.52219 -2.01345,-0.78355 -1.05618,-0.41136 -1.71212,-0.99405 -2.04233,-1.59338 l -47.14209,1.23292 -48.6965,1.27291 -1.01257,-4.02667 c -2.15858,-8.58153 -7.12533,-90.936693 -5.61869,-93.180047 0.67464,-1.004547 0.31719,-2.380487 -0.79517,-3.057491 -2.464,-1.500703 -2.50054,-4.898477 -0.088,-8.406668 0.75916,-1.104165 1.431,-1.64325 2.51462,-1.595214 1.08361,0.04809 2.5798,0.683256 4.98722,1.927756 35.99472,18.607993 45.71761,23.156686 47.87891,22.402126 1.39463,-0.487423 2.14847,0.141247 1.67382,1.397783 -0.48781,1.29149 4.51941,4.853591 11.52362,8.196562 6.81303,3.251745 15.67223,7.867006 19.68655,10.256335 4.01416,2.389311 9.62604,4.935686 12.46949,5.658749 l 4.39312,1.117529 c 0.11435,-0.469533 0.42147,-0.745612 0.82792,-0.857545 -0.15853,-1.007173 -0.32493,-2.008688 -0.497,-3.004312 -0.50736,-0.280871 -1.0371,-0.515519 -1.66923,-0.537155 -1.5566,-0.05323 -2.22395,-0.747017 -2.2627,-1.52796 -18.39221,-8.866807 -98.27004,-49.822665 -100.69402,-51.756493 -3.37198,-2.690753 -3.07604,-5.347275 0.59021,-5.29535 1.65746,0.02346 3.00238,0.75936 2.98794,1.63724 -0.0144,0.877881 1.10897,1.611717 2.4967,1.631377 1.38807,0.01967 6.10012,2.259973 10.47077,4.977667 4.37047,2.717694 8.65155,5.02777 9.51389,5.120783 0.86224,0.09921 19.03455,8.834985 40.38208,19.412909 19.55892,9.691896 30.37792,15.46256 35.33382,18.985648 0.28025,-0.192811 0.63399,-0.318179 1.0516,-0.339769 0.10007,-0.0054 0.20978,0.0072 0.3164,0.01317 -0.24289,-1.133768 -0.49128,-2.262212 -0.74996,-3.382148 -0.43583,0.101341 -1.07078,-0.199649 -1.99308,-1.09442 -0.48422,-0.469738 -1.05851,-0.872845 -1.45317,-1.409873 -0.12925,-0.175876 -0.24243,-0.356858 -0.34994,-0.540223 -0.72236,-0.469151 -1.40135,-1.015906 -2.04834,-1.656576 -0.28262,-0.739186 -0.0772,-0.200362 -0.2631,-0.685863 -7.35893,-2.584928 1.78787,0.896295 -7.14469,-2.58279 -1.85841,-0.723812 -3.11655,-1.697204 -3.84959,-2.721059 C 411.76309,44.609424 387.88511,32.86185 385.15826,32.018788 384.60846,31.848723 372.6223,26.039912 358.52285,19.109559 334.91657,7.506245 332.68197,6.767591 330.28872,9.787458 327.83797,12.87936 327.14449,12.8346 318.12492,8.997222 Z M 17.876235,5.194579 c -0.238818,0.200345 -0.484163,0.398551 -0.71933,0.600159 0.24597,-0.19485 0.485777,-0.394906 0.71933,-0.600159 z m 293.342505,6.031532 c 0.22624,-0.0063 1.19283,0.431158 2.91049,1.214022 2.19361,1.000063 5.33826,2.316247 6.98658,2.925428 2.59248,0.956548 2.57309,1.118087 -0.1349,1.214411 -1.72427,0.05865 -4.86806,-1.258458 -6.98657,-2.92652 -2.13404,-1.678573 -3.06648,-2.419131 -2.7756,-2.427341 z m 3.7711,5.6389 c 0.67357,0.02761 1.47774,0.382102 2.27108,1.161448 l 0.007,9.9e-5 c 1.4125,1.395447 1.43125,2.467347 0.0449,3.255751 -1.13596,0.646787 -2.65538,0.233827 -3.37621,-0.917083 -1.27941,-2.041133 -0.4287,-3.560883 1.05318,-3.500215 z m 10.85099,2.394851 c 0.38973,0.03077 0.75079,0.136636 1.06756,0.329537 1.22375,0.74525 0.66347,2.656991 -1.44495,4.931834 -4.02765,4.345344 -6.58638,4.750707 -6.52521,1.033599 0.0502,-3.047484 4.1745,-6.510608 6.9026,-6.29497 z M 300.0514,19.005553 c -0.6972,0.0054 -1.95273,0.838452 -3.10969,2.126396 -1.61523,1.796993 -1.78472,2.893669 -0.45248,2.912535 2.42719,0.03438 5.3189,-3.55777 3.94812,-4.905091 -0.0934,-0.09169 -0.22506,-0.134985 -0.38595,-0.13384 z m 28.65871,8.034554 c 0.4997,0.0295 0.86931,0.630095 1.30093,1.753694 l -10e-4,9.02e-4 c 0.64372,1.670606 0.8354,5.615279 0.42917,8.76618 l -0.73805,5.728429 -3.54443,-4.661988 c -3.20725,-4.218199 -3.24841,-5.055135 -0.42916,-8.767253 1.48228,-1.951882 2.34025,-2.857994 2.98273,-2.820117 z m -15.75581,0.71682 c 0.35907,0.02021 0.7863,0.257772 1.29989,0.676615 1.4248,1.162495 2.54415,3.08463 2.49196,4.271729 -0.0546,1.186793 -1.50038,3.861269 -3.21355,5.943599 -2.92793,3.558509 -3.07708,3.301783 -2.49194,-4.271739 0.36994,-4.789828 0.83643,-6.680908 1.91364,-6.620204 z m 7.28627,9.228843 c 0.99129,0.1056 1.86772,1.635771 3.31071,4.398649 l 3.16948,6.068813 -7.15502,-0.101341 c -6.24125,-0.08842 -6.89194,-0.525082 -5.08809,-3.422919 2.88778,-4.638864 4.34195,-6.842032 5.56242,-6.944961 0.0673,-0.0054 0.1344,-0.0054 0.2005,0.0018 z m -19.22565,6.701381 c 0.89628,-0.06884 0.85911,0.983786 0.50818,2.824962 -0.56256,2.946667 -2.71687,20.83425 -4.78772,39.750797 -2.07087,18.91655 -3.92969,34.46775 -4.1288,34.55651 -0.19957,0.0891 -3.97908,-0.52027 -8.39853,-1.35376 -4.4196,-0.83345 -24.0657,-2.03792 -43.65595,-2.67671 -19.59114,-0.63882 -35.62527,-1.35924 -35.6281,-1.60128 -0.005,-0.24197 3.40965,-2.05726 7.58776,-4.03432 4.17795,-1.97707 9.44949,-5.15186 11.71479,-7.05473 2.26528,-1.90287 10.04753,-7.63468 17.29394,-12.73744 7.24622,-5.10275 16.45425,-12.29721 20.462,-15.987941 4.00792,-3.690744 14.77461,-12.89991 23.92578,-20.464716 9.52941,-7.877797 13.61283,-11.106606 15.10665,-11.221372 z M 12.314654,44.798425 c -0.250757,0.105112 -0.488506,0.225201 -0.719943,0.352094 -0.0034,0.228305 0.0068,0.458289 0.01217,0.68774 0.222716,-0.362416 0.456359,-0.71516 0.707799,-1.039834 z m 308.211556,6.39771 c 4.4207,0.06262 8.02613,0.824458 8.01181,1.694254 -0.0143,0.869534 -2.18999,3.459361 -4.83455,5.755262 l -4.80856,4.174864 -3.22011,-4.844514 c -4.43029,-6.664911 -4.25547,-6.908852 4.85141,-6.779866 z m 8.43878,6.604731 c 0.61602,-0.01353 1.13188,0.646227 1.83462,1.887452 1.0013,1.769917 1.48709,6.734096 1.07672,11.031729 l -0.74657,7.813903 -4.5724,-6.114804 c -4.3889,-5.872266 -4.43231,-6.31196 -1.07552,-11.032802 1.73273,-2.438078 2.69109,-3.568083 3.48315,-3.585478 z m -18.85828,0.907871 c 3.38103,0.04791 6.505,5.681116 5.2046,9.38431 -0.72062,2.051798 -2.6484,4.755787 -4.28409,6.010031 -2.5364,1.944162 -2.95355,0.975612 -2.82938,-6.569895 0.0801,-4.867584 0.93908,-8.838179 1.90887,-8.824446 z m 25.08034,1.017792 c 0.18223,0.02896 0.3954,0.32591 0.62659,0.902078 l 0.003,4.5e-5 c 0.55351,1.390259 0.45371,3.04079 -0.22452,3.667529 -0.67821,0.626766 -1.12749,-0.511413 -1.0126,-2.528573 0.0842,-1.39311 0.30329,-2.089323 0.60701,-2.041079 z m -14.69152,10.650636 c 0.16245,0.0093 0.28781,0.06686 0.36879,0.179295 0.30094,0.417688 2.06382,3.151198 3.91755,6.07397 l 3.37069,5.31446 -9.15978,-0.12973 c -8.25676,-0.11695 -8.95981,-0.47229 -7.1313,-3.60961 2.02324,-3.471826 7.06384,-7.918303 8.63405,-7.828385 z m -19.08937,7.755365 c 0.36701,0.0847 0.55303,2.09463 0.48701,6.10697 -0.069,4.19526 0.70541,6.66407 1.88078,5.99508 1.24951,-0.71069 1.48507,1.22622 0.63154,5.16252 l -10e-4,-2e-5 c -1.87602,8.64366 -2.84366,9.11046 -2.74835,1.33297 0.0553,-4.71012 -0.45055,-5.77267 -1.80911,-3.79534 -1.21971,1.77671 -1.43327,-0.25496 -0.60304,-5.75395 0.91895,-6.08483 1.69047,-9.1572 2.16233,-9.04823 z m 35.57897,5.65533 c 0.0314,-0.005 0.0617,-0.002 0.0913,0.008 0.52022,0.16931 0.7522,2.57006 0.74041,7.38237 -0.0142,5.52952 -0.4776,10.04688 -1.02944,10.03907 -0.55346,-0.008 -1.05182,-1.52253 -1.10318,-3.36648 -0.0546,-1.84402 -0.33725,-4.64894 -0.62799,-6.233 -0.29074,-1.58403 0.21653,-4.59318 1.12789,-6.68682 0.31539,-0.7247 0.58109,-1.10972 0.80097,-1.14297 z m -15.67074,1.88973 9.39308,0.13305 -4.79875,4.72005 c -5.73294,5.63919 -6.53365,5.7229 -10.76129,1.13244 -4.91158,-5.33306 -4.08962,-6.13081 6.16696,-5.98554 z m -12.6943,4.51031 c 0.73442,0.0724 2.03145,1.04678 4.15563,3.00718 3.8698,3.57151 4.4177,5.10796 2.55907,7.1764 l 10e-4,10e-6 c -1.30101,1.44776 -4.17085,3.52029 -6.37762,4.60523 -3.71052,1.82378 -3.90661,1.505 -2.60902,-4.21139 0.77122,-3.40098 1.42535,-7.51819 1.4522,-9.14968 0.0164,-0.99513 0.24734,-1.48401 0.81855,-1.42775 z m 21.16577,1.45954 c 0.75747,-0.051 1.3324,0.57155 2.14616,1.84072 1.02264,1.5944 1.83464,5.26835 1.80286,8.16442 l -10e-4,-2e-5 c -0.0683,6.43584 -0.21977,6.4449 -6.0438,0.35392 -4.43474,-4.63855 -4.49345,-5.06311 -1.14752,-8.15514 1.54565,-1.42808 2.48601,-2.15289 3.24347,-2.2039 z M 77.842502,95.24306 c 1.508438,-0.0501 4.573828,1.08331 10.256388,3.61144 6.31017,2.80735 12.37302,5.33618 13.47393,5.61858 1.10075,0.28232 4.69679,1.61514 7.99095,2.96249 11.80324,4.82735 35.56662,12.13391 39.75111,12.22139 2.34535,0.0495 5.60728,0.94384 7.24826,1.98806 3.17709,2.02174 -20.34102,2.24871 -26.13315,0.25217 C 98.60546,110.9268 76.513575,100.53572 76.578891,96.56658 c 0.01375,-0.83672 0.35941,-1.29347 1.263611,-1.32352 z m 242.176608,5.1545 5.2449,5.1528 5.24606,5.15389 -11.6628,-0.16518 -11.66282,-0.16519 6.41675,-4.9887 z M 59.624901,102.1132 c 0.256568,-0.0287 0.121938,1.10335 -0.237196,3.29746 -0.471989,2.88082 -1.220615,13.42786 -1.666196,23.43674 -0.758645,17.06563 -2.034983,21.0432 -5.153142,16.06551 -0.719709,-1.14903 -3.411606,-1.61713 -5.982153,-1.04103 l -4.673818,1.04677 5.122071,-11.89697 c 2.816698,-6.54356 5.481804,-13.61596 5.92135,-15.71629 0.440041,-2.10032 2.259909,-6.81384 4.04446,-10.47506 1.540361,-3.16025 2.333838,-4.6846 2.624624,-4.71713 z m 242.854819,4.05987 c 0.13092,-0.0409 0.27691,0.21014 0.4256,0.78825 0.47579,1.84999 0.42617,4.86559 -0.11031,6.70124 -0.53645,1.83565 -0.92466,0.32255 -0.86401,-3.36309 0.0417,-2.53392 0.26065,-4.03644 0.54868,-4.1264 z M 69.766691,103.13918 c 0.814007,0.0104 1.56175,0.27548 2.151812,0.85513 0.643305,0.63183 -0.308664,1.12708 -2.115997,1.10149 -1.919822,-0.0272 -2.874073,1.02604 -2.295537,2.53394 0.544946,1.41885 -0.423855,3.66376 -2.152996,4.98925 -2.708977,2.07691 -3.071634,1.71734 -2.624901,-2.60581 0.382793,-3.70129 4.130444,-6.91071 7.037619,-6.874 z m 267.930949,3.83623 c 1.16047,0.0164 1.90967,6.09148 1.77315,14.3881 -0.23728,14.41939 -0.46206,15.43393 -2.89415,13.04474 -2.13673,-2.09868 -1.09988,-27.46429 1.121,-27.43284 z m -39.18126,1.67859 c 0.5425,-0.13963 0.92375,2.51255 0.86322,6.19063 -0.065,3.95548 0.73106,6.65016 1.78608,6.04923 1.11271,-0.63271 1.63602,2.89062 1.25845,8.46786 l -10e-4,-2e-5 c -1.00846,14.91069 -2.78231,13.13523 -3.99851,-4.00477 -0.60975,-8.59642 -0.61965,-16.08371 -0.0193,-16.63815 0.0375,-0.0347 0.0752,-0.0555 0.11133,-0.0648 z M 79.48904,105.85311 c 1.5893,0.0937 6.67258,2.14689 12.2668,5.00637 6.39323,3.26796 13.83618,6.75005 16.53956,7.73778 4.65697,1.70144 4.22665,2.1494 -8.17986,8.51805 -20.97221,10.76525 -19.6287,11.12174 -20.99281,-5.55754 -0.65658,-8.03175 -0.69764,-15.06287 -0.0924,-15.62194 0.0757,-0.07 0.23165,-0.0961 0.45869,-0.0827 z m 366.05477,12.67626 c -0.19622,0.35022 -0.41933,0.65863 -0.66139,0.92735 0.20524,0.2628 0.413,0.52393 0.62743,0.78024 z m -229.18364,0.0482 c 1.3516,0.0355 2.18009,2.27886 1.67312,5.93013 -0.44434,3.19586 -1.27104,6.24069 -1.83982,6.76595 -1.54597,1.42869 -3.67667,-8.7231 -2.27047,-10.81909 0.87833,-1.30847 1.72919,-1.89555 2.43717,-1.87699 z m -17.73972,-0.22185 c 3.5781,0.0535 8.47736,0.92292 9.21529,2.10079 0.66512,1.06267 0.4456,1.92108 -0.48989,1.90783 -0.93502,-0.0133 -1.87666,1.82551 -2.09358,4.08604 -0.70023,7.32304 -3.81435,7.55055 -7.19113,0.52479 -1.80649,-3.75838 -3.27811,-7.2353 -3.27004,-7.72608 0.0114,-0.66476 1.68248,-0.92561 3.82935,-0.89337 z m 66.51241,1.23147 c 1.27475,0.018 2.54807,0.15642 3.51119,0.41093 1.92611,0.50888 0.33651,0.88056 -3.53154,0.82576 -3.86757,-0.0548 -5.44364,-0.47116 -3.50155,-0.92538 0.97099,-0.22712 2.24716,-0.32937 3.5219,-0.31131 z m 53.71244,0.76299 c 11.7543,0.0394 14.58049,1.93883 14.46745,8.80944 -0.0898,5.46044 -0.82359,6.46811 -4.67303,6.41358 -3.14462,-0.0446 -5.69529,-2.1361 -8.18948,-6.71762 -1.99128,-3.65926 -5.53359,-7.0399 -7.87035,-7.51164 -2.33678,-0.47172 -0.62963,-0.91102 3.7932,-0.97763 0.86483,-0.013 1.68853,-0.0188 2.47221,-0.0161 z m 123.11326,2.12671 -0.002,0.14793 c 0.12119,0.0944 0.24539,0.18519 0.36476,0.2815 -0.12077,-0.14321 -0.24365,-0.28477 -0.36233,-0.42943 z m -165.13784,-1.8233 c 2.02365,0.053 4.35967,0.86939 4.341,2.00455 -0.007,0.41391 -1.87395,0.72523 -4.14969,0.69299 -2.2747,-0.0322 -3.58921,-0.8746 -2.91959,-1.87235 0.41233,-0.61422 1.51409,-0.85691 2.72828,-0.82519 z m -213.07485,-2.2379 c 1.1477,0.0162 2.526022,1.11266 3.062732,2.43685 0.779915,1.92613 1.01026,1.92939 1.172379,0.0166 0.108839,-1.315 1.629612,-2.37039 3.379476,-2.34561 1.749377,0.0248 2.788622,1.11639 2.306553,2.42614 l -0.0013,-2e-5 c -1.31479,3.57529 -6.623531,3.81456 -9.483219,0.42707 -1.492877,-1.7685 -1.671029,-2.97852 -0.436751,-2.96104 z m 167.41315,2.3712 c 3.24831,0.046 3.88217,0.83451 2.71989,3.38938 -0.83197,1.83147 -1.57843,4.40649 -1.64909,5.72205 -0.20956,3.71479 -1.40021,2.82981 -3.45342,-2.56749 -2.50217,-6.57705 -2.48884,-6.61294 2.38262,-6.54394 z m 12.26461,0.22267 c 0.55745,-0.006 1.2396,0.0897 2.04505,0.28899 l 0.001,2e-5 c 1.8873,0.46773 2.35177,2.21544 1.45106,5.45698 l -1.32499,4.76818 -2.47751,-4.50762 c -2.20101,-4.0044 -2.11158,-5.97782 0.30523,-6.00655 z m -56.53967,-0.40806 c 1.81533,0.0944 1.88475,1.08213 1.0552,3.85864 -0.71022,2.37247 -1.31819,5.39147 -1.35572,6.70753 -0.11889,4.25879 -3.61544,2.48281 -4.8308,-2.45427 -0.64819,-2.63765 -1.38036,-5.36236 -1.62533,-6.05566 -0.24515,-0.69321 1.70228,-1.54243 4.32764,-1.88611 1.02435,-0.13408 1.82388,-0.20158 2.42901,-0.17013 z m 67.91503,2.435 5.13736,0.0727 c 2.84538,0.0403 5.06077,1.14037 4.95729,2.46477 -0.10007,1.31517 -0.84052,3.90884 -1.6451,5.76454 -1.26184,2.90788 -1.94599,2.56788 -4.95613,-2.46367 z m 16.54644,1.40499 c 0.57227,0.0115 1.40186,0.26122 2.55218,0.68238 1.12135,0.41058 2.20069,1.22733 3.05349,2.21478 -0.28672,0.0208 -1.02325,0.86956 -2.39592,2.5064 -2.91929,3.48013 -3.06375,3.43154 -3.93597,-1.31993 -0.54796,-2.98392 -0.53279,-4.10942 0.72622,-4.08363 z m 12.78658,0.92635 c 1.7405,0.0246 2.40998,1.17402 1.68435,2.89601 -0.66191,1.5706 -1.46212,2.85145 -1.77885,2.84697 -0.31576,-0.005 -1.07361,-1.30744 -1.68435,-2.89602 -0.66912,-1.74176 0.0373,-2.87163 1.77885,-2.84696 z m -168.23887,-2.21863 c 0.76732,-0.0162 1.38705,0.11401 1.67391,0.39579 l 0.001,2e-5 c 0.5737,0.56365 0.70499,3.90422 0.28945,7.42276 l -0.75609,6.39726 -3.47865,-6.30819 c -3.12261,-5.65978 -3.15228,-6.42145 -0.28948,-7.42168 0.87733,-0.30645 1.79238,-0.46969 2.5597,-0.48596 z m 76.99245,2.08379 3.81114,5.69931 c 2.09633,3.13436 3.80778,6.34532 3.80159,7.13524 -0.006,0.78989 -3.22872,1.39035 -7.16223,1.33464 -3.93336,-0.0558 -6.66052,-0.83235 -6.06118,-1.72537 0.59947,-0.89304 2.1072,-4.05844 3.34991,-7.03396 z m -25.07262,-0.34531 c 3.5441,-0.0661 3.7055,4.25527 0.24967,11.19408 -2.88012,5.78327 -12.61555,7.07667 -10.38189,1.37934 2.38196,-6.07584 3.11045,-6.43875 5.83366,-2.90486 3.19345,4.14357 3.94399,0.37681 1.00719,-5.05227 -1.50653,-2.78512 -1.07171,-3.71449 2.0832,-4.45281 0.4379,-0.10271 0.84154,-0.15664 1.20817,-0.16348 z m 70.16765,1.01233 c 0.63385,0.0665 1.47724,1.50136 2.40339,4.16604 2.05193,5.90287 1.91522,6.19901 -2.83317,6.13175 -4.102,-0.0581 -4.65936,-0.66209 -3.1267,-3.39514 1.02508,-1.82791 2.29991,-4.58873 2.83319,-6.13284 0.18937,-0.54817 0.43518,-0.80005 0.72329,-0.76981 z m 14.18956,0.46969 c 0.73823,0.11842 1.69658,1.4659 3.38981,4.29534 l 3.49225,5.8373 -5.13735,-0.0727 c -5.19376,-0.0735 -5.99116,-2.05494 -3.31218,-8.22932 0.55205,-1.27219 0.99328,-1.92186 1.56747,-1.83056 z m -125.74893,-1.15659 c 0.0842,-0.006 0.17465,-0.0118 0.27079,0.006 0.70013,0.0716 1.72176,0.55948 3.09704,1.42012 1.70042,1.065 1.86758,3.20281 0.55647,7.15999 -1.02827,3.10289 -1.93543,5.20391 -2.02461,4.66906 -0.0862,-0.53479 -0.95178,-3.77876 -1.92413,-7.20876 -1.15273,-4.06859 -1.23853,-5.95606 0.0244,-6.04641 z m 316.25545,4.50332 c -0.007,0.0179 -0.0166,0.0377 -0.0221,0.0552 -0.0724,0.24126 -0.0163,0.47544 0.0928,0.70629 0.0602,0.0141 0.12164,0.0312 0.18332,0.0483 -0.0607,-0.24631 -0.11816,-0.49493 -0.17422,-0.74336 -0.0276,-0.0212 -0.0524,-0.045 -0.0798,-0.0664 z m -165.58989,-2.21592 c 0.82535,1.00348 1.41581,2.16558 1.56923,3.2643 0.31589,2.25972 -0.30838,4.09607 -1.38755,4.08078 -1.07908,-0.0152 -1.44803,-1.95997 -0.82128,-4.32096 0.44274,-1.66923 0.689,-2.6562 0.6396,-3.02412 z m -101.64074,-1.2786 c 1.18062,0.0649 3.24477,2.94678 4.73907,7.24535 1.89165,5.44161 1.70908,5.77288 -3.1451,5.70413 -4.36292,-0.0618 -4.95594,-0.73177 -3.87063,-4.36414 0.70509,-2.3599 1.31276,-5.4186 1.35132,-6.79681 0.0347,-1.2663 0.3887,-1.818 0.92534,-1.78853 z M 63.269806,124.89854 c 0.145746,0.002 0.278221,0.0555 0.392421,0.16767 0.609723,0.59826 -0.03392,2.13507 -1.428184,3.4144 -2.016175,1.84873 -2.242169,1.62487 -1.106661,-1.0884 0.638363,-1.52548 1.510849,-2.50179 2.142424,-2.49367 z M 223.57926,127.613 c 0.59215,-0.0413 1.26947,0.71718 2.35259,2.12218 1.46793,1.90492 2.68468,4.54082 2.69569,5.85758 0.0135,1.31594 -2.1899,2.36244 -4.89536,2.32412 -4.60698,-0.0652 -4.77795,-0.43679 -2.69453,-5.85756 1.16016,-3.01878 1.78027,-4.39322 2.54161,-4.44632 z m -82.35858,-0.43975 c 1.56015,0.0221 2.6197,1.30541 2.35584,2.85113 -0.74887,4.38768 -2.6956,5.2788 -4.01727,1.83938 -1.67727,-4.36755 -1.54671,-4.73596 1.66143,-4.69051 z m 12.23375,0.17327 c 1.65764,0.0235 2.98233,1.11913 2.94434,2.43518 -0.0384,1.31606 -0.85487,3.53202 -1.81186,4.92337 -1.3891,2.01802 -1.98863,1.88099 -2.97207,-0.67746 -1.91358,-4.98189 -1.43336,-6.72744 1.83959,-6.68109 z M -1.005363,125.174 l -0.335569,0.0115 c -0.05549,0.65073 -0.110305,1.30127 -0.15644,1.95281 0.249893,-0.63084 0.391187,-1.29312 0.492009,-1.96438 z m 314.833393,4.6235 c 0.23336,-0.0127 0.75938,0.41447 1.61415,1.24788 1.35047,1.31818 1.94365,2.87146 1.31518,3.45217 -0.62832,0.58071 -1.73597,-0.49781 -2.4583,-2.39674 -0.58812,-1.54356 -0.77106,-2.28692 -0.47103,-2.30331 z m -25.9294,-0.0159 c 0.36919,-0.0112 0.87869,0.34308 1.57095,1.02316 1.84615,1.81354 1.82935,2.83506 -0.0756,4.59547 -1.90515,1.76041 -2.43258,1.24258 -2.37377,-2.33135 0.0367,-2.23374 0.26317,-3.26857 0.87845,-3.28728 z M 73.377208,126.94555 c 0.17969,-0.008 0.415949,0.072 0.705366,0.24824 2.48479,1.5097 2.508648,6.72419 0.0365,6.68917 l -0.006,-8e-5 c -1.014691,-0.0143 -3.232714,0.45905 -4.929545,1.05185 -2.181187,0.76186 -2.977515,-0.0487 -2.717249,-2.76595 0.3055,-3.19339 1.022772,-3.49721 4.241714,-1.79595 3.230438,1.70729 3.67004,1.51332 2.641211,-1.16477 -0.543734,-1.41769 -0.51295,-2.23813 0.02786,-2.26252 z m 33.711272,0.57539 c 0.7959,-0.0404 1.05591,0.45539 0.97425,1.50972 -0.0998,1.35222 -0.90873,4.1521 -1.79688,6.22259 -1.574,3.67086 -1.67121,3.65979 -3.89629,-0.45338 -1.93853,-3.5839 -1.66965,-4.52006 1.79572,-6.2237 1.36039,-0.66877 2.30416,-1.02381 2.9232,-1.05523 z m 103.2126,1.74692 c 1.13387,-0.0131 2.11448,1.53551 2.9127,4.64106 0.79269,3.08428 0.018,3.86027 -3.79752,3.80622 -4.36632,-0.0618 -4.58465,-0.48573 -2.45455,-4.76295 1.21826,-2.44615 2.33887,-3.67283 3.33937,-3.68433 z m 85.89202,1.99225 c 0.10576,0.0281 0.21701,0.50032 0.32652,1.46465 0.3894,3.42787 0.29724,9.02816 -0.20477,12.44421 -0.50203,3.41606 -0.82036,0.6106 -0.70772,-6.23413 0.081,-4.91961 0.31579,-7.74648 0.58597,-7.67473 z m -30.02767,0.33191 c 0.24036,-0.006 0.50232,0.0674 0.77596,0.23401 1.09425,0.66646 1.97663,2.02333 1.96033,3.01417 -0.0163,0.99014 -0.93379,1.78839 -2.0391,1.77274 -1.10496,-0.0157 -1.98735,-1.37215 -1.96034,-3.01307 0.0202,-1.23138 0.54207,-1.98771 1.26315,-2.00785 z m -131.46702,-0.57178 c 0.28157,-0.0418 0.75937,0.57476 1.58114,1.82838 1.04486,1.59471 1.89919,3.88413 1.89571,5.08795 -0.002,1.20384 -1.47051,2.7016 -3.26195,3.3275 -2.38453,0.83291 -2.91507,0.32482 -1.97874,-1.89493 0.70265,-1.66806 1.31549,-4.47096 1.36072,-6.2266 0.036,-1.38074 0.12156,-2.08057 0.40312,-2.1223 z m 282.61118,4.20302 c 2.20707,0.0232 4.25363,0.0455 6.14439,0.0904 12.60594,0.24574 18.28021,0.79824 18.26528,1.70565 -0.0232,1.40984 -12.10416,1.89892 -37.89482,1.53362 l -10e-4,-2e-5 c -20.82304,-0.29493 -51.34621,-0.41677 -67.82982,-0.27314 -16.48364,0.14485 -21.22992,0.0476 -10.54681,-0.21466 l 19.42342,-0.47666 -0.54151,-2.15308 48.67954,-0.2418 c 9.61712,-0.0479 17.68119,-0.0396 24.30152,0.0298 z M 95.2753,132.7879 c 0.57411,0.0601 0.79025,1.00425 0.75846,2.93731 -0.0761,4.62285 -1.13117,5.32045 -3.15711,2.08655 -0.72401,-1.1553 -0.29305,-3.04443 0.95562,-4.19897 0.62538,-0.57799 1.09857,-0.86092 1.44303,-0.82489 z m 52.49708,1.00684 c 0.67314,0.064 1.36751,0.96908 2.36923,2.82086 1.93649,3.57998 1.6921,4.11353 -1.861,4.0632 -4.43426,-0.0628 -4.98438,-1.46957 -2.17413,-5.55643 0.63139,-0.91824 1.14234,-1.37742 1.6659,-1.32763 z m -24.45334,1.78492 c 0.49772,0.0633 0.88904,0.89384 1.31809,2.56337 0.59503,2.31503 -0.13721,4.27838 -1.81203,4.86353 -3.11624,1.08807 -3.62174,-2.29942 -0.92733,-6.21439 0.58284,-0.84651 1.03415,-1.26175 1.42127,-1.21251 z m -12.35535,-0.12498 c 0.4976,-0.0451 1.23893,0.98555 2.62193,2.92997 2.31864,3.25985 2.41517,4.49214 0.44114,5.61567 -1.97469,1.12389 -1.93177,1.67491 0.19431,2.51589 1.49753,0.59223 1.81861,1.06366 0.71331,1.048 -4.76584,-0.0675 -6.23228,-2.16003 -5.30706,-7.57543 0.52117,-3.04997 0.77246,-4.48301 1.33637,-4.5341 z m 319.32071,5.43339 c 9.43957,0.14356 11.35742,0.83739 11.33176,2.39621 -0.0387,2.34952 -5.03169,3.02746 -27.51322,3.73578 -15.10625,0.47586 -37.79489,0.71908 -50.4188,0.54028 l -22.9528,-0.3251 0.84235,26.34335 c 0.46232,14.48919 1.20863,28.19869 1.65637,30.46511 0.47168,2.38672 -0.36292,4.53148 -1.9824,5.0972 -2.2656,0.79153 -2.98374,-4.45363 -3.77961,-27.64043 -1.12165,-32.65503 0.64511,-30.15024 -22.07142,-31.29715 -9.9326,-0.50144 -12.52697,-1.2664 -12.50073,-3.68892 0.0357,-3.25724 3.40399,-3.43736 101.06983,-5.35939 12.28361,-0.24174 20.65494,-0.35309 26.31867,-0.26694 z m -153.40955,-2.00314 c 2.00318,0.0283 4.00513,0.16591 5.52119,0.40676 3.03194,0.48172 0.53879,0.80509 -5.53971,0.719 -6.07947,-0.0861 -8.55883,-0.4799 -5.5123,-0.87554 1.52328,-0.19781 3.52766,-0.2786 5.53082,-0.25022 z M 86.06707,137.88284 c 1.1706,0.0166 1.55372,0.8835 0.85482,1.92688 -0.70043,1.04335 -1.67121,1.8911 -2.15938,1.88418 -0.48815,-0.007 -0.87214,-0.87382 -0.85481,-1.92688 0.0174,-1.053 0.98877,-1.90077 2.15937,-1.88418 z m 156.61544,2.43911 c 1.63896,0.0232 3.27664,0.1609 4.51623,0.40666 2.47915,0.49153 0.43783,0.83631 -4.53553,0.76587 -4.97351,-0.0705 -7.00137,-0.47286 -4.50703,-0.89394 1.24709,-0.21055 2.88736,-0.3018 4.52633,-0.27859 z M 72.526928,138.21109 c 0.545723,0.0334 -0.612561,1.21311 -3.029179,3.0066 -5.859637,4.34866 -7.804072,4.92253 -7.760741,2.28899 0.01531,-0.93023 1.6197,-2.20121 3.564424,-2.82386 1.944887,-0.62261 4.900801,-1.65947 6.569586,-2.30477 0.312902,-0.12099 0.52998,-0.17466 0.65591,-0.16696 z m 18.199332,1.65251 c 0.4346,0.006 1.28815,1.3105 1.89888,2.89906 0.60911,1.58859 0.23357,2.87656 -0.83745,2.86139 -1.0697,-0.0152 -1.92487,-1.32062 -1.89887,-2.90015 0.026,-1.57948 0.40315,-2.86645 0.83744,-2.8603 z m 10.26181,0.14534 c 0.31591,0.005 1.07361,1.30752 1.68435,2.89602 0.66897,1.74174 -0.0373,2.87274 -1.77886,2.84807 -1.74164,-0.0247 -2.40997,-1.17516 -1.68435,-2.89712 0.6619,-1.57049 1.46213,-2.85145 1.77886,-2.84697 z m 107.24666,1.7377 c 1.82099,0.0308 3.56666,0.17139 4.79868,0.41611 l 2e-5,-9e-4 c 2.464,0.48956 -0.0409,0.81278 -5.56673,0.72188 -5.52527,-0.0927 -7.54187,-0.49353 -4.48012,-0.8903 1.53086,-0.19803 3.42717,-0.27725 5.24815,-0.2466 z m -34.74365,0.23573 c 1.91739,0.0361 3.70608,0.34142 5.13995,0.91269 l -1e-5,9e-4 c 3.76069,1.4983 2.50383,1.82547 -6.36547,1.65817 -9.99408,-0.18801 -10.44212,-0.36661 -4.68567,-1.86691 1.94772,-0.50776 3.9938,-0.74108 5.9112,-0.70504 z m 117.84368,1.67997 -1.42498,11.27264 c -0.78299,6.19978 -1.50624,16.21032 -1.60556,22.24631 -0.0784,4.76253 -0.21887,7.49232 -0.86741,9.24282 -0.005,0.0412 -0.002,0.0764 -0.008,0.11846 -0.16377,1.16148 -0.2074,3.19398 -1.01184,4.47995 0.42738,-0.0853 0.72123,-0.1129 0.78762,-0.0465 0.27951,0.28032 -0.007,2.87381 -0.63892,5.76138 l 10e-4,2e-5 c -1.14695,5.2444 -1.16551,5.2494 -17.48697,4.72746 -8.98635,-0.2874 -43.90191,-1.96521 -77.58921,-3.72959 -33.68745,-1.76423 -63.51523,-2.95763 -66.28382,-2.65233 -19.38711,2.13952 -37.57662,2.04733 -37.85822,-0.19134 -2.47835,-19.75412 -3.68987,-34.59284 -3.05461,-37.06587 -0.16291,-0.99094 0.51052,-2.10877 1.90941,-2.37185 0.30797,-0.50193 0.93917,-0.94877 1.92177,-1.19889 0.24488,-0.0996 0.51318,-0.18916 0.81578,-0.26153 l 2e-5,-9e-4 c 1.43869,-0.34407 2.53564,-0.64915 3.89506,-0.82607 0.0141,-0.028 0.0207,-0.057 0.0389,-0.0843 0.64351,-0.95878 1.97088,-1.25545 2.95068,-0.65883 0.97979,0.59662 9.7471,-0.0932 19.48303,-1.5333 19.44415,-2.87531 104.24588,-6.95214 148.15374,-7.12078 z m -142.70229,-1.06381 c 6.75016,0.0956 11.76497,0.64313 11.14479,1.21642 -2.14808,1.98526 -26.00513,2.46644 -24.68428,0.49788 0.69657,-1.03789 6.78934,-1.80991 13.53949,-1.7143 z M 17.109837,141.3449 c -0.210786,0.29292 -0.423267,0.58511 -0.601064,0.89556 -0.02684,0.0468 -0.0166,0.0859 0.008,0.12087 l 0.555315,-0.61009 c 0.0174,-0.14384 0.02604,-0.2723 0.03832,-0.40634 z m 415.493713,7.19048 c 1.72266,0.0244 2.5593,0.89881 1.85953,1.9422 -0.70026,1.04336 -2.12409,1.88469 -3.1641,1.86996 -1.04031,-0.0147 -1.87687,-0.88809 -1.85954,-1.94111 0.0174,-1.05304 1.44103,-1.89546 3.16411,-1.87105 z m -304.55086,-4.31247 c 2.21043,0.0313 4.01349,0.38635 4.00685,0.79002 -0.007,0.40372 -1.82798,1.15963 -4.04747,1.67902 -2.2195,0.51952 -4.02253,0.16337 -4.00683,-0.79111 0.0157,-0.95442 1.83702,-1.70925 4.04745,-1.67793 z m 200.94186,3.06694 c -1.63897,-0.0232 -3.27924,0.068 -4.52633,0.2786 -2.49417,0.42029 -0.4663,0.8224 4.50706,0.89283 4.9735,0.0705 7.01469,-0.27402 4.53549,-0.76476 -1.23958,-0.24576 -2.87725,-0.38346 -4.51622,-0.40667 z m 88.54176,1.30739 c 0.34582,-0.005 0.70543,-0.007 1.0762,0.0175 0.4239,0.0189 0.86227,0.0514 1.31057,0.0991 4.93405,0.52395 6.53339,1.62459 6.55105,4.52287 0.0171,2.10688 1.0903,3.64087 2.3842,3.40856 1.37581,-0.24723 1.82805,0.81886 1.09049,2.56993 -1.01721,2.41265 -1.58259,2.49196 -2.91849,0.41342 -1.33479,-2.07638 -1.71732,-2.01939 -1.9725,0.29083 -0.17301,1.57745 -0.22053,3.5162 -0.10371,4.30787 l 0.002,3e-5 c 0.1169,0.79167 -0.91528,1.40094 -2.29608,1.35569 -2.44444,-0.0805 -9.35541,-11.68695 -9.29096,-15.60428 0.0135,-0.82422 1.74619,-1.35069 4.16688,-1.38141 z m -25.25773,0.42773 0.55271,5.24953 c 0.30361,2.88696 0.23311,7.17168 -0.15668,9.5216 l -0.70939,4.27209 -3.31429,-4.60868 c -3.10884,-4.32308 -3.09912,-4.91295 0.15668,-9.52161 z m -346.631026,-4.90626 4.340169,4.26419 c 2.386936,2.34517 3.789325,4.77307 3.11607,5.3957 -2.363489,2.1841 -13.691755,2.84318 -13.658038,0.79441 0.01842,-1.11626 1.389795,-2.01041 3.047577,-1.98693 1.775012,0.0251 3.04297,-1.70683 3.084201,-4.21234 z m 361.600806,5.20866 c 2.7164,0.0873 2.22918,1.4135 -0.77165,5.06214 -3.40804,4.14393 -3.80276,4.12191 -6.6475,-0.37158 -2.05355,-3.24359 -1.64119,-3.7468 3.6092,-4.40509 1.64285,-0.206 2.90448,-0.31457 3.80995,-0.28547 z m 32.27533,0.47017 c 1.22886,0.0245 1.52292,1.79697 -0.15553,4.67703 -1.36806,2.34634 -1.24253,3.64168 0.4048,4.19104 l 10e-4,2e-5 c 1.36588,0.45552 1.5601,1.25657 0.45582,1.87444 -1.06079,0.59392 -3.08341,-0.14831 -4.49579,-1.64879 -2.10852,-2.24072 -2.05759,-3.39854 0.28611,-6.48443 1.38385,-1.82421 2.66263,-2.62607 3.50343,-2.60931 z m -90.58085,-0.53229 c 3.15096,0.0446 4.27562,3.44574 2.83632,8.57073 -1.98493,7.06435 -4.96587,5.89638 -4.83763,-1.89627 0.0606,-3.68562 0.96132,-6.68918 2.00131,-6.67446 z m 35.34718,0.50066 c 1.62366,0.023 2.94412,0.45227 2.93587,0.95327 l 0.001,2e-5 c -0.008,0.50107 -1.86643,3.70646 -4.12886,7.12301 l -4.11502,6.21152 0.0803,-5.37764 c 0.0547,-3.61993 0.84144,-4.91495 2.40813,-3.96081 1.56423,0.95322 1.92611,0.36729 1.09769,-1.78716 -0.80364,-2.09218 -0.2063,-3.18951 1.72073,-3.16221 z m -23.17206,-0.32709 c 3.11721,0.0441 3.91674,6.34567 1.72811,13.6346 l 10e-4,2e-5 c -1.22598,4.08294 -2.86967,7.29749 -3.65425,7.14279 -0.78392,-0.15452 -3.45387,-0.6837 -5.93304,-1.17524 -5.23145,-1.03721 -5.44243,-2.15041 -1.34823,-7.1451 3.22662,-3.93639 3.34226,-3.90364 6.60411,1.86905 2.70201,4.78274 3.12762,0.1961 0.44198,-4.7687 -1.99465,-3.68761 -0.65892,-9.59736 2.16015,-9.55742 z m 10.04727,0.1423 c 2.63813,0.0374 3.50475,0.97761 2.68909,2.91025 -0.66206,1.57059 -1.91501,2.84504 -2.7836,2.83274 -0.86872,-0.0123 -2.07833,-1.32168 -2.68907,-2.91025 -0.75084,-1.95491 0.14898,-2.87006 2.78358,-2.83274 z m 53.79477,1.31787 c -0.52099,-0.008 -1.52354,0.77586 -2.66236,2.16538 -1.65631,2.02109 -2.99524,4.58773 -2.98091,5.70319 0.0167,1.11553 1.38549,0.3746 3.04198,-1.64649 1.65631,-2.02109 2.99523,-4.58762 2.9809,-5.70319 -0.006,-0.34861 -0.14278,-0.51529 -0.37961,-0.51889 z m -120.1248,1.33285 6.40305,0.68907 c 8.27783,0.89122 14.9718,10.82969 11.41022,16.94089 -1.2486,2.1424 -2.91671,3.86957 -3.70657,3.8369 -0.78967,-0.0319 -4.28665,-4.87451 -7.77113,-10.76209 z m 91.4802,2.10405 c 0.34089,0.0107 0.99337,0.82308 2.09969,2.31223 1.49747,2.01582 2.71251,4.26629 2.70041,5.00143 -0.0122,0.7351 -1.91529,3.34374 -4.229,5.79758 -3.5873,3.80371 -3.90411,3.88519 -2.1538,0.54827 1.12955,-2.15262 1.80749,-6.41122 1.50662,-9.46332 -0.28574,-2.89886 -0.36049,-4.2099 0.0761,-4.19619 z m -19.87145,-0.23144 c 0.43132,-0.0273 0.421,1.1199 0.0706,3.6184 l 0.001,1e-5 c -0.39964,2.85104 -1.37418,5.78137 -2.16517,6.51222 -2.2288,2.05911 -1.5159,-5.65265 0.81762,-8.85296 0.59954,-0.82251 1.01697,-1.26129 1.27575,-1.27767 z m 33.85768,1.01373 c 0.77874,0.1343 0.92061,2.07565 0.84738,5.65733 -0.11099,5.41337 -0.67296,6.75485 -1.97854,4.71975 -1.00275,-1.56289 -2.46268,-2.25174 -3.24536,-1.52884 -0.78252,0.72293 -0.29921,2.64424 1.07191,4.26903 2.12974,2.52288 1.70002,2.94303 -2.94027,2.8773 l -5.4328,-0.077 4.62242,-7.11603 c 4.00042,-6.15887 6.05403,-8.97426 7.05526,-8.80159 z M 63.621429,151.13373 c 1.65874,-0.0344 4.358561,0.79233 5.99955,1.83656 3.636055,2.31376 0.46335,2.26882 -5.02364,-0.0712 -2.631432,-1.12244 -2.964452,-1.72494 -0.97591,-1.76541 z m 239.108651,4.38867 5.87933,9.14255 c 3.23376,5.02833 5.87274,9.5423 5.86468,10.03227 -0.008,0.48996 -2.72728,0.8524 -6.04301,0.80544 -5.93036,-0.084 -6.02556,-0.25659 -5.86467,-10.03337 z m 32.11443,2.69492 -0.098,5.95618 10e-4,2e-5 c -0.0539,3.27578 -0.32405,5.89217 -0.59874,5.81418 -6.73472,-1.90783 -7.15446,-2.85391 -3.23593,-7.30457 z m 79.08243,2.20696 c 0.18242,0.029 0.39627,0.32595 0.62658,0.90208 l 0.003,5e-5 c 0.55349,1.39028 0.4537,3.04079 -0.22451,3.66752 -0.67824,0.62677 -1.12752,-0.51034 -1.01263,-2.52748 0.0831,-1.39313 0.30298,-2.09042 0.60704,-2.04217 z M 77.072017,155.8196 c 1.329503,0.0189 2.094783,0.0429 1.976003,0.066 -0.23756,0.0466 -2.723193,1.92946 -5.524026,4.18431 -4.530081,3.64711 -5.517782,3.79141 -8.947763,1.30934 -2.120535,-1.5346 -2.724309,-2.77367 -1.343099,-2.75411 1.381202,0.0196 2.106967,-0.61731 1.61222,-1.41433 -0.494591,-0.79696 2.596464,-1.43971 6.868278,-1.4291 2.135904,0.005 4.028885,0.019 5.358387,0.0378 z m -79.90501,1.81763 c -0.276458,0.0141 -0.350772,0.20556 -0.348873,0.46395 0.139372,-0.0799 0.288342,-0.13995 0.44501,-0.17755 -0.0045,-0.0916 -0.0045,-0.18732 -0.0091,-0.27865 -0.02752,-0.002 -0.0622,-0.009 -0.08665,-0.008 z m 80.890943,1.40574 c 1.05651,0.0485 1.48183,1.87708 1.42128,5.55665 -0.0998,6.06228 -2.260877,7.3061 -5.671911,3.26617 -1.437772,-1.70381 -1.267069,-3.41564 0.572843,-5.7373 1.652017,-2.08411 2.856052,-3.12326 3.677788,-3.08552 z m 307.00103,4.42335 c 0.73035,0.0461 1.31295,0.63414 2.05093,1.7839 0.97904,1.52608 1.7864,3.42074 1.78702,4.21062 0.005,0.79004 -2.25372,1.40524 -5.0168,1.36611 -5.74657,-0.0814 -6.41554,-2.32275 -1.75934,-5.89218 1.32956,-1.01915 2.20785,-1.51457 2.93819,-1.46845 z m 48.93873,1.25236 c 0.59403,0.0507 0.44582,0.77821 -0.19376,2.29716 -0.91441,2.16835 -0.58223,2.77291 1.02008,1.86068 1.42341,-0.81085 2.35376,-0.15811 2.32429,1.63328 -0.0314,1.90755 -1.86251,2.96002 -5.07277,2.91456 -6.09221,-0.0863 -6.66459,-4.82798 -0.92363,-7.65043 1.47368,-0.72464 2.38378,-1.09469 2.84579,-1.05525 z m -63.23442,2.09185 c 1.03998,0.0147 2.43597,0.89597 3.10109,1.9587 0.66577,1.06268 -0.19947,1.91304 -1.92256,1.88863 -1.72212,-0.0244 -3.11841,-0.90676 -3.10108,-1.9598 0.0174,-1.05302 0.88256,-1.90226 1.92255,-1.88753 z M 51.055002,163.12432 c -1.047067,0.0401 -3.234449,4.3429 -5.049142,10.03001 -1.935657,6.06619 -4.007414,11.8843 -4.604327,12.92913 -0.722548,1.26651 -0.356709,1.2717 1.098508,0.0155 3.484892,-3.00786 10.645336,-21.7704 8.7488,-22.92518 -0.05919,-0.036 -0.124032,-0.0522 -0.193839,-0.0495 z m 12.273869,0.30113 c 0.318642,0.0207 0.680573,0.11219 1.090831,0.26894 1.647496,0.62885 2.985133,1.80805 2.971781,2.61943 -0.01333,0.81149 -1.398335,2.529 -3.077685,3.81642 -2.580392,1.97826 -3.040777,1.57315 -2.971782,-2.61943 0.04844,-2.94363 0.606055,-4.17551 1.986855,-4.08536 z m 67.946519,1.87625 c -0.19484,0.0248 -0.3889,0.0577 -0.5831,0.0886 0.0457,0.002 0.0929,0.007 0.13824,0.008 0.0365,0.008 0.10712,0.0238 0.14839,0.0326 0.0674,-0.0291 0.13831,-0.0604 0.29647,-0.12963 z m 290.93431,4.15225 c 1.72264,0.0244 2.55931,0.89773 1.85954,1.94111 -0.69953,1.04337 -2.12497,1.88578 -3.1641,1.87106 -1.04033,-0.0148 -1.87686,-0.88915 -1.85954,-1.94221 0.0174,-1.05301 1.44102,-1.89436 3.1641,-1.86996 z m -425.171193,-5.7892 c -0.0133,0.28905 -0.01308,0.57732 0.04208,0.86116 0.02377,0.12373 0.177103,0.17131 0.31278,0.2329 -0.103824,-0.35725 -0.222261,-0.72366 -0.354889,-1.09406 z m 331.565863,7.33665 c 2.57875,0.0365 5.04846,1.14839 5.48722,2.47119 0.52632,1.58648 -1.36844,2.37408 -5.56597,2.31463 -4.19703,-0.0595 -6.06386,-0.90028 -5.48604,-2.47117 0.48136,-1.30972 2.98604,-2.35117 5.56479,-2.31465 z m 22.60434,0.479 c 1.93275,0.1152 11.77645,0.46991 21.87455,0.78853 l 18.36003,0.5799 -7.22521,4.52032 c -10.89519,6.81781 -21.35135,10.94432 -24.59304,9.70532 l 10e-6,-9e-4 c -1.59377,-0.60897 -5.47605,-0.44113 -8.62744,0.37171 l -5.72927,1.47788 1.21351,-8.82559 c 0.93906,-6.83187 2.00681,-8.77931 4.72686,-8.61699 z M 69.476948,169.06318 c 1.025954,0.0492 2.128713,0.56655 3.681705,1.52196 2.293544,1.41106 4.160657,3.12958 4.149317,3.81868 -0.01137,0.68914 -3.642983,1.53093 -8.070463,1.8701 -8.999324,0.6892 -9.792434,-0.27313 -4.12974,-5.00862 1.858031,-1.55377 3.050094,-2.26538 4.369181,-2.20212 z m 78.189622,1.37727 c 0.0439,0.0717 0.0794,0.14307 0.11258,0.21483 0.15321,0.02 0.32066,0.0393 0.47277,0.06 -0.20053,-0.0971 -0.38655,-0.17956 -0.58533,-0.27484 z m 296.6881,8.52461 c -0.0449,0.005 -0.0772,0.006 -0.12332,0.0113 -0.21566,0.023 -0.0925,0.094 0.12018,0.17904 z m -135.85062,0.36921 c 6.71033,0.0951 7.15878,1.32851 2.64546,7.27119 -3.5073,4.6178 -4.65884,4.9392 -8.68356,2.42823 -4.85042,-3.02706 -0.63777,-9.79396 6.0381,-9.69942 z m 17.90151,0.50922 c 0.77704,-0.002 1.6302,0.0419 2.52247,0.1369 5.46594,0.58291 6.53941,1.52412 6.8158,5.96381 l -10e-4,-2e-5 c 0.18104,2.89909 0.15751,5.16845 -0.0501,5.04298 -0.20809,-0.12524 -2.18039,-0.65598 -4.38271,-1.18048 -4.07296,-0.97008 -8.94892,-5.81823 -8.89905,-8.84806 0.0114,-0.689 1.66368,-1.1089 3.99481,-1.11513 z m -246.11937,-2.78425 -0.27909,9.05098 c -0.14887,4.97793 -0.82937,9.56469 -1.50925,10.19329 l 0.007,1e-4 c -0.680208,0.62858 -4.80125,1.54689 -9.156804,2.04075 -8.894682,1.00859 -10.502064,-0.86693 -10.318237,-12.03843 0.113732,-6.91137 1.688425,-7.88182 14.213544,-8.75568 z m 238.2819,4.67615 c 1.10423,0.0476 2.04975,1.56976 3.39009,4.49224 1.70453,3.7162 1.64559,4.81598 -0.25857,4.81048 l 2e-5,-9.1e-4 c -1.3581,-0.005 -4.64763,0.51374 -7.30933,1.15195 l -4.83869,1.16085 3.84514,-5.98796 c 2.46543,-3.83979 3.91988,-5.68033 5.17134,-5.62647 z m 12.8085,10.1415 c 0.55925,-0.0123 1.44327,0.34389 2.65004,1.0787 1.44431,0.87933 2.2432,3.21366 1.77797,5.18746 -0.76816,3.25386 -1.08103,3.16894 -3.35977,-0.91903 -1.95406,-3.50611 -2.29858,-5.32003 -1.06824,-5.34713 z m -29.56555,-0.17179 c 0.0817,-0.004 0.16609,-0.004 0.25441,0.004 0.32607,0.0246 0.6981,0.11972 1.1211,0.28134 2.48356,0.94908 2.57622,1.73619 0.4987,4.25656 -1.40152,1.70038 -2.8113,3.44655 -3.13035,3.88094 -0.31905,0.43433 -0.5432,-1.48039 -0.49753,-4.25545 0.0469,-2.84538 0.52933,-4.10852 1.75367,-4.16699 z m -47.17641,0.53941 c 0.51391,0.19641 0.99304,0.35081 1.42815,0.43583 -0.0802,-0.1179 -0.18792,-0.25271 -0.35075,-0.41948 l -0.78198,-0.0111 c -0.14707,-0.002 -0.17988,-0.005 -0.29542,-0.005 z m 66.44192,1.02593 c 4.62341,0.12974 5.90754,1.43534 9.12528,6.57312 2.36743,3.77896 3.97208,7.03628 3.56537,7.23852 -1.16177,0.57884 -18.14239,-0.74472 -25.18906,-1.96366 -6.32612,-1.09427 -6.35413,-1.15032 -3.15224,-6.26223 2.61826,-4.18009 4.86451,-5.2256 11.85135,-5.51989 1.48756,-0.0626 2.73237,-0.0958 3.7993,-0.0659 z M 239.0859,192.4203 c -0.002,0.004 -0.003,0.007 -0.005,0.0108 0.0275,0.002 0.0557,0.003 0.0831,0.005 -0.0265,-0.005 -0.0519,-0.01 -0.0784,-0.0153 z m 28.74661,2.33607 c -0.03,0.009 -0.0621,0.0143 -0.0919,0.0237 0.0514,0.0134 0.08,0.0266 0.12717,0.0399 -0.0122,-0.0215 -0.0235,-0.0423 -0.0354,-0.0636 z M 17.007151,198.4668 c -0.0011,0.0181 -0.0034,0.0363 -0.0045,0.0543 0.03048,0.0226 0.05993,0.0438 0.08699,0.0611 -0.02729,-0.0386 -0.05527,-0.0768 -0.08256,-0.11541 z m 378.832889,52.02962 c -0.0448,0.0152 -0.0896,0.0307 -0.13444,0.0459 0.0584,0.0219 0.11859,0.0457 0.17712,0.0678 -0.015,-0.0378 -0.0278,-0.076 -0.0426,-0.11376 z m 33.54886,25.69581 c -0.0247,0.0254 -0.0447,0.0522 -0.0705,0.0773 -0.007,0.1647 -0.0141,0.32891 -0.0246,0.50119 -0.003,0.0485 -0.0102,0.0847 -0.0139,0.13145 0.0914,-0.0356 0.17882,-0.0714 0.26795,-0.10718 -0.0509,-0.20151 -0.10246,-0.40274 -0.15894,-0.60279 z m -2.88949,1.6432 c 0.005,0.0266 0.0102,0.0538 0.014,0.0785 0.0184,-0.006 0.0347,-0.0125 0.0531,-0.0189 -0.0227,-0.0208 -0.0442,-0.0385 -0.067,-0.0597 z m -251.27497,2.24299 c -0.55776,0.10572 -0.9878,0.18799 -1.59517,0.30705 0.67507,-0.0125 1.35164,-0.0817 2.03763,-0.25836 -0.14726,-0.0139 -0.29489,-0.0336 -0.44246,-0.0487 z" />
</svg>
